<svg width="347" height="86" viewBox="0 0 347 86" fill="none" xmlns="http://www.w3.org/2000/svg">
<g clip-path="url(#clip0_264_2777)">
<rect x="-13.2974" y="16.9965" width="97.8108" height="52.021" rx="11.2408" fill="white"/>
<rect x="-13.2974" y="16.9965" width="97.8108" height="52.021" rx="11.2408" stroke="#E1E1E6" stroke-width="0.977465"/>
<rect x="-4.01172" y="26.2832" width="33.4643" height="33.4491" rx="7.81972" fill="url(#paint0_linear_264_2777)"/>
<path fill-rule="evenodd" clip-rule="evenodd" d="M6.43732 45.8788C6.43732 47.1423 5.41764 48.1619 4.1542 48.1619C2.89077 48.1619 1.87109 47.1388 1.87109 45.8788C1.87109 44.6188 2.89077 43.5957 4.1542 43.5957H6.43732V45.8788ZM7.57716 45.8788C7.57716 44.6154 8.59683 43.5957 9.86027 43.5957C11.1237 43.5957 12.1434 44.6154 12.1434 45.8788V51.5849C12.1434 52.8483 11.1237 53.868 9.86027 53.868C8.59683 53.868 7.57716 52.8483 7.57716 51.5849V45.8788Z" fill="#E01E5A"/>
<path fill-rule="evenodd" clip-rule="evenodd" d="M9.85985 36.7147C8.59642 36.7147 7.57674 35.695 7.57674 34.4315C7.57674 33.1681 8.59642 32.1484 9.85985 32.1484C11.1233 32.1484 12.143 33.1681 12.143 34.4315V36.7147H9.85985ZM9.85985 37.8717C11.1233 37.8717 12.143 38.8913 12.143 40.1548C12.143 41.4182 11.1233 42.4379 9.85985 42.4379H4.13663C2.87319 42.4379 1.85352 41.4148 1.85352 40.1548C1.85352 38.8948 2.87319 37.8717 4.13663 37.8717H9.85985Z" fill="#36C5F0"/>
<path fill-rule="evenodd" clip-rule="evenodd" d="M19.0049 40.1548C19.0049 38.8913 20.0246 37.8717 21.288 37.8717C22.5514 37.8717 23.5711 38.8913 23.5711 40.1548C23.5711 41.4182 22.5514 42.4379 21.288 42.4379H19.0049V40.1548ZM17.8651 40.1548C17.8651 41.4182 16.8454 42.4379 15.5819 42.4379C14.3185 42.4379 13.2988 41.4182 13.2988 40.1548V34.4315C13.2988 33.1681 14.3185 32.1484 15.5819 32.1484C16.8454 32.1484 17.8651 33.1681 17.8651 34.4315V40.1548Z" fill="#2EB67D"/>
<path fill-rule="evenodd" clip-rule="evenodd" d="M15.5819 49.3018C16.8454 49.3018 17.8651 50.3214 17.8651 51.5849C17.8651 52.8483 16.8454 53.868 15.5819 53.868C14.3185 53.868 13.2988 52.8483 13.2988 51.5849V49.3018H15.5819ZM15.5819 48.1619C14.3185 48.1619 13.2988 47.1423 13.2988 45.8788C13.2988 44.6154 14.3185 43.5957 15.5819 43.5957H21.3052C22.5686 43.5957 23.5883 44.6154 23.5883 45.8788C23.5883 47.1423 22.5686 48.1619 21.3052 48.1619H15.5819Z" fill="#ECB22E"/>
<path d="M43.7845 48.7178C43.0705 48.7178 42.4265 48.5965 41.8525 48.3538C41.2832 48.1111 40.8119 47.7658 40.4385 47.3178C40.0699 46.8651 39.8295 46.3308 39.7175 45.7148L41.0055 45.5118C41.1689 46.1465 41.5072 46.6435 42.0205 47.0028C42.5385 47.3575 43.1475 47.5348 43.8475 47.5348C44.3002 47.5348 44.7085 47.4648 45.0725 47.3248C45.4412 47.1801 45.7329 46.9748 45.9475 46.7088C46.1622 46.4428 46.2695 46.1278 46.2695 45.7638C46.2695 45.5398 46.2299 45.3485 46.1505 45.1898C46.0759 45.0265 45.9709 44.8888 45.8355 44.7768C45.7049 44.6601 45.5555 44.5621 45.3875 44.4828C45.2195 44.4035 45.0445 44.3381 44.8625 44.2868L42.2935 43.5238C42.0135 43.4398 41.7429 43.3348 41.4815 43.2088C41.2202 43.0781 40.9869 42.9171 40.7815 42.7258C40.5762 42.5298 40.4129 42.2965 40.2915 42.0258C40.1702 41.7505 40.1095 41.4261 40.1095 41.0528C40.1095 40.4555 40.2635 39.9468 40.5715 39.5268C40.8842 39.1021 41.3065 38.7778 41.8385 38.5538C42.3705 38.3298 42.9702 38.2201 43.6375 38.2248C44.3142 38.2295 44.9185 38.3508 45.4505 38.5888C45.9872 38.8221 46.4305 39.1581 46.7805 39.5968C47.1352 40.0355 47.3732 40.5605 47.4945 41.1718L46.1715 41.4028C46.1015 40.9921 45.9452 40.6398 45.7025 40.3458C45.4645 40.0471 45.1659 39.8185 44.8065 39.6598C44.4472 39.4965 44.0529 39.4125 43.6235 39.4078C43.2129 39.4031 42.8419 39.4685 42.5105 39.6038C42.1792 39.7391 41.9155 39.9281 41.7195 40.1708C41.5235 40.4088 41.4255 40.6841 41.4255 40.9968C41.4255 41.3048 41.5142 41.5545 41.6915 41.7458C41.8689 41.9325 42.0859 42.0818 42.3425 42.1938C42.6039 42.3011 42.8582 42.3898 43.1055 42.4598L45.0235 43.0128C45.2429 43.0735 45.4949 43.1575 45.7795 43.2648C46.0689 43.3721 46.3489 43.5238 46.6195 43.7198C46.8902 43.9111 47.1142 44.1678 47.2915 44.4898C47.4689 44.8071 47.5575 45.2085 47.5575 45.6938C47.5575 46.1791 47.4595 46.6108 47.2635 46.9888C47.0722 47.3668 46.8039 47.6841 46.4585 47.9408C46.1132 48.1928 45.7119 48.3841 45.2545 48.5148C44.7972 48.6501 44.3072 48.7178 43.7845 48.7178ZM49.3059 48.5078V38.2178H50.5519V48.5078H49.3059ZM54.9412 48.7178C54.3766 48.7178 53.9029 48.6151 53.5202 48.4098C53.1422 48.1998 52.8552 47.9245 52.6592 47.5838C52.4679 47.2431 52.3722 46.8698 52.3722 46.4638C52.3722 46.0671 52.4469 45.7241 52.5962 45.4348C52.7502 45.1408 52.9649 44.8981 53.2402 44.7068C53.5156 44.5108 53.8446 44.3568 54.2272 44.2448C54.5866 44.1468 54.9879 44.0628 55.4312 43.9928C55.8792 43.9181 56.3319 43.8505 56.7892 43.7898C57.2466 43.7291 57.6736 43.6708 58.0702 43.6148L57.6222 43.8738C57.6362 43.2018 57.5009 42.7048 57.2162 42.3828C56.9362 42.0608 56.4509 41.8998 55.7602 41.8998C55.3029 41.8998 54.9016 42.0048 54.5562 42.2148C54.2156 42.4201 53.9752 42.7561 53.8352 43.2228L52.6522 42.8658C52.8342 42.2031 53.1866 41.6828 53.7092 41.3048C54.2319 40.9268 54.9202 40.7378 55.7742 40.7378C56.4602 40.7378 57.0482 40.8615 57.5382 41.1088C58.0329 41.3515 58.3876 41.7201 58.6022 42.2148C58.7096 42.4481 58.7772 42.7025 58.8052 42.9778C58.8332 43.2485 58.8472 43.5331 58.8472 43.8318V48.5078H57.7412V46.6948L58.0002 46.8628C57.7156 47.4741 57.3166 47.9361 56.8032 48.2488C56.2946 48.5615 55.6739 48.7178 54.9412 48.7178ZM55.1302 47.6748C55.5782 47.6748 55.9656 47.5955 56.2922 47.4368C56.6236 47.2735 56.8896 47.0611 57.0902 46.7998C57.2909 46.5338 57.4216 46.2445 57.4822 45.9318C57.5522 45.6985 57.5896 45.4395 57.5942 45.1548C57.6036 44.8655 57.6082 44.6438 57.6082 44.4898L58.0422 44.6788C57.6362 44.7348 57.2372 44.7885 56.8452 44.8398C56.4532 44.8911 56.0822 44.9471 55.7322 45.0078C55.3822 45.0638 55.0672 45.1315 54.7872 45.2108C54.5819 45.2761 54.3882 45.3601 54.2062 45.4628C54.0289 45.5655 53.8842 45.6985 53.7722 45.8618C53.6649 46.0205 53.6112 46.2188 53.6112 46.4568C53.6112 46.6621 53.6626 46.8581 53.7652 47.0448C53.8726 47.2315 54.0359 47.3831 54.2552 47.4998C54.4792 47.6165 54.7709 47.6748 55.1302 47.6748ZM63.9922 48.7178C63.2269 48.7178 62.5759 48.5475 62.0392 48.2068C61.5072 47.8615 61.1012 47.3878 60.8212 46.7858C60.5412 46.1838 60.3966 45.4978 60.3872 44.7278C60.3966 43.9391 60.5436 43.2461 60.8282 42.6488C61.1176 42.0468 61.5306 41.5778 62.0672 41.2418C62.6039 40.9058 63.2502 40.7378 64.0062 40.7378C64.8042 40.7378 65.4902 40.9338 66.0642 41.3258C66.6429 41.7178 67.0302 42.2545 67.2262 42.9358L65.9942 43.3068C65.8356 42.8681 65.5766 42.5275 65.2172 42.2848C64.8626 42.0421 64.4542 41.9208 63.9922 41.9208C63.4742 41.9208 63.0472 42.0421 62.7112 42.2848C62.3752 42.5228 62.1256 42.8541 61.9622 43.2788C61.7989 43.6988 61.7149 44.1818 61.7102 44.7278C61.7196 45.5678 61.9132 46.2468 62.2912 46.7648C62.6739 47.2781 63.2409 47.5348 63.9922 47.5348C64.4869 47.5348 64.8976 47.4228 65.2242 47.1988C65.5509 46.9701 65.7982 46.6411 65.9662 46.2118L67.2262 46.5408C66.9649 47.2455 66.5566 47.7845 66.0012 48.1578C65.4459 48.5311 64.7762 48.7178 63.9922 48.7178ZM68.7879 48.5078L68.7949 38.4278H70.0549V44.5878L73.2259 40.9478H74.8429L71.5039 44.7278L75.2349 48.5078H73.4919L70.0549 44.8678V48.5078H68.7879Z" fill="#4D4D55"/>
<rect x="97.2212" y="16.8579" width="102.076" height="52.3014" rx="11.2408" fill="white"/>
<rect x="97.2212" y="16.8579" width="102.076" height="52.3014" rx="11.2408" stroke="#E1E1E6" stroke-width="0.977465"/>
<rect x="106.507" y="26.1445" width="33.7296" height="33.7296" rx="7.81972" fill="url(#paint1_linear_264_2777)"/>
<path d="M120.593 51.5036C122.168 51.5036 123.447 50.2247 123.447 48.6493V45.7949H120.593C119.017 45.7949 117.738 47.0738 117.738 48.6493C117.738 50.2247 119.017 51.5036 120.593 51.5036Z" fill="#0ACF83"/>
<path d="M117.732 42.9344C117.732 41.359 119.011 40.0801 120.587 40.0801H123.441V45.7918H120.587C119.011 45.7918 117.732 44.5129 117.732 42.9374V42.9344Z" fill="#A259FF"/>
<path d="M117.732 37.2235C117.732 35.6481 119.011 34.3691 120.587 34.3691H123.441V40.0809H120.587C119.011 40.0809 117.732 38.8019 117.732 37.2265V37.2235Z" fill="#F24E1E"/>
<path d="M123.42 34.3691H126.274C127.85 34.3691 129.129 35.6481 129.129 37.2235C129.129 38.7989 127.85 40.0779 126.274 40.0779H123.42V34.3691Z" fill="#FF7262"/>
<path d="M129.159 42.9344C129.159 44.5099 127.88 45.7888 126.304 45.7888C124.729 45.7888 123.42 44.5099 123.42 42.9344C123.42 41.359 124.699 40.0801 126.274 40.0801C127.85 40.0801 129.129 41.359 129.129 42.9344H129.159Z" fill="#1ABCFE"/>
<path d="M150.992 48.5078V38.4278H156.872V39.6738H152.238V42.8448H156.032V44.0908H152.238V48.5078H150.992ZM158.408 39.6108V38.3228H159.654V39.6108H158.408ZM158.408 48.5078V40.9478H159.654V48.5078H158.408ZM164.954 52.0778C164.557 52.0778 164.17 52.0171 163.792 51.8958C163.414 51.7745 163.066 51.5901 162.749 51.3428C162.436 51.1001 162.175 50.7921 161.965 50.4188L163.106 49.8168C163.292 50.1855 163.556 50.4538 163.897 50.6218C164.242 50.7898 164.597 50.8738 164.961 50.8738C165.441 50.8738 165.84 50.7851 166.158 50.6078C166.475 50.4351 166.708 50.1761 166.858 49.8308C167.012 49.4855 167.086 49.0561 167.082 48.5428V46.4778H167.229V40.9478H168.335V48.5568C168.335 48.7621 168.328 48.9605 168.314 49.1518C168.304 49.3431 168.281 49.5321 168.244 49.7188C168.146 50.2555 167.952 50.6965 167.663 51.0418C167.373 51.3918 167 51.6508 166.543 51.8188C166.085 51.9915 165.556 52.0778 164.954 52.0778ZM164.863 48.7178C164.158 48.7178 163.554 48.5428 163.05 48.1928C162.546 47.8381 162.156 47.3598 161.881 46.7578C161.61 46.1558 161.475 45.4768 161.475 44.7208C161.475 43.9648 161.61 43.2858 161.881 42.6838C162.156 42.0818 162.546 41.6081 163.05 41.2628C163.554 40.9128 164.156 40.7378 164.856 40.7378C165.57 40.7378 166.169 40.9105 166.655 41.2558C167.14 41.6011 167.506 42.0748 167.754 42.6768C168.006 43.2788 168.132 43.9601 168.132 44.7208C168.132 45.4721 168.006 46.1511 167.754 46.7578C167.506 47.3598 167.14 47.8381 166.655 48.1928C166.169 48.5428 165.572 48.7178 164.863 48.7178ZM165.017 47.5768C165.525 47.5768 165.943 47.4555 166.27 47.2128C166.596 46.9655 166.837 46.6271 166.991 46.1978C167.149 45.7638 167.229 45.2715 167.229 44.7208C167.229 44.1608 167.149 43.6685 166.991 43.2438C166.837 42.8145 166.599 42.4808 166.277 42.2428C165.955 42.0001 165.546 41.8788 165.052 41.8788C164.538 41.8788 164.114 42.0048 163.778 42.2568C163.446 42.5088 163.199 42.8495 163.036 43.2788C162.877 43.7081 162.798 44.1888 162.798 44.7208C162.798 45.2575 162.879 45.7428 163.043 46.1768C163.206 46.6061 163.451 46.9468 163.778 47.1988C164.109 47.4508 164.522 47.5768 165.017 47.5768ZM179.466 48.5078L179.473 43.6708C179.473 43.1061 179.322 42.6651 179.018 42.3478C178.72 42.0258 178.33 41.8648 177.849 41.8648C177.569 41.8648 177.303 41.9301 177.051 42.0608C176.799 42.1868 176.594 42.3875 176.435 42.6628C176.277 42.9335 176.197 43.2811 176.197 43.7058L175.539 43.4398C175.53 42.9031 175.64 42.4341 175.868 42.0328C176.102 41.6268 176.419 41.3118 176.82 41.0878C177.222 40.8638 177.674 40.7518 178.178 40.7518C178.967 40.7518 179.588 40.9921 180.04 41.4728C180.493 41.9488 180.719 42.5905 180.719 43.3978L180.712 48.5078H179.466ZM170.422 48.5078V40.9478H171.535V42.9708H171.675V48.5078H170.422ZM174.951 48.5078L174.958 43.7198C174.958 43.1411 174.809 42.6885 174.51 42.3618C174.212 42.0305 173.815 41.8648 173.32 41.8648C172.83 41.8648 172.434 42.0328 172.13 42.3688C171.827 42.7048 171.675 43.1505 171.675 43.7058L171.017 43.3138C171.017 42.8238 171.134 42.3851 171.367 41.9978C171.601 41.6105 171.918 41.3071 172.319 41.0878C172.721 40.8638 173.176 40.7518 173.684 40.7518C174.193 40.7518 174.636 40.8591 175.014 41.0738C175.392 41.2885 175.684 41.5965 175.889 41.9978C176.095 42.3945 176.197 42.8681 176.197 43.4188L176.19 48.5078H174.951ZM184.832 48.7178C184.267 48.7178 183.793 48.6151 183.411 48.4098C183.033 48.1998 182.746 47.9245 182.55 47.5838C182.358 47.2431 182.263 46.8698 182.263 46.4638C182.263 46.0671 182.337 45.7241 182.487 45.4348C182.641 45.1408 182.855 44.8981 183.131 44.7068C183.406 44.5108 183.735 44.3568 184.118 44.2448C184.477 44.1468 184.878 44.0628 185.322 43.9928C185.77 43.9181 186.222 43.8505 186.68 43.7898C187.137 43.7291 187.564 43.6708 187.961 43.6148L187.513 43.8738C187.527 43.2018 187.391 42.7048 187.107 42.3828C186.827 42.0608 186.341 41.8998 185.651 41.8998C185.193 41.8998 184.792 42.0048 184.447 42.2148C184.106 42.4201 183.866 42.7561 183.726 43.2228L182.543 42.8658C182.725 42.2031 183.077 41.6828 183.6 41.3048C184.122 40.9268 184.811 40.7378 185.665 40.7378C186.351 40.7378 186.939 40.8615 187.429 41.1088C187.923 41.3515 188.278 41.7201 188.493 42.2148C188.6 42.4481 188.668 42.7025 188.696 42.9778C188.724 43.2485 188.738 43.5331 188.738 43.8318V48.5078H187.632V46.6948L187.891 46.8628C187.606 47.4741 187.207 47.9361 186.694 48.2488C186.185 48.5615 185.564 48.7178 184.832 48.7178ZM185.021 47.6748C185.469 47.6748 185.856 47.5955 186.183 47.4368C186.514 47.2735 186.78 47.0611 186.981 46.7998C187.181 46.5338 187.312 46.2445 187.373 45.9318C187.443 45.6985 187.48 45.4395 187.485 45.1548C187.494 44.8655 187.499 44.6438 187.499 44.4898L187.933 44.6788C187.527 44.7348 187.128 44.7885 186.736 44.8398C186.344 44.8911 185.973 44.9471 185.623 45.0078C185.273 45.0638 184.958 45.1315 184.678 45.2108C184.472 45.2761 184.279 45.3601 184.097 45.4628C183.919 45.5655 183.775 45.6985 183.663 45.8618C183.555 46.0205 183.502 46.2188 183.502 46.4568C183.502 46.6621 183.553 46.8581 183.656 47.0448C183.763 47.2315 183.926 47.3831 184.146 47.4998C184.37 47.6165 184.661 47.6748 185.021 47.6748Z" fill="#4D4D55"/>
<rect x="212.004" y="16.1528" width="110.076" height="53.709" rx="11.2408" fill="white"/>
<rect x="212.004" y="16.1528" width="110.076" height="53.709" rx="11.2408" stroke="#E1E1E6" stroke-width="0.977465"/>
<rect x="221.29" y="25.4395" width="35.7296" height="35.1371" rx="7.81972" fill="url(#paint2_linear_264_2777)"/>
<path d="M239.155 31.3047C232.529 31.3047 227.155 36.6772 227.155 43.3047C227.155 48.6068 230.594 53.1049 235.362 54.6916C235.961 54.8027 236.182 54.4313 236.182 54.1143C236.182 53.8282 236.17 52.8828 236.165 51.8801C232.827 52.6061 232.122 50.4643 232.122 50.4643C231.576 49.0772 230.79 48.7085 230.79 48.7085C229.701 47.9637 230.872 47.9789 230.872 47.9789C232.077 48.0636 232.712 49.2156 232.712 49.2156C233.782 51.0502 235.519 50.5197 236.204 50.2132C236.311 49.4375 236.622 48.9082 236.965 48.6085C234.3 48.305 231.498 47.2761 231.498 42.678C231.498 41.368 231.967 40.2974 232.735 39.4571C232.61 39.1548 232.199 37.9343 232.851 36.2814C232.851 36.2814 233.859 35.9588 236.152 37.5114C237.109 37.2455 238.135 37.1122 239.155 37.1077C240.175 37.1122 241.202 37.2455 242.162 37.5114C244.452 35.9588 245.458 36.2814 245.458 36.2814C246.111 37.9343 245.701 39.1548 245.576 39.4571C246.345 40.2974 246.811 41.3679 246.811 42.678C246.811 47.287 244.004 48.3019 241.332 48.5989C241.762 48.9714 242.145 49.7017 242.145 50.8212C242.145 52.4268 242.131 53.719 242.131 54.1143C242.131 54.4337 242.347 54.8079 242.956 54.69C247.721 53.1015 251.155 48.605 251.155 43.3047C251.155 36.6772 245.783 31.3047 239.155 31.3047Z" fill="#161614"/>
<path d="M271.856 48.7178C271.165 48.7178 270.535 48.5965 269.966 48.3538C269.397 48.1111 268.907 47.7635 268.496 47.3108C268.085 46.8535 267.768 46.3028 267.544 45.6588C267.325 45.0101 267.215 44.2798 267.215 43.4678C267.215 42.3945 267.406 41.4658 267.789 40.6818C268.172 39.8978 268.711 39.2935 269.406 38.8688C270.101 38.4395 270.918 38.2248 271.856 38.2248C272.985 38.2248 273.895 38.4885 274.586 39.0158C275.277 39.5385 275.753 40.2548 276.014 41.1648L274.754 41.4238C274.544 40.8125 274.199 40.3248 273.718 39.9608C273.237 39.5968 272.638 39.4148 271.919 39.4148C271.168 39.4101 270.542 39.5781 270.043 39.9188C269.548 40.2548 269.175 40.7285 268.923 41.3398C268.671 41.9511 268.543 42.6605 268.538 43.4678C268.533 44.2705 268.657 44.9751 268.909 45.5818C269.161 46.1885 269.537 46.6645 270.036 47.0098C270.54 47.3505 271.168 47.5231 271.919 47.5278C272.568 47.5325 273.114 47.4088 273.557 47.1568C274 46.9048 274.343 46.5408 274.586 46.0648C274.829 45.5888 274.976 45.0171 275.027 44.3498H272.885V43.3208H276.343C276.357 43.4141 276.364 43.5261 276.364 43.6568C276.369 43.7828 276.371 43.8691 276.371 43.9158C276.371 44.8351 276.198 45.6588 275.853 46.3868C275.512 47.1101 275.006 47.6795 274.334 48.0948C273.667 48.5101 272.841 48.7178 271.856 48.7178ZM278.049 39.6108V38.3228H279.295V39.6108H278.049ZM278.049 48.5078V40.9478H279.295V48.5078H278.049ZM285.756 48.5078C285.308 48.5965 284.865 48.6315 284.426 48.6128C283.992 48.5988 283.605 48.5125 283.264 48.3538C282.924 48.1905 282.665 47.9385 282.487 47.5978C282.338 47.2991 282.256 46.9981 282.242 46.6948C282.233 46.3868 282.228 46.0391 282.228 45.6518V38.8478H283.474V45.5958C283.474 45.9038 283.477 46.1675 283.481 46.3868C283.491 46.6061 283.54 46.7951 283.628 46.9538C283.796 47.2525 284.062 47.4275 284.426 47.4788C284.795 47.5301 285.238 47.5161 285.756 47.4368V48.5078ZM280.695 41.9768V40.9478H285.756V41.9768H280.695ZM292.814 48.5078V44.7208C292.814 44.3615 292.782 44.0161 292.716 43.6848C292.656 43.3535 292.546 43.0571 292.387 42.7958C292.233 42.5298 292.023 42.3198 291.757 42.1658C291.496 42.0118 291.165 41.9348 290.763 41.9348C290.451 41.9348 290.166 41.9885 289.909 42.0958C289.657 42.1985 289.44 42.3571 289.258 42.5718C289.076 42.7865 288.934 43.0571 288.831 43.3838C288.733 43.7058 288.684 44.0861 288.684 44.5248L287.865 44.2728C287.865 43.5401 287.996 42.9125 288.257 42.3898C288.523 41.8625 288.894 41.4588 289.37 41.1788C289.851 40.8941 290.416 40.7518 291.064 40.7518C291.554 40.7518 291.972 40.8288 292.317 40.9828C292.663 41.1368 292.95 41.3421 293.178 41.5988C293.407 41.8508 293.587 42.1355 293.717 42.4528C293.848 42.7655 293.939 43.0851 293.99 43.4118C294.046 43.7338 294.074 44.0395 294.074 44.3288V48.5078H292.814ZM287.424 48.5078V38.4278H288.544V43.9928H288.684V48.5078H287.424ZM298.904 48.7038C298.419 48.7038 298.001 48.6268 297.651 48.4728C297.306 48.3188 297.019 48.1135 296.79 47.8568C296.561 47.6001 296.382 47.3155 296.251 47.0028C296.12 46.6901 296.027 46.3705 295.971 46.0438C295.92 45.7171 295.894 45.4115 295.894 45.1268V40.9478H297.154V44.7348C297.154 45.0895 297.187 45.4325 297.252 45.7638C297.317 46.0951 297.427 46.3938 297.581 46.6598C297.74 46.9258 297.95 47.1358 298.211 47.2898C298.477 47.4438 298.808 47.5208 299.205 47.5208C299.518 47.5208 299.802 47.4671 300.059 47.3598C300.316 47.2525 300.535 47.0938 300.717 46.8838C300.899 46.6691 301.039 46.3985 301.137 46.0718C301.235 45.7451 301.284 45.3648 301.284 44.9308L302.103 45.1828C302.103 45.9108 301.97 46.5385 301.704 47.0658C301.443 47.5931 301.072 47.9991 300.591 48.2838C300.115 48.5638 299.553 48.7038 298.904 48.7038ZM301.424 48.5078V46.4848H301.284V40.9478H302.537V48.5078H301.424ZM308.109 48.7178C307.4 48.7178 306.802 48.5428 306.317 48.1928C305.832 47.8381 305.463 47.3598 305.211 46.7578C304.964 46.1511 304.84 45.4721 304.84 44.7208C304.84 43.9601 304.964 43.2788 305.211 42.6768C305.463 42.0748 305.832 41.6011 306.317 41.2558C306.807 40.9105 307.407 40.7378 308.116 40.7378C308.816 40.7378 309.418 40.9128 309.922 41.2628C310.431 41.6081 310.82 42.0818 311.091 42.6838C311.362 43.2858 311.497 43.9648 311.497 44.7208C311.497 45.4768 311.362 46.1558 311.091 46.7578C310.82 47.3598 310.431 47.8381 309.922 48.1928C309.418 48.5428 308.814 48.7178 308.109 48.7178ZM304.63 48.5078V38.4278H305.883V42.9428H305.743V48.5078H304.63ZM307.955 47.5768C308.454 47.5768 308.867 47.4508 309.194 47.1988C309.521 46.9468 309.766 46.6061 309.929 46.1768C310.092 45.7428 310.174 45.2575 310.174 44.7208C310.174 44.1888 310.092 43.7081 309.929 43.2788C309.77 42.8495 309.523 42.5088 309.187 42.2568C308.856 42.0048 308.433 41.8788 307.92 41.8788C307.43 41.8788 307.024 42.0001 306.702 42.2428C306.38 42.4808 306.14 42.8145 305.981 43.2438C305.822 43.6685 305.743 44.1608 305.743 44.7208C305.743 45.2715 305.82 45.7638 305.974 46.1978C306.133 46.6271 306.375 46.9655 306.702 47.2128C307.029 47.4555 307.446 47.5768 307.955 47.5768Z" fill="#4D4D55"/>
<rect x="334.787" y="16.1528" width="110.076" height="53.709" rx="11.2408" fill="white"/>
<rect x="334.787" y="16.1528" width="110.076" height="53.709" rx="11.2408" stroke="#E1E1E6" stroke-width="0.977465"/>
<rect x="344.072" y="25.4395" width="35.7296" height="35.1371" rx="7.81972" fill="url(#paint3_linear_264_2777)"/>
</g>
<defs>
<linearGradient id="paint0_linear_264_2777" x1="23.7139" y1="9.00781" x2="12.7205" y2="59.7323" gradientUnits="userSpaceOnUse">
<stop stop-color="white"/>
<stop offset="1" stop-color="#DEDFF8"/>
</linearGradient>
<linearGradient id="paint1_linear_264_2777" x1="134.452" y1="8.7243" x2="123.362" y2="59.872" gradientUnits="userSpaceOnUse">
<stop stop-color="white"/>
<stop offset="1" stop-color="#DEDFF8"/>
</linearGradient>
<linearGradient id="paint2_linear_264_2777" x1="250.892" y1="7.29226" x2="239.514" y2="60.6532" gradientUnits="userSpaceOnUse">
<stop stop-color="white"/>
<stop offset="1" stop-color="#DEDFF8"/>
</linearGradient>
<linearGradient id="paint3_linear_264_2777" x1="373.675" y1="7.29226" x2="362.296" y2="60.6532" gradientUnits="userSpaceOnUse">
<stop stop-color="white"/>
<stop offset="1" stop-color="#DEDFF8"/>
</linearGradient>
<clipPath id="clip0_264_2777">
<rect width="347" height="85.0394" fill="white"/>
</clipPath>
</defs>
</svg>
