<svg width="48" height="48" viewBox="0 0 48 48" fill="none" xmlns="http://www.w3.org/2000/svg">
<circle cx="24" cy="24" r="23.625" fill="white" stroke="#E0DEF7" stroke-width="0.75"/>
<circle cx="24" cy="24" r="21" fill="#E0DEF7"/>
<path opacity="0.3" d="M21.6348 26.3296V33.3969C21.6348 34.3117 22.8009 34.6979 23.3469 33.964L31.0077 23.6681C31.6213 22.8434 31.0328 21.6719 30.0049 21.6719H26.3655L21.6348 26.3296Z" fill="#4338CA"/>
<path d="M26.3655 14.6042C26.3655 13.6894 25.1995 13.3032 24.6534 14.0371L16.9926 24.333C16.379 25.1577 16.9676 26.3292 17.9954 26.3292H21.6348L26.3655 21.6715V14.6042Z" fill="#4338CA"/>
<path d="M30 30H48V39C48 43.9706 43.9706 48 39 48C34.0294 48 30 43.9706 30 39V30Z" fill="#7065F0"/>
<path d="M42.2694 35.0853L39.5194 34.0553C39.2344 33.9503 38.7694 33.9503 38.4844 34.0553L35.7344 35.0853C35.2044 35.2853 34.7744 35.9053 34.7744 36.4703V40.5203C34.7744 40.9253 35.0394 41.4603 35.3644 41.7003L38.1144 43.7553C38.5994 44.1203 39.3944 44.1203 39.8794 43.7553L42.6294 41.7003C42.9544 41.4553 43.2194 40.9253 43.2194 40.5203V36.4703C43.2244 35.9053 42.7944 35.2853 42.2694 35.0853ZM39.3744 39.4353V40.7503C39.3744 40.9553 39.2044 41.1253 38.9994 41.1253C38.7944 41.1253 38.6244 40.9553 38.6244 40.7503V39.4353C38.1194 39.2753 37.7494 38.8053 37.7494 38.2503C37.7494 37.5603 38.3094 37.0003 38.9994 37.0003C39.6894 37.0003 40.2494 37.5603 40.2494 38.2503C40.2494 38.8103 39.8794 39.2753 39.3744 39.4353Z" fill="white"/>
</svg>
