<svg width="15" height="15" viewBox="0 0 15 15" fill="none" xmlns="http://www.w3.org/2000/svg">
<g clip-path="url(#clip0_161_520)">
<path d="M14.1299 5.34082C14.0241 5.02605 13.7516 4.79655 13.4236 4.74637L9.60556 4.16295L7.89061 0.509625C7.74436 0.198225 7.43184 0 7.08849 0C6.74491 0 6.43261 0.198225 6.28636 0.509625L4.57119 4.16318L0.753162 4.7466C0.425112 4.79677 0.152637 5.02605 0.0471123 5.34105C-0.0584127 5.65605 0.0212373 6.003 0.253212 6.24105L3.04141 9.10012L2.38104 13.1449C2.32659 13.4797 2.46856 13.8163 2.74554 14.0121C3.02229 14.2078 3.38769 14.2276 3.68536 14.0634L7.08871 12.1813L10.4921 14.0634C10.6264 14.1376 10.7742 14.1741 10.9214 14.1741C11.1005 14.1741 11.2796 14.1196 11.4319 14.0121C11.7089 13.8166 11.8506 13.48 11.7962 13.1449L11.1358 9.10012L13.9242 6.24105C14.1557 6.003 14.2354 5.65605 14.1299 5.34082Z" fill="#F45904"/>
</g>
<defs>
<clipPath id="clip0_161_520">
<rect width="14.4" height="14.4" fill="white"/>
</clipPath>
</defs>
</svg>
