<svg width="48" height="48" viewBox="0 0 48 48" fill="none" xmlns="http://www.w3.org/2000/svg">
<circle cx="24" cy="24" r="23.625" fill="white" stroke="#E0DEF7" stroke-width="0.75"/>
<circle cx="24" cy="24" r="21" fill="#E0DEF7"/>
<path opacity="0.3" d="M29.5742 15.2969C30.8517 15.1299 31.9051 16.1826 31.7383 17.46C31.494 19.3274 30.8238 22.5002 28.9277 24.5449C28.3247 25.1951 27.5948 25.7952 26.8457 26.3291L27.0645 27.8633C27.1261 28.2949 26.9801 28.7307 26.6719 29.0391L24.1533 31.5576C23.3461 32.3649 21.9632 31.9046 21.8018 30.7744L21.4668 28.4238L21.4707 28.4229C21.2554 28.3189 21.0547 28.1787 20.8809 28.0049L19.0293 26.1543C18.8552 25.9802 18.7153 25.7792 18.6113 25.5635V25.5684L16.2607 25.2324C15.1307 25.071 14.6696 23.6891 15.4766 22.8818L17.9961 20.3623C18.3043 20.0543 18.7395 19.9092 19.1709 19.9707L20.7051 20.1895C21.239 19.4402 21.8398 18.7106 22.4902 18.1074C24.5347 16.2116 27.7067 15.5412 29.5742 15.2969Z" fill="#4338CA"/>
<path d="M18.695 28.3415L16.4558 30.5807M17.0156 26.6621L15.896 27.7817M20.3744 30.0209L19.2548 31.1405" stroke="#4338CA" stroke-width="1.1875" stroke-linecap="round"/>
<path d="M24.8521 19.9438C24.2338 20.5621 24.2338 21.5646 24.8521 22.183C25.4704 22.8013 26.4729 22.8013 27.0913 22.183C27.7096 21.5646 27.7096 20.5621 27.0913 19.9438C26.4729 19.3255 25.4704 19.3255 24.8521 19.9438Z" fill="#4338CA"/>
<path d="M30 30H48V39C48 43.9706 43.9706 48 39 48C34.0294 48 30 43.9706 30 39V30Z" fill="#7065F0"/>
<path d="M42.2694 35.0853L39.5194 34.0553C39.2344 33.9503 38.7694 33.9503 38.4844 34.0553L35.7344 35.0853C35.2044 35.2853 34.7744 35.9053 34.7744 36.4703V40.5203C34.7744 40.9253 35.0394 41.4603 35.3644 41.7003L38.1144 43.7553C38.5994 44.1203 39.3944 44.1203 39.8794 43.7553L42.6294 41.7003C42.9544 41.4553 43.2194 40.9253 43.2194 40.5203V36.4703C43.2244 35.9053 42.7944 35.2853 42.2694 35.0853ZM39.3744 39.4353V40.7503C39.3744 40.9553 39.2044 41.1253 38.9994 41.1253C38.7944 41.1253 38.6244 40.9553 38.6244 40.7503V39.4353C38.1194 39.2753 37.7494 38.8053 37.7494 38.2503C37.7494 37.5603 38.3094 37.0003 38.9994 37.0003C39.6894 37.0003 40.2494 37.5603 40.2494 38.2503C40.2494 38.8103 39.8794 39.2753 39.3744 39.4353Z" fill="white"/>
</svg>
