<svg width="92" height="92" viewBox="0 0 92 92" fill="none" xmlns="http://www.w3.org/2000/svg">
<rect width="91.5618" height="91.5618" rx="20" fill="#006699"/>
<path d="M35.2487 64.3342V39.6007H27.0349V64.3342H35.2495H35.2487ZM31.1435 36.2243C34.0072 36.2243 35.79 34.3251 35.79 31.9516C35.7364 29.524 34.0072 27.6777 31.198 27.6777C28.3868 27.6777 26.5508 29.524 26.5508 31.9513C26.5508 34.3249 28.333 36.2241 31.0897 36.2241H31.1429L31.1435 36.2243ZM39.7951 64.3342H48.0082V50.5233C48.0082 49.7851 48.0618 49.0449 48.2787 48.5177C48.8722 47.0401 50.2237 45.5106 52.4932 45.5106C55.4646 45.5106 56.6539 47.7786 56.6539 51.1038V64.3342H64.8668V50.1527C64.8668 42.556 60.8152 39.0208 55.4114 39.0208C50.981 39.0208 49.0352 41.4993 47.9541 43.1873H48.0088V39.6015H39.7955C39.9027 41.9218 39.7949 64.335 39.7949 64.335L39.7951 64.3342Z" fill="white"/>
</svg>
