<svg width="579" height="124" viewBox="0 0 579 124" fill="none" xmlns="http://www.w3.org/2000/svg">
<path d="M9.56464 100.001V19.3354H46.2099C54.9679 19.3354 62.6887 21.0255 69.3724 24.4058C76.0562 27.7092 81.2802 32.3571 85.0446 38.3494C88.809 44.3417 90.6912 51.448 90.6912 59.6682C90.6912 67.8116 88.809 74.9178 85.0446 80.9869C81.2802 86.9792 76.0562 91.6655 69.3724 95.0458C62.6887 98.3493 54.9679 100.001 46.2099 100.001H9.56464ZM28.233 84.6745H45.288C50.6657 84.6745 55.3136 83.6758 59.2316 81.6784C63.2265 79.6041 66.2995 76.6848 68.4505 72.9204C70.6784 69.156 71.7924 64.7386 71.7924 59.6682C71.7924 54.5209 70.6784 50.1035 68.4505 46.416C66.2995 42.6516 63.2265 39.7707 59.2316 37.7732C55.3136 35.699 50.6657 34.6618 45.288 34.6618H28.233V84.6745ZM111.338 123.279C108.112 123.279 104.924 122.779 101.774 121.781C98.6239 120.782 96.0503 119.399 94.0529 117.632L100.621 104.841C102.004 106.07 103.579 107.03 105.346 107.722C107.19 108.413 108.995 108.759 110.762 108.759C113.297 108.759 115.295 108.144 116.754 106.915C118.291 105.763 119.674 103.804 120.903 101.038L124.13 93.4325L125.512 91.4735L147.753 38.0037H165.039L137.036 103.804C135.039 108.797 132.734 112.715 130.122 115.558C127.587 118.4 124.744 120.398 121.594 121.55C118.521 122.703 115.103 123.279 111.338 123.279ZM121.94 102.421L94.2833 38.0037H112.836L134.27 89.8602L121.94 102.421ZM199.414 100.923C192.116 100.923 186.431 99.0791 182.359 95.3915C178.288 91.6271 176.252 86.0573 176.252 78.6822V24.2905H194.229V78.4517C194.229 81.0638 194.92 83.0996 196.303 84.5593C197.686 85.9421 199.568 86.6335 201.949 86.6335C204.792 86.6335 207.212 85.8653 209.209 84.3288L214.049 97.0048C212.205 98.3108 209.978 99.3096 207.366 100.001C204.83 100.616 202.18 100.923 199.414 100.923ZM166.687 53.2149V39.3865H209.67V53.2149H166.687ZM262.169 100.001V87.9011L261.016 85.2507V63.5862C261.016 59.745 259.826 56.7488 257.444 54.5978C255.139 52.4467 251.567 51.3711 246.727 51.3711C243.423 51.3711 240.158 51.9089 236.932 52.9844C233.782 53.9832 231.093 55.366 228.865 57.133L222.412 44.5722C225.792 42.1906 229.864 40.3468 234.627 39.0408C239.39 37.7348 244.23 37.0818 249.147 37.0818C258.596 37.0818 265.933 39.3097 271.157 43.7655C276.381 48.2213 278.993 55.1739 278.993 64.6233V100.001H262.169ZM243.27 100.923C238.43 100.923 234.281 100.116 230.824 98.5029C227.367 96.8128 224.717 94.5464 222.873 91.7039C221.029 88.8614 220.107 85.6732 220.107 82.1393C220.107 78.4517 220.991 75.2251 222.758 72.4594C224.602 69.6938 227.482 67.5427 231.4 66.0062C235.319 64.3929 240.427 63.5862 246.727 63.5862H263.206V74.0727H248.686C244.461 74.0727 241.541 74.7642 239.928 76.147C238.391 77.5298 237.623 79.2584 237.623 81.3326C237.623 83.6374 238.507 85.4812 240.274 86.864C242.117 88.17 244.614 88.823 247.764 88.823C250.76 88.823 253.449 88.1316 255.831 86.7488C258.212 85.2891 259.941 83.1764 261.016 80.4108L263.782 88.7078C262.476 92.7027 260.094 95.7372 256.637 97.8115C253.18 99.8857 248.724 100.923 243.27 100.923ZM374.661 37.0818C379.578 37.0818 383.919 38.0805 387.683 40.0779C391.524 41.9986 394.52 44.9947 396.671 49.0664C398.899 53.0613 400.013 58.2085 400.013 64.5081V100.001H382.036V67.2738C382.036 62.2802 380.999 58.5926 378.925 56.2111C376.851 53.8295 373.931 52.6387 370.167 52.6387C367.555 52.6387 365.212 53.2533 363.138 54.4825C361.063 55.6349 359.45 57.4018 358.298 59.7834C357.145 62.165 356.569 65.1995 356.569 68.8871V100.001H338.592V67.2738C338.592 62.2802 337.555 58.5926 335.481 56.2111C333.483 53.8295 330.602 52.6387 326.838 52.6387C324.226 52.6387 321.883 53.2533 319.809 54.4825C317.734 55.6349 316.121 57.4018 314.969 59.7834C313.816 62.165 313.24 65.1995 313.24 68.8871V100.001H295.263V38.0037H312.433V54.9435L309.207 49.9883C311.358 45.763 314.392 42.5747 318.31 40.4237C322.305 38.1958 326.838 37.0818 331.908 37.0818C337.593 37.0818 342.549 38.5415 346.774 41.4608C351.076 44.3033 353.919 48.6823 355.301 54.5978L348.963 52.8692C351.038 48.0293 354.341 44.1881 358.874 41.3456C363.483 38.5031 368.746 37.0818 374.661 37.0818ZM454.155 100.001V87.9011L453.002 85.2507V63.5862C453.002 59.745 451.811 56.7488 449.43 54.5978C447.125 52.4467 443.553 51.3711 438.713 51.3711C435.409 51.3711 432.144 51.9089 428.918 52.9844C425.768 53.9832 423.079 55.366 420.851 57.133L414.398 44.5722C417.778 42.1906 421.85 40.3468 426.613 39.0408C431.376 37.7348 436.216 37.0818 441.133 37.0818C450.582 37.0818 457.919 39.3097 463.143 43.7655C468.367 48.2213 470.979 55.1739 470.979 64.6233V100.001H454.155ZM435.256 100.923C430.416 100.923 426.267 100.116 422.81 98.5029C419.353 96.8128 416.703 94.5464 414.859 91.7039C413.015 88.8614 412.093 85.6732 412.093 82.1393C412.093 78.4517 412.977 75.2251 414.744 72.4594C416.587 69.6938 419.468 67.5427 423.386 66.0062C427.304 64.3929 432.413 63.5862 438.713 63.5862H455.192V74.0727H440.672C436.447 74.0727 433.527 74.7642 431.914 76.147C430.377 77.5298 429.609 79.2584 429.609 81.3326C429.609 83.6374 430.493 85.4812 432.26 86.864C434.103 88.17 436.6 88.823 439.75 88.823C442.746 88.823 445.435 88.1316 447.817 86.7488C450.198 85.2891 451.927 83.1764 453.002 80.4108L455.768 88.7078C454.462 92.7027 452.08 95.7372 448.623 97.8115C445.166 99.8857 440.71 100.923 435.256 100.923Z" fill="#4338CA"/>
<path d="M578.028 78.3775C578.028 78.3778 578.028 78.378 578.029 78.3782V78.3782C578.029 78.3786 578.029 78.3792 578.029 78.3796L561.902 97.7319C560.704 99.1697 558.929 100.001 557.057 100.001H487.938C484.455 100.001 481.632 97.1775 481.632 93.6946V21.6218C481.632 21.6214 481.632 21.6211 481.633 21.6211V21.6211C481.633 21.6211 481.633 21.621 481.633 21.6209L499.649 0.0011763C499.649 0.00104745 499.649 0.000884708 499.649 0.000716981V0.000716981C499.649 0.000321003 499.65 0 499.65 0H571.722C575.205 0 578.028 2.82346 578.028 6.30636V78.3775Z" fill="url(#paint0_linear_81_4532)"/>
<mask id="mask0_81_4532" style="mask-type:alpha" maskUnits="userSpaceOnUse" x="502" y="19" width="55" height="55">
<path d="M502.783 73.6853H502.688V73.6257C502.72 73.6456 502.751 73.6657 502.783 73.6853ZM540.519 19.408C549.602 19.4081 556.966 26.7718 556.966 35.8552V57.2371C556.966 66.3207 549.602 73.6851 540.519 73.6853H516.744C520.549 71.3398 523.086 67.1346 523.086 62.3367C523.086 54.979 517.121 49.0146 509.764 49.0144H502.688V19.408H540.519Z" fill="#412CA6"/>
</mask>
<g mask="url(#mask0_81_4532)">
<rect x="502.688" y="7.56567" width="67.1059" height="75.0007" fill="#4338CA"/>
<circle cx="522.754" cy="33.2238" r="29.9345" fill="#3730A3" fill-opacity="0.8"/>
<circle cx="520.78" cy="24.6711" r="29.9345" fill="url(#paint1_linear_81_4532)" fill-opacity="0.9"/>
</g>
<defs>
<linearGradient id="paint0_linear_81_4532" x1="529.83" y1="0" x2="529.83" y2="100.001" gradientUnits="userSpaceOnUse">
<stop stop-color="#4F46E5"/>
<stop offset="1" stop-color="#818CF8"/>
</linearGradient>
<linearGradient id="paint1_linear_81_4532" x1="498.083" y1="0.986633" x2="520.78" y2="54.6056" gradientUnits="userSpaceOnUse">
<stop stop-color="#3730A3"/>
<stop offset="1" stop-color="#312E81"/>
</linearGradient>
</defs>
</svg>
