<svg width="1758" height="375" viewBox="0 0 1758 375" fill="none" xmlns="http://www.w3.org/2000/svg">
<path d="M29.0762 58.7789H140.477C167.101 58.7789 190.572 63.9169 210.89 74.1928C231.442 84.2352 247.323 98.4814 258.533 116.931C269.977 135.381 275.699 156.867 275.699 181.389C275.699 205.912 269.977 227.398 258.533 245.848C247.323 264.298 231.442 278.66 210.89 288.936C190.572 298.979 167.101 304 140.477 304H29.0762V58.7789ZM137.674 257.408C162.196 257.408 181.697 250.635 196.177 237.09C210.89 223.311 218.247 204.744 218.247 181.389C218.247 158.035 210.89 139.585 196.177 126.04C181.697 112.26 162.196 105.371 137.674 105.371H85.8274V257.408H137.674ZM501.712 115.53L416.586 315.56C407.945 337.28 397.202 352.577 384.357 361.452C371.745 370.326 356.448 374.764 338.465 374.764C328.656 374.764 318.964 373.246 309.389 370.21C299.814 367.174 291.99 362.97 285.918 357.598L305.886 318.713C310.09 322.45 314.877 325.369 320.249 327.471C325.854 329.573 331.342 330.624 336.714 330.624C344.187 330.624 350.259 328.756 354.93 325.019C359.601 321.516 363.805 315.56 367.541 307.153L368.242 305.401L286.619 115.53H343.019L395.917 243.395L449.165 115.53H501.712ZM650.703 294.892C645.332 298.862 638.676 301.898 630.735 304C623.028 305.868 614.854 306.803 606.213 306.803C583.793 306.803 566.394 301.081 554.016 289.637C541.872 278.193 535.8 261.378 535.8 239.192V161.772H506.724V119.734H535.8V73.8425H590.449V119.734H637.391V161.772H590.449V238.491C590.449 246.431 592.434 252.62 596.404 257.058C600.608 261.261 606.447 263.363 613.92 263.363C622.561 263.363 629.918 261.028 635.99 256.357L650.703 294.892ZM757.399 112.728C786.592 112.728 809.012 119.734 824.66 133.747C840.307 147.526 848.131 168.428 848.131 196.453V304H796.985V280.529C786.709 298.045 767.558 306.803 739.533 306.803C725.053 306.803 712.442 304.35 701.699 299.446C691.189 294.541 683.132 287.769 677.527 279.128C671.922 270.486 669.12 260.678 669.12 249.701C669.12 232.185 675.659 218.406 688.737 208.364C702.049 198.321 722.484 193.3 750.043 193.3H793.482C793.482 181.389 789.862 172.281 782.622 165.976C775.382 159.436 764.522 156.167 750.043 156.167C740 156.167 730.075 157.802 720.266 161.071C710.69 164.107 702.516 168.311 695.744 173.683L676.126 135.498C686.402 128.258 698.663 122.653 712.909 118.683C727.389 114.713 742.219 112.728 757.399 112.728ZM753.195 270.019C762.537 270.019 770.828 267.917 778.068 263.714C785.308 259.276 790.446 252.854 793.482 244.446V225.179H755.998C733.578 225.179 722.368 232.536 722.368 247.249C722.368 254.255 725.053 259.86 730.425 264.064C736.03 268.034 743.62 270.019 753.195 270.019ZM1138.96 112.728C1162.55 112.728 1181.23 119.734 1195.01 133.747C1209.02 147.526 1216.03 168.311 1216.03 196.103V304H1161.38V204.51C1161.38 189.564 1158.23 178.47 1151.92 171.23C1145.85 163.757 1137.09 160.02 1125.65 160.02C1112.8 160.02 1102.64 164.224 1095.17 172.632C1087.7 180.806 1083.96 193.067 1083.96 209.415V304H1029.31V204.51C1029.31 174.85 1017.4 160.02 993.578 160.02C980.966 160.02 970.924 164.224 963.451 172.632C955.977 180.806 952.24 193.067 952.24 209.415V304H897.591V115.53H949.788V137.25C956.795 129.309 965.319 123.237 975.361 119.033C985.637 114.829 996.847 112.728 1008.99 112.728C1022.3 112.728 1034.33 115.413 1045.07 120.785C1055.82 125.923 1064.46 133.513 1071 143.555C1078.7 133.747 1088.4 126.156 1100.07 120.785C1111.98 115.413 1124.95 112.728 1138.96 112.728ZM1341.03 112.728C1370.22 112.728 1392.64 119.734 1408.29 133.747C1423.94 147.526 1431.76 168.428 1431.76 196.453V304H1380.62V280.529C1370.34 298.045 1351.19 306.803 1323.16 306.803C1308.68 306.803 1296.07 304.35 1285.33 299.446C1274.82 294.541 1266.76 287.769 1261.16 279.128C1255.55 270.486 1252.75 260.678 1252.75 249.701C1252.75 232.185 1259.29 218.406 1272.37 208.364C1285.68 198.321 1306.12 193.3 1333.67 193.3H1377.11C1377.11 181.389 1373.49 172.281 1366.25 165.976C1359.01 159.436 1348.15 156.167 1333.67 156.167C1323.63 156.167 1313.71 157.802 1303.9 161.071C1294.32 164.107 1286.15 168.311 1279.38 173.683L1259.76 135.498C1270.03 128.258 1282.29 122.653 1296.54 118.683C1311.02 114.713 1325.85 112.728 1341.03 112.728ZM1336.83 270.019C1346.17 270.019 1354.46 267.917 1361.7 263.714C1368.94 259.276 1374.08 252.854 1377.11 244.446V225.179H1339.63C1317.21 225.179 1306 232.536 1306 247.249C1306 254.255 1308.68 259.86 1314.06 264.064C1319.66 268.034 1327.25 270.019 1336.83 270.019Z" fill="#1E293B"/>
<path d="M1757.04 231.33C1757.04 235.814 1755.47 240.157 1752.6 243.603L1708.02 297.102C1704.38 301.473 1698.98 304 1693.29 304H1483.17C1472.58 304 1464 295.417 1464 284.829V72.6704C1464 68.1856 1465.57 63.8427 1468.44 60.3973L1513.03 6.8981C1516.67 2.52721 1522.06 0 1527.75 0H1737.87C1748.46 0 1757.04 8.58322 1757.04 19.1712V231.33Z" fill="url(#paint0_linear_139_14473)"/>
<mask id="mask0_139_14473" style="mask-type:alpha" maskUnits="userSpaceOnUse" x="1528" y="59" width="165" height="165">
<path d="M1528.28 224H1528V223.824C1528.09 223.883 1528.19 223.942 1528.28 224ZM1643 59C1670.61 59 1693 81.3858 1693 109V174C1693 201.614 1670.61 224 1643 224H1570.72C1582.29 216.87 1590 204.086 1590 189.5C1590 167.133 1571.87 149 1549.5 149H1528V59H1643Z" fill="#412CA6"/>
</mask>
<g mask="url(#mask0_139_14473)">
<rect x="1528" y="23" width="204" height="228" fill="#4338CA"/>
<circle cx="1589" cy="101" r="91" fill="#3730A3" fill-opacity="0.8"/>
<circle cx="1583" cy="75" r="91" fill="url(#paint1_linear_139_14473)" fill-opacity="0.9"/>
</g>
<defs>
<linearGradient id="paint0_linear_139_14473" x1="1610.52" y1="0" x2="1610.52" y2="304" gradientUnits="userSpaceOnUse">
<stop stop-color="#4F46E5"/>
<stop offset="1" stop-color="#818CF8"/>
</linearGradient>
<linearGradient id="paint1_linear_139_14473" x1="1514" y1="3" x2="1583" y2="166" gradientUnits="userSpaceOnUse">
<stop stop-color="#3730A3"/>
<stop offset="1" stop-color="#312E81"/>
</linearGradient>
</defs>
</svg>
