<svg width="582" height="110" viewBox="0 0 582 110" fill="none" xmlns="http://www.w3.org/2000/svg">
<path d="M10.9405 86.4807V5.00897H46.5553C55.4008 5.00897 63.16 6.716 69.8329 10.1301C76.5058 13.5441 81.7045 18.2772 85.4289 24.3294C89.1534 30.3816 91.0156 37.5201 91.0156 45.7448C91.0156 53.892 89.1534 61.0305 85.4289 67.1603C81.7045 73.2125 76.5058 77.9456 69.8329 81.3596C63.16 84.7737 55.4008 86.4807 46.5553 86.4807H10.9405ZM26.071 73.678H45.857C51.9867 73.678 57.263 72.5141 61.6857 70.1864C66.1861 67.8586 69.6389 64.5997 72.0443 60.4098C74.5272 56.2198 75.7687 51.3315 75.7687 45.7448C75.7687 40.0806 74.5272 35.1923 72.0443 31.0799C69.6389 26.89 66.1861 23.6311 61.6857 21.3033C57.263 18.9756 51.9867 17.8117 45.857 17.8117H26.071V73.678ZM110.822 109.875C107.795 109.875 104.769 109.37 101.743 108.362C98.7172 107.353 96.1955 105.956 94.1781 104.172L99.9975 93.464C101.472 94.7831 103.14 95.8306 105.002 96.6065C106.864 97.3824 108.765 97.7704 110.705 97.7704C113.343 97.7704 115.477 97.1108 117.107 95.7918C118.736 94.4727 120.249 92.2613 121.646 89.1576L125.254 81.0105L126.418 79.2646L149.928 24.3294H163.895L134.798 91.4854C132.858 96.1409 130.685 99.8266 128.28 102.542C125.952 105.258 123.314 107.159 120.365 108.245C117.494 109.332 114.313 109.875 110.822 109.875ZM123.624 88.6921L95.5747 24.3294H110.705L133.517 77.9844L123.624 88.6921ZM198.086 87.2954C191.258 87.2954 185.982 85.5496 182.258 82.058C178.533 78.4887 176.671 73.2513 176.671 66.3456V10.5956H191.219V65.9964C191.219 68.9449 191.957 71.2339 193.431 72.8633C194.983 74.4927 197.116 75.3074 199.832 75.3074C203.091 75.3074 205.807 74.4539 207.979 72.7469L212.053 83.1055C210.346 84.5021 208.251 85.5496 205.768 86.2479C203.285 86.9463 200.724 87.2954 198.086 87.2954ZM166.429 36.4338V24.795H207.863V36.4338H166.429ZM262.313 86.4807V73.9108L261.498 71.2339V49.2365C261.498 44.9689 260.218 41.6713 257.657 39.3435C255.097 36.9381 251.217 35.7355 246.018 35.7355C242.527 35.7355 239.074 36.2786 235.66 37.3649C232.323 38.4512 229.491 39.9642 227.163 41.904L221.46 31.3127C224.797 28.7522 228.754 26.8512 233.332 25.6097C237.987 24.2906 242.798 23.6311 247.764 23.6311C256.765 23.6311 263.709 25.8037 268.598 30.1488C273.563 34.4164 276.046 41.0505 276.046 50.0512V86.4807H262.313ZM242.759 87.2954C238.104 87.2954 234.03 86.5195 230.539 84.9677C227.047 83.3382 224.331 81.1269 222.391 78.3335C220.529 75.4626 219.598 72.2426 219.598 68.6733C219.598 65.1817 220.413 62.0392 222.042 59.2459C223.749 56.4526 226.504 54.2412 230.306 52.6117C234.108 50.9823 239.151 50.1676 245.436 50.1676H263.477V59.8278H246.484C241.518 59.8278 238.181 60.6425 236.474 62.272C234.767 63.8238 233.914 65.7636 233.914 68.0914C233.914 70.7295 234.961 72.8245 237.056 74.3763C239.151 75.9282 242.061 76.7041 245.786 76.7041C249.355 76.7041 252.536 75.8894 255.329 74.26C258.2 72.6305 260.256 70.2252 261.498 67.0439L263.942 75.773C262.545 79.4198 260.024 82.2519 256.377 84.2693C252.808 86.2867 248.268 87.2954 242.759 87.2954ZM373.163 23.6311C378.129 23.6311 382.513 24.601 386.315 26.5408C390.195 28.4806 393.221 31.4679 395.393 35.5027C397.566 39.4599 398.652 44.581 398.652 50.8659V86.4807H384.104V52.7281C384.104 47.2191 382.901 43.1067 380.496 40.391C378.09 37.6753 374.638 36.3174 370.137 36.3174C366.956 36.3174 364.124 37.0157 361.641 38.4124C359.236 39.809 357.335 41.8652 355.938 44.581C354.619 47.2967 353.959 50.7495 353.959 54.9395V86.4807H339.411V52.7281C339.411 47.2191 338.208 43.1067 335.803 40.391C333.397 37.6753 329.944 36.3174 325.444 36.3174C322.263 36.3174 319.431 37.0157 316.948 38.4124C314.542 39.809 312.641 41.8652 311.245 44.581C309.926 47.2967 309.266 50.7495 309.266 54.9395V86.4807H294.718V24.3294H308.568V40.8565L306.124 35.9682C308.219 31.9334 311.245 28.8686 315.202 26.7736C319.237 24.6786 323.815 23.6311 328.936 23.6311C334.755 23.6311 339.799 25.0665 344.066 27.9374C348.411 30.8084 351.282 35.1535 352.679 40.9729L346.976 38.9943C348.993 34.3388 352.33 30.6144 356.985 27.8211C361.641 25.0277 367.034 23.6311 373.163 23.6311ZM455.535 86.4807V73.9108L454.721 71.2339V49.2365C454.721 44.9689 453.44 41.6713 450.88 39.3435C448.319 36.9381 444.44 35.7355 439.241 35.7355C435.749 35.7355 432.296 36.2786 428.882 37.3649C425.546 38.4512 422.714 39.9642 420.386 41.904L414.683 31.3127C418.019 28.7522 421.977 26.8512 426.555 25.6097C431.21 24.2906 436.021 23.6311 440.987 23.6311C449.987 23.6311 456.932 25.8037 461.82 30.1488C466.786 34.4164 469.269 41.0505 469.269 50.0512V86.4807H455.535ZM435.982 87.2954C431.326 87.2954 427.253 86.5195 423.761 84.9677C420.27 83.3382 417.554 81.1269 415.614 78.3335C413.752 75.4626 412.821 72.2426 412.821 68.6733C412.821 65.1817 413.635 62.0392 415.265 59.2459C416.972 56.4526 419.726 54.2412 423.528 52.6117C427.33 50.9823 432.374 50.1676 438.659 50.1676H456.699V59.8278H439.706C434.741 59.8278 431.404 60.6425 429.697 62.272C427.99 63.8238 427.137 65.7636 427.137 68.0914C427.137 70.7295 428.184 72.8245 430.279 74.3763C432.374 75.9282 435.284 76.7041 439.008 76.7041C442.577 76.7041 445.759 75.8894 448.552 74.26C451.423 72.6305 453.479 70.2252 454.721 67.0439L457.165 75.773C455.768 79.4198 453.246 82.2519 449.599 84.2693C446.03 86.2867 441.491 87.2954 435.982 87.2954Z" fill="white"/>
<path d="M581.951 79.1551C581.951 79.1565 581.952 79.1578 581.953 79.1588V79.1588C581.955 79.1607 581.955 79.1637 581.953 79.1658L565.668 98.7082C564.458 100.16 562.665 101 560.775 101H490.965C487.447 101 484.596 98.1483 484.596 94.6306V21.8376C484.596 21.8372 484.596 21.8369 484.596 21.8369V21.8369C484.597 21.8369 484.597 21.8368 484.597 21.8367L502.788 0.00705651C502.789 0.0062834 502.789 0.00530825 502.789 0.00430189V0.00430189C502.789 0.00192602 502.791 0 502.793 0H575.582C579.1 0 581.951 2.85167 581.951 6.36939V79.1551Z" fill="url(#paint0_linear_81_4516)"/>
<mask id="mask0_81_4516" style="mask-type:alpha" maskUnits="userSpaceOnUse" x="505" y="19" width="56" height="56">
<path d="M505.951 74.4209H505.859V74.3633C505.89 74.3825 505.92 74.4019 505.951 74.4209ZM544.066 19.6016C553.241 19.6016 560.679 27.0394 560.679 36.2139V57.8086C560.679 66.9831 553.241 74.4209 544.066 74.4209H520.052C523.895 72.0519 526.457 67.8049 526.457 62.959C526.457 55.5277 520.432 49.5029 513.001 49.5029H505.859V19.6016H544.066Z" fill="#412CA6"/>
</mask>
<g mask="url(#mask0_81_4516)">
<rect x="505.859" y="7.64038" width="67.7765" height="75.7503" fill="#4338CA"/>
<circle cx="526.124" cy="33.5547" r="30.2337" fill="#3730A3" fill-opacity="0.8"/>
<circle cx="524.136" cy="24.9175" r="30.2337" fill="url(#paint1_linear_81_4516)" fill-opacity="0.9"/>
</g>
<defs>
<linearGradient id="paint0_linear_81_4516" x1="533.275" y1="0" x2="533.275" y2="101" gradientUnits="userSpaceOnUse">
<stop stop-color="#4F46E5"/>
<stop offset="1" stop-color="#818CF8"/>
</linearGradient>
<linearGradient id="paint1_linear_81_4516" x1="501.212" y1="0.996359" x2="524.136" y2="55.1511" gradientUnits="userSpaceOnUse">
<stop stop-color="#3730A3"/>
<stop offset="1" stop-color="#312E81"/>
</linearGradient>
</defs>
</svg>
