<svg width="98" height="101" viewBox="0 0 98 101" fill="none" xmlns="http://www.w3.org/2000/svg">
<path d="M97.3555 79.1551C97.3555 79.1565 97.356 79.1578 97.357 79.1588V79.1588C97.3589 79.1607 97.359 79.1637 97.3573 79.1658L81.0719 98.7082C79.8618 100.16 78.0692 101 76.1788 101H6.36938C2.85167 101 0 98.1483 0 94.6306V21.8376C0 21.8372 0.000297759 21.8369 0.000665062 21.8369V21.8369C0.00086244 21.8369 0.00104962 21.8368 0.00117598 21.8367L18.1924 0.00705651C18.193 0.0062834 18.1934 0.00530825 18.1934 0.00430189V0.00430189C18.1934 0.00192602 18.1953 0 18.1977 0H90.9861C94.5038 0 97.3555 2.85167 97.3555 6.36939V79.1551Z" fill="url(#paint0_linear_81_4548)"/>
<mask id="mask0_81_4548" style="mask-type:alpha" maskUnits="userSpaceOnUse" x="21" y="19" width="56" height="56">
<path d="M21.3555 74.4209H21.2637V74.3633C21.2943 74.3825 21.3247 74.4019 21.3555 74.4209ZM59.4707 19.6016C68.6452 19.6016 76.083 27.0394 76.083 36.2139V57.8086C76.083 66.9831 68.6452 74.4209 59.4707 74.4209H35.4561C39.2991 72.0519 41.8613 67.8049 41.8613 62.959C41.8613 55.5277 35.8365 49.5029 28.4053 49.5029H21.2637V19.6016H59.4707Z" fill="#412CA6"/>
</mask>
<g mask="url(#mask0_81_4548)">
<rect x="21.2637" y="7.64038" width="67.7765" height="75.7503" fill="#4338CA"/>
<circle cx="41.5286" cy="33.5547" r="30.2337" fill="#3730A3" fill-opacity="0.8"/>
<circle cx="39.5403" cy="24.9175" r="30.2337" fill="url(#paint1_linear_81_4548)" fill-opacity="0.9"/>
</g>
<defs>
<linearGradient id="paint0_linear_81_4548" x1="48.6793" y1="0" x2="48.6793" y2="101" gradientUnits="userSpaceOnUse">
<stop stop-color="#4F46E5"/>
<stop offset="1" stop-color="#818CF8"/>
</linearGradient>
<linearGradient id="paint1_linear_81_4548" x1="16.6159" y1="0.996359" x2="39.5403" y2="55.1511" gradientUnits="userSpaceOnUse">
<stop stop-color="#3730A3"/>
<stop offset="1" stop-color="#312E81"/>
</linearGradient>
</defs>
</svg>
