<svg width="84" height="84" viewBox="0 0 84 84" fill="none" xmlns="http://www.w3.org/2000/svg">
<path fill-rule="evenodd" clip-rule="evenodd" d="M42.0001 0C65.196 0 84 18.804 84 41.9999C84 65.196 65.196 84 42.0001 84C18.804 84 0 65.196 0 41.9999C0 18.804 18.804 0 42.0001 0ZM82.3879 41.9999C82.3879 19.6944 64.3056 1.61196 42.0001 1.61196C40.2007 1.61196 38.4292 1.72961 36.692 1.95764C37.8143 1.85952 38.9501 1.80943 40.0977 1.80943C61.4119 1.80943 78.6905 19.088 78.6905 40.4022C78.6905 61.7161 61.4119 78.9947 40.0977 78.9947C19.919 78.9947 3.3573 63.5081 1.65015 43.7718C2.57753 65.2553 20.2879 82.3879 42.0001 82.3879C64.3056 82.3879 82.3879 64.3056 82.3879 41.9999ZM77.0784 40.4022C77.0784 19.9782 60.5217 3.42141 40.0977 3.42141C38.4395 3.42141 36.8065 3.53057 35.2059 3.74208C36.1915 3.65916 37.1886 3.61685 38.1956 3.61685C57.628 3.61685 73.381 19.37 73.381 38.8022C73.381 58.2346 57.628 73.9876 38.1956 73.9876C19.8218 73.9876 4.73736 59.904 3.14857 41.943C3.95636 61.6523 20.1901 77.3828 40.0977 77.3828C60.5217 77.3828 77.0784 60.8259 77.0784 40.4022ZM38.1956 5.22883C56.7376 5.22883 71.7691 20.2602 71.7691 38.8022C71.7691 57.3442 56.7376 72.3755 38.1956 72.3755C20.0832 72.3755 5.32056 58.0326 4.64632 40.085C6.10201 56.2845 19.7152 68.9803 36.2937 68.9803C53.8429 68.9803 68.0697 54.7537 68.0697 37.2043C68.0697 19.6548 53.8429 5.4283 36.2937 5.4283C35.3857 5.4283 34.4867 5.46638 33.5981 5.541C35.1013 5.33518 36.636 5.22883 38.1956 5.22883ZM66.4575 37.2043C66.4575 20.5452 52.9527 7.04028 36.2937 7.04028C34.8861 7.04028 33.5009 7.13667 32.1448 7.32324C32.8853 7.26528 33.6338 7.23576 34.3893 7.23576C50.057 7.23576 62.7581 19.9368 62.7581 35.6045C62.7581 51.272 50.057 63.9731 34.3893 63.9731C19.6426 63.9731 7.5239 52.7212 6.15027 38.3344C6.74455 54.4699 20.0128 67.3683 36.2937 67.3683C52.9527 67.3683 66.4575 53.8635 66.4575 37.2043ZM34.3893 8.84772C49.1666 8.84772 61.146 20.8272 61.146 35.6045C61.146 50.3818 49.1666 62.3612 34.3893 62.3612C19.9031 62.3612 8.10564 50.8492 7.64645 36.4745C8.88666 49.1009 19.5349 58.966 32.4871 58.966C46.2731 58.966 57.4486 47.7903 57.4486 34.0045C57.4486 20.2188 46.2731 9.04317 32.4871 9.04317C31.855 9.04317 31.2282 9.06667 30.6079 9.11285C31.8433 8.9381 33.1057 8.84772 34.3893 8.84772ZM55.8367 34.0045C55.8367 21.109 45.3827 10.6552 32.4871 10.6552C31.31 10.6552 30.1533 10.7423 29.0229 10.9104C29.5389 10.8734 30.0598 10.8546 30.5852 10.8546C42.488 10.8546 52.1373 20.5038 52.1373 32.4066C52.1373 44.3096 42.488 53.9587 30.5852 53.9587C19.4315 53.9587 10.2567 45.4861 9.14587 34.6257C9.4752 47.2342 19.7994 57.3541 32.4871 57.3541C45.3827 57.3541 55.8367 46.9001 55.8367 34.0045ZM30.5852 12.4666C41.5978 12.4666 50.5252 21.394 50.5252 32.4066C50.5252 43.4194 41.5978 52.3468 30.5852 52.3468C19.7126 52.3468 10.8726 43.6452 10.6493 32.8262C11.6537 41.8969 19.3445 48.9516 28.6831 48.9516C38.7041 48.9516 46.8278 40.8279 46.8278 30.8068C46.8278 20.7858 38.7041 12.662 28.6831 12.662C28.2998 12.662 27.9193 12.6739 27.542 12.6973C28.5342 12.5454 29.5504 12.4666 30.5852 12.4666ZM45.2159 30.8068C45.2159 21.676 37.8139 14.274 28.6831 14.274C27.7661 14.274 26.8666 14.3487 25.9902 14.4922C26.2514 14.4784 26.5142 14.4715 26.7789 14.4715C34.918 14.4715 41.5162 21.0696 41.5162 29.2089C41.5162 37.3482 34.918 43.9465 26.7789 43.9465C19.2528 43.9465 13.0444 38.305 12.1516 31.0202C12.2659 40.0528 19.6235 47.3396 28.6831 47.3396C37.8139 47.3396 45.2159 39.9377 45.2159 30.8068ZM26.7789 16.0834C34.0278 16.0834 39.9043 21.9598 39.9043 29.2089C39.9043 36.458 34.0278 42.3344 26.7789 42.3344C19.5298 42.3344 13.6533 36.458 13.6533 29.2089C13.6533 29.1916 13.6533 29.1741 13.6534 29.1568C14.4081 34.6809 19.1453 38.9373 24.8767 38.9373C31.1331 38.9373 36.2049 33.8655 36.2049 27.6092C36.2049 21.3526 31.1331 16.2809 24.8767 16.2809C24.7352 16.2809 24.5944 16.2835 24.4541 16.2887C25.2086 16.1538 25.9855 16.0834 26.7789 16.0834ZM34.5928 27.6092C34.5928 22.243 30.2429 17.8929 24.8767 17.8929C19.5106 17.8929 15.1605 22.243 15.1605 27.6092C15.1605 32.9751 19.5106 37.3252 24.8767 37.3252C30.2429 37.3252 34.5928 32.9751 34.5928 27.6092Z" fill="#4338CA"/>
</svg>
