<svg width="1417" height="681" viewBox="0 0 1417 681" fill="none" xmlns="http://www.w3.org/2000/svg">
<g clip-path="url(#clip0_62_8832)">
<rect x="-23" width="1440" height="681" fill="url(#paint0_linear_62_8832)"/>
<g opacity="0.13" clip-path="url(#clip1_62_8832)">
<mask id="mask0_62_8832" style="mask-type:alpha" maskUnits="userSpaceOnUse" x="169" y="0" width="1080" height="1080">
<rect width="1080" height="1080" transform="translate(169)" fill="url(#paint1_radial_62_8832)"/>
</mask>
<g mask="url(#mask0_62_8832)">
<g clip-path="url(#clip2_62_8832)">
<g clip-path="url(#clip3_62_8832)">
<line x1="169.375" x2="169.375" y2="1080" stroke="#D0D5DD" stroke-width="0.75"/>
<line x1="229.375" x2="229.375" y2="1080" stroke="#D0D5DD" stroke-width="0.75"/>
<line x1="289.375" x2="289.375" y2="1080" stroke="#D0D5DD" stroke-width="0.75"/>
<line x1="349.375" x2="349.375" y2="1080" stroke="#D0D5DD" stroke-width="0.75"/>
<line x1="409.375" x2="409.375" y2="1080" stroke="#D0D5DD" stroke-width="0.75"/>
<line x1="469.375" x2="469.375" y2="1080" stroke="#D0D5DD" stroke-width="0.75"/>
<line x1="529.375" x2="529.375" y2="1080" stroke="#D0D5DD" stroke-width="0.75"/>
<line x1="589.375" x2="589.375" y2="1080" stroke="#D0D5DD" stroke-width="0.75"/>
<line x1="649.375" x2="649.375" y2="1080" stroke="#D0D5DD" stroke-width="0.75"/>
<line x1="709.375" x2="709.375" y2="1080" stroke="#D0D5DD" stroke-width="0.75"/>
<line x1="769.375" x2="769.375" y2="1080" stroke="#D0D5DD" stroke-width="0.75"/>
<line x1="829.375" x2="829.375" y2="1080" stroke="#D0D5DD" stroke-width="0.75"/>
<line x1="889.375" x2="889.375" y2="1080" stroke="#D0D5DD" stroke-width="0.75"/>
<line x1="949.375" x2="949.375" y2="1080" stroke="#D0D5DD" stroke-width="0.75"/>
<line x1="1009.37" x2="1009.38" y2="1080" stroke="#D0D5DD" stroke-width="0.75"/>
<line x1="1069.37" x2="1069.38" y2="1080" stroke="#D0D5DD" stroke-width="0.75"/>
<line x1="1129.37" x2="1129.38" y2="1080" stroke="#D0D5DD" stroke-width="0.75"/>
<line x1="1189.37" x2="1189.38" y2="1080" stroke="#D0D5DD" stroke-width="0.75"/>
</g>
<g clip-path="url(#clip4_62_8832)">
<line x1="-11" y1="59.625" x2="1429" y2="59.625" stroke="#D0D5DD" stroke-width="0.75"/>
<line x1="-11" y1="119.625" x2="1429" y2="119.625" stroke="#D0D5DD" stroke-width="0.75"/>
<line x1="-11" y1="179.625" x2="1429" y2="179.625" stroke="#D0D5DD" stroke-width="0.75"/>
<line x1="-11" y1="239.625" x2="1429" y2="239.625" stroke="#D0D5DD" stroke-width="0.75"/>
<line x1="-11" y1="299.625" x2="1429" y2="299.625" stroke="#D0D5DD" stroke-width="0.75"/>
<line x1="-11" y1="359.625" x2="1429" y2="359.625" stroke="#D0D5DD" stroke-width="0.75"/>
<line x1="-11" y1="419.625" x2="1429" y2="419.625" stroke="#D0D5DD" stroke-width="0.75"/>
<line x1="-11" y1="479.625" x2="1429" y2="479.625" stroke="#D0D5DD" stroke-width="0.75"/>
<line x1="-11" y1="539.625" x2="1429" y2="539.625" stroke="#D0D5DD" stroke-width="0.75"/>
<line x1="-11" y1="599.625" x2="1429" y2="599.625" stroke="#D0D5DD" stroke-width="0.75"/>
<line x1="-11" y1="659.625" x2="1429" y2="659.625" stroke="#D0D5DD" stroke-width="0.75"/>
</g>
</g>
</g>
</g>
<circle opacity="0.4" cx="1121.67" cy="211.382" r="2.2113" fill="#D9D9D9"/>
<circle opacity="0.4" cx="1183.59" cy="298.727" r="2.2113" fill="#D9D9D9"/>
<circle opacity="0.4" cx="1064.18" cy="304.257" r="2.2113" fill="#D9D9D9"/>
<circle opacity="0.4" cx="892.803" cy="288.777" r="2.2113" fill="#D9D9D9"/>
<circle opacity="0.4" cx="780.027" cy="232.389" r="2.2113" fill="#D9D9D9"/>
<circle opacity="0.4" cx="799.928" cy="352.905" r="2.2113" fill="#D9D9D9"/>
<circle opacity="0.4" cx="804.349" cy="438.04" r="2.2113" fill="#D9D9D9"/>
<circle opacity="0.4" cx="703.736" cy="538.654" r="2.2113" fill="#D9D9D9"/>
<circle opacity="0.4" cx="836.413" cy="506.591" r="2.2113" fill="#D9D9D9"/>
<circle opacity="0.4" cx="952.505" cy="585.092" r="2.2113" fill="#D9D9D9"/>
<circle opacity="0.4" cx="1042.07" cy="623.789" r="2.2113" fill="#D9D9D9"/>
<circle opacity="0.4" cx="1117.25" cy="571.824" r="2.2113" fill="#D9D9D9"/>
<circle opacity="0.4" cx="1179.16" cy="589.514" r="2.2113" fill="#D9D9D9"/>
<circle opacity="0.4" cx="1126.09" cy="435.828" r="2.2113" fill="#D9D9D9"/>
<circle opacity="0.4" cx="310.129" cy="445.781" r="2.2113" transform="rotate(180 310.129 445.781)" fill="#D9D9D9"/>
<circle opacity="0.4" cx="248.212" cy="358.435" r="2.2113" transform="rotate(180 248.212 358.435)" fill="#D9D9D9"/>
<circle opacity="0.4" cx="367.625" cy="352.906" r="2.2113" transform="rotate(180 367.625 352.906)" fill="#D9D9D9"/>
<circle opacity="0.4" cx="538.998" cy="368.385" r="2.2113" transform="rotate(180 538.998 368.385)" fill="#D9D9D9"/>
<circle opacity="0.4" cx="651.774" cy="424.774" r="2.2113" transform="rotate(180 651.774 424.774)" fill="#D9D9D9"/>
<circle opacity="0.4" cx="631.874" cy="304.257" r="2.2113" transform="rotate(180 631.874 304.257)" fill="#D9D9D9"/>
<circle opacity="0.4" cx="627.453" cy="219.122" r="2.2113" transform="rotate(180 627.453 219.122)" fill="#D9D9D9"/>
<circle opacity="0.4" cx="728.066" cy="118.508" r="2.2113" transform="rotate(180 728.066 118.508)" fill="#D9D9D9"/>
<circle opacity="0.4" cx="595.388" cy="150.572" r="2.2113" transform="rotate(180 595.388 150.572)" fill="#D9D9D9"/>
<circle opacity="0.4" cx="575.488" cy="21.2115" r="2.2113" transform="rotate(180 575.488 21.2115)" fill="#D9D9D9"/>
<circle opacity="0.4" cx="479.297" cy="72.0704" r="2.2113" transform="rotate(180 479.297 72.0704)" fill="#D9D9D9"/>
<circle opacity="0.4" cx="389.736" cy="33.3737" r="2.2113" transform="rotate(180 389.736 33.3737)" fill="#D9D9D9"/>
<circle opacity="0.4" cx="314.554" cy="85.3383" r="2.2113" transform="rotate(180 314.554 85.3383)" fill="#D9D9D9"/>
<circle opacity="0.4" cx="252.637" cy="67.6481" r="2.2113" transform="rotate(180 252.637 67.6481)" fill="#D9D9D9"/>
<circle opacity="0.4" cx="305.708" cy="221.334" r="2.2113" transform="rotate(180 305.708 221.334)" fill="#D9D9D9"/>
<circle cx="709" cy="357" r="337" fill="url(#paint2_radial_62_8832)" fill-opacity="0.7"/>
</g>
<defs>
<linearGradient id="paint0_linear_62_8832" x1="697" y1="0" x2="697" y2="681" gradientUnits="userSpaceOnUse">
<stop offset="0.360914" stop-color="#1D1C33"/>
<stop offset="1" stop-color="#08071B"/>
</linearGradient>
<radialGradient id="paint1_radial_62_8832" cx="0" cy="0" r="1" gradientUnits="userSpaceOnUse" gradientTransform="translate(540 -0.000128746) rotate(90) scale(1080 563.691)">
<stop/>
<stop offset="0.953125" stop-opacity="0"/>
</radialGradient>
<radialGradient id="paint2_radial_62_8832" cx="0" cy="0" r="1" gradientUnits="userSpaceOnUse" gradientTransform="translate(709 357) rotate(90) scale(337)">
<stop stop-color="#B49AE1" stop-opacity="0.2"/>
<stop offset="1" stop-color="white" stop-opacity="0"/>
</radialGradient>
<clipPath id="clip0_62_8832">
<rect width="1417" height="681" fill="white"/>
</clipPath>
<clipPath id="clip1_62_8832">
<rect width="1417" height="681" fill="white"/>
</clipPath>
<clipPath id="clip2_62_8832">
<rect width="1440" height="1080" fill="white" transform="translate(-11)"/>
</clipPath>
<clipPath id="clip3_62_8832">
<rect width="1440" height="1080" fill="white" transform="translate(-11)"/>
</clipPath>
<clipPath id="clip4_62_8832">
<rect width="1440" height="1080" fill="white" transform="translate(-11)"/>
</clipPath>
</defs>
</svg>
