<svg width="1417" height="694" viewBox="0 0 1417 694" fill="none" xmlns="http://www.w3.org/2000/svg">
<g opacity="0.13" clip-path="url(#clip0_95_4653)">
<mask id="mask0_95_4653" style="mask-type:alpha" maskUnits="userSpaceOnUse" x="169" y="0" width="1080" height="1080">
<rect width="1080" height="1080" transform="translate(169)" fill="url(#paint0_radial_95_4653)"/>
</mask>
<g mask="url(#mask0_95_4653)">
<g clip-path="url(#clip1_95_4653)">
<g clip-path="url(#clip2_95_4653)">
<line x1="169.375" x2="169.375" y2="1080" stroke="#D0D5DD" stroke-width="0.75"/>
<line x1="229.375" x2="229.375" y2="1080" stroke="#D0D5DD" stroke-width="0.75"/>
<line x1="289.375" x2="289.375" y2="1080" stroke="#D0D5DD" stroke-width="0.75"/>
<line x1="349.375" x2="349.375" y2="1080" stroke="#D0D5DD" stroke-width="0.75"/>
<line x1="409.375" x2="409.375" y2="1080" stroke="#D0D5DD" stroke-width="0.75"/>
<line x1="469.375" x2="469.375" y2="1080" stroke="#D0D5DD" stroke-width="0.75"/>
<line x1="529.375" x2="529.375" y2="1080" stroke="#D0D5DD" stroke-width="0.75"/>
<line x1="589.375" x2="589.375" y2="1080" stroke="#D0D5DD" stroke-width="0.75"/>
<line x1="649.375" x2="649.375" y2="1080" stroke="#D0D5DD" stroke-width="0.75"/>
<line x1="709.375" x2="709.375" y2="1080" stroke="#D0D5DD" stroke-width="0.75"/>
<line x1="769.375" x2="769.375" y2="1080" stroke="#D0D5DD" stroke-width="0.75"/>
<line x1="829.375" x2="829.375" y2="1080" stroke="#D0D5DD" stroke-width="0.75"/>
<line x1="889.375" x2="889.375" y2="1080" stroke="#D0D5DD" stroke-width="0.75"/>
<line x1="949.375" x2="949.375" y2="1080" stroke="#D0D5DD" stroke-width="0.75"/>
<line x1="1009.37" x2="1009.38" y2="1080" stroke="#D0D5DD" stroke-width="0.75"/>
<line x1="1069.37" x2="1069.38" y2="1080" stroke="#D0D5DD" stroke-width="0.75"/>
<line x1="1129.37" x2="1129.38" y2="1080" stroke="#D0D5DD" stroke-width="0.75"/>
<line x1="1189.37" x2="1189.38" y2="1080" stroke="#D0D5DD" stroke-width="0.75"/>
</g>
<g clip-path="url(#clip3_95_4653)">
<line x1="-11" y1="59.625" x2="1429" y2="59.625" stroke="#D0D5DD" stroke-width="0.75"/>
<line x1="-11" y1="119.625" x2="1429" y2="119.625" stroke="#D0D5DD" stroke-width="0.75"/>
<line x1="-11" y1="179.625" x2="1429" y2="179.625" stroke="#D0D5DD" stroke-width="0.75"/>
<line x1="-11" y1="239.625" x2="1429" y2="239.625" stroke="#D0D5DD" stroke-width="0.75"/>
<line x1="-11" y1="299.625" x2="1429" y2="299.625" stroke="#D0D5DD" stroke-width="0.75"/>
<line x1="-11" y1="359.625" x2="1429" y2="359.625" stroke="#D0D5DD" stroke-width="0.75"/>
<line x1="-11" y1="419.625" x2="1429" y2="419.625" stroke="#D0D5DD" stroke-width="0.75"/>
<line x1="-11" y1="479.625" x2="1429" y2="479.625" stroke="#D0D5DD" stroke-width="0.75"/>
<line x1="-11" y1="539.625" x2="1429" y2="539.625" stroke="#D0D5DD" stroke-width="0.75"/>
<line x1="-11" y1="599.625" x2="1429" y2="599.625" stroke="#D0D5DD" stroke-width="0.75"/>
<line x1="-11" y1="659.625" x2="1429" y2="659.625" stroke="#D0D5DD" stroke-width="0.75"/>
</g>
</g>
</g>
</g>
<circle opacity="0.4" cx="1114.67" cy="211.381" r="2.2113" fill="#D9D9D9"/>
<circle opacity="0.4" cx="1176.58" cy="298.727" r="2.2113" fill="#D9D9D9"/>
<circle opacity="0.4" cx="1057.18" cy="304.256" r="2.2113" fill="#D9D9D9"/>
<circle opacity="0.4" cx="885.801" cy="288.777" r="2.2113" fill="#D9D9D9"/>
<circle opacity="0.4" cx="773.026" cy="232.389" r="2.2113" fill="#D9D9D9"/>
<circle opacity="0.4" cx="792.926" cy="352.905" r="2.2113" fill="#D9D9D9"/>
<circle opacity="0.4" cx="797.348" cy="438.04" r="2.2113" fill="#D9D9D9"/>
<circle opacity="0.4" cx="696.735" cy="538.653" r="2.2113" fill="#D9D9D9"/>
<circle opacity="0.4" cx="829.412" cy="506.591" r="2.2113" fill="#D9D9D9"/>
<circle opacity="0.4" cx="945.504" cy="585.091" r="2.2113" fill="#D9D9D9"/>
<circle opacity="0.4" cx="1035.06" cy="623.789" r="2.2113" fill="#D9D9D9"/>
<circle opacity="0.4" cx="1110.25" cy="571.824" r="2.2113" fill="#D9D9D9"/>
<circle opacity="0.4" cx="1172.16" cy="589.514" r="2.2113" fill="#D9D9D9"/>
<circle opacity="0.4" cx="1119.09" cy="435.828" r="2.2113" fill="#D9D9D9"/>
<circle opacity="0.4" cx="303.127" cy="445.781" r="2.2113" transform="rotate(180 303.127 445.781)" fill="#D9D9D9"/>
<circle opacity="0.4" cx="241.211" cy="358.434" r="2.2113" transform="rotate(180 241.211 358.434)" fill="#D9D9D9"/>
<circle opacity="0.4" cx="360.623" cy="352.906" r="2.2113" transform="rotate(180 360.623 352.906)" fill="#D9D9D9"/>
<circle opacity="0.4" cx="531.996" cy="368.385" r="2.2113" transform="rotate(180 531.996 368.385)" fill="#D9D9D9"/>
<circle opacity="0.4" cx="644.773" cy="424.774" r="2.2113" transform="rotate(180 644.773 424.774)" fill="#D9D9D9"/>
<circle opacity="0.4" cx="624.873" cy="304.257" r="2.2113" transform="rotate(180 624.873 304.257)" fill="#D9D9D9"/>
<circle opacity="0.4" cx="620.451" cy="219.122" r="2.2113" transform="rotate(180 620.451 219.122)" fill="#D9D9D9"/>
<circle opacity="0.4" cx="721.064" cy="118.508" r="2.2113" transform="rotate(180 721.064 118.508)" fill="#D9D9D9"/>
<circle opacity="0.4" cx="588.386" cy="150.571" r="2.2113" transform="rotate(180 588.386 150.571)" fill="#D9D9D9"/>
<circle opacity="0.4" cx="568.486" cy="21.2113" r="2.2113" transform="rotate(180 568.486 21.2113)" fill="#D9D9D9"/>
<circle opacity="0.4" cx="472.295" cy="72.0702" r="2.2113" transform="rotate(180 472.295 72.0702)" fill="#D9D9D9"/>
<circle opacity="0.4" cx="382.734" cy="33.3734" r="2.2113" transform="rotate(180 382.734 33.3734)" fill="#D9D9D9"/>
<circle opacity="0.4" cx="307.552" cy="85.338" r="2.2113" transform="rotate(180 307.552 85.338)" fill="#D9D9D9"/>
<circle opacity="0.4" cx="245.636" cy="67.6478" r="2.2113" transform="rotate(180 245.636 67.6478)" fill="#D9D9D9"/>
<circle opacity="0.4" cx="298.705" cy="221.333" r="2.2113" transform="rotate(180 298.705 221.333)" fill="#D9D9D9"/>
<circle cx="709" cy="357" r="337" fill="url(#paint1_radial_95_4653)" fill-opacity="0.7"/>
<defs>
<radialGradient id="paint0_radial_95_4653" cx="0" cy="0" r="1" gradientUnits="userSpaceOnUse" gradientTransform="translate(540 -0.000128746) rotate(90) scale(1080 563.691)">
<stop/>
<stop offset="0.953125" stop-opacity="0"/>
</radialGradient>
<radialGradient id="paint1_radial_95_4653" cx="0" cy="0" r="1" gradientUnits="userSpaceOnUse" gradientTransform="translate(709 357) rotate(90) scale(337)">
<stop stop-color="#B49AE1" stop-opacity="0.2"/>
<stop offset="1" stop-color="white" stop-opacity="0"/>
</radialGradient>
<clipPath id="clip0_95_4653">
<rect width="1417" height="681" fill="white"/>
</clipPath>
<clipPath id="clip1_95_4653">
<rect width="1440" height="1080" fill="white" transform="translate(-11)"/>
</clipPath>
<clipPath id="clip2_95_4653">
<rect width="1440" height="1080" fill="white" transform="translate(-11)"/>
</clipPath>
<clipPath id="clip3_95_4653">
<rect width="1440" height="1080" fill="white" transform="translate(-11)"/>
</clipPath>
</defs>
</svg>
