<svg width="1417" height="779" viewBox="0 0 1417 779" fill="none" xmlns="http://www.w3.org/2000/svg">
<path d="M-27 161.306H93.5555C141.113 161.306 179.667 199.859 179.667 247.417V549.882C179.667 597.44 141.113 635.993 93.5556 635.993H-27" stroke="#6466F1" stroke-opacity="0.16" stroke-width="2.15278"/>
<path d="M1436.89 161.306H1316.33C1268.78 161.306 1230.22 199.859 1230.22 247.417V549.882C1230.22 597.44 1268.78 635.993 1316.33 635.993H1436.89" stroke="#6466F1" stroke-opacity="0.16" stroke-width="2.15278"/>
<path d="M-27 776.999H154.491C183.026 776.999 206.158 753.867 206.158 725.333V725.333C206.158 696.798 229.29 673.666 257.824 673.666H1151C1179.53 673.666 1202.67 696.798 1202.67 725.333V725.333C1202.67 753.867 1225.8 776.999 1254.33 776.999H1436.89" stroke="#6466F1" stroke-opacity="0.16" stroke-width="2.15278"/>
<path d="M-27 1.99967H154.491C183.026 1.99967 206.158 25.1316 206.158 53.6663V53.6663C206.158 82.201 229.29 105.333 257.824 105.333H1151C1179.53 105.333 1202.67 82.201 1202.67 53.6663V53.6663C1202.67 25.1316 1225.8 1.99967 1254.33 1.99967H1436.89" stroke="#6466F1" stroke-opacity="0.16" stroke-width="2.15278"/>
</svg>
