<svg width="400" height="202" viewBox="0 0 400 202" fill="none" xmlns="http://www.w3.org/2000/svg">
<g clip-path="url(#clip0_302_3085)">
<rect x="-14" y="77" width="312.604" height="228" rx="17.1604" fill="white"/>
<rect x="122.226" y="77" width="176.377" height="233.019" fill="#F6F7F9"/>
<rect x="0.339844" y="105.463" width="115.718" height="25.057" rx="4.55582" fill="#D1F701"/>
<path d="M8.15829 99.3398V94.5881H8.73233L10.5118 97.1202H10.2184L11.9852 94.5881H12.5592V99.3398H11.9278V95.379L12.151 95.4492L10.3843 97.9367H10.3332L8.58563 95.4492L8.78335 95.379V99.3398H8.15829ZM14.4246 99.4164C14.1993 99.4164 13.9994 99.376 13.8251 99.2952C13.655 99.2102 13.5211 99.0953 13.4233 98.9508C13.3255 98.802 13.2766 98.6319 13.2766 98.4405C13.2766 98.2577 13.3148 98.094 13.3914 97.9494C13.4722 97.8006 13.5955 97.6751 13.7613 97.5731C13.9314 97.471 14.144 97.3988 14.3991 97.3562L15.6747 97.1458V97.6433L14.533 97.8346C14.3119 97.8729 14.1504 97.943 14.0483 98.0451C13.9505 98.1471 13.9016 98.2726 13.9016 98.4214C13.9016 98.5617 13.9569 98.6786 14.0674 98.7722C14.1823 98.8657 14.3247 98.9125 14.4948 98.9125C14.7116 98.9125 14.8987 98.8679 15.0561 98.7786C15.2176 98.685 15.3431 98.5596 15.4324 98.4023C15.5259 98.2449 15.5727 98.0706 15.5727 97.8792V97.0054C15.5727 96.8184 15.5025 96.6674 15.3622 96.5526C15.2261 96.4335 15.0454 96.374 14.8201 96.374C14.6245 96.374 14.4501 96.425 14.2971 96.5271C14.1482 96.6249 14.0377 96.7567 13.9654 96.9225L13.4488 96.6546C13.5125 96.4973 13.6146 96.357 13.7549 96.2337C13.8952 96.1061 14.0589 96.0062 14.246 95.9339C14.4331 95.8616 14.6287 95.8255 14.8328 95.8255C15.0965 95.8255 15.3282 95.8765 15.528 95.9786C15.7279 96.0764 15.8831 96.2146 15.9936 96.3931C16.1085 96.5675 16.1659 96.7716 16.1659 97.0054V99.3398H15.5854V98.6893L15.6939 98.7275C15.6216 98.8636 15.5238 98.9827 15.4005 99.0847C15.2772 99.1868 15.1326 99.2676 14.9668 99.3271C14.8009 99.3866 14.6202 99.4164 14.4246 99.4164ZM16.958 99.3398V95.902H17.5512V99.3398H16.958ZM16.958 95.3535V94.5881H17.5512V95.3535H16.958ZM18.344 99.3398V95.902H18.9244V96.5717L18.8287 96.5143C18.9138 96.2975 19.0498 96.1295 19.2369 96.0105C19.4283 95.8871 19.6515 95.8255 19.9066 95.8255C20.1533 95.8255 20.3722 95.8808 20.5636 95.9913C20.7592 96.1019 20.9123 96.2549 21.0228 96.4505C21.1376 96.6461 21.195 96.8672 21.195 97.1139V99.3398H20.5955V97.3052C20.5955 97.1139 20.5615 96.9523 20.4934 96.8205C20.4254 96.6887 20.3276 96.5866 20.2 96.5143C20.0767 96.4378 19.9343 96.3995 19.7727 96.3995C19.6111 96.3995 19.4665 96.4378 19.339 96.5143C19.2157 96.5866 19.1179 96.6908 19.0456 96.8269C18.9733 96.9587 18.9372 97.1181 18.9372 97.3052V99.3398H18.344ZM22.9613 99.3398V94.5881H23.5354L25.3149 97.1202H25.0215L26.7882 94.5881H27.3622V99.3398H26.7308V95.379L26.954 95.4492L25.1873 97.9367H25.1363L23.3887 95.4492L23.5864 95.379V99.3398H22.9613ZM29.8017 99.4164C29.47 99.4164 29.1745 99.3377 28.9151 99.1804C28.6557 99.0231 28.4516 98.8083 28.3028 98.5362C28.154 98.2598 28.0796 97.9515 28.0796 97.6114C28.0796 97.2669 28.1519 96.9608 28.2964 96.6929C28.4453 96.425 28.6451 96.2146 28.896 96.0615C29.1511 95.9041 29.436 95.8255 29.7507 95.8255C30.0058 95.8255 30.2311 95.8723 30.4267 95.9658C30.6266 96.0551 30.7945 96.1784 30.9306 96.3357C31.0709 96.4888 31.1772 96.6653 31.2495 96.8651C31.3261 97.0607 31.3643 97.2648 31.3643 97.4774C31.3643 97.5242 31.3601 97.5773 31.3516 97.6369C31.3473 97.6922 31.3409 97.7453 31.3324 97.7963H28.5133V97.2861H30.988L30.7074 97.5157C30.7456 97.2946 30.7244 97.0969 30.6436 96.9225C30.5628 96.7482 30.4437 96.61 30.2864 96.5079C30.1291 96.4059 29.9505 96.3549 29.7507 96.3549C29.5508 96.3549 29.368 96.4059 29.2021 96.5079C29.0363 96.61 28.9066 96.7567 28.8131 96.948C28.7238 97.1351 28.6876 97.3584 28.7046 97.6177C28.6876 97.8686 28.7259 98.0897 28.8194 98.2811C28.9172 98.4682 29.0533 98.6149 29.2276 98.7212C29.4062 98.8232 29.5997 98.8742 29.8081 98.8742C30.0377 98.8742 30.2311 98.8211 30.3885 98.7148C30.5458 98.6085 30.6734 98.4724 30.7712 98.3066L31.2687 98.5617C31.2006 98.719 31.0943 98.8636 30.9497 98.9954C30.8094 99.123 30.6415 99.225 30.4459 99.3016C30.2545 99.3781 30.0398 99.4164 29.8017 99.4164ZM32.0102 99.3398V95.902H32.5906V96.5717L32.4949 96.5143C32.5799 96.2975 32.716 96.1295 32.9031 96.0105C33.0944 95.8871 33.3177 95.8255 33.5728 95.8255C33.8194 95.8255 34.0384 95.8808 34.2298 95.9913C34.4254 96.1019 34.5784 96.2549 34.689 96.4505C34.8038 96.6461 34.8612 96.8672 34.8612 97.1139V99.3398H34.2616V97.3052C34.2616 97.1139 34.2276 96.9523 34.1596 96.8205C34.0916 96.6887 33.9938 96.5866 33.8662 96.5143C33.7429 96.4378 33.6004 96.3995 33.4389 96.3995C33.2773 96.3995 33.1327 96.4378 33.0052 96.5143C32.8818 96.5866 32.784 96.6908 32.7118 96.8269C32.6395 96.9587 32.6033 97.1181 32.6033 97.3052V99.3398H32.0102ZM36.8006 99.4164C36.554 99.4164 36.3308 99.359 36.1309 99.2442C35.9353 99.1294 35.7823 98.9699 35.6717 98.7658C35.5654 98.5575 35.5123 98.3193 35.5123 98.0515V95.902H36.1054V97.9877C36.1054 98.1578 36.1394 98.3066 36.2075 98.4341C36.2798 98.5617 36.3776 98.6616 36.5009 98.7339C36.6284 98.8062 36.773 98.8423 36.9346 98.8423C37.0962 98.8423 37.2386 98.8062 37.3619 98.7339C37.4895 98.6616 37.5873 98.5575 37.6553 98.4214C37.7276 98.2853 37.7637 98.1237 37.7637 97.9367V95.902H38.3633V99.3398H37.7829V98.6701L37.8786 98.7275C37.7978 98.9444 37.6596 99.1145 37.464 99.2378C37.2726 99.3569 37.0515 99.4164 36.8006 99.4164Z" fill="#90A3BF"/>
<path d="M11.835 114.591C12.253 114.255 12.9098 114.236 13.3633 114.532L13.4512 114.596L16.1855 116.783C16.3397 116.909 16.4745 117.107 16.5615 117.335C16.6483 117.562 16.6799 117.799 16.6504 117.996L16.124 121.146C16.0208 121.734 15.4473 122.22 14.8545 122.221H10.4277C9.86298 122.221 9.3339 121.803 9.18555 121.259L9.16113 121.148L8.63477 118L8.62109 117.845C8.6194 117.683 8.65272 117.507 8.71777 117.336C8.78283 117.165 8.8763 117.011 8.98535 116.892L9.09961 116.783L11.835 114.591ZM12.6406 118.983C12.3437 118.983 12.0998 119.228 12.0996 119.524V120.777C12.0996 121.074 12.3436 121.318 12.6406 121.318C12.9377 121.318 13.1816 121.074 13.1816 120.777V119.524C13.1815 119.228 12.9375 118.983 12.6406 118.983Z" fill="#1E293B" stroke="#1E293B" stroke-width="0.455582"/>
<path d="M24.6617 121.273V115.164H26.6626C27.2968 115.164 27.8462 115.293 28.3109 115.55C28.7811 115.801 29.1446 116.156 29.4016 116.616C29.6585 117.075 29.787 117.608 29.787 118.215C29.787 118.816 29.6585 119.349 29.4016 119.814C29.1446 120.273 28.7811 120.631 28.3109 120.888C27.8462 121.145 27.2968 121.273 26.6626 121.273H24.6617ZM25.6294 120.412H26.679C27.1109 120.412 27.4854 120.322 27.8025 120.142C28.125 119.961 28.3738 119.707 28.5487 119.379C28.7237 119.051 28.8111 118.663 28.8111 118.215C28.8111 117.766 28.7209 117.381 28.5405 117.058C28.3656 116.73 28.1196 116.476 27.8025 116.296C27.4854 116.115 27.1109 116.025 26.679 116.025H25.6294V120.412ZM31.7742 121.372C31.4735 121.372 31.2084 121.32 30.9788 121.216C30.7546 121.107 30.5797 120.959 30.4539 120.773C30.3282 120.582 30.2653 120.358 30.2653 120.101C30.2653 119.86 30.3173 119.644 30.4211 119.453C30.5305 119.262 30.6972 119.1 30.9214 118.969C31.1455 118.838 31.4271 118.745 31.766 118.69L33.3077 118.436V119.166L31.9464 119.404C31.7004 119.447 31.52 119.527 31.4052 119.642C31.2904 119.751 31.233 119.893 31.233 120.068C31.233 120.237 31.2958 120.377 31.4216 120.486C31.5528 120.59 31.7195 120.642 31.9218 120.642C32.1733 120.642 32.392 120.587 32.5779 120.478C32.7692 120.369 32.9168 120.224 33.0207 120.043C33.1246 119.857 33.1765 119.652 33.1765 119.428V118.288C33.1765 118.07 33.0945 117.892 32.9305 117.755C32.7719 117.613 32.5587 117.542 32.2908 117.542C32.0448 117.542 31.8289 117.608 31.643 117.739C31.4626 117.865 31.3287 118.029 31.2412 118.231L30.4703 117.846C30.5523 117.627 30.6863 117.436 30.8722 117.272C31.058 117.102 31.274 116.971 31.52 116.878C31.7715 116.785 32.0366 116.739 32.3154 116.739C32.6653 116.739 32.9742 116.804 33.2421 116.935C33.5154 117.067 33.7259 117.25 33.8735 117.485C34.0266 117.714 34.1031 117.982 34.1031 118.288V121.273H33.2175V120.47L33.4061 120.494C33.3022 120.675 33.1683 120.831 33.0043 120.962C32.8457 121.093 32.6626 121.194 32.4548 121.265C32.2526 121.336 32.0257 121.372 31.7742 121.372ZM36.6627 121.372C36.209 121.372 35.8099 121.26 35.4654 121.036C35.1265 120.811 34.8887 120.511 34.752 120.134L35.4654 119.797C35.5857 120.049 35.7497 120.248 35.9575 120.396C36.1707 120.544 36.4058 120.617 36.6627 120.617C36.8814 120.617 37.0591 120.568 37.1957 120.47C37.3324 120.371 37.4008 120.237 37.4008 120.068C37.4008 119.959 37.3707 119.871 37.3106 119.806C37.2504 119.734 37.1739 119.677 37.0809 119.633C36.9935 119.59 36.9033 119.557 36.8103 119.535L36.1133 119.338C35.7306 119.229 35.4436 119.065 35.2522 118.846C35.0664 118.622 34.9734 118.362 34.9734 118.067C34.9734 117.799 35.0418 117.567 35.1784 117.37C35.3151 117.168 35.5037 117.012 35.7443 116.903C35.9848 116.793 36.2554 116.739 36.5561 116.739C36.9607 116.739 37.3215 116.84 37.6386 117.042C37.9557 117.239 38.1798 117.515 38.311 117.87L37.5976 118.206C37.5101 117.993 37.3707 117.824 37.1793 117.698C36.9935 117.572 36.783 117.509 36.5479 117.509C36.3456 117.509 36.1844 117.559 36.0641 117.657C35.9438 117.75 35.8837 117.873 35.8837 118.026C35.8837 118.13 35.911 118.217 35.9657 118.288C36.0203 118.354 36.0914 118.409 36.1789 118.452C36.2664 118.491 36.3566 118.524 36.4495 118.551L37.1711 118.764C37.5374 118.868 37.819 119.032 38.0158 119.256C38.2126 119.475 38.311 119.737 38.311 120.043C38.311 120.306 38.2399 120.538 38.0978 120.74C37.9611 120.937 37.7698 121.093 37.5238 121.208C37.2778 121.317 36.9907 121.372 36.6627 121.372ZM39.0549 121.273V115.066H39.9816V117.706L39.834 117.591C39.9433 117.313 40.1183 117.102 40.3588 116.96C40.5994 116.812 40.8782 116.739 41.1953 116.739C41.5233 116.739 41.813 116.81 42.0645 116.952C42.316 117.094 42.5128 117.291 42.655 117.542C42.7971 117.794 42.8682 118.081 42.8682 118.403V121.273H41.9497V118.657C41.9497 118.433 41.906 118.245 41.8185 118.092C41.7365 117.933 41.6217 117.813 41.4741 117.731C41.3265 117.643 41.157 117.6 40.9657 117.6C40.7798 117.6 40.6103 117.643 40.4572 117.731C40.3096 117.813 40.1921 117.933 40.1046 118.092C40.0226 118.25 39.9816 118.439 39.9816 118.657V121.273H39.0549ZM46.0658 121.372C45.7214 121.372 45.4071 121.301 45.1228 121.159C44.844 121.016 44.628 120.811 44.4749 120.544L44.5816 120.371V121.273H43.6959V115.066H44.6226V117.755L44.4749 117.542C44.639 117.291 44.8576 117.094 45.131 116.952C45.4043 116.81 45.716 116.739 46.0658 116.739C46.4868 116.739 46.864 116.84 47.1975 117.042C47.5365 117.244 47.8016 117.52 47.9929 117.87C48.1898 118.22 48.2882 118.614 48.2882 119.051C48.2882 119.488 48.1898 119.882 47.9929 120.232C47.8016 120.582 47.5392 120.861 47.2057 121.068C46.8722 121.271 46.4923 121.372 46.0658 121.372ZM45.9756 120.511C46.238 120.511 46.4704 120.448 46.6727 120.322C46.875 120.196 47.0335 120.024 47.1483 119.806C47.2686 119.581 47.3287 119.33 47.3287 119.051C47.3287 118.772 47.2686 118.524 47.1483 118.305C47.0335 118.086 46.875 117.914 46.6727 117.788C46.4704 117.662 46.238 117.6 45.9756 117.6C45.7187 117.6 45.4863 117.662 45.2786 117.788C45.0763 117.914 44.915 118.086 44.7948 118.305C44.68 118.524 44.6226 118.772 44.6226 119.051C44.6226 119.33 44.68 119.581 44.7948 119.806C44.915 120.024 45.0763 120.196 45.2786 120.322C45.4863 120.448 45.7187 120.511 45.9756 120.511ZM51.1659 121.372C50.7395 121.372 50.3486 121.271 49.9932 121.068C49.6433 120.866 49.3645 120.59 49.1568 120.24C48.949 119.89 48.8452 119.494 48.8452 119.051C48.8452 118.603 48.949 118.206 49.1568 117.862C49.3645 117.512 49.6433 117.239 49.9932 117.042C50.3431 116.84 50.734 116.739 51.1659 116.739C51.6032 116.739 51.9941 116.84 52.3386 117.042C52.6884 117.239 52.9645 117.512 53.1668 117.862C53.3746 118.206 53.4784 118.603 53.4784 119.051C53.4784 119.499 53.3746 119.898 53.1668 120.248C52.9591 120.598 52.6802 120.874 52.3304 121.077C51.9805 121.273 51.5923 121.372 51.1659 121.372ZM51.1659 120.511C51.4283 120.511 51.6607 120.448 51.8629 120.322C52.0652 120.196 52.2238 120.024 52.3386 119.806C52.4588 119.581 52.519 119.33 52.519 119.051C52.519 118.772 52.4588 118.524 52.3386 118.305C52.2238 118.086 52.0652 117.914 51.8629 117.788C51.6607 117.662 51.4283 117.6 51.1659 117.6C50.9089 117.6 50.6766 117.662 50.4689 117.788C50.2666 117.914 50.1053 118.086 49.985 118.305C49.8702 118.524 49.8128 118.772 49.8128 119.051C49.8128 119.33 49.8702 119.581 49.985 119.806C50.1053 120.024 50.2666 120.196 50.4689 120.322C50.6766 120.448 50.9089 120.511 51.1659 120.511ZM55.5476 121.372C55.2469 121.372 54.9817 121.32 54.7521 121.216C54.528 121.107 54.353 120.959 54.2273 120.773C54.1016 120.582 54.0387 120.358 54.0387 120.101C54.0387 119.86 54.0906 119.644 54.1945 119.453C54.3038 119.262 54.4706 119.1 54.6947 118.969C54.9189 118.838 55.2004 118.745 55.5394 118.69L57.0811 118.436V119.166L55.7198 119.404C55.4738 119.447 55.2934 119.527 55.1785 119.642C55.0637 119.751 55.0063 119.893 55.0063 120.068C55.0063 120.237 55.0692 120.377 55.1949 120.486C55.3262 120.59 55.4929 120.642 55.6952 120.642C55.9467 120.642 56.1653 120.587 56.3512 120.478C56.5426 120.369 56.6902 120.224 56.794 120.043C56.8979 119.857 56.9499 119.652 56.9499 119.428V118.288C56.9499 118.07 56.8678 117.892 56.7038 117.755C56.5453 117.613 56.3321 117.542 56.0642 117.542C55.8182 117.542 55.6022 117.608 55.4164 117.739C55.236 117.865 55.102 118.029 55.0145 118.231L54.2437 117.846C54.3257 117.627 54.4596 117.436 54.6455 117.272C54.8314 117.102 55.0473 116.971 55.2934 116.878C55.5448 116.785 55.81 116.739 56.0888 116.739C56.4387 116.739 56.7476 116.804 57.0155 116.935C57.2888 117.067 57.4993 117.25 57.6469 117.485C57.8 117.714 57.8765 117.982 57.8765 118.288V121.273H56.9909V120.47L57.1795 120.494C57.0756 120.675 56.9417 120.831 56.7776 120.962C56.6191 121.093 56.436 121.194 56.2282 121.265C56.0259 121.336 55.7991 121.372 55.5476 121.372ZM58.796 121.273V116.837H59.6816V117.731L59.5996 117.6C59.698 117.31 59.8566 117.102 60.0753 116.976C60.2939 116.845 60.5563 116.78 60.8625 116.78H61.1331V117.624H60.7477C60.4415 117.624 60.1928 117.72 60.0014 117.911C59.8156 118.097 59.7226 118.365 59.7226 118.715V121.273H58.796ZM63.6532 121.372C63.2267 121.372 62.844 121.271 62.5051 121.068C62.1716 120.861 61.9065 120.582 61.7096 120.232C61.5183 119.882 61.4226 119.488 61.4226 119.051C61.4226 118.614 61.521 118.22 61.7178 117.87C61.9147 117.52 62.1798 117.244 62.5133 117.042C62.8468 116.84 63.224 116.739 63.645 116.739C64.0003 116.739 64.3147 116.81 64.588 116.952C64.8614 117.094 65.0773 117.291 65.2358 117.542L65.0964 117.755V115.066H66.0149V121.273H65.1374V120.371L65.2441 120.544C65.091 120.811 64.8723 121.016 64.588 121.159C64.3037 121.301 63.9921 121.372 63.6532 121.372ZM63.7434 120.511C64.0003 120.511 64.2299 120.448 64.4322 120.322C64.6399 120.196 64.8012 120.024 64.916 119.806C65.0363 119.581 65.0964 119.33 65.0964 119.051C65.0964 118.772 65.0363 118.524 64.916 118.305C64.8012 118.086 64.6399 117.914 64.4322 117.788C64.2299 117.662 64.0003 117.6 63.7434 117.6C63.4864 117.6 63.2541 117.662 63.0463 117.788C62.8386 117.914 62.6773 118.086 62.5625 118.305C62.4477 118.524 62.3903 118.772 62.3903 119.051C62.3903 119.33 62.4477 119.581 62.5625 119.806C62.6773 120.024 62.8358 120.196 63.0381 120.322C63.2459 120.448 63.4809 120.511 63.7434 120.511Z" fill="#1E293B"/>
<path d="M10.502 147.419V146.555" stroke="#596780" stroke-width="0.911164" stroke-linecap="round"/>
<path d="M12.6406 147.418V145.689" stroke="#596780" stroke-width="0.911164" stroke-linecap="round"/>
<path d="M14.7783 147.42V144.822" stroke="#596780" stroke-width="0.911164" stroke-linecap="round"/>
<path d="M14.7783 142.283L14.5862 142.509C13.5213 143.753 12.0931 144.634 10.502 145.031" stroke="#596780" stroke-width="0.683373" stroke-linecap="round"/>
<path d="M13.5547 142.283H14.7783V143.503" stroke="#596780" stroke-width="0.683373" stroke-linecap="round" stroke-linejoin="round"/>
<path d="M11.3872 149.028H13.8929C15.981 149.028 16.8162 148.193 16.8162 146.105V143.599C16.8162 141.511 15.981 140.676 13.8929 140.676H11.3872C9.2991 140.676 8.46387 141.511 8.46387 143.599V146.105C8.46387 148.193 9.2991 149.028 11.3872 149.028Z" stroke="#596780" stroke-width="0.683373" stroke-linecap="round" stroke-linejoin="round"/>
<path d="M24.7109 147.852V141.742H25.5146V147.852H24.7109ZM26.6189 147.852V143.432H27.3652V144.293L27.2422 144.219C27.3515 143.94 27.5265 143.724 27.767 143.571C28.013 143.412 28.3 143.333 28.628 143.333C28.9451 143.333 29.2267 143.404 29.4727 143.546C29.7242 143.688 29.921 143.885 30.0631 144.137C30.2107 144.388 30.2845 144.673 30.2845 144.99V147.852H29.5137V145.236C29.5137 144.99 29.47 144.782 29.3825 144.612C29.295 144.443 29.1693 144.312 29.0053 144.219C28.8467 144.12 28.6636 144.071 28.4558 144.071C28.2481 144.071 28.0622 144.12 27.8982 144.219C27.7397 144.312 27.6139 144.446 27.521 144.621C27.428 144.79 27.3816 144.995 27.3816 145.236V147.852H26.6189ZM32.7945 147.95C32.3517 147.95 31.9663 147.841 31.6383 147.622C31.3102 147.403 31.0779 147.108 30.9412 146.736L31.5481 146.441C31.6738 146.703 31.846 146.911 32.0647 147.064C32.2834 147.217 32.5266 147.294 32.7945 147.294C33.0351 147.294 33.2346 147.237 33.3932 147.122C33.5517 147.007 33.631 146.857 33.631 146.671C33.631 146.539 33.5927 146.436 33.5162 146.359C33.4451 146.277 33.3576 146.214 33.2538 146.17C33.1499 146.121 33.0542 146.086 32.9667 146.064L32.3025 145.875C31.9034 145.76 31.6109 145.596 31.425 145.383C31.2446 145.17 31.1544 144.921 31.1544 144.637C31.1544 144.375 31.22 144.148 31.3512 143.956C31.4879 143.76 31.6711 143.606 31.9007 143.497C32.1358 143.388 32.3982 143.333 32.6879 143.333C33.0761 143.333 33.4232 143.432 33.7294 143.628C34.041 143.825 34.2624 144.101 34.3936 144.457L33.7704 144.744C33.672 144.514 33.5244 144.334 33.3276 144.202C33.1307 144.066 32.9093 143.997 32.6633 143.997C32.4392 143.997 32.2615 144.055 32.1303 144.17C31.9991 144.279 31.9335 144.418 31.9335 144.588C31.9335 144.714 31.9663 144.817 32.0319 144.899C32.0975 144.976 32.1768 145.036 32.2697 145.08C32.3626 145.118 32.4528 145.151 32.5403 145.178L33.262 145.391C33.6228 145.495 33.9016 145.657 34.0984 145.875C34.3007 146.094 34.4018 146.356 34.4018 146.662C34.4018 146.909 34.3335 147.13 34.1968 147.327C34.0601 147.524 33.8715 147.677 33.631 147.786C33.3904 147.895 33.1116 147.95 32.7945 147.95ZM35.2362 147.852V143.432H35.9988V147.852H35.2362ZM35.2362 142.726V141.742H35.9988V142.726H35.2362ZM39.1257 149.656C38.8141 149.656 38.5243 149.606 38.2564 149.508C37.994 149.41 37.7671 149.273 37.5758 149.098C37.3899 148.929 37.2478 148.729 37.1494 148.499L37.8628 148.171C37.9393 148.379 38.0842 148.554 38.2974 148.696C38.5161 148.844 38.7895 148.918 39.1175 148.918C39.369 148.918 39.5958 148.868 39.7981 148.77C40.0059 148.677 40.1699 148.535 40.2901 148.344C40.4104 148.158 40.4706 147.931 40.4706 147.663V146.671L40.61 146.818C40.4569 147.119 40.2355 147.349 39.9457 147.507C39.6614 147.666 39.3471 147.745 39.0027 147.745C38.5872 147.745 38.2154 147.649 37.8874 147.458C37.5594 147.261 37.3024 146.996 37.1166 146.662C36.9307 146.324 36.8377 145.949 36.8377 145.539C36.8377 145.124 36.9307 144.749 37.1166 144.416C37.3024 144.082 37.5567 143.82 37.8792 143.628C38.2072 143.432 38.579 143.333 38.9945 143.333C39.3389 143.333 39.6505 143.412 39.9293 143.571C40.2136 143.724 40.4405 143.937 40.61 144.211L40.4952 144.416V143.432H41.2414V147.663C41.2414 148.046 41.1512 148.387 40.9708 148.688C40.7904 148.989 40.5389 149.224 40.2163 149.393C39.8993 149.568 39.5357 149.656 39.1257 149.656ZM39.0683 147.007C39.3307 147.007 39.5658 146.941 39.7735 146.81C39.9867 146.679 40.1562 146.504 40.2819 146.285C40.4077 146.061 40.4706 145.812 40.4706 145.539C40.4706 145.271 40.4077 145.025 40.2819 144.801C40.1562 144.577 39.9867 144.399 39.7735 144.268C39.5658 144.137 39.3307 144.071 39.0683 144.071C38.8004 144.071 38.5571 144.137 38.3384 144.268C38.1198 144.399 37.9475 144.577 37.8218 144.801C37.7015 145.02 37.6414 145.266 37.6414 145.539C37.6414 145.812 37.7015 146.061 37.8218 146.285C37.9475 146.504 38.117 146.679 38.3302 146.81C38.5489 146.941 38.7949 147.007 39.0683 147.007ZM42.2597 147.852V141.644H43.0224V144.293L42.883 144.219C42.9923 143.94 43.1672 143.724 43.4078 143.571C43.6538 143.412 43.9408 143.333 44.2688 143.333C44.5859 143.333 44.8675 143.404 45.1135 143.546C45.365 143.688 45.5618 143.885 45.7039 144.137C45.8515 144.388 45.9253 144.673 45.9253 144.99V147.852H45.1545V145.236C45.1545 144.99 45.108 144.782 45.0151 144.612C44.9276 144.443 44.8046 144.312 44.6461 144.219C44.4875 144.12 44.3044 144.071 44.0966 144.071C43.8944 144.071 43.7112 144.12 43.5472 144.219C43.3832 144.312 43.2547 144.446 43.1618 144.621C43.0688 144.79 43.0224 144.995 43.0224 145.236V147.852H42.2597ZM48.6485 147.901C48.2166 147.901 47.8832 147.778 47.6481 147.532C47.4185 147.286 47.3037 146.939 47.3037 146.49V144.161H46.5V143.432H46.664C46.8608 143.432 47.0166 143.371 47.1315 143.251C47.2463 143.131 47.3037 142.972 47.3037 142.775V142.415H48.0663V143.432H49.0586V144.161H48.0663V146.466C48.0663 146.613 48.0882 146.742 48.1319 146.851C48.1811 146.96 48.2604 147.048 48.3697 147.114C48.4791 147.174 48.6239 147.204 48.8043 147.204C48.8426 147.204 48.8891 147.201 48.9438 147.196C49.0039 147.19 49.0586 147.185 49.1078 147.179V147.852C49.0367 147.868 48.9574 147.879 48.87 147.884C48.7825 147.895 48.7087 147.901 48.6485 147.901Z" fill="#596780"/>
<path d="M16.8162 170.597V172.685C16.8162 174.773 15.981 175.608 13.8929 175.608H11.3872C9.2991 175.608 8.46387 174.773 8.46387 172.685V170.179C8.46387 168.091 9.2991 167.256 11.3872 167.256H13.4753" stroke="#596780" stroke-width="0.911164" stroke-linecap="round" stroke-linejoin="round"/>
<path d="M16.8165 170.597H15.1461C13.8932 170.597 13.4756 170.179 13.4756 168.926V167.256L16.8165 170.597Z" stroke="#596780" stroke-width="0.911164" stroke-linecap="round" stroke-linejoin="round"/>
<path d="M10.5527 171.85H13.0584" stroke="#596780" stroke-width="0.911164" stroke-linecap="round" stroke-linejoin="round"/>
<path d="M10.5527 173.52H12.2232" stroke="#596780" stroke-width="0.683373" stroke-linecap="round" stroke-linejoin="round"/>
<path d="M24.7109 174.432V168.322H25.5146V174.432H24.7109ZM26.6189 174.432V170.012H27.3652V170.873L27.2422 170.799C27.3515 170.52 27.5265 170.304 27.767 170.151C28.013 169.992 28.3 169.913 28.628 169.913C28.9451 169.913 29.2267 169.984 29.4727 170.126C29.7242 170.269 29.921 170.465 30.0631 170.717C30.2107 170.968 30.2845 171.253 30.2845 171.57V174.432H29.5137V171.816C29.5137 171.57 29.47 171.362 29.3825 171.192C29.295 171.023 29.1693 170.892 29.0053 170.799C28.8467 170.7 28.6636 170.651 28.4558 170.651C28.2481 170.651 28.0622 170.7 27.8982 170.799C27.7397 170.892 27.6139 171.026 27.521 171.201C27.428 171.37 27.3816 171.575 27.3816 171.816V174.432H26.6189ZM32.3618 174.432L30.6315 170.012H31.4844L32.8703 173.751H32.575L33.9691 170.012H34.822L33.0835 174.432H32.3618ZM37.3595 174.53C36.9331 174.53 36.5477 174.432 36.2032 174.235C35.8588 174.033 35.5855 173.756 35.3832 173.407C35.1809 173.057 35.0798 172.66 35.0798 172.218C35.0798 171.775 35.1782 171.381 35.375 171.037C35.5773 170.692 35.8506 170.419 36.195 170.217C36.5395 170.014 36.9276 169.913 37.3595 169.913C37.7859 169.913 38.1713 170.014 38.5158 170.217C38.8602 170.413 39.1308 170.684 39.3276 171.028C39.5299 171.373 39.631 171.769 39.631 172.218C39.631 172.666 39.5272 173.065 39.3194 173.415C39.1117 173.759 38.8356 174.033 38.4912 174.235C38.1522 174.432 37.775 174.53 37.3595 174.53ZM37.3595 173.792C37.6328 173.792 37.8789 173.724 38.0975 173.587C38.3217 173.45 38.4966 173.262 38.6224 173.021C38.7536 172.781 38.8192 172.513 38.8192 172.218C38.8192 171.917 38.7536 171.652 38.6224 171.422C38.4966 171.187 38.3217 171.001 38.0975 170.864C37.8789 170.722 37.6328 170.651 37.3595 170.651C37.0807 170.651 36.8292 170.722 36.6051 170.864C36.3864 171.001 36.2114 171.187 36.0802 171.422C35.949 171.652 35.8834 171.917 35.8834 172.218C35.8834 172.513 35.949 172.781 36.0802 173.021C36.2114 173.262 36.3864 173.45 36.6051 173.587C36.8292 173.724 37.0807 173.792 37.3595 173.792ZM40.4617 174.432V170.012H41.2244V174.432H40.4617ZM40.4617 169.306V168.322H41.2244V169.306H40.4617ZM44.2938 174.53C43.8619 174.53 43.4765 174.429 43.1376 174.227C42.8041 174.024 42.5417 173.748 42.3503 173.398C42.159 173.048 42.0633 172.655 42.0633 172.218C42.0633 171.775 42.159 171.381 42.3503 171.037C42.5417 170.692 42.8041 170.419 43.1376 170.217C43.4765 170.014 43.8619 169.913 44.2938 169.913C44.5836 169.913 44.8542 169.965 45.1057 170.069C45.3572 170.173 45.5786 170.312 45.7699 170.487C45.9613 170.662 46.1007 170.867 46.1881 171.102L45.5075 171.43C45.4036 171.201 45.2451 171.015 45.0319 170.873C44.8187 170.725 44.5726 170.651 44.2938 170.651C44.026 170.651 43.7827 170.72 43.564 170.856C43.3508 170.993 43.1813 171.179 43.0556 171.414C42.9298 171.649 42.867 171.92 42.867 172.226C42.867 172.521 42.9298 172.789 43.0556 173.029C43.1813 173.264 43.3508 173.45 43.564 173.587C43.7827 173.724 44.026 173.792 44.2938 173.792C44.5726 173.792 44.8187 173.721 45.0319 173.579C45.2451 173.431 45.4036 173.237 45.5075 172.997L46.1881 173.341C46.1007 173.571 45.9613 173.776 45.7699 173.956C45.5786 174.131 45.3572 174.27 45.1057 174.374C44.8542 174.478 44.5836 174.53 44.2938 174.53ZM49.0545 174.53C48.6281 174.53 48.2481 174.429 47.9147 174.227C47.5812 174.024 47.3188 173.748 47.1274 173.398C46.9361 173.043 46.8404 172.647 46.8404 172.209C46.8404 171.766 46.9333 171.373 47.1192 171.028C47.3106 170.684 47.5675 170.413 47.8901 170.217C48.2181 170.014 48.5844 169.913 48.9889 169.913C49.3169 169.913 49.6067 169.973 49.8582 170.094C50.1151 170.208 50.3311 170.367 50.506 170.569C50.6864 170.766 50.8231 170.993 50.916 171.25C51.0144 171.501 51.0636 171.764 51.0636 172.037C51.0636 172.097 51.0582 172.166 51.0472 172.242C51.0418 172.313 51.0336 172.382 51.0226 172.447H47.398V171.791H50.5798L50.219 172.086C50.2682 171.802 50.2409 171.548 50.137 171.324C50.0331 171.1 49.88 170.922 49.6778 170.791C49.4755 170.659 49.2459 170.594 48.9889 170.594C48.732 170.594 48.4969 170.659 48.2837 170.791C48.0705 170.922 47.9037 171.11 47.7835 171.356C47.6686 171.597 47.6222 171.884 47.644 172.218C47.6222 172.54 47.6714 172.824 47.7917 173.07C47.9174 173.311 48.0923 173.5 48.3165 173.636C48.5461 173.767 48.7948 173.833 49.0627 173.833C49.3579 173.833 49.6067 173.765 49.809 173.628C50.0112 173.491 50.1753 173.316 50.301 173.103L50.9406 173.431C50.8532 173.633 50.7165 173.819 50.5306 173.989C50.3502 174.153 50.1343 174.284 49.8828 174.382C49.6368 174.481 49.3607 174.53 49.0545 174.53ZM53.4767 174.53C53.0339 174.53 52.6484 174.421 52.3204 174.202C51.9924 173.983 51.7601 173.688 51.6234 173.316L52.2302 173.021C52.356 173.284 52.5282 173.491 52.7469 173.644C52.9655 173.797 53.2088 173.874 53.4767 173.874C53.7172 173.874 53.9168 173.817 54.0753 173.702C54.2339 173.587 54.3131 173.437 54.3131 173.251C54.3131 173.12 54.2749 173.016 54.1983 172.939C54.1273 172.857 54.0398 172.794 53.9359 172.751C53.832 172.701 53.7364 172.666 53.6489 172.644L52.9847 172.455C52.5856 172.341 52.2931 172.177 52.1072 171.963C51.9268 171.75 51.8366 171.501 51.8366 171.217C51.8366 170.955 51.9022 170.728 52.0334 170.536C52.1701 170.34 52.3532 170.187 52.5828 170.077C52.8179 169.968 53.0803 169.913 53.3701 169.913C53.7582 169.913 54.1054 170.012 54.4115 170.208C54.7232 170.405 54.9446 170.681 55.0758 171.037L54.4526 171.324C54.3541 171.094 54.2065 170.914 54.0097 170.782C53.8129 170.646 53.5915 170.577 53.3455 170.577C53.1213 170.577 52.9437 170.635 52.8125 170.75C52.6812 170.859 52.6156 170.998 52.6156 171.168C52.6156 171.294 52.6484 171.397 52.7141 171.479C52.7797 171.556 52.8589 171.616 52.9519 171.66C53.0448 171.698 53.135 171.731 53.2225 171.758L53.9441 171.971C54.3049 172.075 54.5838 172.237 54.7806 172.455C54.9828 172.674 55.084 172.936 55.084 173.243C55.084 173.489 55.0157 173.71 54.879 173.907C54.7423 174.104 54.5537 174.257 54.3131 174.366C54.0726 174.475 53.7938 174.53 53.4767 174.53Z" fill="#596780"/>
<path d="M8.95215 196.105L12.6397 198.239L16.3022 196.118" stroke="#596780" stroke-width="0.911164" stroke-linecap="round" stroke-linejoin="round"/>
<path d="M12.6396 202.024V198.236" stroke="#596780" stroke-width="0.911164" stroke-linecap="round" stroke-linejoin="round"/>
<path d="M11.7758 194.034L9.5457 195.275C9.04039 195.555 8.62695 196.256 8.62695 196.832V199.192C8.62695 199.768 9.04039 200.47 9.5457 200.75L11.7758 201.99C12.2519 202.253 13.0328 202.253 13.5089 201.99L15.739 200.75C16.2443 200.47 16.6577 199.768 16.6577 199.192V196.832C16.6577 196.256 16.2443 195.555 15.739 195.275L13.5089 194.034C13.0286 193.767 12.2519 193.767 11.7758 194.034Z" stroke="#596780" stroke-width="0.911164" stroke-linecap="round" stroke-linejoin="round"/>
<path d="M14.7278 198.528V196.999L10.7646 194.711" stroke="#596780" stroke-width="0.683373" stroke-linecap="round" stroke-linejoin="round"/>
<path d="M24.7109 201.01V194.9H26.8676C27.2722 194.9 27.6275 194.977 27.9337 195.13C28.2398 195.283 28.4777 195.502 28.6471 195.786C28.8221 196.07 28.9096 196.404 28.9096 196.787C28.9096 197.169 28.8221 197.503 28.6471 197.787C28.4777 198.066 28.2398 198.284 27.9337 198.443C27.633 198.596 27.2777 198.673 26.8676 198.673H25.5146V201.01H24.7109ZM25.5146 197.935H26.8922C27.1383 197.935 27.3515 197.888 27.5319 197.795C27.7123 197.702 27.8517 197.568 27.9501 197.393C28.0485 197.218 28.0977 197.016 28.0977 196.787C28.0977 196.551 28.0485 196.349 27.9501 196.18C27.8517 196.005 27.7123 195.871 27.5319 195.778C27.3515 195.685 27.1383 195.638 26.8922 195.638H25.5146V197.935ZM29.7422 201.01V196.59H30.4884V197.402L30.4064 197.287C30.5103 197.035 30.6688 196.849 30.882 196.729C31.0952 196.603 31.3549 196.541 31.6611 196.541H31.9317V197.262H31.5463C31.2346 197.262 30.9832 197.361 30.7918 197.557C30.6005 197.749 30.5048 198.022 30.5048 198.377V201.01H29.7422ZM34.5444 201.108C34.118 201.108 33.7326 201.01 33.3882 200.813C33.0437 200.611 32.7704 200.335 32.5681 199.985C32.3658 199.635 32.2647 199.238 32.2647 198.796C32.2647 198.353 32.3631 197.959 32.5599 197.615C32.7622 197.27 33.0355 196.997 33.38 196.795C33.7244 196.592 34.1125 196.491 34.5444 196.491C34.9709 196.491 35.3563 196.592 35.7007 196.795C36.0451 196.992 36.3157 197.262 36.5125 197.607C36.7148 197.951 36.816 198.347 36.816 198.796C36.816 199.244 36.7121 199.643 36.5043 199.993C36.2966 200.337 36.0205 200.611 35.6761 200.813C35.3371 201.01 34.9599 201.108 34.5444 201.108ZM34.5444 200.37C34.8178 200.37 35.0638 200.302 35.2825 200.165C35.5066 200.028 35.6816 199.84 35.8073 199.599C35.9385 199.359 36.0041 199.091 36.0041 198.796C36.0041 198.495 35.9385 198.23 35.8073 198C35.6816 197.765 35.5066 197.579 35.2825 197.443C35.0638 197.3 34.8178 197.229 34.5444 197.229C34.2656 197.229 34.0141 197.3 33.79 197.443C33.5713 197.579 33.3964 197.765 33.2652 198C33.134 198.23 33.0683 198.495 33.0683 198.796C33.0683 199.091 33.134 199.359 33.2652 199.599C33.3964 199.84 33.5713 200.028 33.79 200.165C34.0141 200.302 34.2656 200.37 34.5444 200.37ZM39.6558 201.108C39.2403 201.108 38.8658 201.007 38.5323 200.805C38.2043 200.602 37.9446 200.326 37.7533 199.977C37.5619 199.627 37.4662 199.236 37.4662 198.804C37.4662 198.361 37.5619 197.967 37.7533 197.623C37.9446 197.273 38.2043 196.997 38.5323 196.795C38.8658 196.592 39.2403 196.491 39.6558 196.491C40.022 196.491 40.3473 196.571 40.6316 196.729C40.9159 196.882 41.14 197.09 41.3041 197.352L41.181 197.541V194.802H41.9519V201.01H41.2056V200.067L41.3041 200.198C41.151 200.488 40.9268 200.712 40.6316 200.87C40.3419 201.029 40.0166 201.108 39.6558 201.108ZM39.7214 200.37C40.0002 200.37 40.2489 200.302 40.4676 200.165C40.6863 200.028 40.8585 199.843 40.9842 199.607C41.1154 199.367 41.181 199.099 41.181 198.804C41.181 198.503 41.1154 198.235 40.9842 198C40.8585 197.76 40.6863 197.571 40.4676 197.434C40.2489 197.298 40.0002 197.229 39.7214 197.229C39.448 197.229 39.1993 197.3 38.9751 197.443C38.7564 197.579 38.5842 197.765 38.4585 198C38.3328 198.23 38.2699 198.498 38.2699 198.804C38.2699 199.099 38.3328 199.367 38.4585 199.607C38.5842 199.843 38.7564 200.028 38.9751 200.165C39.1938 200.302 39.4425 200.37 39.7214 200.37ZM44.5346 201.108C44.2175 201.108 43.9305 201.034 43.6735 200.887C43.4221 200.739 43.2253 200.534 43.0831 200.272C42.9464 200.004 42.8781 199.698 42.8781 199.353V196.59H43.6407V199.271C43.6407 199.49 43.6845 199.681 43.7719 199.845C43.8649 200.009 43.9906 200.138 44.1492 200.231C44.3132 200.324 44.4991 200.37 44.7068 200.37C44.9145 200.37 45.0977 200.324 45.2562 200.231C45.4202 200.138 45.546 200.004 45.6335 199.829C45.7264 199.654 45.7729 199.446 45.7729 199.206V196.59H46.5437V201.01H45.7975V200.149L45.9205 200.223C45.8166 200.501 45.6389 200.72 45.3874 200.879C45.1414 201.032 44.8571 201.108 44.5346 201.108ZM49.6113 201.108C49.1794 201.108 48.794 201.007 48.4551 200.805C48.1216 200.602 47.8592 200.326 47.6678 199.977C47.4765 199.627 47.3808 199.233 47.3808 198.796C47.3808 198.353 47.4765 197.959 47.6678 197.615C47.8592 197.27 48.1216 196.997 48.4551 196.795C48.794 196.592 49.1794 196.491 49.6113 196.491C49.9011 196.491 50.1717 196.543 50.4232 196.647C50.6747 196.751 50.8961 196.89 51.0874 197.065C51.2788 197.24 51.4182 197.445 51.5056 197.68L50.825 198.008C50.7211 197.779 50.5626 197.593 50.3494 197.451C50.1362 197.303 49.8901 197.229 49.6113 197.229C49.3434 197.229 49.1002 197.298 48.8815 197.434C48.6683 197.571 48.4988 197.757 48.3731 197.992C48.2473 198.227 48.1844 198.498 48.1844 198.804C48.1844 199.099 48.2473 199.367 48.3731 199.607C48.4988 199.843 48.6683 200.028 48.8815 200.165C49.1002 200.302 49.3434 200.37 49.6113 200.37C49.8901 200.37 50.1362 200.299 50.3494 200.157C50.5626 200.009 50.7211 199.815 50.825 199.575L51.5056 199.919C51.4182 200.149 51.2788 200.354 51.0874 200.534C50.8961 200.709 50.6747 200.848 50.4232 200.952C50.1717 201.056 49.9011 201.108 49.6113 201.108ZM54.1342 201.059C53.7023 201.059 53.3688 200.936 53.1337 200.69C52.9041 200.444 52.7893 200.097 52.7893 199.648V197.32H51.9857V196.59H52.1497C52.3465 196.59 52.5023 196.53 52.6171 196.409C52.7319 196.289 52.7893 196.13 52.7893 195.934V195.573H53.552V196.59H54.5442V197.32H53.552V199.624C53.552 199.771 53.5738 199.9 53.6176 200.009C53.6668 200.119 53.746 200.206 53.8554 200.272C53.9647 200.332 54.1096 200.362 54.29 200.362C54.3283 200.362 54.3748 200.359 54.4294 200.354C54.4896 200.348 54.5442 200.343 54.5934 200.337V201.01C54.5224 201.026 54.4431 201.037 54.3556 201.043C54.2681 201.054 54.1943 201.059 54.1342 201.059ZM57.0083 201.108C56.5655 201.108 56.1801 200.999 55.8521 200.78C55.5241 200.561 55.2917 200.266 55.155 199.895L55.7619 199.599C55.8876 199.862 56.0598 200.069 56.2785 200.223C56.4972 200.376 56.7405 200.452 57.0083 200.452C57.2489 200.452 57.4484 200.395 57.607 200.28C57.7655 200.165 57.8448 200.015 57.8448 199.829C57.8448 199.698 57.8065 199.594 57.73 199.517C57.6589 199.435 57.5714 199.372 57.4676 199.329C57.3637 199.279 57.268 199.244 57.1806 199.222L56.5163 199.033C56.1172 198.919 55.8247 198.755 55.6389 198.541C55.4585 198.328 55.3682 198.079 55.3682 197.795C55.3682 197.533 55.4339 197.306 55.5651 197.115C55.7017 196.918 55.8849 196.765 56.1145 196.655C56.3496 196.546 56.612 196.491 56.9017 196.491C57.2899 196.491 57.637 196.59 57.9432 196.787C58.2548 196.983 58.4762 197.259 58.6074 197.615L57.9842 197.902C57.8858 197.672 57.7382 197.492 57.5414 197.361C57.3446 197.224 57.1231 197.156 56.8771 197.156C56.653 197.156 56.4753 197.213 56.3441 197.328C56.2129 197.437 56.1473 197.577 56.1473 197.746C56.1473 197.872 56.1801 197.976 56.2457 198.058C56.3113 198.134 56.3906 198.194 56.4835 198.238C56.5765 198.276 56.6667 198.309 56.7541 198.336L57.4758 198.55C57.8366 198.653 58.1154 198.815 58.3122 199.033C58.5145 199.252 58.6156 199.515 58.6156 199.821C58.6156 200.067 58.5473 200.288 58.4106 200.485C58.2739 200.682 58.0853 200.835 57.8448 200.944C57.6042 201.054 57.3254 201.108 57.0083 201.108Z" fill="#596780"/>
<rect x="132.982" y="84.168" width="154.898" height="123.463" rx="4.55582" fill="white"/>
<path d="M268.289 99.8496C267.788 99.8496 267.378 100.277 267.378 100.799C267.378 101.321 267.788 101.748 268.289 101.748C268.79 101.748 269.2 101.321 269.2 100.799C269.2 100.277 268.79 99.8496 268.289 99.8496Z" stroke="#1A202C" stroke-width="0.683373"/>
<path d="M274.667 99.8496C274.166 99.8496 273.756 100.277 273.756 100.799C273.756 101.321 274.166 101.748 274.667 101.748C275.168 101.748 275.578 101.321 275.578 100.799C275.578 100.277 275.168 99.8496 274.667 99.8496Z" stroke="#1A202C" stroke-width="0.683373"/>
<path d="M271.478 99.8496C270.976 99.8496 270.566 100.277 270.566 100.799C270.566 101.321 270.976 101.748 271.478 101.748C271.979 101.748 272.389 101.321 272.389 100.799C272.389 100.277 271.979 99.8496 271.478 99.8496Z" stroke="#1A202C" stroke-width="0.683373"/>
<path d="M145.854 103.104V100.654L143.995 97.673H144.965L146.452 100.086H146.109L147.589 97.673H148.558L146.707 100.654V103.104H145.854ZM150.189 103.191C149.81 103.191 149.463 103.101 149.147 102.921C148.836 102.741 148.588 102.496 148.403 102.185C148.218 101.874 148.126 101.522 148.126 101.128C148.126 100.73 148.218 100.377 148.403 100.071C148.588 99.7602 148.836 99.5172 149.147 99.3422C149.458 99.1624 149.805 99.0725 150.189 99.0725C150.578 99.0725 150.925 99.1624 151.231 99.3422C151.542 99.5172 151.788 99.7602 151.968 100.071C152.152 100.377 152.245 100.73 152.245 101.128C152.245 101.527 152.152 101.881 151.968 102.192C151.783 102.503 151.535 102.749 151.224 102.929C150.913 103.104 150.568 103.191 150.189 103.191ZM150.189 102.426C150.422 102.426 150.629 102.37 150.809 102.258C150.988 102.146 151.129 101.993 151.231 101.799C151.338 101.599 151.392 101.376 151.392 101.128C151.392 100.88 151.338 100.659 151.231 100.465C151.129 100.27 150.988 100.117 150.809 100.006C150.629 99.8938 150.422 99.8379 150.189 99.8379C149.961 99.8379 149.754 99.8938 149.569 100.006C149.39 100.117 149.246 100.27 149.139 100.465C149.037 100.659 148.986 100.88 148.986 101.128C148.986 101.376 149.037 101.599 149.139 101.799C149.246 101.993 149.39 102.146 149.569 102.258C149.754 102.37 149.961 102.426 150.189 102.426ZM154.31 103.191C154.013 103.191 153.753 103.125 153.53 102.994C153.306 102.858 153.131 102.671 153.005 102.433C152.884 102.19 152.823 101.91 152.823 101.595V99.16H153.646V101.522C153.646 101.702 153.683 101.859 153.756 101.996C153.829 102.132 153.931 102.239 154.062 102.316C154.193 102.389 154.344 102.426 154.514 102.426C154.689 102.426 154.842 102.387 154.973 102.309C155.104 102.231 155.206 102.122 155.279 101.981C155.357 101.84 155.396 101.675 155.396 101.485V99.16H156.212V103.104H155.432V102.331L155.52 102.433C155.428 102.676 155.274 102.863 155.061 102.994C154.847 103.125 154.597 103.191 154.31 103.191ZM157.028 103.104V99.16H157.816V99.9545L157.743 99.8379C157.83 99.5803 157.971 99.3957 158.165 99.2839C158.36 99.1673 158.593 99.109 158.865 99.109H159.106V99.8598H158.763C158.491 99.8598 158.27 99.9448 158.1 100.115C157.935 100.28 157.852 100.518 157.852 100.829V103.104H157.028ZM162.758 103.191C162.452 103.191 162.173 103.128 161.92 103.001C161.672 102.875 161.48 102.693 161.344 102.455L161.439 102.302V103.104H160.652V97.5855H161.476V99.9764L161.344 99.7869C161.49 99.5633 161.685 99.3884 161.927 99.262C162.17 99.1357 162.447 99.0725 162.758 99.0725C163.133 99.0725 163.468 99.1624 163.764 99.3422C164.066 99.522 164.301 99.7674 164.471 100.078C164.646 100.389 164.734 100.739 164.734 101.128C164.734 101.517 164.646 101.867 164.471 102.178C164.301 102.489 164.068 102.737 163.772 102.921C163.475 103.101 163.138 103.191 162.758 103.191ZM162.678 102.426C162.912 102.426 163.118 102.37 163.298 102.258C163.478 102.146 163.619 101.993 163.721 101.799C163.828 101.599 163.881 101.376 163.881 101.128C163.881 100.88 163.828 100.659 163.721 100.465C163.619 100.27 163.478 100.117 163.298 100.006C163.118 99.8938 162.912 99.8379 162.678 99.8379C162.45 99.8379 162.243 99.8938 162.059 100.006C161.879 100.117 161.736 100.27 161.629 100.465C161.527 100.659 161.476 100.88 161.476 101.128C161.476 101.376 161.527 101.599 161.629 101.799C161.736 101.993 161.879 102.146 162.059 102.258C162.243 102.37 162.45 102.426 162.678 102.426ZM166.57 103.191C166.303 103.191 166.067 103.145 165.863 103.052C165.664 102.955 165.508 102.824 165.397 102.659C165.285 102.489 165.229 102.29 165.229 102.061C165.229 101.847 165.275 101.655 165.367 101.485C165.465 101.315 165.613 101.172 165.812 101.055C166.011 100.939 166.262 100.856 166.563 100.807L167.933 100.581V101.23L166.723 101.442C166.505 101.48 166.344 101.551 166.242 101.653C166.14 101.75 166.089 101.876 166.089 102.032C166.089 102.183 166.145 102.307 166.257 102.404C166.373 102.496 166.522 102.542 166.701 102.542C166.925 102.542 167.119 102.494 167.285 102.396C167.455 102.299 167.586 102.17 167.678 102.01C167.771 101.845 167.817 101.663 167.817 101.463V100.45C167.817 100.256 167.744 100.098 167.598 99.9764C167.457 99.8501 167.268 99.7869 167.029 99.7869C166.811 99.7869 166.619 99.8452 166.454 99.9618C166.293 100.074 166.174 100.219 166.096 100.399L165.411 100.057C165.484 99.8622 165.603 99.6921 165.768 99.5463C165.934 99.3957 166.126 99.2791 166.344 99.1964C166.568 99.1138 166.803 99.0725 167.051 99.0725C167.362 99.0725 167.637 99.1308 167.875 99.2475C168.118 99.3641 168.305 99.5269 168.436 99.7359C168.572 99.94 168.64 100.178 168.64 100.45V103.104H167.853V102.389L168.021 102.411C167.928 102.571 167.809 102.71 167.664 102.827C167.523 102.943 167.36 103.033 167.175 103.096C166.995 103.159 166.794 103.191 166.57 103.191ZM169.458 103.104V97.5855H170.281V103.104H169.458ZM172.28 103.191C172.012 103.191 171.777 103.145 171.572 103.052C171.373 102.955 171.218 102.824 171.106 102.659C170.994 102.489 170.938 102.29 170.938 102.061C170.938 101.847 170.984 101.655 171.077 101.485C171.174 101.315 171.322 101.172 171.521 101.055C171.721 100.939 171.971 100.856 172.272 100.807L173.643 100.581V101.23L172.433 101.442C172.214 101.48 172.054 101.551 171.951 101.653C171.849 101.75 171.798 101.876 171.798 102.032C171.798 102.183 171.854 102.307 171.966 102.404C172.083 102.496 172.231 102.542 172.411 102.542C172.634 102.542 172.829 102.494 172.994 102.396C173.164 102.299 173.295 102.17 173.387 102.01C173.48 101.845 173.526 101.663 173.526 101.463V100.45C173.526 100.256 173.453 100.098 173.307 99.9764C173.166 99.8501 172.977 99.7869 172.739 99.7869C172.52 99.7869 172.328 99.8452 172.163 99.9618C172.003 100.074 171.883 100.219 171.806 100.399L171.121 100.057C171.193 99.8622 171.312 99.6921 171.478 99.5463C171.643 99.3957 171.835 99.2791 172.054 99.1964C172.277 99.1138 172.513 99.0725 172.761 99.0725C173.072 99.0725 173.346 99.1308 173.584 99.2475C173.827 99.3641 174.014 99.5269 174.146 99.7359C174.282 99.94 174.35 100.178 174.35 100.45V103.104H173.562V102.389L173.73 102.411C173.638 102.571 173.519 102.71 173.373 102.827C173.232 102.943 173.069 103.033 172.885 103.096C172.705 103.159 172.503 103.191 172.28 103.191ZM175.167 103.104V99.16H175.954V99.9327L175.859 99.8306C175.957 99.5828 176.112 99.3957 176.326 99.2693C176.54 99.1381 176.788 99.0725 177.069 99.0725C177.361 99.0725 177.619 99.1357 177.842 99.262C178.066 99.3884 178.241 99.5633 178.367 99.7869C178.493 100.01 178.557 100.268 178.557 100.56V103.104H177.74V100.778C177.74 100.579 177.704 100.411 177.631 100.275C177.558 100.134 177.453 100.027 177.317 99.9545C177.186 99.8768 177.035 99.8379 176.865 99.8379C176.695 99.8379 176.542 99.8768 176.406 99.9545C176.275 100.027 176.173 100.134 176.1 100.275C176.027 100.416 175.991 100.584 175.991 100.778V103.104H175.167ZM181.166 103.191C180.772 103.191 180.422 103.101 180.116 102.921C179.815 102.737 179.574 102.489 179.394 102.178C179.219 101.867 179.132 101.514 179.132 101.121C179.132 100.732 179.219 100.382 179.394 100.071C179.569 99.7602 179.81 99.5172 180.116 99.3422C180.422 99.1624 180.772 99.0725 181.166 99.0725C181.433 99.0725 181.683 99.1211 181.916 99.2183C182.15 99.3106 182.351 99.4394 182.521 99.6046C182.696 99.7699 182.825 99.9618 182.908 100.181L182.186 100.516C182.104 100.312 181.97 100.149 181.785 100.027C181.605 99.9011 181.399 99.8379 181.166 99.8379C180.942 99.8379 180.74 99.8938 180.561 100.006C180.386 100.112 180.247 100.266 180.145 100.465C180.043 100.659 179.992 100.88 179.992 101.128C179.992 101.376 180.043 101.599 180.145 101.799C180.247 101.993 180.386 102.146 180.561 102.258C180.74 102.37 180.942 102.426 181.166 102.426C181.404 102.426 181.61 102.365 181.785 102.243C181.965 102.117 182.099 101.949 182.186 101.74L182.908 102.083C182.83 102.292 182.704 102.481 182.529 102.652C182.359 102.817 182.157 102.948 181.924 103.045C181.69 103.142 181.438 103.191 181.166 103.191ZM185.419 103.191C185.025 103.191 184.675 103.101 184.369 102.921C184.068 102.737 183.832 102.489 183.662 102.178C183.492 101.862 183.407 101.51 183.407 101.121C183.407 100.722 183.492 100.37 183.662 100.064C183.837 99.7577 184.07 99.5172 184.362 99.3422C184.653 99.1624 184.984 99.0725 185.353 99.0725C185.649 99.0725 185.914 99.1236 186.147 99.2256C186.381 99.3277 186.578 99.4686 186.738 99.6484C186.898 99.8233 187.02 100.025 187.102 100.253C187.19 100.482 187.234 100.725 187.234 100.982C187.234 101.046 187.231 101.111 187.226 101.179C187.221 101.247 187.212 101.31 187.197 101.369H184.055V100.713H186.731L186.337 101.011C186.386 100.773 186.369 100.562 186.286 100.377C186.208 100.188 186.087 100.04 185.922 99.9327C185.761 99.8209 185.572 99.765 185.353 99.765C185.134 99.765 184.94 99.8209 184.77 99.9327C184.6 100.04 184.468 100.195 184.376 100.399C184.284 100.598 184.247 100.841 184.267 101.128C184.243 101.395 184.279 101.629 184.376 101.828C184.478 102.027 184.619 102.183 184.799 102.294C184.984 102.406 185.193 102.462 185.426 102.462C185.664 102.462 185.866 102.409 186.031 102.302C186.201 102.195 186.335 102.056 186.432 101.886L187.102 102.214C187.025 102.399 186.903 102.567 186.738 102.717C186.578 102.863 186.383 102.98 186.155 103.067C185.931 103.15 185.686 103.191 185.419 103.191Z" fill="#1A202C"/>
<path d="M144.792 152.586V148.513H147.444V149.087H145.437V150.312H147.225V150.886H145.437V152.586H144.792ZM147.65 152.586V149.628H148.24V150.224L148.185 150.137C148.251 149.944 148.357 149.805 148.503 149.721C148.648 149.634 148.823 149.59 149.027 149.59H149.208V150.153H148.951C148.747 150.153 148.581 150.217 148.453 150.344C148.329 150.468 148.267 150.647 148.267 150.88V152.586H147.65ZM150.948 152.652C150.664 152.652 150.403 152.584 150.166 152.449C149.933 152.314 149.747 152.13 149.609 151.897C149.47 151.664 149.401 151.4 149.401 151.104C149.401 150.806 149.47 150.541 149.609 150.312C149.747 150.078 149.933 149.896 150.166 149.765C150.399 149.63 150.66 149.563 150.948 149.563C151.24 149.563 151.5 149.63 151.73 149.765C151.963 149.896 152.147 150.078 152.282 150.312C152.42 150.541 152.49 150.806 152.49 151.104C152.49 151.403 152.42 151.669 152.282 151.903C152.143 152.136 151.958 152.32 151.724 152.455C151.491 152.586 151.232 152.652 150.948 152.652ZM150.948 152.078C151.123 152.078 151.278 152.036 151.413 151.952C151.548 151.868 151.653 151.753 151.73 151.607C151.81 151.458 151.85 151.29 151.85 151.104C151.85 150.919 151.81 150.753 151.73 150.607C151.653 150.461 151.548 150.346 151.413 150.262C151.278 150.179 151.123 150.137 150.948 150.137C150.777 150.137 150.622 150.179 150.483 150.262C150.348 150.346 150.241 150.461 150.161 150.607C150.084 150.753 150.046 150.919 150.046 151.104C150.046 151.29 150.084 151.458 150.161 151.607C150.241 151.753 150.348 151.868 150.483 151.952C150.622 152.036 150.777 152.078 150.948 152.078ZM152.983 152.586V149.628H153.574V150.268L153.497 150.17C153.559 149.969 153.672 149.818 153.836 149.716C154 149.614 154.188 149.563 154.399 149.563C154.636 149.563 154.846 149.626 155.028 149.754C155.214 149.878 155.338 150.044 155.4 150.252L155.225 150.268C155.312 150.031 155.445 149.854 155.624 149.738C155.806 149.621 156.014 149.563 156.247 149.563C156.451 149.563 156.635 149.61 156.799 149.705C156.967 149.8 157.1 149.931 157.198 150.098C157.297 150.266 157.346 150.457 157.346 150.672V152.586H156.728V150.842C156.728 150.693 156.701 150.567 156.646 150.465C156.595 150.359 156.522 150.279 156.428 150.224C156.337 150.166 156.229 150.137 156.105 150.137C155.981 150.137 155.872 150.166 155.777 150.224C155.682 150.279 155.608 150.359 155.553 150.465C155.498 150.57 155.471 150.696 155.471 150.842V152.586H154.859V150.842C154.859 150.693 154.831 150.567 154.777 150.465C154.726 150.359 154.653 150.279 154.558 150.224C154.467 150.166 154.357 150.137 154.23 150.137C154.106 150.137 153.997 150.166 153.902 150.224C153.807 150.279 153.732 150.359 153.678 150.465C153.627 150.57 153.601 150.696 153.601 150.842V152.586H152.983ZM158.624 152.586V151.985H158.859C159.041 151.985 159.187 151.932 159.296 151.826C159.406 151.717 159.46 151.571 159.46 151.389V148.513H160.1V151.367C160.1 151.615 160.049 151.83 159.947 152.012C159.849 152.194 159.705 152.336 159.515 152.438C159.329 152.537 159.111 152.586 158.859 152.586H158.624ZM161.651 152.652C161.45 152.652 161.274 152.617 161.12 152.548C160.971 152.475 160.854 152.376 160.771 152.252C160.687 152.125 160.645 151.975 160.645 151.804C160.645 151.644 160.679 151.5 160.749 151.372C160.822 151.245 160.933 151.137 161.082 151.05C161.232 150.962 161.419 150.9 161.645 150.864L162.673 150.694V151.181L161.766 151.339C161.602 151.369 161.481 151.421 161.405 151.498C161.328 151.571 161.29 151.666 161.29 151.782C161.29 151.895 161.332 151.988 161.416 152.061C161.503 152.13 161.614 152.165 161.749 152.165C161.917 152.165 162.063 152.129 162.187 152.056C162.314 151.983 162.413 151.886 162.482 151.766C162.551 151.642 162.586 151.505 162.586 151.356V150.596C162.586 150.45 162.531 150.332 162.422 150.241C162.316 150.146 162.174 150.098 161.995 150.098C161.831 150.098 161.687 150.142 161.563 150.23C161.443 150.313 161.354 150.423 161.295 150.558L160.782 150.301C160.836 150.155 160.925 150.027 161.049 149.918C161.173 149.805 161.317 149.718 161.481 149.656C161.649 149.594 161.826 149.563 162.012 149.563C162.245 149.563 162.451 149.606 162.629 149.694C162.812 149.781 162.952 149.903 163.05 150.06C163.152 150.213 163.203 150.392 163.203 150.596V152.586H162.613V152.05L162.739 152.067C162.669 152.187 162.58 152.291 162.471 152.378C162.365 152.466 162.243 152.533 162.105 152.58C161.97 152.628 161.818 152.652 161.651 152.652ZM163.816 152.586V149.628H164.407V150.208L164.336 150.131C164.409 149.945 164.525 149.805 164.686 149.71C164.846 149.612 165.032 149.563 165.243 149.563C165.462 149.563 165.655 149.61 165.823 149.705C165.99 149.8 166.122 149.931 166.216 150.098C166.311 150.266 166.359 150.459 166.359 150.678V152.586H165.746V150.842C165.746 150.693 165.719 150.567 165.664 150.465C165.61 150.359 165.531 150.279 165.429 150.224C165.331 150.166 165.218 150.137 165.09 150.137C164.963 150.137 164.848 150.166 164.746 150.224C164.647 150.279 164.571 150.359 164.516 150.465C164.461 150.57 164.434 150.696 164.434 150.842V152.586H163.816ZM169.358 152.652C169.034 152.652 168.75 152.564 168.506 152.389C168.261 152.211 168.07 151.965 167.932 151.651C167.797 151.334 167.729 150.966 167.729 150.547C167.729 150.124 167.797 149.756 167.932 149.442C168.07 149.129 168.26 148.885 168.5 148.71C168.744 148.535 169.029 148.447 169.353 148.447C169.677 148.447 169.96 148.535 170.2 148.71C170.445 148.885 170.634 149.131 170.769 149.448C170.907 149.761 170.977 150.128 170.977 150.547C170.977 150.966 170.909 151.334 170.774 151.651C170.64 151.965 170.45 152.211 170.206 152.389C169.965 152.564 169.683 152.652 169.358 152.652ZM169.358 152.061C169.559 152.061 169.732 151.999 169.878 151.875C170.024 151.751 170.137 151.576 170.217 151.35C170.297 151.124 170.337 150.857 170.337 150.547C170.337 150.237 170.297 149.969 170.217 149.743C170.137 149.517 170.024 149.342 169.878 149.218C169.732 149.094 169.557 149.032 169.353 149.032C169.153 149.032 168.979 149.094 168.834 149.218C168.688 149.342 168.575 149.517 168.495 149.743C168.415 149.969 168.374 150.237 168.374 150.547C168.374 150.853 168.415 151.121 168.495 151.35C168.575 151.576 168.688 151.751 168.834 151.875C168.983 151.999 169.158 152.061 169.358 152.061ZM172.162 152.586V149.06H171.38V148.513H172.802V152.586H172.162ZM173.751 153.39V153.089C173.871 153.06 173.964 153.003 174.03 152.919C174.095 152.839 174.135 152.728 174.15 152.586H173.86V151.875H174.489V152.34C174.489 152.631 174.427 152.867 174.303 153.045C174.179 153.224 173.995 153.339 173.751 153.39ZM176.036 152.586V152.121L177.151 150.929C177.37 150.696 177.541 150.508 177.665 150.366C177.792 150.221 177.883 150.093 177.938 149.984C177.996 149.874 178.026 149.76 178.026 149.639C178.026 149.442 177.965 149.291 177.845 149.185C177.725 149.076 177.57 149.021 177.38 149.021C177.184 149.021 177.014 149.078 176.872 149.191C176.73 149.3 176.631 149.461 176.577 149.672L176.008 149.508C176.052 149.293 176.139 149.107 176.271 148.95C176.402 148.79 176.562 148.666 176.752 148.579C176.945 148.491 177.153 148.447 177.375 148.447C177.634 148.447 177.86 148.497 178.053 148.595C178.246 148.69 178.396 148.823 178.501 148.994C178.611 149.165 178.665 149.364 178.665 149.59C178.665 149.739 178.636 149.885 178.578 150.027C178.523 150.166 178.437 150.313 178.321 150.47C178.204 150.623 178.055 150.796 177.873 150.99L176.888 152.039H178.742V152.586H176.036ZM180.883 152.652C180.559 152.652 180.274 152.564 180.03 152.389C179.786 152.211 179.595 151.965 179.456 151.651C179.321 151.334 179.254 150.966 179.254 150.547C179.254 150.124 179.321 149.756 179.456 149.442C179.595 149.129 179.784 148.885 180.025 148.71C180.269 148.535 180.553 148.447 180.877 148.447C181.202 148.447 181.484 148.535 181.725 148.71C181.969 148.885 182.159 149.131 182.293 149.448C182.432 149.761 182.501 150.128 182.501 150.547C182.501 150.966 182.434 151.334 182.299 151.651C182.164 151.965 181.975 152.211 181.73 152.389C181.49 152.564 181.207 152.652 180.883 152.652ZM180.883 152.061C181.083 152.061 181.257 151.999 181.402 151.875C181.548 151.751 181.661 151.576 181.741 151.35C181.821 151.124 181.862 150.857 181.862 150.547C181.862 150.237 181.821 149.969 181.741 149.743C181.661 149.517 181.548 149.342 181.402 149.218C181.257 149.094 181.082 149.032 180.877 149.032C180.677 149.032 180.504 149.094 180.358 149.218C180.212 149.342 180.099 149.517 180.019 149.743C179.939 149.969 179.899 150.237 179.899 150.547C179.899 150.853 179.939 151.121 180.019 151.35C180.099 151.576 180.212 151.751 180.358 151.875C180.508 151.999 180.682 152.061 180.883 152.061ZM182.998 152.586V152.121L184.113 150.929C184.332 150.696 184.503 150.508 184.627 150.366C184.754 150.221 184.846 150.093 184.9 149.984C184.958 149.874 184.988 149.76 184.988 149.639C184.988 149.442 184.928 149.291 184.807 149.185C184.687 149.076 184.532 149.021 184.343 149.021C184.146 149.021 183.976 149.078 183.834 149.191C183.692 149.3 183.594 149.461 183.539 149.672L182.97 149.508C183.014 149.293 183.102 149.107 183.233 148.95C183.364 148.79 183.524 148.666 183.714 148.579C183.907 148.491 184.115 148.447 184.337 148.447C184.596 148.447 184.822 148.497 185.015 148.595C185.208 148.69 185.358 148.823 185.463 148.994C185.573 149.165 185.627 149.364 185.627 149.59C185.627 149.739 185.598 149.885 185.54 150.027C185.485 150.166 185.399 150.313 185.283 150.47C185.166 150.623 185.017 150.796 184.835 150.99L183.851 152.039H185.704V152.586H182.998ZM186.156 152.586V152.121L187.271 150.929C187.49 150.696 187.661 150.508 187.785 150.366C187.912 150.221 188.004 150.093 188.058 149.984C188.117 149.874 188.146 149.76 188.146 149.639C188.146 149.442 188.086 149.291 187.965 149.185C187.845 149.076 187.69 149.021 187.501 149.021C187.304 149.021 187.134 149.078 186.992 149.191C186.85 149.3 186.752 149.461 186.697 149.672L186.128 149.508C186.172 149.293 186.26 149.107 186.391 148.95C186.522 148.79 186.682 148.666 186.872 148.579C187.065 148.491 187.273 148.447 187.495 148.447C187.754 148.447 187.98 148.497 188.173 148.595C188.366 148.69 188.516 148.823 188.621 148.994C188.731 149.165 188.785 149.364 188.785 149.59C188.785 149.739 188.756 149.885 188.698 150.027C188.643 150.166 188.558 150.313 188.441 150.47C188.324 150.623 188.175 150.796 187.993 150.99L187.009 152.039H188.862V152.586H186.156ZM191.527 152.619C191.217 152.619 190.976 152.531 190.805 152.356C190.634 152.181 190.548 151.935 190.548 151.618V150.186H190.029V149.628H190.111C190.249 149.628 190.357 149.588 190.433 149.508C190.51 149.428 190.548 149.319 190.548 149.18V148.95H191.166V149.628H191.838V150.186H191.166V151.591C191.166 151.693 191.182 151.78 191.215 151.853C191.248 151.923 191.301 151.977 191.374 152.017C191.447 152.054 191.541 152.072 191.658 152.072C191.687 152.072 191.72 152.07 191.756 152.067C191.793 152.063 191.827 152.059 191.86 152.056V152.586C191.809 152.593 191.753 152.601 191.691 152.608C191.629 152.615 191.574 152.619 191.527 152.619ZM193.727 152.652C193.443 152.652 193.182 152.584 192.946 152.449C192.712 152.314 192.526 152.13 192.388 151.897C192.249 151.664 192.18 151.4 192.18 151.104C192.18 150.806 192.249 150.541 192.388 150.312C192.526 150.078 192.712 149.896 192.946 149.765C193.179 149.63 193.439 149.563 193.727 149.563C194.019 149.563 194.279 149.63 194.509 149.765C194.742 149.896 194.926 150.078 195.061 150.312C195.2 150.541 195.269 150.806 195.269 151.104C195.269 151.403 195.2 151.669 195.061 151.903C194.923 152.136 194.737 152.32 194.504 152.455C194.27 152.586 194.012 152.652 193.727 152.652ZM193.727 152.078C193.902 152.078 194.057 152.036 194.192 151.952C194.327 151.868 194.433 151.753 194.509 151.607C194.589 151.458 194.629 151.29 194.629 151.104C194.629 150.919 194.589 150.753 194.509 150.607C194.433 150.461 194.327 150.346 194.192 150.262C194.057 150.179 193.902 150.137 193.727 150.137C193.556 150.137 193.401 150.179 193.263 150.262C193.128 150.346 193.02 150.461 192.94 150.607C192.864 150.753 192.825 150.919 192.825 151.104C192.825 151.29 192.864 151.458 192.94 151.607C193.02 151.753 193.128 151.868 193.263 151.952C193.401 152.036 193.556 152.078 193.727 152.078ZM196.489 152.586V151.985H196.724C196.906 151.985 197.052 151.932 197.161 151.826C197.271 151.717 197.325 151.571 197.325 151.389V148.513H197.965V151.367C197.965 151.615 197.914 151.83 197.812 152.012C197.713 152.194 197.569 152.336 197.38 152.438C197.194 152.537 196.975 152.586 196.724 152.586H196.489ZM199.516 152.652C199.315 152.652 199.138 152.617 198.985 152.548C198.836 152.475 198.719 152.376 198.635 152.252C198.552 152.125 198.51 151.975 198.51 151.804C198.51 151.644 198.544 151.5 198.614 151.372C198.686 151.245 198.798 151.137 198.947 151.05C199.096 150.962 199.284 150.9 199.51 150.864L200.538 150.694V151.181L199.63 151.339C199.466 151.369 199.346 151.421 199.27 151.498C199.193 151.571 199.155 151.666 199.155 151.782C199.155 151.895 199.197 151.988 199.281 152.061C199.368 152.13 199.479 152.165 199.614 152.165C199.782 152.165 199.927 152.129 200.051 152.056C200.179 151.983 200.277 151.886 200.347 151.766C200.416 151.642 200.45 151.505 200.45 151.356V150.596C200.45 150.45 200.396 150.332 200.286 150.241C200.181 150.146 200.039 150.098 199.86 150.098C199.696 150.098 199.552 150.142 199.428 150.23C199.308 150.313 199.219 150.423 199.16 150.558L198.646 150.301C198.701 150.155 198.79 150.027 198.914 149.918C199.038 149.805 199.182 149.718 199.346 149.656C199.514 149.594 199.691 149.563 199.876 149.563C200.11 149.563 200.316 149.606 200.494 149.694C200.676 149.781 200.817 149.903 200.915 150.06C201.017 150.213 201.068 150.392 201.068 150.596V152.586H200.478V152.05L200.604 152.067C200.534 152.187 200.445 152.291 200.336 152.378C200.23 152.466 200.108 152.533 199.969 152.58C199.835 152.628 199.683 152.652 199.516 152.652ZM201.681 152.586V149.628H202.272V150.208L202.201 150.131C202.273 149.945 202.39 149.805 202.55 149.71C202.711 149.612 202.897 149.563 203.108 149.563C203.327 149.563 203.52 149.61 203.688 149.705C203.855 149.8 203.986 149.931 204.081 150.098C204.176 150.266 204.223 150.459 204.223 150.678V152.586H203.611V150.842C203.611 150.693 203.584 150.567 203.529 150.465C203.474 150.359 203.396 150.279 203.294 150.224C203.196 150.166 203.083 150.137 202.955 150.137C202.827 150.137 202.713 150.166 202.611 150.224C202.512 150.279 202.436 150.359 202.381 150.465C202.326 150.57 202.299 150.696 202.299 150.842V152.586H201.681ZM206.862 152.652C206.644 152.652 206.438 152.611 206.245 152.531C206.055 152.451 205.891 152.338 205.753 152.192C205.618 152.047 205.521 151.875 205.463 151.678L206.01 151.471C206.083 151.664 206.194 151.813 206.343 151.919C206.493 152.025 206.666 152.078 206.862 152.078C207.023 152.078 207.161 152.047 207.278 151.985C207.398 151.923 207.491 151.835 207.557 151.722C207.626 151.609 207.661 151.472 207.661 151.312C207.661 151.155 207.626 151.021 207.557 150.908C207.491 150.795 207.398 150.709 207.278 150.651C207.161 150.592 207.023 150.563 206.862 150.563C206.797 150.563 206.729 150.569 206.66 150.58C206.595 150.59 206.536 150.605 206.485 150.623L206.343 150.323L207.415 149.06H205.682V148.513H208.136V149.032L207.087 150.29L207.07 150.082C207.314 150.086 207.529 150.14 207.715 150.246C207.901 150.348 208.045 150.49 208.147 150.672C208.253 150.851 208.306 151.059 208.306 151.296C208.306 151.551 208.244 151.782 208.12 151.99C207.996 152.194 207.825 152.356 207.606 152.477C207.391 152.593 207.143 152.652 206.862 152.652ZM209.456 152.586V149.06H208.674V148.513H210.095V152.586H209.456ZM211.044 153.39V153.089C211.165 153.06 211.258 153.003 211.323 152.919C211.389 152.839 211.429 152.728 211.443 152.586H211.154V151.875H211.782V152.34C211.782 152.631 211.72 152.867 211.597 153.045C211.473 153.224 211.289 153.339 211.044 153.39ZM213.329 152.586V152.121L214.444 150.929C214.663 150.696 214.834 150.508 214.958 150.366C215.086 150.221 215.177 150.093 215.232 149.984C215.29 149.874 215.319 149.76 215.319 149.639C215.319 149.442 215.259 149.291 215.139 149.185C215.018 149.076 214.864 149.021 214.674 149.021C214.477 149.021 214.308 149.078 214.166 149.191C214.023 149.3 213.925 149.461 213.87 149.672L213.302 149.508C213.346 149.293 213.433 149.107 213.564 148.95C213.695 148.79 213.856 148.666 214.045 148.579C214.239 148.491 214.446 148.447 214.669 148.447C214.927 148.447 215.153 148.497 215.346 148.595C215.54 148.69 215.689 148.823 215.795 148.994C215.904 149.165 215.959 149.364 215.959 149.59C215.959 149.739 215.93 149.885 215.871 150.027C215.817 150.166 215.731 150.313 215.614 150.47C215.498 150.623 215.348 150.796 215.166 150.99L214.182 152.039H216.035V152.586H213.329ZM218.176 152.652C217.852 152.652 217.568 152.564 217.324 152.389C217.079 152.211 216.888 151.965 216.75 151.651C216.615 151.334 216.547 150.966 216.547 150.547C216.547 150.124 216.615 149.756 216.75 149.442C216.888 149.129 217.078 148.885 217.318 148.71C217.562 148.535 217.847 148.447 218.171 148.447C218.495 148.447 218.778 148.535 219.018 148.71C219.263 148.885 219.452 149.131 219.587 149.448C219.725 149.761 219.795 150.128 219.795 150.547C219.795 150.966 219.727 151.334 219.592 151.651C219.458 151.965 219.268 152.211 219.024 152.389C218.783 152.564 218.501 152.652 218.176 152.652ZM218.176 152.061C218.377 152.061 218.55 151.999 218.696 151.875C218.842 151.751 218.955 151.576 219.035 151.35C219.115 151.124 219.155 150.857 219.155 150.547C219.155 150.237 219.115 149.969 219.035 149.743C218.955 149.517 218.842 149.342 218.696 149.218C218.55 149.094 218.375 149.032 218.171 149.032C217.971 149.032 217.797 149.094 217.652 149.218C217.506 149.342 217.393 149.517 217.313 149.743C217.233 149.969 217.192 150.237 217.192 150.547C217.192 150.853 217.233 151.121 217.313 151.35C217.393 151.576 217.506 151.751 217.652 151.875C217.801 151.999 217.976 152.061 218.176 152.061ZM220.291 152.586V152.121L221.407 150.929C221.625 150.696 221.796 150.508 221.92 150.366C222.048 150.221 222.139 150.093 222.194 149.984C222.252 149.874 222.281 149.76 222.281 149.639C222.281 149.442 222.221 149.291 222.101 149.185C221.981 149.076 221.826 149.021 221.636 149.021C221.439 149.021 221.27 149.078 221.128 149.191C220.986 149.3 220.887 149.461 220.832 149.672L220.264 149.508C220.308 149.293 220.395 149.107 220.526 148.95C220.658 148.79 220.818 148.666 221.007 148.579C221.201 148.491 221.408 148.447 221.631 148.447C221.889 148.447 222.115 148.497 222.309 148.595C222.502 148.69 222.651 148.823 222.757 148.994C222.866 149.165 222.921 149.364 222.921 149.59C222.921 149.739 222.892 149.885 222.833 150.027C222.779 150.166 222.693 150.313 222.576 150.47C222.46 150.623 222.31 150.796 222.128 150.99L221.144 152.039H222.997V152.586H220.291ZM223.449 152.586V152.121L224.565 150.929C224.783 150.696 224.955 150.508 225.078 150.366C225.206 150.221 225.297 150.093 225.352 149.984C225.41 149.874 225.439 149.76 225.439 149.639C225.439 149.442 225.379 149.291 225.259 149.185C225.139 149.076 224.984 149.021 224.794 149.021C224.597 149.021 224.428 149.078 224.286 149.191C224.144 149.3 224.045 149.461 223.991 149.672L223.422 149.508C223.466 149.293 223.553 149.107 223.684 148.95C223.816 148.79 223.976 148.666 224.165 148.579C224.359 148.491 224.566 148.447 224.789 148.447C225.047 148.447 225.273 148.497 225.467 148.595C225.66 148.69 225.809 148.823 225.915 148.994C226.024 149.165 226.079 149.364 226.079 149.59C226.079 149.739 226.05 149.885 225.991 150.027C225.937 150.166 225.851 150.313 225.734 150.47C225.618 150.623 225.468 150.796 225.286 150.99L224.302 152.039H226.155V152.586H223.449Z" fill="#90A3BF"/>
<path d="M148.843 134.601C148.153 134.601 147.511 134.474 146.918 134.222C146.335 133.969 145.83 133.619 145.402 133.172C144.984 132.715 144.678 132.186 144.484 131.583L146.131 130.869C146.393 131.491 146.772 131.981 147.268 132.341C147.764 132.691 148.323 132.866 148.945 132.866C149.295 132.866 149.596 132.812 149.849 132.706C150.111 132.589 150.31 132.433 150.446 132.239C150.592 132.045 150.665 131.811 150.665 131.539C150.665 131.218 150.568 130.956 150.373 130.752C150.189 130.538 149.907 130.373 149.528 130.256L147.443 129.586C146.598 129.323 145.961 128.93 145.533 128.405C145.106 127.88 144.892 127.263 144.892 126.553C144.892 125.931 145.042 125.382 145.344 124.906C145.655 124.43 146.082 124.06 146.627 123.798C147.181 123.526 147.812 123.39 148.522 123.39C149.173 123.39 149.771 123.506 150.315 123.74C150.859 123.963 151.326 124.279 151.715 124.687C152.113 125.086 152.41 125.557 152.604 126.101L150.971 126.83C150.757 126.286 150.437 125.868 150.009 125.577C149.581 125.275 149.086 125.125 148.522 125.125C148.191 125.125 147.9 125.183 147.647 125.3C147.394 125.406 147.195 125.562 147.049 125.766C146.913 125.96 146.845 126.194 146.845 126.466C146.845 126.767 146.943 127.034 147.137 127.268C147.331 127.491 147.628 127.666 148.026 127.793L150.023 128.419C150.888 128.701 151.535 129.09 151.962 129.586C152.4 130.081 152.618 130.694 152.618 131.423C152.618 132.045 152.458 132.594 152.137 133.07C151.817 133.546 151.374 133.92 150.811 134.193C150.247 134.465 149.591 134.601 148.843 134.601ZM148.143 135.884V122.107H149.382V135.884H148.143ZM155.439 134.426V125.256H153.34V123.565H157.422V134.426H155.439ZM159.03 134.426V132.924L161.975 129.848C162.558 129.236 163.005 128.75 163.316 128.39C163.637 128.021 163.86 127.705 163.987 127.443C164.113 127.18 164.176 126.913 164.176 126.641C164.176 126.184 164.03 125.824 163.739 125.562C163.457 125.3 163.092 125.168 162.645 125.168C162.179 125.168 161.776 125.304 161.435 125.577C161.095 125.839 160.847 126.228 160.692 126.743L158.957 126.203C159.074 125.63 159.312 125.134 159.671 124.716C160.031 124.289 160.468 123.963 160.983 123.74C161.508 123.506 162.062 123.39 162.645 123.39C163.345 123.39 163.957 123.516 164.482 123.769C165.017 124.022 165.43 124.376 165.721 124.833C166.023 125.29 166.173 125.824 166.173 126.437C166.173 126.825 166.101 127.209 165.955 127.588C165.809 127.967 165.59 128.356 165.299 128.755C165.007 129.143 164.628 129.581 164.162 130.067L161.61 132.749H166.319V134.426H159.03ZM171.781 134.601C170.916 134.601 170.158 134.367 169.507 133.901C168.856 133.434 168.346 132.778 167.976 131.933C167.617 131.087 167.437 130.106 167.437 128.988C167.437 127.861 167.617 126.879 167.976 126.043C168.336 125.207 168.841 124.556 169.493 124.09C170.144 123.623 170.902 123.39 171.767 123.39C172.651 123.39 173.414 123.623 174.056 124.09C174.707 124.556 175.217 125.212 175.587 126.058C175.956 126.893 176.141 127.87 176.141 128.988C176.141 130.106 175.956 131.087 175.587 131.933C175.227 132.769 174.722 133.425 174.07 133.901C173.419 134.367 172.656 134.601 171.781 134.601ZM171.796 132.793C172.292 132.793 172.715 132.642 173.064 132.341C173.414 132.03 173.682 131.593 173.866 131.029C174.061 130.456 174.158 129.775 174.158 128.988C174.158 128.201 174.061 127.525 173.866 126.962C173.682 126.388 173.409 125.951 173.05 125.649C172.7 125.348 172.272 125.198 171.767 125.198C171.281 125.198 170.863 125.348 170.513 125.649C170.163 125.951 169.891 126.388 169.697 126.962C169.512 127.525 169.42 128.201 169.42 128.988C169.42 129.765 169.512 130.441 169.697 131.014C169.891 131.578 170.163 132.015 170.513 132.326C170.873 132.637 171.3 132.793 171.796 132.793ZM178.007 136.7V135.752C178.327 135.675 178.585 135.524 178.779 135.3C178.983 135.087 179.11 134.795 179.158 134.426H178.298V132.385H180.223V133.639C180.223 134.494 180.033 135.179 179.654 135.694C179.285 136.209 178.736 136.545 178.007 136.7ZM186.789 134.426V132.035H181.803V130.373L186.673 123.565H188.743V130.373H190.332V132.035H188.743V134.426H186.789ZM183.261 131.087L182.911 130.373H186.789V125.125L187.299 125.285L183.261 131.087ZM194.651 134.601C194.058 134.601 193.495 134.494 192.96 134.28C192.435 134.056 191.983 133.745 191.604 133.347C191.235 132.939 190.982 132.458 190.846 131.904L192.581 131.291C192.756 131.787 193.023 132.166 193.383 132.429C193.743 132.681 194.165 132.808 194.651 132.808C195.04 132.808 195.375 132.735 195.657 132.589C195.949 132.443 196.177 132.234 196.342 131.962C196.508 131.68 196.59 131.35 196.59 130.971C196.59 130.592 196.508 130.271 196.342 130.008C196.187 129.736 195.963 129.527 195.672 129.382C195.38 129.236 195.035 129.163 194.637 129.163C194.452 129.163 194.258 129.182 194.054 129.221C193.859 129.26 193.684 129.318 193.529 129.396L193.077 128.449L195.891 125.241H191.459V123.565H198.121V125.125L195.293 128.434L195.322 127.69C195.973 127.7 196.542 127.841 197.028 128.113C197.514 128.385 197.893 128.76 198.165 129.236C198.437 129.712 198.573 130.271 198.573 130.912C198.573 131.612 198.403 132.244 198.063 132.808C197.723 133.362 197.256 133.799 196.663 134.12C196.07 134.44 195.4 134.601 194.651 134.601ZM203.185 134.601C202.611 134.601 202.062 134.494 201.537 134.28C201.022 134.066 200.575 133.765 200.196 133.376C199.827 132.978 199.574 132.506 199.438 131.962L201.158 131.35C201.323 131.845 201.591 132.215 201.96 132.458C202.329 132.691 202.738 132.808 203.185 132.808C203.554 132.808 203.88 132.73 204.161 132.574C204.453 132.409 204.677 132.186 204.832 131.904C204.988 131.612 205.065 131.277 205.065 130.898C205.065 130.519 204.983 130.188 204.817 129.906C204.662 129.625 204.443 129.406 204.161 129.25C203.88 129.085 203.554 129.003 203.185 129.003C202.806 129.003 202.461 129.085 202.15 129.25C201.848 129.416 201.63 129.654 201.494 129.965L199.875 129.6L200.735 123.565H206.654V125.241H201.523L202.266 124.381L201.654 128.93L201.085 128.463C201.357 128.065 201.688 127.773 202.077 127.588C202.475 127.404 202.956 127.311 203.52 127.311C204.239 127.311 204.861 127.467 205.386 127.778C205.921 128.089 206.334 128.512 206.625 129.046C206.917 129.581 207.063 130.198 207.063 130.898C207.063 131.598 206.892 132.229 206.552 132.793C206.212 133.357 205.75 133.799 205.167 134.12C204.584 134.44 203.923 134.601 203.185 134.601ZM209.18 134.426V132.385H211.104V134.426H209.18ZM217.62 134.601C216.755 134.601 215.997 134.367 215.346 133.901C214.694 133.434 214.184 132.778 213.815 131.933C213.455 131.087 213.275 130.106 213.275 128.988C213.275 127.861 213.455 126.879 213.815 126.043C214.174 125.207 214.68 124.556 215.331 124.09C215.982 123.623 216.74 123.39 217.605 123.39C218.49 123.39 219.253 123.623 219.894 124.09C220.545 124.556 221.056 125.212 221.425 126.058C221.794 126.893 221.979 127.87 221.979 128.988C221.979 130.106 221.794 131.087 221.425 131.933C221.065 132.769 220.56 133.425 219.909 133.901C219.258 134.367 218.495 134.601 217.62 134.601ZM217.634 132.793C218.13 132.793 218.553 132.642 218.903 132.341C219.253 132.03 219.52 131.593 219.705 131.029C219.899 130.456 219.996 129.775 219.996 128.988C219.996 128.201 219.899 127.525 219.705 126.962C219.52 126.388 219.248 125.951 218.888 125.649C218.538 125.348 218.111 125.198 217.605 125.198C217.119 125.198 216.701 125.348 216.352 125.649C216.002 125.951 215.729 126.388 215.535 126.962C215.35 127.525 215.258 128.201 215.258 128.988C215.258 129.765 215.35 130.441 215.535 131.014C215.729 131.578 216.002 132.015 216.352 132.326C216.711 132.637 217.139 132.793 217.634 132.793ZM227.504 134.601C226.639 134.601 225.881 134.367 225.23 133.901C224.579 133.434 224.069 132.778 223.699 131.933C223.34 131.087 223.16 130.106 223.16 128.988C223.16 127.861 223.34 126.879 223.699 126.043C224.059 125.207 224.564 124.556 225.215 124.09C225.867 123.623 226.625 123.39 227.49 123.39C228.374 123.39 229.137 123.623 229.779 124.09C230.43 124.556 230.94 125.212 231.309 126.058C231.679 126.893 231.863 127.87 231.863 128.988C231.863 130.106 231.679 131.087 231.309 131.933C230.95 132.769 230.444 133.425 229.793 133.901C229.142 134.367 228.379 134.601 227.504 134.601ZM227.519 132.793C228.015 132.793 228.437 132.642 228.787 132.341C229.137 132.03 229.404 131.593 229.589 131.029C229.783 130.456 229.881 129.775 229.881 128.988C229.881 128.201 229.783 127.525 229.589 126.962C229.404 126.388 229.132 125.951 228.773 125.649C228.423 125.348 227.995 125.198 227.49 125.198C227.004 125.198 226.586 125.348 226.236 125.649C225.886 125.951 225.614 126.388 225.42 126.962C225.235 127.525 225.143 128.201 225.143 128.988C225.143 129.765 225.235 130.441 225.42 131.014C225.614 131.578 225.886 132.015 226.236 132.326C226.596 132.637 227.023 132.793 227.519 132.793Z" fill="#1A202C"/>
<path d="M238.745 135.56C238.396 135.151 238.132 134.705 237.954 134.22C237.775 133.735 237.686 133.219 237.686 132.67C237.686 132.117 237.775 131.599 237.954 131.114C238.132 130.629 238.396 130.187 238.745 129.787H239.351C239.049 130.234 238.819 130.699 238.662 131.184C238.509 131.665 238.432 132.16 238.432 132.67C238.432 133.176 238.509 133.674 238.662 134.163C238.819 134.647 239.049 135.113 239.351 135.56H238.745ZM242.676 134.616C242.323 134.616 242.009 134.541 241.732 134.392C241.46 134.244 241.245 134.039 241.088 133.78C240.935 133.521 240.858 133.225 240.858 132.894V129.787H241.611V132.862C241.611 133.07 241.656 133.255 241.745 133.417C241.838 133.578 241.964 133.704 242.121 133.793C242.283 133.882 242.468 133.927 242.676 133.927C242.889 133.927 243.074 133.882 243.231 133.793C243.393 133.704 243.518 133.578 243.607 133.417C243.701 133.255 243.748 133.07 243.748 132.862V129.787H244.494V132.894C244.494 133.225 244.417 133.521 244.264 133.78C244.111 134.039 243.896 134.244 243.62 134.392C243.348 134.541 243.033 134.616 242.676 134.616ZM246.974 134.616C246.677 134.616 246.4 134.56 246.145 134.45C245.89 134.335 245.673 134.18 245.495 133.984C245.316 133.789 245.184 133.563 245.099 133.308L245.737 133.04C245.852 133.334 246.02 133.559 246.241 133.716C246.462 133.874 246.717 133.952 247.006 133.952C247.176 133.952 247.325 133.927 247.453 133.876C247.58 133.82 247.678 133.744 247.746 133.646C247.818 133.548 247.855 133.436 247.855 133.308C247.855 133.134 247.806 132.996 247.708 132.894C247.61 132.791 247.466 132.711 247.274 132.651L246.381 132.37C246.024 132.26 245.752 132.092 245.565 131.867C245.378 131.637 245.284 131.369 245.284 131.063C245.284 130.795 245.35 130.561 245.482 130.361C245.614 130.157 245.794 129.998 246.024 129.883C246.258 129.768 246.524 129.711 246.821 129.711C247.106 129.711 247.366 129.762 247.599 129.864C247.833 129.962 248.033 130.098 248.199 130.272C248.369 130.446 248.492 130.648 248.569 130.878L247.944 131.152C247.85 130.901 247.704 130.708 247.504 130.572C247.308 130.436 247.081 130.368 246.821 130.368C246.664 130.368 246.526 130.395 246.407 130.451C246.288 130.502 246.194 130.578 246.126 130.68C246.062 130.778 246.03 130.893 246.03 131.025C246.03 131.178 246.079 131.314 246.177 131.433C246.275 131.552 246.424 131.641 246.624 131.701L247.453 131.962C247.831 132.077 248.116 132.243 248.307 132.46C248.499 132.672 248.594 132.938 248.594 133.257C248.594 133.521 248.524 133.755 248.384 133.959C248.248 134.163 248.059 134.324 247.816 134.443C247.574 134.558 247.293 134.616 246.974 134.616ZM249.312 134.539V129.787H250.868C251.361 129.787 251.789 129.887 252.15 130.087C252.516 130.283 252.798 130.559 252.998 130.916C253.198 131.273 253.298 131.688 253.298 132.16C253.298 132.628 253.198 133.042 252.998 133.404C252.798 133.761 252.516 134.039 252.15 134.239C251.789 134.439 251.361 134.539 250.868 134.539H249.312ZM250.064 133.869H250.881C251.217 133.869 251.508 133.799 251.755 133.659C252.005 133.519 252.199 133.321 252.335 133.066C252.471 132.811 252.539 132.509 252.539 132.16C252.539 131.811 252.469 131.512 252.329 131.261C252.193 131.006 252.001 130.808 251.755 130.668C251.508 130.527 251.217 130.457 250.881 130.457H250.064V133.869ZM254.606 135.56C254.912 135.113 255.141 134.647 255.295 134.163C255.448 133.674 255.524 133.176 255.524 132.67C255.524 132.16 255.448 131.665 255.295 131.184C255.141 130.699 254.912 130.234 254.606 129.787H255.212C255.565 130.187 255.83 130.629 256.009 131.114C256.187 131.599 256.277 132.117 256.277 132.67C256.277 133.219 256.187 133.735 256.009 134.22C255.83 134.705 255.565 135.151 255.212 135.56H254.606Z" fill="#90A3BF"/>
<rect x="216.352" y="172.098" width="60.1368" height="24.1458" rx="4.10024" fill="white" stroke="#D1F701" stroke-width="0.911164"/>
<path d="M241.375 187.387V183.305H240.112V182.635H243.365V183.305H242.121V187.387H241.375ZM243.35 187.387V183.936H244.039V184.631L243.975 184.529C244.052 184.304 244.175 184.142 244.345 184.045C244.515 183.943 244.719 183.891 244.957 183.891H245.168V184.548H244.868C244.63 184.548 244.436 184.623 244.288 184.772C244.143 184.916 244.071 185.125 244.071 185.397V187.387H243.35ZM246.567 187.463C246.333 187.463 246.126 187.423 245.948 187.342C245.774 187.257 245.638 187.142 245.54 186.998C245.442 186.849 245.393 186.674 245.393 186.475C245.393 186.288 245.433 186.12 245.514 185.971C245.599 185.822 245.729 185.697 245.903 185.594C246.078 185.492 246.297 185.42 246.56 185.378L247.759 185.18V185.748L246.701 185.933C246.509 185.967 246.369 186.028 246.28 186.117C246.19 186.203 246.146 186.313 246.146 186.449C246.146 186.581 246.195 186.689 246.292 186.774C246.394 186.855 246.524 186.896 246.681 186.896C246.877 186.896 247.047 186.853 247.192 186.768C247.34 186.683 247.455 186.57 247.536 186.43C247.617 186.285 247.657 186.126 247.657 185.952V185.065C247.657 184.895 247.593 184.757 247.466 184.65C247.343 184.54 247.177 184.485 246.968 184.485C246.777 184.485 246.609 184.536 246.465 184.638C246.324 184.736 246.22 184.863 246.152 185.02L245.552 184.721C245.616 184.551 245.72 184.402 245.865 184.274C246.01 184.142 246.178 184.04 246.369 183.968C246.564 183.896 246.771 183.86 246.988 183.86C247.26 183.86 247.5 183.911 247.708 184.013C247.921 184.115 248.085 184.257 248.199 184.44C248.318 184.619 248.378 184.827 248.378 185.065V187.387H247.689V186.762L247.836 186.781C247.755 186.921 247.651 187.042 247.523 187.144C247.4 187.246 247.258 187.325 247.096 187.38C246.939 187.436 246.762 187.463 246.567 187.463ZM249.093 187.387V183.936H249.782V184.612L249.699 184.523C249.784 184.306 249.92 184.142 250.107 184.032C250.294 183.917 250.511 183.86 250.758 183.86C251.013 183.86 251.238 183.915 251.434 184.025C251.63 184.136 251.783 184.289 251.893 184.485C252.004 184.68 252.059 184.906 252.059 185.161V187.387H251.345V185.352C251.345 185.178 251.313 185.031 251.249 184.912C251.185 184.789 251.094 184.695 250.975 184.631C250.86 184.563 250.728 184.529 250.579 184.529C250.43 184.529 250.296 184.563 250.177 184.631C250.063 184.695 249.973 184.789 249.91 184.912C249.846 185.035 249.814 185.182 249.814 185.352V187.387H249.093ZM253.978 187.463C253.625 187.463 253.315 187.376 253.047 187.202C252.784 187.027 252.599 186.794 252.492 186.5L253.047 186.239C253.141 186.434 253.268 186.589 253.43 186.704C253.596 186.819 253.779 186.876 253.978 186.876C254.148 186.876 254.287 186.838 254.393 186.762C254.499 186.685 254.552 186.581 254.552 186.449C254.552 186.364 254.529 186.296 254.482 186.245C254.435 186.19 254.376 186.145 254.304 186.111C254.236 186.077 254.165 186.052 254.093 186.035L253.551 185.881C253.253 185.796 253.03 185.669 252.881 185.499C252.737 185.324 252.664 185.122 252.664 184.893C252.664 184.685 252.718 184.504 252.824 184.351C252.93 184.193 253.077 184.072 253.264 183.987C253.451 183.902 253.662 183.86 253.895 183.86C254.21 183.86 254.491 183.938 254.737 184.096C254.984 184.249 255.158 184.463 255.26 184.74L254.705 185.001C254.637 184.835 254.529 184.704 254.38 184.606C254.236 184.508 254.072 184.459 253.889 184.459C253.732 184.459 253.606 184.497 253.513 184.574C253.419 184.646 253.372 184.742 253.372 184.861C253.372 184.942 253.394 185.01 253.436 185.065C253.479 185.116 253.534 185.159 253.602 185.193C253.67 185.222 253.74 185.248 253.813 185.269L254.374 185.435C254.659 185.516 254.878 185.643 255.031 185.818C255.184 185.988 255.26 186.192 255.26 186.43C255.26 186.634 255.205 186.815 255.095 186.972C254.988 187.125 254.839 187.246 254.648 187.336C254.457 187.421 254.234 187.463 253.978 187.463ZM256.228 187.387V184.587H255.59V183.936H256.228V183.758C256.228 183.498 256.281 183.281 256.388 183.107C256.494 182.928 256.641 182.792 256.828 182.699C257.019 182.605 257.238 182.558 257.485 182.558C257.531 182.558 257.584 182.563 257.644 182.571C257.704 182.575 257.752 182.582 257.791 182.59V183.215C257.757 183.207 257.718 183.203 257.676 183.203C257.633 183.198 257.599 183.196 257.574 183.196C257.383 183.196 257.229 183.241 257.115 183.33C257 183.415 256.942 183.558 256.942 183.758V183.936H257.733V184.587H256.942V187.387H256.228ZM259.767 187.463C259.422 187.463 259.116 187.385 258.848 187.227C258.585 187.066 258.379 186.849 258.23 186.577C258.081 186.3 258.007 185.992 258.007 185.652C258.007 185.303 258.081 184.995 258.23 184.727C258.383 184.459 258.587 184.249 258.842 184.096C259.097 183.938 259.386 183.86 259.71 183.86C259.969 183.86 260.201 183.904 260.405 183.994C260.609 184.083 260.781 184.206 260.921 184.363C261.062 184.517 261.168 184.693 261.24 184.893C261.317 185.093 261.355 185.305 261.355 185.531C261.355 185.586 261.353 185.643 261.349 185.703C261.344 185.762 261.336 185.818 261.323 185.869H258.574V185.295H260.915L260.571 185.556C260.613 185.348 260.598 185.163 260.526 185.001C260.458 184.835 260.352 184.706 260.207 184.612C260.067 184.514 259.901 184.466 259.71 184.466C259.518 184.466 259.348 184.514 259.199 184.612C259.05 184.706 258.936 184.842 258.855 185.02C258.774 185.195 258.742 185.407 258.759 185.658C258.738 185.892 258.77 186.096 258.855 186.271C258.944 186.445 259.067 186.581 259.225 186.679C259.386 186.777 259.569 186.825 259.773 186.825C259.982 186.825 260.158 186.779 260.303 186.685C260.451 186.592 260.568 186.47 260.653 186.322L261.24 186.609C261.172 186.77 261.066 186.917 260.921 187.049C260.781 187.176 260.611 187.278 260.411 187.355C260.216 187.427 260.001 187.463 259.767 187.463ZM261.931 187.387V183.936H262.62V184.631L262.556 184.529C262.632 184.304 262.756 184.142 262.926 184.045C263.096 183.943 263.3 183.891 263.538 183.891H263.749V184.548H263.449C263.211 184.548 263.017 184.623 262.868 184.772C262.724 184.916 262.652 185.125 262.652 185.397V187.387H261.931Z" fill="#1A202C"/>
<path d="M229.156 184.935C229.156 185.359 229.484 185.699 229.885 185.699H230.706C231.055 185.699 231.339 185.402 231.339 185.031C231.339 184.634 231.165 184.49 230.907 184.398L229.593 183.94C229.335 183.848 229.161 183.708 229.161 183.307C229.161 182.94 229.444 182.639 229.794 182.639H230.614C231.016 182.639 231.344 182.979 231.344 183.403" stroke="#1A202C" stroke-width="0.683373" stroke-linecap="round" stroke-linejoin="round"/>
<path d="M230.248 182.207V186.136" stroke="#1A202C" stroke-width="0.683373" stroke-linecap="round" stroke-linejoin="round"/>
<path d="M234.614 184.171C234.614 186.581 232.658 188.537 230.248 188.537C227.838 188.537 225.882 186.581 225.882 184.171C225.882 181.761 227.838 179.805 230.248 179.805" stroke="#1A202C" stroke-width="0.683373" stroke-linecap="round" stroke-linejoin="round"/>
<path d="M234.614 181.551V179.805H232.867" stroke="#1A202C" stroke-width="0.683373" stroke-linecap="round" stroke-linejoin="round"/>
<path d="M232.431 181.988L234.614 179.805" stroke="#1A202C" stroke-width="0.683373" stroke-linecap="round" stroke-linejoin="round"/>
<rect x="143.915" y="171.643" width="61.048" height="25.057" rx="4.55582" fill="#D1F701"/>
<path d="M171.672 187.387V183.305H170.409V182.635H173.662V183.305H172.418V187.387H171.672ZM175.243 187.463C174.911 187.463 174.607 187.385 174.331 187.227C174.059 187.07 173.842 186.855 173.68 186.583C173.519 186.311 173.438 186.003 173.438 185.658C173.438 185.31 173.519 185.001 173.68 184.733C173.842 184.461 174.059 184.249 174.331 184.096C174.603 183.938 174.907 183.86 175.243 183.86C175.583 183.86 175.887 183.938 176.155 184.096C176.427 184.249 176.642 184.461 176.799 184.733C176.961 185.001 177.042 185.31 177.042 185.658C177.042 186.007 176.961 186.317 176.799 186.589C176.638 186.862 176.421 187.076 176.149 187.234C175.877 187.387 175.575 187.463 175.243 187.463ZM175.243 186.794C175.447 186.794 175.628 186.745 175.785 186.647C175.943 186.549 176.066 186.415 176.155 186.245C176.249 186.071 176.296 185.875 176.296 185.658C176.296 185.441 176.249 185.248 176.155 185.078C176.066 184.908 175.943 184.774 175.785 184.676C175.628 184.578 175.447 184.529 175.243 184.529C175.043 184.529 174.863 184.578 174.701 184.676C174.544 184.774 174.418 184.908 174.325 185.078C174.235 185.248 174.191 185.441 174.191 185.658C174.191 185.875 174.235 186.071 174.325 186.245C174.418 186.415 174.544 186.549 174.701 186.647C174.863 186.745 175.043 186.794 175.243 186.794ZM177.618 188.662V183.936H178.307V184.65L178.224 184.485C178.351 184.289 178.521 184.136 178.734 184.025C178.947 183.915 179.189 183.86 179.461 183.86C179.789 183.86 180.082 183.938 180.341 184.096C180.605 184.253 180.811 184.468 180.96 184.74C181.113 185.012 181.19 185.318 181.19 185.658C181.19 185.998 181.113 186.305 180.96 186.577C180.811 186.849 180.607 187.066 180.348 187.227C180.088 187.385 179.793 187.463 179.461 187.463C179.193 187.463 178.949 187.408 178.728 187.297C178.511 187.187 178.343 187.027 178.224 186.819L178.339 186.685V188.662H177.618ZM179.391 186.794C179.595 186.794 179.776 186.745 179.933 186.647C180.09 186.549 180.214 186.415 180.303 186.245C180.397 186.071 180.443 185.875 180.443 185.658C180.443 185.441 180.397 185.248 180.303 185.078C180.214 184.908 180.09 184.774 179.933 184.676C179.776 184.578 179.595 184.529 179.391 184.529C179.191 184.529 179.01 184.578 178.849 184.676C178.691 184.774 178.566 184.908 178.472 185.078C178.383 185.248 178.339 185.441 178.339 185.658C178.339 185.875 178.383 186.071 178.472 186.245C178.566 186.415 178.691 186.549 178.849 186.647C179.01 186.745 179.191 186.794 179.391 186.794ZM184.6 187.463C184.247 187.463 183.933 187.389 183.656 187.24C183.384 187.091 183.169 186.887 183.012 186.628C182.859 186.368 182.782 186.073 182.782 185.741V182.635H183.535V185.709C183.535 185.918 183.58 186.103 183.669 186.264C183.762 186.426 183.888 186.551 184.045 186.64C184.207 186.73 184.392 186.774 184.6 186.774C184.813 186.774 184.998 186.73 185.155 186.64C185.317 186.551 185.442 186.426 185.531 186.264C185.625 186.103 185.672 185.918 185.672 185.709V182.635H186.418V185.741C186.418 186.073 186.341 186.368 186.188 186.628C186.035 186.887 185.821 187.091 185.544 187.24C185.272 187.389 184.957 187.463 184.6 187.463ZM187.164 188.662V183.936H187.852V184.65L187.77 184.485C187.897 184.289 188.067 184.136 188.28 184.025C188.492 183.915 188.735 183.86 189.007 183.86C189.334 183.86 189.628 183.938 189.887 184.096C190.151 184.253 190.357 184.468 190.506 184.74C190.659 185.012 190.735 185.318 190.735 185.658C190.735 185.998 190.659 186.305 190.506 186.577C190.357 186.849 190.153 187.066 189.893 187.227C189.634 187.385 189.339 187.463 189.007 187.463C188.739 187.463 188.495 187.408 188.273 187.297C188.057 187.187 187.889 187.027 187.77 186.819L187.884 186.685V188.662H187.164ZM188.937 186.794C189.141 186.794 189.322 186.745 189.479 186.647C189.636 186.549 189.76 186.415 189.849 186.245C189.942 186.071 189.989 185.875 189.989 185.658C189.989 185.441 189.942 185.248 189.849 185.078C189.76 184.908 189.636 184.774 189.479 184.676C189.322 184.578 189.141 184.529 188.937 184.529C188.737 184.529 188.556 184.578 188.395 184.676C188.237 184.774 188.112 184.908 188.018 185.078C187.929 185.248 187.884 185.441 187.884 185.658C187.884 185.875 187.929 186.071 188.018 186.245C188.112 186.415 188.237 186.549 188.395 186.647C188.556 186.745 188.737 186.794 188.937 186.794Z" fill="#1E293B"/>
<path d="M157.173 184.935C157.173 185.359 157.5 185.699 157.902 185.699H158.723C159.072 185.699 159.356 185.402 159.356 185.031C159.356 184.634 159.181 184.49 158.924 184.398L157.609 183.94C157.352 183.848 157.177 183.708 157.177 183.307C157.177 182.94 157.461 182.639 157.81 182.639H158.631C159.033 182.639 159.36 182.979 159.36 183.403" stroke="#1E293B" stroke-width="0.683373" stroke-linecap="round" stroke-linejoin="round"/>
<path d="M158.265 182.207V186.136" stroke="#1E293B" stroke-width="0.683373" stroke-linecap="round" stroke-linejoin="round"/>
<path d="M162.63 184.171C162.63 186.581 160.674 188.537 158.264 188.537C155.854 188.537 153.898 186.581 153.898 184.171C153.898 181.761 155.854 179.805 158.264 179.805" stroke="#1E293B" stroke-width="0.683373" stroke-linecap="round" stroke-linejoin="round"/>
<path d="M160.447 180.242V181.989H162.194" stroke="#1E293B" stroke-width="0.683373" stroke-linecap="round" stroke-linejoin="round"/>
<path d="M162.63 179.805L160.447 181.988" stroke="#1E293B" stroke-width="0.683373" stroke-linecap="round" stroke-linejoin="round"/>
</g>
<path d="M260 90L263.286 112.983L267.931 103.75L277.529 101.366L260 90Z" fill="#F6F056"/>
<path d="M274.298 111.9H383.055C392.376 111.9 399.931 117.944 399.931 125.4C399.931 132.857 392.376 138.9 383.055 138.9H291.174C281.853 138.9 274.298 132.857 274.298 125.4V111.9Z" fill="#F6F056"/>
<path d="M335 0L330.313 24L323.688 14.3584L310 11.8688L335 0Z" fill="#D1F701"/>
<path d="M314.512 22.8359H215.382C206.886 22.8359 200 29.4285 200 37.5625C200 45.6965 206.886 52.2891 215.382 52.2891H299.13C307.626 52.2891 314.512 45.6965 314.512 37.5625V22.8359Z" fill="#D1F701"/>
<defs>
<clipPath id="clip0_302_3085">
<rect x="-14" y="77" width="312.604" height="228" rx="17.1574" fill="white"/>
</clipPath>
</defs>
</svg>
