<svg width="299" height="287" viewBox="0 0 299 287" fill="none" xmlns="http://www.w3.org/2000/svg">
<g filter="url(#filter0_d_199_2816)">
<rect x="102.106" y="56.7383" width="170" height="128" rx="6" transform="rotate(23.7268 102.106 56.7383)" fill="white"/>
</g>
<rect x="114.092" y="181.07" width="16" height="6" rx="3" transform="rotate(23.7268 114.092 181.07)" fill="#B4B6C4"/>
<rect x="143.387" y="193.945" width="16" height="6" rx="3" transform="rotate(23.7268 143.387 193.945)" fill="#B4B6C4"/>
<rect x="172.682" y="206.822" width="16" height="6" rx="3" transform="rotate(23.7268 172.682 206.822)" fill="#B4B6C4"/>
<rect x="84.7959" y="168.193" width="16" height="6" rx="3" transform="rotate(23.7268 84.7959 168.193)" fill="#B4B6C4"/>
<rect x="103.306" y="126.082" width="16" height="36" transform="rotate(23.7268 103.306 126.082)" fill="#4338CA"/>
<rect x="163.506" y="148.172" width="16" height="40" transform="rotate(23.7268 163.506 148.172)" fill="#4338CA"/>
<rect x="200.849" y="142.74" width="16" height="60" transform="rotate(23.7268 200.849 142.74)" fill="#D1F701"/>
<rect x="139.441" y="123.396" width="16" height="53" transform="rotate(23.7268 139.441 123.396)" fill="#D1F701"/>
<path d="M206.961 150.304C206.497 150.438 206.004 150.221 205.788 149.789L201.66 141.497C200.826 139.822 202.543 138.022 204.255 138.774L216.112 143.986C217.825 144.738 217.659 147.22 215.861 147.738L206.961 150.304Z" fill="#4338CA"/>
<rect x="189.408" y="101.664" width="70" height="34" rx="4" transform="rotate(23.7268 189.408 101.664)" fill="#4338CA"/>
<rect opacity="0.4" x="187.075" y="126.854" width="28" height="3" rx="1.5" transform="rotate(23.7268 187.075 126.854)" fill="white"/>
<path d="M198.126 114.513C197.511 115.263 196.65 116.087 195.541 116.986C194.436 117.877 193.514 118.501 192.775 118.86L195.723 120.155L196.844 117.605C197.386 117.16 197.874 116.676 198.308 116.153L198.872 116.401L196.979 120.707L198.094 121.197L197.593 122.338L196.478 121.848L195.526 124.014L194.269 123.462L195.222 121.296L191.082 119.476L191.589 118.323C193.517 117.091 195.247 115.624 196.78 113.922L198.126 114.513ZM205.306 117.669C205.845 117.906 206.28 118.25 206.611 118.702C206.952 119.157 207.155 119.669 207.22 120.239C207.286 120.808 207.195 121.374 206.947 121.938L205.579 125.053C205.334 125.608 204.985 126.056 204.529 126.396C204.078 126.728 203.567 126.927 202.998 126.992C202.441 127.053 201.885 126.962 201.329 126.718L201.163 126.645C200.599 126.397 200.147 126.045 199.807 125.59C199.479 125.13 199.29 124.619 199.242 124.057C199.193 123.495 199.289 122.941 199.529 122.394L200.898 119.28C201.15 118.707 201.503 118.251 201.958 117.911C202.422 117.574 202.931 117.38 203.484 117.327C204.041 117.266 204.593 117.356 205.14 117.596L205.306 117.669ZM204.728 118.776C204.233 118.558 203.741 118.541 203.252 118.724C202.768 118.898 202.417 119.233 202.199 119.729L200.746 123.036C200.528 123.531 200.517 124.021 200.712 124.504C200.911 124.979 201.258 125.326 201.754 125.543C202.267 125.769 202.763 125.788 203.242 125.601C203.722 125.414 204.069 125.078 204.283 124.591L205.736 121.284C205.95 120.797 205.964 120.313 205.777 119.834C205.591 119.354 205.241 119.002 204.728 118.776ZM216.724 122.841L207.528 129.289L206.631 128.895L215.853 122.457L216.724 122.841ZM211.143 120.403C211.596 120.602 211.902 120.915 212.061 121.342C212.224 121.76 212.208 122.191 212.012 122.635L211.41 124.007C211.214 124.451 210.901 124.757 210.471 124.925C210.053 125.087 209.621 125.071 209.177 124.876L209.087 124.836C208.643 124.641 208.335 124.333 208.164 123.911C208.005 123.484 208.023 123.048 208.218 122.604L208.821 121.233C209.016 120.788 209.323 120.485 209.741 120.322C210.163 120.151 210.601 120.164 211.053 120.363L211.143 120.403ZM210.795 121.091C210.556 120.986 210.331 120.974 210.122 121.055C209.926 121.132 209.778 121.281 209.681 121.503L208.999 123.054C208.901 123.276 208.889 123.49 208.962 123.696C209.047 123.896 209.209 124.049 209.449 124.154C209.688 124.259 209.906 124.274 210.103 124.197C210.303 124.112 210.452 123.958 210.55 123.736L211.232 122.185C211.329 121.963 211.34 121.753 211.263 121.557C211.19 121.351 211.034 121.196 210.795 121.091ZM214.243 126.919C214.688 127.114 214.989 127.425 215.148 127.852C215.32 128.274 215.308 128.707 215.112 129.152L214.51 130.523C214.314 130.967 214.006 131.275 213.584 131.446C213.166 131.609 212.73 131.591 212.277 131.392L212.188 131.353C211.735 131.154 211.427 130.845 211.264 130.427C211.105 130 211.123 129.565 211.318 129.12L211.921 127.749C212.116 127.305 212.423 127.001 212.841 126.838C213.272 126.671 213.709 126.684 214.154 126.88L214.243 126.919ZM213.895 127.607C213.656 127.502 213.432 127.49 213.222 127.571C213.026 127.648 212.878 127.797 212.781 128.02L212.099 129.57C212.002 129.793 211.989 130.006 212.062 130.212C212.147 130.412 212.309 130.565 212.549 130.67C212.788 130.775 213.006 130.79 213.203 130.713C213.403 130.628 213.552 130.474 213.65 130.252L214.332 128.701C214.429 128.479 214.44 128.27 214.363 128.073C214.29 127.867 214.134 127.712 213.895 127.607Z" fill="white"/>
<circle cx="233.321" cy="138.442" r="7" transform="rotate(23.7268 233.321 138.442)" fill="white"/>
<path d="M234.498 137.041C234.37 136.676 233.914 136.476 233.558 136.628L230.034 138.135C229.565 138.336 229.622 138.968 230.131 139.191L234.927 141.299C235.435 141.523 235.94 141.138 235.771 140.656L234.498 137.041Z" fill="#38E7B2"/>
<g filter="url(#filter1_d_199_2816)">
<rect x="98.7256" y="24.666" width="58" height="58" rx="6" transform="rotate(23.7268 98.7256 24.666)" fill="white"/>
<path d="M76.1312 61.1589C76.1312 61.1589 87.4511 53.588 95.0942 55.2933C102.737 56.9986 97.8517 66.8824 102.806 66.329C107.76 65.7755 114.938 54.4105 120.777 54.02C127.249 53.5872 123.376 68.182 131.235 66.2628C140.821 63.9219 151.557 69.7329 151.557 69.7329" stroke="#D1F701" stroke-width="2" stroke-linecap="round" stroke-linejoin="round"/>
<rect x="102.317" y="33.8906" width="12" height="12" rx="2" transform="rotate(23.7268 102.317 33.8906)" fill="#4338CA"/>
<rect opacity="0.4" x="112.146" y="78.627" width="16" height="6" rx="3" transform="rotate(23.7268 112.146 78.627)" fill="#B4B6C4"/>
</g>
<g filter="url(#filter2_d_199_2816)">
<rect x="102.106" y="56.7383" width="170" height="128" rx="6" transform="rotate(23.7268 102.106 56.7383)" fill="white"/>
</g>
<rect x="114.092" y="181.07" width="16" height="6" rx="3" transform="rotate(23.7268 114.092 181.07)" fill="#B4B6C4"/>
<rect x="143.387" y="193.945" width="16" height="6" rx="3" transform="rotate(23.7268 143.387 193.945)" fill="#B4B6C4"/>
<rect x="172.682" y="206.822" width="16" height="6" rx="3" transform="rotate(23.7268 172.682 206.822)" fill="#B4B6C4"/>
<rect x="84.7959" y="168.193" width="16" height="6" rx="3" transform="rotate(23.7268 84.7959 168.193)" fill="#B4B6C4"/>
<rect x="103.306" y="126.082" width="16" height="36" transform="rotate(23.7268 103.306 126.082)" fill="#4338CA"/>
<rect x="163.506" y="148.172" width="16" height="40" transform="rotate(23.7268 163.506 148.172)" fill="#4338CA"/>
<rect x="200.849" y="142.738" width="16" height="60" transform="rotate(23.7268 200.849 142.738)" fill="#D1F701"/>
<rect x="139.441" y="123.395" width="16" height="53" transform="rotate(23.7268 139.441 123.395)" fill="#D1F701"/>
<path d="M206.961 150.304C206.497 150.438 206.004 150.221 205.788 149.789L201.66 141.497C200.826 139.822 202.543 138.022 204.255 138.774L216.112 143.986C217.825 144.738 217.659 147.22 215.861 147.738L206.961 150.304Z" fill="#4338CA"/>
<rect x="189.408" y="101.664" width="70" height="34" rx="4" transform="rotate(23.7268 189.408 101.664)" fill="#4338CA"/>
<rect opacity="0.4" x="187.075" y="126.854" width="28" height="3" rx="1.5" transform="rotate(23.7268 187.075 126.854)" fill="white"/>
<path d="M194.269 123.462L195.255 121.219L191.103 119.394L191.565 118.343C191.751 118.221 192.003 118.041 192.322 117.804C192.64 117.567 192.992 117.288 193.377 116.968C193.771 116.652 194.168 116.316 194.568 115.962C194.973 115.6 195.36 115.24 195.731 114.883C196.111 114.53 196.439 114.2 196.716 113.894L197.947 114.434C197.675 114.774 197.352 115.126 196.977 115.492C196.606 115.849 196.216 116.202 195.808 116.553C195.411 116.898 195.009 117.221 194.602 117.522C194.203 117.825 193.832 118.09 193.488 118.316C193.148 118.534 192.851 118.699 192.597 118.812L195.712 120.181L196.866 117.553C196.968 117.486 197.084 117.394 197.216 117.279C197.361 117.159 197.501 117.037 197.637 116.913C197.785 116.785 197.921 116.661 198.045 116.542C198.181 116.418 198.286 116.307 198.361 116.207L198.886 116.438L196.993 120.744L198.108 121.234L197.652 122.272L196.537 121.782L195.551 124.025L194.269 123.462ZM201.137 126.633C200.59 126.393 200.149 126.051 199.814 125.608C199.482 125.157 199.282 124.65 199.212 124.09C199.151 123.533 199.248 122.964 199.503 122.383L200.878 119.255C201.133 118.674 201.487 118.218 201.938 117.886C202.399 117.559 202.905 117.368 203.458 117.316C204.015 117.255 204.567 117.344 205.114 117.585L205.358 117.692C205.913 117.936 206.352 118.282 206.675 118.73C207.011 119.173 207.209 119.673 207.27 120.23C207.331 120.787 207.234 121.356 206.979 121.937L205.604 125.064C205.349 125.645 204.995 126.101 204.544 126.433C204.092 126.765 203.588 126.961 203.031 127.022C202.486 127.078 201.936 126.984 201.381 126.74L201.137 126.633ZM201.703 125.659C202.036 125.805 202.369 125.86 202.702 125.822C203.038 125.776 203.337 125.653 203.599 125.452C203.869 125.255 204.077 124.989 204.224 124.656L205.745 121.196C205.895 120.854 205.951 120.517 205.914 120.184C205.885 119.856 205.772 119.556 205.575 119.286C205.377 119.016 205.112 118.807 204.779 118.661C204.446 118.514 204.113 118.46 203.78 118.497C203.456 118.538 203.159 118.658 202.889 118.855C202.619 119.052 202.409 119.322 202.258 119.663L200.737 123.124C200.591 123.457 200.536 123.79 200.574 124.122C200.611 124.455 200.722 124.759 200.907 125.034C201.105 125.304 201.37 125.512 201.703 125.659ZM206.656 128.906L215.865 122.463L216.775 122.863L207.579 129.312L206.656 128.906ZM209.1 124.842C208.801 124.711 208.566 124.526 208.396 124.288C208.229 124.041 208.13 123.768 208.098 123.469C208.075 123.173 208.126 122.884 208.25 122.602L208.852 121.231C208.976 120.949 209.153 120.721 209.383 120.547C209.624 120.367 209.891 120.26 210.182 120.225C210.476 120.181 210.773 120.225 211.072 120.356L211.187 120.407C211.503 120.546 211.741 120.737 211.899 120.98C212.07 121.218 212.166 121.485 212.189 121.78C212.225 122.071 212.18 122.357 212.056 122.639L211.454 124.011C211.33 124.293 211.147 124.523 210.905 124.702C210.672 124.885 210.408 124.999 210.113 125.043C209.831 125.082 209.536 125.034 209.228 124.898L209.1 124.842ZM209.474 124.165C209.722 124.274 209.942 124.284 210.134 124.195C210.326 124.106 210.471 123.951 210.568 123.729L211.25 122.178C211.344 121.964 211.359 121.757 211.294 121.555C211.23 121.354 211.074 121.198 210.826 121.089C210.595 120.988 210.38 120.98 210.179 121.065C209.979 121.15 209.832 121.3 209.738 121.513L209.056 123.064C208.958 123.286 208.946 123.5 209.019 123.705C209.092 123.911 209.243 124.064 209.474 124.165ZM212.2 131.358C211.901 131.227 211.666 131.042 211.496 130.804C211.329 130.557 211.23 130.284 211.198 129.985C211.175 129.689 211.226 129.401 211.35 129.119L211.952 127.747C212.076 127.465 212.253 127.237 212.483 127.063C212.724 126.884 212.991 126.776 213.282 126.741C213.576 126.697 213.873 126.741 214.172 126.872L214.287 126.923C214.603 127.062 214.841 127.253 214.999 127.496C215.17 127.734 215.266 128.001 215.289 128.296C215.325 128.587 215.28 128.874 215.157 129.156L214.554 130.527C214.43 130.809 214.247 131.039 214.005 131.219C213.772 131.402 213.508 131.515 213.213 131.559C212.931 131.598 212.636 131.55 212.329 131.415L212.2 131.358ZM212.574 130.682C212.822 130.79 213.042 130.8 213.234 130.712C213.43 130.614 213.575 130.459 213.668 130.245L214.35 128.694C214.444 128.48 214.459 128.273 214.394 128.071C214.33 127.87 214.174 127.714 213.926 127.606C213.696 127.504 213.48 127.496 213.279 127.581C213.079 127.666 212.932 127.816 212.838 128.029L212.156 129.58C212.062 129.794 212.05 130.008 212.119 130.221C212.192 130.427 212.344 130.58 212.574 130.682Z" fill="white"/>
<circle cx="233.321" cy="138.442" r="7" transform="rotate(23.7268 233.321 138.442)" fill="white"/>
<path d="M234.498 137.041C234.37 136.676 233.914 136.476 233.558 136.628L230.034 138.135C229.565 138.336 229.622 138.968 230.131 139.191L234.927 141.299C235.435 141.523 235.94 141.138 235.771 140.656L234.498 137.041Z" fill="#38E7B2"/>
<g filter="url(#filter3_d_199_2816)">
<rect x="98.7256" y="24.666" width="58" height="58" rx="6" transform="rotate(23.7268 98.7256 24.666)" fill="white"/>
<path d="M76.4953 60.3347C76.4953 60.3347 87.6015 53.1245 95.1741 54.8588C102.747 56.593 98.0246 66.1127 102.915 65.6303C107.805 65.1478 114.777 54.2182 120.544 53.9031C126.935 53.554 123.266 67.6473 131.013 65.8734C140.461 63.7099 151.135 69.454 151.135 69.454" stroke="#D1F701" stroke-width="2" stroke-linecap="round" stroke-linejoin="round"/>
<rect x="102.317" y="33.8926" width="12" height="12" rx="2" transform="rotate(23.7268 102.317 33.8926)" fill="#4338CA"/>
<rect opacity="0.4" x="112.147" y="78.6289" width="16" height="6" rx="3" transform="rotate(23.7268 112.147 78.6289)" fill="#B4B6C4"/>
</g>
<defs>
<filter id="filter0_d_199_2816" x="14.5078" y="28.6445" width="279.324" height="257.773" filterUnits="userSpaceOnUse" color-interpolation-filters="sRGB">
<feFlood flood-opacity="0" result="BackgroundImageFix"/>
<feColorMatrix in="SourceAlpha" type="matrix" values="0 0 0 0 0 0 0 0 0 0 0 0 0 0 0 0 0 0 127 0" result="hardAlpha"/>
<feMorphology radius="2" operator="erode" in="SourceAlpha" result="effect1_dropShadow_199_2816"/>
<feOffset dy="8"/>
<feGaussianBlur stdDeviation="20"/>
<feColorMatrix type="matrix" values="0 0 0 0 0.0235294 0 0 0 0 0.0470588 0 0 0 0 0.231373 0 0 0 0.08 0"/>
<feBlend mode="normal" in2="BackgroundImageFix" result="effect1_dropShadow_199_2816"/>
<feBlend mode="normal" in="SourceGraphic" in2="effect1_dropShadow_199_2816" result="shape"/>
</filter>
<filter id="filter1_d_199_2816" x="55.1309" y="12.5723" width="117.426" height="112.623" filterUnits="userSpaceOnUse" color-interpolation-filters="sRGB">
<feFlood flood-opacity="0" result="BackgroundImageFix"/>
<feColorMatrix in="SourceAlpha" type="matrix" values="0 0 0 0 0 0 0 0 0 0 0 0 0 0 0 0 0 0 127 0" result="hardAlpha"/>
<feOffset dy="6"/>
<feGaussianBlur stdDeviation="10"/>
<feColorMatrix type="matrix" values="0 0 0 0 0.11 0 0 0 0 0.14137 0 0 0 0 0.4125 0 0 0 0.05 0"/>
<feBlend mode="normal" in2="BackgroundImageFix" result="effect1_dropShadow_199_2816"/>
<feBlend mode="normal" in="SourceGraphic" in2="effect1_dropShadow_199_2816" result="shape"/>
</filter>
<filter id="filter2_d_199_2816" x="14.5078" y="28.6445" width="279.324" height="257.773" filterUnits="userSpaceOnUse" color-interpolation-filters="sRGB">
<feFlood flood-opacity="0" result="BackgroundImageFix"/>
<feColorMatrix in="SourceAlpha" type="matrix" values="0 0 0 0 0 0 0 0 0 0 0 0 0 0 0 0 0 0 127 0" result="hardAlpha"/>
<feMorphology radius="2" operator="erode" in="SourceAlpha" result="effect1_dropShadow_199_2816"/>
<feOffset dy="8"/>
<feGaussianBlur stdDeviation="20"/>
<feColorMatrix type="matrix" values="0 0 0 0 0.0235294 0 0 0 0 0.0470588 0 0 0 0 0.231373 0 0 0 0.08 0"/>
<feBlend mode="normal" in2="BackgroundImageFix" result="effect1_dropShadow_199_2816"/>
<feBlend mode="normal" in="SourceGraphic" in2="effect1_dropShadow_199_2816" result="shape"/>
</filter>
<filter id="filter3_d_199_2816" x="55.4951" y="12.5723" width="116.64" height="112.623" filterUnits="userSpaceOnUse" color-interpolation-filters="sRGB">
<feFlood flood-opacity="0" result="BackgroundImageFix"/>
<feColorMatrix in="SourceAlpha" type="matrix" values="0 0 0 0 0 0 0 0 0 0 0 0 0 0 0 0 0 0 127 0" result="hardAlpha"/>
<feOffset dy="6"/>
<feGaussianBlur stdDeviation="10"/>
<feColorMatrix type="matrix" values="0 0 0 0 0.11 0 0 0 0 0.14137 0 0 0 0 0.4125 0 0 0 0.05 0"/>
<feBlend mode="normal" in2="BackgroundImageFix" result="effect1_dropShadow_199_2816"/>
<feBlend mode="normal" in="SourceGraphic" in2="effect1_dropShadow_199_2816" result="shape"/>
</filter>
</defs>
</svg>
