<svg width="136" height="136" viewBox="0 0 136 136" fill="none" xmlns="http://www.w3.org/2000/svg">
<g filter="url(#filter0_d_792_4612)">
<g filter="url(#filter1_di_792_4612)">
<ellipse cx="62.5862" cy="100.439" rx="29.5862" ry="16.5606" fill="#4D21FF"/>
<path d="M62.5859 84.1094C70.724 84.1094 78.0809 85.9564 83.3945 88.9307C88.7154 91.9091 91.9414 95.9873 91.9414 100.439C91.9414 104.892 88.7154 108.97 83.3945 111.948C78.0809 114.922 70.724 116.77 62.5859 116.77C54.448 116.769 47.0919 114.922 41.7783 111.948C36.4572 108.97 33.2305 104.892 33.2305 100.439C33.2305 95.9872 36.4573 91.9091 41.7783 88.9307C47.0919 85.9565 54.448 84.1094 62.5859 84.1094Z" stroke="black" stroke-width="0.461083"/>
</g>
<g filter="url(#filter2_ii_792_4612)">
<path d="M33.4371 82.1348H91.9557V101.896C91.9557 101.896 88.2437 116.635 62.8056 116.635C37.3675 116.635 33.2188 101.896 33.2188 101.896L33.4371 82.1348Z" fill="#FFF7DD" fill-opacity="0.3"/>
</g>
<g filter="url(#filter3_di_792_4612)">
<ellipse cx="62.5862" cy="80.7891" rx="29.5862" ry="16.5606" fill="#4D21FF"/>
<path d="M62.5859 64.5576C70.7103 64.5576 78.0494 66.4017 83.3457 69.3662C88.6527 72.3367 91.8428 76.3886 91.8428 80.7891C91.8428 85.1896 88.6527 89.2414 83.3457 92.2119C78.0494 95.1764 70.7103 97.0205 62.5859 97.0205C54.4616 97.0205 47.1225 95.1765 41.8262 92.2119C36.5193 89.2414 33.3291 85.1895 33.3291 80.7891C33.3291 76.3886 36.5193 72.3367 41.8262 69.3662C47.1225 66.4017 54.4616 64.5577 62.5859 64.5576Z" stroke="black" stroke-width="0.658333"/>
</g>
<ellipse cx="62.6976" cy="80.7349" rx="14.851" ry="8.22515" fill="#3719B4"/>
</g>
<g filter="url(#filter4_d_792_4612)">
<path d="M63.3946 31.1291L70.5356 27.13V43.4981L63.3946 47.4973C59.451 49.7057 56.2544 47.8313 56.2544 43.3114C56.2546 38.7915 59.4511 33.3378 63.3946 31.1291Z" fill="#FF3A00" stroke="black" stroke-width="1.52265"/>
<path d="M63.3946 47.8772L70.5356 43.878V60.2462L63.3946 64.2453C59.451 66.4537 56.2544 64.5794 56.2544 60.0594C56.2546 55.5396 59.4511 50.0858 63.3946 47.8772Z" fill="#AD54FF" stroke="black" stroke-width="1.52265"/>
<path d="M63.3946 64.2444L70.5356 60.2452V68.4288C70.5356 72.9488 67.3383 78.4039 63.3946 80.6125C59.451 82.8209 56.2544 80.9466 56.2544 76.4266C56.2546 71.9067 59.4511 66.453 63.3946 64.2444Z" fill="#00D37C" stroke="black" stroke-width="1.52265"/>
<path d="M77.6758 39.4983C81.6195 37.2897 84.8167 39.1629 84.8168 43.6827C84.8168 48.2027 81.6196 53.6579 77.6758 55.8664C73.7322 58.0748 70.5357 56.2005 70.5357 51.6805C70.5358 47.1606 73.7323 41.7069 77.6758 39.4983Z" fill="#00BFFF" stroke="black" stroke-width="1.52265"/>
<path d="M77.6777 23.1306L70.5367 27.1298V43.498L77.6777 39.4988C81.6213 37.2901 84.8178 31.8355 84.8178 27.3156C84.8177 22.7958 81.6212 20.9223 77.6777 23.1306Z" fill="#FF665A" stroke="black" stroke-width="1.52265"/>
</g>
<defs>
<filter id="filter0_d_792_4612" x="33" y="64.2285" width="59.1719" height="59.7677" filterUnits="userSpaceOnUse" color-interpolation-filters="sRGB">
<feFlood flood-opacity="0" result="BackgroundImageFix"/>
<feColorMatrix in="SourceAlpha" type="matrix" values="0 0 0 0 0 0 0 0 0 0 0 0 0 0 0 0 0 0 127 0" result="hardAlpha"/>
<feOffset dy="6.9962"/>
<feComposite in2="hardAlpha" operator="out"/>
<feColorMatrix type="matrix" values="0 0 0 0 0 0 0 0 0 0 0 0 0 0 0 0 0 0 0.5 0"/>
<feBlend mode="normal" in2="BackgroundImageFix" result="effect1_dropShadow_792_4612"/>
<feBlend mode="normal" in="SourceGraphic" in2="effect1_dropShadow_792_4612" result="shape"/>
</filter>
<filter id="filter1_di_792_4612" x="33" y="83.8789" width="59.1719" height="34.8679" filterUnits="userSpaceOnUse" color-interpolation-filters="sRGB">
<feFlood flood-opacity="0" result="BackgroundImageFix"/>
<feColorMatrix in="SourceAlpha" type="matrix" values="0 0 0 0 0 0 0 0 0 0 0 0 0 0 0 0 0 0 127 0" result="hardAlpha"/>
<feOffset dy="1.74683"/>
<feComposite in2="hardAlpha" operator="out"/>
<feColorMatrix type="matrix" values="0 0 0 0 0 0 0 0 0 0 0 0 0 0 0 0 0 0 1 0"/>
<feBlend mode="normal" in2="BackgroundImageFix" result="effect1_dropShadow_792_4612"/>
<feBlend mode="normal" in="SourceGraphic" in2="effect1_dropShadow_792_4612" result="shape"/>
<feColorMatrix in="SourceAlpha" type="matrix" values="0 0 0 0 0 0 0 0 0 0 0 0 0 0 0 0 0 0 127 0" result="hardAlpha"/>
<feOffset dx="-0.614778" dy="1.22956"/>
<feComposite in2="hardAlpha" operator="arithmetic" k2="-1" k3="1"/>
<feColorMatrix type="matrix" values="0 0 0 0 1 0 0 0 0 0.984314 0 0 0 0 0.933333 0 0 0 1 0"/>
<feBlend mode="normal" in2="shape" result="effect2_innerShadow_792_4612"/>
</filter>
<filter id="filter2_ii_792_4612" x="33.2188" y="82.1348" width="58.7363" height="34.5" filterUnits="userSpaceOnUse" color-interpolation-filters="sRGB">
<feFlood flood-opacity="0" result="BackgroundImageFix"/>
<feBlend mode="normal" in="SourceGraphic" in2="BackgroundImageFix" result="shape"/>
<feColorMatrix in="SourceAlpha" type="matrix" values="0 0 0 0 0 0 0 0 0 0 0 0 0 0 0 0 0 0 127 0" result="hardAlpha"/>
<feOffset dx="3.49365" dy="1.74683"/>
<feComposite in2="hardAlpha" operator="arithmetic" k2="-1" k3="1"/>
<feColorMatrix type="matrix" values="0 0 0 0 1 0 0 0 0 0.984314 0 0 0 0 0.933333 0 0 0 0.6 0"/>
<feBlend mode="normal" in2="shape" result="effect1_innerShadow_792_4612"/>
<feColorMatrix in="SourceAlpha" type="matrix" values="0 0 0 0 0 0 0 0 0 0 0 0 0 0 0 0 0 0 127 0" result="hardAlpha"/>
<feOffset dx="-3.49365" dy="0.873413"/>
<feComposite in2="hardAlpha" operator="arithmetic" k2="-1" k3="1"/>
<feColorMatrix type="matrix" values="0 0 0 0 1 0 0 0 0 0.984314 0 0 0 0 0.933333 0 0 0 0.8 0"/>
<feBlend mode="normal" in2="effect1_innerShadow_792_4612" result="effect2_innerShadow_792_4612"/>
</filter>
<filter id="filter3_di_792_4612" x="33" y="64.2285" width="59.1719" height="38.3616" filterUnits="userSpaceOnUse" color-interpolation-filters="sRGB">
<feFlood flood-opacity="0" result="BackgroundImageFix"/>
<feColorMatrix in="SourceAlpha" type="matrix" values="0 0 0 0 0 0 0 0 0 0 0 0 0 0 0 0 0 0 127 0" result="hardAlpha"/>
<feOffset dy="5.24048"/>
<feComposite in2="hardAlpha" operator="out"/>
<feColorMatrix type="matrix" values="0 0 0 0 0 0 0 0 0 0 0 0 0 0 0 0 0 0 1 0"/>
<feBlend mode="normal" in2="BackgroundImageFix" result="effect1_dropShadow_792_4612"/>
<feBlend mode="normal" in="SourceGraphic" in2="effect1_dropShadow_792_4612" result="shape"/>
<feColorMatrix in="SourceAlpha" type="matrix" values="0 0 0 0 0 0 0 0 0 0 0 0 0 0 0 0 0 0 127 0" result="hardAlpha"/>
<feOffset dx="-0.614778" dy="1.22956"/>
<feComposite in2="hardAlpha" operator="arithmetic" k2="-1" k3="1"/>
<feColorMatrix type="matrix" values="0 0 0 0 1 0 0 0 0 0.984314 0 0 0 0 0.933333 0 0 0 1 0"/>
<feBlend mode="normal" in2="shape" result="effect2_innerShadow_792_4612"/>
</filter>
<filter id="filter4_d_792_4612" x="51.7832" y="21.3555" width="33.6992" height="61.0312" filterUnits="userSpaceOnUse" color-interpolation-filters="sRGB">
<feFlood flood-opacity="0" result="BackgroundImageFix"/>
<feColorMatrix in="SourceAlpha" type="matrix" values="0 0 0 0 0 0 0 0 0 0 0 0 0 0 0 0 0 0 127 0" result="hardAlpha"/>
<feOffset dx="-3.80663"/>
<feComposite in2="hardAlpha" operator="out"/>
<feColorMatrix type="matrix" values="0 0 0 0 0 0 0 0 0 0 0 0 0 0 0 0 0 0 1 0"/>
<feBlend mode="normal" in2="BackgroundImageFix" result="effect1_dropShadow_792_4612"/>
<feBlend mode="normal" in="SourceGraphic" in2="effect1_dropShadow_792_4612" result="shape"/>
</filter>
</defs>
</svg>
