<svg width="136" height="136" viewBox="0 0 136 136" fill="none" xmlns="http://www.w3.org/2000/svg">
<g filter="url(#filter0_di_792_4672)">
<ellipse cx="68.2158" cy="89.1306" rx="46.2158" ry="25.8688" fill="#4D21FF"/>
<path d="M68.2158 63.6221C80.9281 63.6221 92.4195 66.5064 100.72 71.1523C109.032 75.8049 114.071 82.1762 114.071 89.1309C114.071 96.0854 109.031 102.456 100.72 107.108C92.4195 111.754 80.9281 114.64 68.2158 114.64C55.5035 114.64 44.0122 111.754 35.7119 107.108C27.4002 102.456 22.3605 96.0854 22.3604 89.1309C22.3604 82.1762 27.4 75.8049 35.7119 71.1523C44.0122 66.5063 55.5035 63.6221 68.2158 63.6221Z" stroke="black" stroke-width="0.720246"/>
</g>
<g filter="url(#filter1_di_792_4672)">
<ellipse cx="68.2158" cy="89.1306" rx="46.2158" ry="25.8688" fill="#4D21FF"/>
<path d="M68.2158 63.6221C80.9281 63.6221 92.4195 66.5064 100.72 71.1523C109.032 75.8049 114.071 82.1762 114.071 89.1309C114.071 96.0854 109.031 102.456 100.72 107.108C92.4195 111.754 80.9281 114.64 68.2158 114.64C55.5035 114.64 44.0122 111.754 35.7119 107.108C27.4002 102.456 22.3605 96.0854 22.3604 89.1309C22.3604 82.1762 27.4 75.8049 35.7119 71.1523C44.0122 66.5063 55.5035 63.6221 68.2158 63.6221Z" stroke="black" stroke-width="0.720246"/>
</g>
<g filter="url(#filter2_di_792_4672)">
<ellipse cx="68.2158" cy="89.1306" rx="46.2158" ry="25.8688" fill="#4D21FF"/>
<path d="M68.2158 63.6221C80.9281 63.6221 92.4195 66.5064 100.72 71.1523C109.032 75.8049 114.071 82.1762 114.071 89.1309C114.071 96.0854 109.031 102.456 100.72 107.108C92.4195 111.754 80.9281 114.64 68.2158 114.64C55.5035 114.64 44.0122 111.754 35.7119 107.108C27.4002 102.456 22.3605 96.0854 22.3604 89.1309C22.3604 82.1762 27.4 75.8049 35.7119 71.1523C44.0122 66.5063 55.5035 63.6221 68.2158 63.6221Z" stroke="black" stroke-width="0.720246"/>
</g>
<g filter="url(#filter3_d_792_4672)">
<path d="M59.4805 70.3418C61.0062 70.2655 62.1292 70.3224 62.9551 70.4736C63.7814 70.6249 64.2908 70.868 64.6104 71.1465C65.2378 71.6935 65.2344 72.4624 65.2344 73.4326C65.2342 74.2117 64.6646 74.9782 63.6094 75.5674C62.5638 76.1511 61.0996 76.5215 59.4658 76.5215C57.8319 76.5215 56.3669 76.1512 55.3213 75.5674C54.2663 74.9782 53.6974 74.2116 53.6973 73.4326C53.6973 72.4741 53.713 71.8616 54.3379 71.3877C54.6682 71.1372 55.1897 70.9107 56.0225 70.7295C56.8529 70.5488 57.9721 70.4172 59.4805 70.3418Z" fill="#4D21FF" stroke="black" stroke-width="0.593505"/>
<g filter="url(#filter4_i_792_4672)">
<ellipse cx="59.4656" cy="72.32" rx="6.06523" ry="3.38642" fill="#7B5CF7"/>
</g>
<path d="M59.4658 69.1357C61.1127 69.1358 62.5941 69.5085 63.6562 70.1016C64.725 70.6983 65.3291 71.4915 65.3291 72.3203C65.329 73.149 64.7248 73.9414 63.6562 74.5381C62.5941 75.1311 61.1127 75.5039 59.4658 75.5039C57.8189 75.5039 56.3376 75.1311 55.2754 74.5381C54.2067 73.9414 53.6027 73.1491 53.6025 72.3203C53.6025 71.4914 54.2066 70.6983 55.2754 70.1016C56.3376 69.5086 57.8189 69.1357 59.4658 69.1357Z" stroke="black" stroke-width="0.404349"/>
<path d="M64.0645 74.3926V75.2518" stroke="black" stroke-width="0.101087"/>
<path d="M63.207 74.7949V75.6542" stroke="black" stroke-width="0.101087"/>
<path d="M62.0938 75.3008V76.16" stroke="black" stroke-width="0.101087"/>
<path d="M60.8809 75.5039V76.3631" stroke="black" stroke-width="0.101087"/>
<path d="M59.7676 75.6055V76.4647" stroke="black" stroke-width="0.101087"/>
<path d="M58.5547 75.6055V76.4647" stroke="black" stroke-width="0.101087"/>
<path d="M57.1406 75.4023V76.2616" stroke="black" stroke-width="0.101087"/>
<path d="M55.9277 74.998V75.8573" stroke="black" stroke-width="0.101087"/>
<path d="M54.8164 74.3926V75.2518" stroke="black" stroke-width="0.101087"/>
<g filter="url(#filter5_i_792_4672)">
<ellipse cx="59.4644" cy="72.3209" rx="4.24566" ry="2.37555" fill="#CCFF6F"/>
</g>
<path d="M59.4648 70.1475C60.6091 70.1475 61.6354 70.4074 62.3682 70.8174C63.1075 71.2311 63.5078 71.7714 63.5078 72.3213C63.5076 72.871 63.1072 73.4106 62.3682 73.8242C61.6354 74.2342 60.6091 74.4941 59.4648 74.4941C58.3204 74.4941 57.2934 74.2343 56.5605 73.8242C55.8215 73.4106 55.4211 72.871 55.4209 72.3213C55.4209 71.7714 55.8213 71.2311 56.5605 70.8174C57.2934 70.4073 58.3204 70.1475 59.4648 70.1475Z" stroke="black" stroke-width="0.404349"/>
</g>
<g filter="url(#filter6_d_792_4672)">
<path d="M60.8916 67.3496C62.4214 67.2731 63.5529 67.3294 64.3887 67.4824C65.2246 67.6355 65.7521 67.8833 66.0889 68.1768C66.7542 68.757 66.7451 69.5753 66.7451 70.5342C66.7449 71.3629 66.1408 72.1553 65.0723 72.752C64.0101 73.345 62.5287 73.7177 60.8818 73.7178C59.2349 73.7178 57.7536 73.345 56.6914 72.752C55.6227 72.1553 55.0187 71.3629 55.0186 70.5342C55.0186 69.5832 55.0292 68.9201 55.6963 68.4141C56.0421 68.1518 56.5788 67.9219 57.418 67.7393C58.2556 67.557 59.3807 67.4252 60.8916 67.3496Z" fill="#4D21FF" stroke="black" stroke-width="0.404349"/>
<g filter="url(#filter7_i_792_4672)">
<ellipse cx="60.8816" cy="69.4216" rx="6.06523" ry="3.38642" fill="#7B5CF7"/>
</g>
<path d="M60.8818 66.332C62.5155 66.3321 63.9798 66.7024 65.0254 67.2861C66.0808 67.8754 66.6504 68.6427 66.6504 69.4219C66.6502 70.201 66.0806 70.9675 65.0254 71.5566C63.9798 72.1404 62.5156 72.5117 60.8818 72.5117C59.2479 72.5117 57.7829 72.1404 56.7373 71.5566C55.6823 70.9675 55.1134 70.2009 55.1133 69.4219C55.1133 68.6427 55.6821 67.8754 56.7373 67.2861C57.7829 66.7023 59.2479 66.332 60.8818 66.332Z" stroke="black" stroke-width="0.593505"/>
<path d="M65.4805 71.4941V72.3534" stroke="black" stroke-width="0.101087"/>
<path d="M64.6211 71.8984V72.7577" stroke="black" stroke-width="0.101087"/>
<path d="M63.5117 72.4043V73.2635" stroke="black" stroke-width="0.101087"/>
<path d="M62.2969 72.6055V73.4647" stroke="black" stroke-width="0.101087"/>
<path d="M61.1836 72.707V73.5663" stroke="black" stroke-width="0.101087"/>
<path d="M59.9727 72.707V73.5663" stroke="black" stroke-width="0.101087"/>
<path d="M58.5566 72.5039V73.3631" stroke="black" stroke-width="0.101087"/>
<path d="M57.3438 72.0996V72.9589" stroke="black" stroke-width="0.101087"/>
<path d="M56.2305 71.4941V72.3534" stroke="black" stroke-width="0.101087"/>
<g filter="url(#filter8_i_792_4672)">
<ellipse cx="60.8824" cy="69.4224" rx="4.24566" ry="2.37555" fill="#4D21FF"/>
</g>
<path d="M60.8828 67.2871C62.0218 67.2872 63.0414 67.5459 63.7676 67.9521C64.5015 68.3628 64.8877 68.8928 64.8877 69.4229C64.8875 69.9527 64.5012 70.482 63.7676 70.8926C63.0414 71.2989 62.0218 71.5576 60.8828 71.5576C59.7436 71.5576 58.7233 71.2989 57.9971 70.8926C57.2635 70.482 56.8772 69.9527 56.877 69.4229C56.877 68.8928 57.2633 68.3628 57.9971 67.9521C58.7233 67.5458 59.7436 67.2871 60.8828 67.2871Z" stroke="black" stroke-width="0.480164"/>
<ellipse cx="58.854" cy="69.3967" rx="0.840286" ry="0.420143" fill="#FFFBEE"/>
</g>
<g filter="url(#filter9_d_792_4672)">
<path d="M34.6486 89.8669L27.4656 85.8059C26.6437 85.3412 26.4836 84.2247 27.1418 83.5478L35.6276 74.8208C36.869 73.5442 38.8249 73.288 40.3532 74.2019L47.431 78.4345C48.2332 78.9143 48.3732 80.0191 47.716 80.6837L39.2704 89.224C38.0514 90.4567 36.1578 90.7201 34.6486 89.8669Z" fill="#2606AA"/>
<path d="M34.6486 89.8669L27.4656 85.8059C26.6437 85.3412 26.4836 84.2247 27.1418 83.5478L35.6276 74.8208C36.869 73.5442 38.8249 73.288 40.3532 74.2019L47.431 78.4345C48.2332 78.9143 48.3732 80.0191 47.716 80.6837L39.2704 89.224C38.0514 90.4567 36.1578 90.7201 34.6486 89.8669Z" stroke="black" stroke-width="0.593505"/>
</g>
<g filter="url(#filter10_d_792_4672)">
<path d="M35.3023 90.2361L28.0891 86.158C27.107 85.6027 27.1155 84.1851 28.1042 83.6417L41.8642 76.0783C43.0345 75.435 44.4549 75.4457 45.6154 76.1065L52.5179 80.037C53.4867 80.5887 53.4885 81.9846 52.5211 82.5388L39.1022 90.2254C37.9261 90.899 36.4821 90.9031 35.3023 90.2361Z" fill="#7B5CF7"/>
<path d="M35.3023 90.2361L28.0891 86.158C27.107 85.6027 27.1155 84.1851 28.1042 83.6417L41.8642 76.0783C43.0345 75.435 44.4549 75.4457 45.6154 76.1065L52.5179 80.037C53.4867 80.5887 53.4885 81.9846 52.5211 82.5388L39.1022 90.2254C37.9261 90.899 36.4821 90.9031 35.3023 90.2361Z" stroke="black" stroke-width="0.593505"/>
</g>
<g filter="url(#filter11_i_792_4672)">
<ellipse cx="33.7634" cy="84.3455" rx="2.0407" ry="1.14039" fill="#FF01C4"/>
</g>
<path d="M33.7637 83.3252C34.3103 83.3252 34.7993 83.4491 35.1475 83.6436C35.4996 83.8404 35.6836 84.0938 35.6836 84.3457C35.6835 84.5975 35.4995 84.8501 35.1475 85.0469C34.7993 85.2414 34.3104 85.3662 33.7637 85.3662C33.2167 85.3662 32.7272 85.2415 32.3789 85.0469C32.0269 84.8501 31.8429 84.5975 31.8428 84.3457C31.8428 84.0938 32.0267 83.8404 32.3789 83.6436C32.7272 83.449 33.2168 83.3252 33.7637 83.3252Z" stroke="black" stroke-width="0.240082"/>
<g filter="url(#filter12_i_792_4672)">
<ellipse cx="35.0837" cy="83.5056" rx="2.0407" ry="1.14039" fill="#FF01C4"/>
</g>
<path d="M35.084 82.4854C35.6306 82.4854 36.1196 82.6093 36.4678 82.8037C36.82 83.0005 37.0039 83.254 37.0039 83.5059C37.0038 83.7577 36.8198 84.0103 36.4678 84.207C36.1196 84.4016 35.6307 84.5263 35.084 84.5264C34.537 84.5264 34.0475 84.4016 33.6992 84.207C33.3472 84.0103 33.1632 83.7576 33.1631 83.5059C33.1631 83.254 33.347 83.0005 33.6992 82.8037C34.0475 82.6091 34.5371 82.4854 35.084 82.4854Z" stroke="black" stroke-width="0.240082"/>
<path d="M51.529 81.9451C51.529 81.3153 50.6153 80.8047 49.4883 80.8047" stroke="black" stroke-width="0.240082" stroke-linecap="round"/>
<path d="M50.9298 82.1265C50.9298 81.7287 50.3386 81.4062 49.6094 81.4062" stroke="black" stroke-width="0.240082" stroke-linecap="round"/>
<path d="M50.2096 82.244C50.2096 82.1114 49.9409 82.0039 49.6094 82.0039" stroke="black" stroke-width="0.240082" stroke-linecap="round"/>
<g filter="url(#filter13_d_792_4672)">
<g filter="url(#filter14_d_792_4672)">
<path d="M99.3462 89.5727L92.7027 85.8167C91.9073 85.367 91.9143 84.2189 92.7151 83.7789L97.9866 80.8825C98.955 80.3504 100.133 80.3719 101.081 80.939L106.886 84.4106C107.668 84.878 107.636 86.0206 106.83 86.4443L100.835 89.5955C100.367 89.8415 99.8065 89.8329 99.3462 89.5727Z" fill="#7B5CF7"/>
<path d="M99.3462 89.5727L92.7027 85.8167C91.9073 85.367 91.9143 84.2189 92.7151 83.7789L97.9866 80.8825C98.955 80.3504 100.133 80.3719 101.081 80.939L106.886 84.4106C107.668 84.878 107.636 86.0206 106.83 86.4443L100.835 89.5955C100.367 89.8415 99.8065 89.8329 99.3462 89.5727Z" stroke="black" stroke-width="0.593505"/>
</g>
<path d="M107.503 92.0607V85.8002C107.503 85.5007 107.179 85.3136 106.919 85.4637L101.119 88.8219C100.501 89.1798 99.7358 89.1698 99.127 88.7958L92.195 84.5363C92.1302 84.4965 92.0469 84.5431 92.0469 84.6191V91.6314C92.0469 92.2046 92.3621 92.7313 92.8673 93.0021L99.387 96.4977C99.8424 96.7418 100.389 96.7439 100.846 96.5033L106.672 93.437C107.183 93.1681 107.503 92.6382 107.503 92.0607Z" fill="#2606AA" stroke="black" stroke-width="0.593505"/>
<path d="M107.503 92.1481V85.2936C107.503 85.2192 107.423 85.1724 107.358 85.209L100.115 89.3069V96.2527C100.115 96.5435 100.423 96.7314 100.682 96.5986L106.658 93.5318C107.177 93.2655 107.503 92.7313 107.503 92.1481Z" fill="#4D21FF" stroke="black" stroke-width="0.593505"/>
</g>
<g filter="url(#filter15_d_792_4672)">
<g filter="url(#filter16_d_792_4672)">
<path d="M96.6111 97.0525L91.8826 94.3792C91.3165 94.0591 91.3215 93.2419 91.8914 92.9288L95.6434 90.8673C96.3326 90.4886 97.171 90.5039 97.8459 90.9075L101.978 93.3784C102.534 93.7111 102.512 94.5243 101.938 94.8259L97.671 97.0687C97.3379 97.2438 96.9387 97.2377 96.6111 97.0525Z" fill="#7B5CF7"/>
<path d="M96.6111 97.0525L91.8826 94.3792C91.3165 94.0591 91.3215 93.2419 91.8914 92.9288L95.6434 90.8673C96.3326 90.4886 97.171 90.5039 97.8459 90.9075L101.978 93.3784C102.534 93.7111 102.512 94.5243 101.938 94.8259L97.671 97.0687C97.3379 97.2438 96.9387 97.2377 96.6111 97.0525Z" stroke="black" stroke-width="0.593505"/>
</g>
<path d="M102.417 98.8245V94.3686C102.417 94.1554 102.186 94.0223 102.001 94.1291L97.873 96.5193C97.4329 96.7741 96.8885 96.7669 96.4553 96.5007L91.5214 93.4691C91.4753 93.4407 91.416 93.4739 91.416 93.528V98.5189C91.416 98.9269 91.6404 99.3018 91.9999 99.4946L96.6403 101.982C96.9644 102.156 97.3536 102.158 97.679 101.986L101.825 99.8041C102.189 99.6127 102.417 99.2355 102.417 98.8245Z" fill="#2606AA" stroke="black" stroke-width="0.593505"/>
<path d="M102.416 98.8859V94.0073C102.416 93.9543 102.359 93.921 102.313 93.9471L97.1582 96.8638V101.807C97.1582 102.014 97.3771 102.148 97.5613 102.054L101.815 99.8708C102.184 99.6813 102.416 99.301 102.416 98.8859Z" fill="#4D21FF" stroke="black" stroke-width="0.593505"/>
</g>
<g filter="url(#filter17_d_792_4672)">
<path d="M55.4143 105.467L40.3739 96.7778C39.7923 96.4418 39.4284 95.8263 39.4144 95.1547L39.3812 93.5612C39.3788 93.4429 39.463 93.3404 39.5796 93.3198L90.8392 84.281C90.9841 84.2554 91.1176 84.3649 91.1209 84.512L91.2069 88.2962C91.2238 89.0397 90.81 89.7262 90.1445 90.0583L59.0513 105.578C57.8973 106.154 56.5312 106.112 55.4143 105.467Z" fill="#2606AA"/>
<path d="M55.4143 105.467L40.3739 96.7778C39.7923 96.4418 39.4284 95.8263 39.4144 95.1547L39.3812 93.5612C39.3788 93.4429 39.463 93.3404 39.5796 93.3198L90.8392 84.281C90.9841 84.2554 91.1176 84.3649 91.1209 84.512L91.2069 88.2962C91.2238 89.0397 90.81 89.7262 90.1445 90.0583L59.0513 105.578C57.8973 106.154 56.5312 106.112 55.4143 105.467Z" stroke="black" stroke-width="0.593505"/>
</g>
<path d="M55.2987 103.98L40.2979 95.4794C39.0099 94.7496 38.997 92.8985 40.2746 92.1508L71.3251 73.9774C72.5359 73.2687 74.0369 73.2766 75.2403 73.9979L90.105 82.9076C91.3635 83.662 91.3456 85.4918 90.0726 86.2214L59.1025 103.971C57.9252 104.645 56.4793 104.649 55.2987 103.98Z" fill="#4D21FF" stroke="black" stroke-width="0.593505"/>
<g filter="url(#filter18_i_792_4672)">
<path d="M56.3457 101.874L43.8904 94.815C42.6045 94.0862 42.5893 92.2389 43.863 91.489L71.1464 75.4255C72.3586 74.7118 73.864 74.7177 75.0705 75.441L87.414 82.8409C88.6703 83.5941 88.655 85.4199 87.3862 86.1519L60.1593 101.86C58.9805 102.54 57.5297 102.545 56.3457 101.874Z" fill="#7B5CF7"/>
</g>
<path d="M56.3457 101.874L43.8904 94.815C42.6045 94.0862 42.5893 92.2389 43.863 91.489L71.1464 75.4255C72.3586 74.7118 73.864 74.7177 75.0705 75.441L87.414 82.8409C88.6703 83.5941 88.655 85.4199 87.3862 86.1519L60.1593 101.86C58.9805 102.54 57.5297 102.545 56.3457 101.874Z" stroke="black" stroke-width="0.593505"/>
<path opacity="0.3" d="M65.9056 79.4297L61.8242 81.7705L64.7652 98.9363L67.8263 97.1357L65.9056 79.4297Z" fill="#FFFBEE"/>
<path opacity="0.3" d="M70.6483 76.5488L67.2871 78.5295L70.2281 95.8154L72.5689 94.3749L70.6483 76.5488Z" fill="#FFFBEE"/>
<g filter="url(#filter19_d_792_4672)">
<path d="M75.9317 90.1875L63.4838 82.7519C63.1845 82.5731 63.1695 82.145 63.4555 81.9457L64.322 81.3418C64.6294 81.1275 65.0335 81.1116 65.3568 81.3011L78.0308 88.7308C78.3503 88.9181 78.3465 89.3813 78.0239 89.5632L76.896 90.1995C76.5957 90.3689 76.2276 90.3643 75.9317 90.1875Z" fill="#CCFF6F"/>
<path d="M75.9317 90.1875L63.4838 82.7519C63.1845 82.5731 63.1695 82.145 63.4555 81.9457L64.322 81.3418C64.6294 81.1275 65.0335 81.1116 65.3568 81.3011L78.0308 88.7308C78.3503 88.9181 78.3465 89.3813 78.0239 89.5632L76.896 90.1995C76.5957 90.3689 76.2276 90.3643 75.9317 90.1875Z" stroke="black" stroke-width="0.480164"/>
</g>
<g filter="url(#filter20_d_792_4672)">
<path d="M66.6868 89.952L59.4034 85.6339C59.1029 85.4558 59.0872 85.0267 59.3737 84.827L60.2425 84.2214C60.5476 84.0088 60.9481 83.9914 61.2705 84.1769L68.7748 88.4945C69.0974 88.68 69.0954 89.1461 68.7713 89.3289L67.6484 89.9623C67.3491 90.1312 66.9824 90.1272 66.6868 89.952Z" fill="#CCFF6F"/>
<path d="M66.6868 89.952L59.4034 85.6339C59.1029 85.4558 59.0872 85.0267 59.3737 84.827L60.2425 84.2214C60.5476 84.0088 60.9481 83.9914 61.2705 84.1769L68.7748 88.4945C69.0974 88.68 69.0954 89.1461 68.7713 89.3289L67.6484 89.9623C67.3491 90.1312 66.9824 90.1272 66.6868 89.952Z" stroke="black" stroke-width="0.480164"/>
</g>
<g filter="url(#filter21_d_792_4672)">
<mask id="path-58-outside-1_792_4672" maskUnits="userSpaceOnUse" x="66.2872" y="76.6373" width="10.7768" height="5.27394" fill="black">
<rect fill="white" x="66.2872" y="76.6373" width="10.7768" height="5.27394"/>
<path d="M69.0297 80.1408C69.0114 80.1315 69.0116 80.1224 69.0302 80.1137L69.4333 79.9239C69.2752 79.7737 69.2207 79.613 69.2698 79.4417C69.328 79.2706 69.4846 79.125 69.7395 79.0051L70.0036 78.8807C70.0221 78.872 70.0405 78.8723 70.0587 78.8817L70.68 79.2023C70.6937 79.2094 70.6912 79.2172 70.6727 79.226L70.4086 79.3503C70.2881 79.407 70.2225 79.4783 70.2117 79.5642C70.2101 79.6503 70.2662 79.7227 70.38 79.7814C70.4984 79.8425 70.6403 79.8722 70.8057 79.8707C70.9803 79.8693 71.1232 79.8425 71.2344 79.7901C71.3781 79.7225 71.4121 79.6189 71.3366 79.4793C71.3145 79.4314 71.2744 79.3581 71.2165 79.2597C71.1586 79.1612 71.1051 79.0696 71.0561 78.9849C70.9627 78.8178 70.9609 78.6637 71.0507 78.5226C71.1452 78.3838 71.3105 78.2588 71.5469 78.1476C71.8064 78.0254 72.1039 77.9572 72.4396 77.9429C72.7844 77.9288 73.1031 77.9629 73.3956 78.0453L73.7988 77.8555C73.8173 77.8468 73.8357 77.8471 73.8539 77.8565L74.4479 78.163C74.4707 78.1747 74.4728 78.185 74.4542 78.1937L74.0441 78.3867C74.1931 78.5322 74.2408 78.6871 74.1873 78.8515C74.1383 79.0183 73.9887 79.1606 73.7384 79.2784L73.2727 79.4976C73.2588 79.5041 73.245 79.5039 73.2314 79.4968L72.6033 79.1727C72.5896 79.1657 72.5897 79.1589 72.6036 79.1524L73.0625 78.9296C73.1969 78.8664 73.2603 78.7939 73.2526 78.7122C73.2541 78.6306 73.2002 78.5617 73.0909 78.5053C72.9771 78.4466 72.8353 78.4168 72.6653 78.416C72.4999 78.4175 72.3569 78.4466 72.2364 78.5034C72.1206 78.5579 72.046 78.6177 72.0126 78.6828C71.9839 78.7457 71.9962 78.8298 72.0494 78.935L72.2963 79.3779C72.381 79.5221 72.3992 79.6573 72.351 79.7833C72.3073 79.9116 72.1696 80.0303 71.9379 80.1394C71.6737 80.2637 71.3738 80.3353 71.0381 80.3541C70.707 80.3708 70.3929 80.339 70.0957 80.2588L69.6856 80.4519C69.667 80.4606 69.6464 80.4591 69.6236 80.4473L69.0297 80.1408Z"/>
</mask>
<path d="M69.0297 80.1408C69.0114 80.1315 69.0116 80.1224 69.0302 80.1137L69.4333 79.9239C69.2752 79.7737 69.2207 79.613 69.2698 79.4417C69.328 79.2706 69.4846 79.125 69.7395 79.0051L70.0036 78.8807C70.0221 78.872 70.0405 78.8723 70.0587 78.8817L70.68 79.2023C70.6937 79.2094 70.6912 79.2172 70.6727 79.226L70.4086 79.3503C70.2881 79.407 70.2225 79.4783 70.2117 79.5642C70.2101 79.6503 70.2662 79.7227 70.38 79.7814C70.4984 79.8425 70.6403 79.8722 70.8057 79.8707C70.9803 79.8693 71.1232 79.8425 71.2344 79.7901C71.3781 79.7225 71.4121 79.6189 71.3366 79.4793C71.3145 79.4314 71.2744 79.3581 71.2165 79.2597C71.1586 79.1612 71.1051 79.0696 71.0561 78.9849C70.9627 78.8178 70.9609 78.6637 71.0507 78.5226C71.1452 78.3838 71.3105 78.2588 71.5469 78.1476C71.8064 78.0254 72.1039 77.9572 72.4396 77.9429C72.7844 77.9288 73.1031 77.9629 73.3956 78.0453L73.7988 77.8555C73.8173 77.8468 73.8357 77.8471 73.8539 77.8565L74.4479 78.163C74.4707 78.1747 74.4728 78.185 74.4542 78.1937L74.0441 78.3867C74.1931 78.5322 74.2408 78.6871 74.1873 78.8515C74.1383 79.0183 73.9887 79.1606 73.7384 79.2784L73.2727 79.4976C73.2588 79.5041 73.245 79.5039 73.2314 79.4968L72.6033 79.1727C72.5896 79.1657 72.5897 79.1589 72.6036 79.1524L73.0625 78.9296C73.1969 78.8664 73.2603 78.7939 73.2526 78.7122C73.2541 78.6306 73.2002 78.5617 73.0909 78.5053C72.9771 78.4466 72.8353 78.4168 72.6653 78.416C72.4999 78.4175 72.3569 78.4466 72.2364 78.5034C72.1206 78.5579 72.046 78.6177 72.0126 78.6828C71.9839 78.7457 71.9962 78.8298 72.0494 78.935L72.2963 79.3779C72.381 79.5221 72.3992 79.6573 72.351 79.7833C72.3073 79.9116 72.1696 80.0303 71.9379 80.1394C71.6737 80.2637 71.3738 80.3353 71.0381 80.3541C70.707 80.3708 70.3929 80.339 70.0957 80.2588L69.6856 80.4519C69.667 80.4606 69.6464 80.4591 69.6236 80.4473L69.0297 80.1408Z" fill="#CCFF6F"/>
<path d="M69.4333 79.9239L69.7747 80.1L70.0333 79.9783L69.8643 79.8178L69.4333 79.9239ZM69.2698 79.4417L68.7891 79.3955L68.7874 79.4016L69.2698 79.4417ZM70.2117 79.5642L69.7255 79.5427L69.7247 79.549L69.7246 79.5554L70.2117 79.5642ZM70.8057 79.8707L70.7844 79.6303L70.783 79.6304L70.8057 79.8707ZM71.3366 79.4793L70.8617 79.5264L70.8637 79.5308L70.8661 79.5353L71.3366 79.4793ZM71.2165 79.2597L70.7489 79.3207L70.7489 79.3207L71.2165 79.2597ZM71.0561 78.9849L70.5867 79.0428L70.5879 79.0448L71.0561 78.9849ZM71.0507 78.5226L70.5884 78.4404L70.5856 78.4447L71.0507 78.5226ZM72.4396 77.9429L72.3859 77.7033L72.3843 77.7034L72.4396 77.9429ZM73.3956 78.0453L73.1632 78.2533L73.4799 78.3424L73.737 78.2214L73.3956 78.0453ZM74.0441 78.3867L73.7027 78.2106L73.4472 78.3309L73.6106 78.4903L74.0441 78.3867ZM74.1873 78.8515L73.7062 78.807L73.7051 78.8106L74.1873 78.8515ZM72.6036 79.1524L72.9451 79.3285L72.9502 79.326L72.6036 79.1524ZM73.0625 78.9296L72.7211 78.7535L72.716 78.7559L73.0625 78.9296ZM73.2526 78.7122L72.7654 78.7033L72.7653 78.71L72.7659 78.7166L73.2526 78.7122ZM72.6653 78.416L72.6565 78.1755L72.6426 78.1757L72.6653 78.416ZM72.0126 78.6828L71.54 78.6178L71.5372 78.6238L72.0126 78.6828ZM72.0494 78.935L71.5768 78.987L71.5799 78.9927L72.0494 78.935ZM72.2963 79.3779L71.8268 79.4356L71.8287 79.4387L72.2963 79.3779ZM72.351 79.7833L71.8721 79.7323L71.8705 79.7371L72.351 79.7833ZM71.0381 80.3541L71.1008 80.5933L71.1063 80.593L71.0381 80.3541ZM70.0957 80.2588L70.3201 80.0486L70.0064 79.964L69.7543 80.0827L70.0957 80.2588ZM69.0297 80.1408L69.3772 79.9772C69.4207 79.9997 69.5048 80.0542 69.5033 80.1359C69.5018 80.2175 69.4158 80.2689 69.3715 80.2898L69.0302 80.1137L68.6888 79.9375C68.6259 79.9671 68.5306 80.0274 68.529 80.1181C68.5273 80.2089 68.6204 80.2726 68.6821 80.3044L69.0297 80.1408ZM69.0302 80.1137L69.3715 80.2898L69.7747 80.1L69.4333 79.9239L69.0919 79.7478L68.6888 79.9375L69.0302 80.1137ZM69.4333 79.9239L69.8643 79.8178C69.7558 79.7148 69.7168 79.6054 69.7522 79.4819L69.2698 79.4417L68.7874 79.4016C68.7247 79.6206 68.7947 79.8327 69.0023 80.03L69.4333 79.9239ZM69.2698 79.4417L69.7503 79.488C69.7914 79.3673 69.8986 79.267 70.0808 79.1812L69.7395 79.0051L69.3981 78.8289C69.0706 78.9831 68.8647 79.1739 68.7893 79.3955L69.2698 79.4417ZM69.7395 79.0051L70.0808 79.1812L70.345 79.0569L70.0036 78.8807L69.6622 78.7046L69.3981 78.8289L69.7395 79.0051ZM70.0036 78.8807L70.345 79.0569C70.3007 79.0777 70.1925 79.1177 70.0269 79.1147C69.8613 79.1117 69.7547 79.0678 69.7112 79.0453L70.0587 78.8817L70.4063 78.7181C70.3446 78.6863 70.2196 78.6376 70.0357 78.6342C69.8517 78.6309 69.7251 78.675 69.6622 78.7046L70.0036 78.8807ZM70.0587 78.8817L69.7112 79.0453L70.3325 79.3659L70.68 79.2023L71.0276 79.0387L70.4063 78.7181L70.0587 78.8817ZM70.68 79.2023L70.3325 79.3659C70.256 79.3265 70.1802 79.2566 70.2068 79.1708C70.2284 79.101 70.3072 79.0612 70.3313 79.0498L70.6727 79.226L71.0141 79.4021C71.0568 79.382 71.146 79.3339 71.1701 79.2563C71.1991 79.1626 71.1177 79.0852 71.0276 79.0387L70.68 79.2023ZM70.6727 79.226L70.3313 79.0498L70.0672 79.1742L70.4086 79.3503L70.7499 79.5264L71.0141 79.4021L70.6727 79.226ZM70.4086 79.3503L70.0672 79.1742C69.8576 79.2728 69.7433 79.4 69.7255 79.5427L70.2117 79.5642L70.6979 79.5857C70.7016 79.5567 70.7185 79.5412 70.7499 79.5264L70.4086 79.3503ZM70.2117 79.5642L69.7246 79.5554C69.7219 79.6999 69.8209 79.8358 70.0325 79.945L70.38 79.7814L70.7276 79.6178C70.7116 79.6095 70.6983 79.6007 70.6988 79.5731L70.2117 79.5642ZM70.38 79.7814L70.0325 79.945C70.2457 80.055 70.5214 80.1139 70.8283 80.1111L70.8057 79.8707L70.783 79.6304C70.7636 79.6305 70.7564 79.629 70.7551 79.6287C70.7536 79.6284 70.7443 79.6264 70.7276 79.6178L70.38 79.7814ZM70.8057 79.8707L70.8269 80.1111C71.1061 80.1089 71.3681 80.064 71.5758 79.9663L71.2344 79.7901L70.8931 79.614C70.8783 79.621 70.8545 79.6298 70.7844 79.6303L70.8057 79.8707ZM71.2344 79.7901L71.5758 79.9663C71.8964 79.8154 71.9057 79.6058 71.807 79.4234L71.3366 79.4793L70.8661 79.5353C70.8921 79.5833 70.8896 79.6082 70.8868 79.6168C70.8855 79.6205 70.8846 79.6205 70.8867 79.6184C70.889 79.6162 70.8918 79.6146 70.8931 79.614L71.2344 79.7901ZM71.3366 79.4793L71.8115 79.4323C71.7859 79.3769 71.7425 79.2979 71.6841 79.1986L71.2165 79.2597L70.7489 79.3207C70.8064 79.4184 70.843 79.4858 70.8617 79.5264L71.3366 79.4793ZM71.2165 79.2597L71.6841 79.1986C71.6263 79.1004 71.5731 79.0092 71.5243 78.9249L71.0561 78.9849L70.5879 79.0448C70.6372 79.1299 70.6908 79.2219 70.7489 79.3207L71.2165 79.2597ZM71.0561 78.9849L71.5255 78.927C71.4532 78.7977 71.458 78.6913 71.5159 78.6004L71.0507 78.5226L70.5856 78.4447C70.4638 78.636 70.4722 78.8379 70.5868 79.0427L71.0561 78.9849ZM71.0507 78.5226L71.513 78.6048C71.5805 78.5055 71.701 78.4118 71.8882 78.3237L71.5469 78.1476L71.2055 77.9714C70.9201 78.1058 70.7098 78.2621 70.5885 78.4404L71.0507 78.5226ZM71.5469 78.1476L71.8882 78.3237C72.0766 78.235 72.2756 78.1917 72.4949 78.1824L72.4396 77.9429L72.3843 77.7034C71.9323 77.7226 71.5361 77.8158 71.2055 77.9714L71.5469 78.1476ZM72.4396 77.9429L72.4933 78.1825C72.7437 78.1722 72.962 78.1966 73.1632 78.2533L73.3956 78.0453L73.628 77.8373C73.2443 77.7292 72.8251 77.6854 72.3859 77.7033L72.4396 77.9429ZM73.3956 78.0453L73.737 78.2214L74.1402 78.0316L73.7988 77.8555L73.4574 77.6794L73.0543 77.8691L73.3956 78.0453ZM73.7988 77.8555L74.1402 78.0316C74.0959 78.0525 73.9877 78.0924 73.8221 78.0894C73.6565 78.0864 73.5499 78.0426 73.5064 78.0201L73.8539 77.8565L74.2015 77.6929C74.1397 77.6611 74.0148 77.6123 73.8309 77.609C73.6469 77.6056 73.5203 77.6498 73.4574 77.6794L73.7988 77.8555ZM73.8539 77.8565L73.5064 78.0201L74.1003 78.3266L74.4479 78.163L74.7954 77.9994L74.2015 77.6929L73.8539 77.8565ZM74.4479 78.163L74.1003 78.3266C74.0753 78.3136 73.9968 78.2696 73.9819 78.1972C73.9643 78.1116 74.0454 78.0493 74.1129 78.0175L74.4542 78.1937L74.7956 78.3698C74.8816 78.3293 74.9709 78.2575 74.9512 78.1617C74.9341 78.0791 74.8433 78.0241 74.7954 77.9994L74.4479 78.163ZM74.4542 78.1937L74.1129 78.0175L73.7027 78.2106L74.0441 78.3867L74.3855 78.5629L74.7956 78.3698L74.4542 78.1937ZM74.0441 78.3867L73.6106 78.4903C73.7104 78.5879 73.7441 78.6907 73.7062 78.807L74.1873 78.8515L74.6683 78.8961C74.7375 78.6835 74.6757 78.4765 74.4777 78.2831L74.0441 78.3867ZM74.1873 78.8515L73.7051 78.8106C73.6717 78.9242 73.5731 79.0194 73.3971 79.1022L73.7384 79.2784L74.0798 79.4545C74.4043 79.3018 74.6049 79.1124 74.6694 78.8925L74.1873 78.8515ZM73.7384 79.2784L73.3971 79.1022L72.9314 79.3215L73.2727 79.4976L73.6141 79.6737L74.0798 79.4545L73.7384 79.2784ZM73.2727 79.4976L72.9314 79.3215C72.978 79.2995 73.0885 79.259 73.2563 79.2621C73.4242 79.2651 73.5332 79.3096 73.5789 79.3332L73.2314 79.4968L72.8838 79.6604C72.9433 79.6911 73.0659 79.7392 73.2476 79.7425C73.4293 79.7458 73.5536 79.7022 73.6141 79.6737L73.2727 79.4976ZM73.2314 79.4968L73.5789 79.3332L72.9508 79.0091L72.6033 79.1727L72.2557 79.3363L72.8838 79.6604L73.2314 79.4968ZM72.6033 79.1727L72.9508 79.0091C72.9966 79.0328 73.0818 79.0884 73.0803 79.1712C73.0788 79.254 72.9916 79.3066 72.945 79.3285L72.6036 79.1524L72.2623 78.9762C72.2018 79.0047 72.1076 79.0639 72.106 79.1535C72.1044 79.2431 72.1963 79.3057 72.2557 79.3363L72.6033 79.1727ZM72.6036 79.1524L72.9502 79.326L73.4091 79.1033L73.0625 78.9296L72.716 78.7559L72.2571 78.9787L72.6036 79.1524ZM73.0625 78.9296L73.4039 79.1058C73.6221 79.003 73.7543 78.8675 73.7392 78.7077L73.2526 78.7122L72.7659 78.7166C72.7665 78.7223 72.7649 78.7249 72.7626 78.7275C72.7598 78.7308 72.7503 78.7398 72.7212 78.7535L73.0625 78.9296ZM73.2526 78.7122L73.7397 78.721C73.7423 78.5801 73.6442 78.4479 73.4385 78.3417L73.0909 78.5053L72.7434 78.6689C72.7562 78.6755 72.7658 78.6812 72.7654 78.7033L73.2526 78.7122ZM73.0909 78.5053L73.4385 78.3417C73.2261 78.2321 72.9532 78.1771 72.6565 78.1756L72.6653 78.416L72.6741 78.6564C72.7018 78.6565 72.7148 78.6588 72.7193 78.6598C72.7232 78.6606 72.7309 78.6625 72.7434 78.6689L73.0909 78.5053ZM72.6653 78.416L72.6426 78.1757C72.3549 78.1783 72.0992 78.2311 71.8951 78.3272L72.2364 78.5034L72.5778 78.6795C72.6146 78.6622 72.6448 78.6568 72.6879 78.6564L72.6653 78.416ZM72.2364 78.5034L71.8951 78.3272C71.7272 78.4062 71.599 78.5028 71.5401 78.6178L72.0126 78.6828L72.4851 78.7478C72.4929 78.7326 72.5139 78.7096 72.5778 78.6795L72.2364 78.5034ZM72.0126 78.6828L71.5372 78.6238C71.4844 78.7396 71.5159 78.8665 71.5769 78.987L72.0494 78.935L72.5219 78.8829C72.4764 78.7931 72.4834 78.7519 72.488 78.7418L72.0126 78.6828ZM72.0494 78.935L71.5799 78.9927L71.8269 79.4356L72.2963 79.3779L72.7658 79.3202L72.5189 78.8773L72.0494 78.935ZM72.2963 79.3779L71.8287 79.4387C71.8952 79.5522 71.9042 79.6487 71.8722 79.7323L72.351 79.7833L72.8297 79.8342C72.8942 79.6659 72.8667 79.4921 72.764 79.317L72.2963 79.3779ZM72.351 79.7833L71.8705 79.7371C71.8473 79.8052 71.7716 79.8808 71.5965 79.9633L71.9379 80.1394L72.2793 80.3155C72.5676 80.1798 72.7673 80.018 72.8315 79.8295L72.351 79.7833ZM71.9379 80.1394L71.5965 79.9633C71.3995 80.056 71.1929 80.1028 70.9698 80.1153L71.0381 80.3541L71.1063 80.593C71.5548 80.5679 71.948 80.4714 72.2793 80.3155L71.9379 80.1394ZM71.0381 80.3541L70.9754 80.115C70.7432 80.1266 70.5293 80.105 70.3201 80.0486L70.0957 80.2588L69.8713 80.469C70.2564 80.5729 70.6707 80.6149 71.1008 80.5933L71.0381 80.3541ZM70.0957 80.2588L69.7543 80.0827L69.3442 80.2757L69.6856 80.4519L70.0269 80.628L70.4371 80.4349L70.0957 80.2588ZM69.6856 80.4519L69.3442 80.2757C69.4116 80.244 69.5418 80.2069 69.7143 80.2195C69.8605 80.2302 69.9461 80.2708 69.9712 80.2837L69.6236 80.4473L69.2761 80.6109C69.3239 80.6356 69.4312 80.6829 69.598 80.695C69.7913 80.7092 69.941 80.6685 70.0269 80.628L69.6856 80.4519ZM69.6236 80.4473L69.9712 80.2837L69.3772 79.9772L69.0297 80.1408L68.6821 80.3044L69.2761 80.6109L69.6236 80.4473Z" fill="black" mask="url(#path-58-outside-1_792_4672)"/>
</g>
<g filter="url(#filter22_d_792_4672)">
<path d="M56.4325 102.015L42.4211 93.7178C41.7868 93.3422 41.7947 92.4216 42.4354 92.0569L48.317 88.7089C48.6162 88.5386 48.9836 88.5415 49.2801 88.7164L64.7977 97.8707C65.1097 98.0548 65.1132 98.505 64.8041 98.6939L59.4028 101.995C58.4928 102.551 57.3501 102.559 56.4325 102.015Z" fill="#CCFF6F"/>
<path d="M56.4325 102.015L42.4211 93.7178C41.7868 93.3422 41.7947 92.4216 42.4354 92.0569L48.317 88.7089C48.6162 88.5386 48.9836 88.5415 49.2801 88.7164L64.7977 97.8707C65.1097 98.0548 65.1132 98.505 64.8041 98.6939L59.4028 101.995C58.4928 102.551 57.3501 102.559 56.4325 102.015Z" stroke="black" stroke-width="0.593505"/>
</g>
<g filter="url(#filter23_i_792_4672)">
<ellipse cx="53.6012" cy="95.2146" rx="2.0407" ry="1.14039" fill="#7B5CF7"/>
</g>
<path d="M53.6016 94.1943C54.1482 94.1944 54.6372 94.3182 54.9854 94.5127C55.3375 94.7095 55.5215 94.963 55.5215 95.2148C55.5214 95.4666 55.3374 95.7193 54.9854 95.916C54.6372 96.1105 54.1483 96.2353 53.6016 96.2354C53.0546 96.2354 52.5651 96.1106 52.2168 95.916C51.8648 95.7193 51.6808 95.4666 51.6807 95.2148C51.6807 94.963 51.8646 94.7095 52.2168 94.5127C52.5651 94.3181 53.0547 94.1943 53.6016 94.1943Z" stroke="black" stroke-width="0.240082"/>
<g filter="url(#filter24_i_792_4672)">
<path d="M58.4735 99.3225L56.5467 98.1756C56.3367 98.0506 56.3944 97.7321 56.6349 97.6887L59.4334 97.1841C59.65 97.145 59.8166 97.3726 59.7138 97.5672L58.8422 99.2188C58.7716 99.3525 58.6034 99.3998 58.4735 99.3225Z" fill="#7B5CF7"/>
</g>
<path d="M58.4735 99.3225L56.5467 98.1756C56.3367 98.0506 56.3944 97.7321 56.6349 97.6887L59.4334 97.1841C59.65 97.145 59.8166 97.3726 59.7138 97.5672L58.8422 99.2188C58.7716 99.3525 58.6034 99.3998 58.4735 99.3225Z" stroke="black" stroke-width="0.26409"/>
<g filter="url(#filter25_i_792_4672)">
<path d="M48.1383 93.5051L46.7795 92.7467C46.4536 92.5648 46.4507 92.097 46.7743 91.9111L48.3609 90.9996C48.6681 90.8231 49.0477 90.8302 49.3482 91.018L50.5909 91.7947C50.8963 91.9856 50.8907 92.4321 50.5807 92.6153L49.0948 93.4933C48.8008 93.6671 48.4365 93.6716 48.1383 93.5051Z" fill="#7B5CF7"/>
</g>
<path d="M48.4209 91.1035C48.6897 90.9492 49.0213 90.9559 49.2842 91.1201L50.5273 91.8965C50.7563 92.0396 50.752 92.3743 50.5195 92.5117L49.0342 93.3896C48.7769 93.5417 48.4573 93.5461 48.1963 93.4004L46.8379 92.6416C46.5938 92.5052 46.5916 92.1551 46.834 92.0156L48.4209 91.1035Z" stroke="black" stroke-width="0.240082"/>
<g filter="url(#filter26_d_792_4672)">
<g filter="url(#filter27_d_792_4672)">
<path d="M99.7498 82.1014L95.967 79.9627C95.5141 79.7067 95.5181 79.0529 95.9741 78.8024L98.9757 77.1532C99.527 76.8502 100.198 76.8625 100.738 77.1854L104.043 79.1621C104.488 79.4282 104.47 80.0788 104.011 80.3201L100.598 82.1143C100.331 82.2544 100.012 82.2495 99.7498 82.1014Z" fill="#7B5CF7"/>
<path d="M99.7498 82.1014L95.967 79.9627C95.5141 79.7067 95.5181 79.0529 95.9741 78.8024L98.9757 77.1532C99.527 76.8502 100.198 76.8625 100.738 77.1854L104.043 79.1621C104.488 79.4282 104.47 80.0788 104.011 80.3201L100.598 82.1143C100.331 82.2544 100.012 82.2495 99.7498 82.1014Z" stroke="black" stroke-width="0.593505"/>
</g>
<path d="M104.394 83.5178V79.9531C104.394 79.7825 104.21 79.676 104.062 79.7615L100.759 81.6736C100.407 81.8775 99.9718 81.8718 99.6252 81.6588L95.6781 79.2335C95.6412 79.2108 95.5938 79.2373 95.5938 79.2806V83.2733C95.5938 83.5997 95.7733 83.8996 96.0609 84.0538L99.7732 86.0442C100.032 86.1832 100.344 86.1844 100.604 86.0474L103.921 84.3015C104.212 84.1483 104.394 83.8466 104.394 83.5178Z" fill="#2606AA" stroke="black" stroke-width="0.593505"/>
<path d="M104.394 83.5661V79.6633C104.394 79.6209 104.348 79.5942 104.312 79.6151L100.188 81.9484V85.9033C100.188 86.0689 100.363 86.1759 100.51 86.1003L103.913 84.3541C104.208 84.2024 104.394 83.8982 104.394 83.5661Z" fill="#4D21FF" stroke="black" stroke-width="0.593505"/>
</g>
<g filter="url(#filter28_d_792_4672)">
<path d="M74.75 102.983C76.5643 102.893 77.9031 102.96 78.8896 103.141C79.8766 103.321 80.4922 103.612 80.8818 103.951C81.6496 104.62 81.6416 105.563 81.6416 106.708C81.6416 107.663 80.9448 108.589 79.6836 109.293C78.4322 109.992 76.6831 110.433 74.7354 110.433C72.7875 110.433 71.0385 109.992 69.7871 109.293C68.5261 108.589 67.8301 107.662 67.8301 106.708C67.8301 105.574 67.8463 104.818 68.6133 104.236C69.0147 103.932 69.6423 103.661 70.6348 103.445C71.6251 103.23 72.9574 103.073 74.75 102.983Z" fill="#4D21FF" stroke="black" stroke-width="0.593505"/>
<g filter="url(#filter29_i_792_4672)">
<ellipse cx="74.7357" cy="105.387" rx="7.20245" ry="4.02137" fill="#7B5CF7"/>
</g>
<path d="M74.7354 101.662C76.6831 101.662 78.4322 102.103 79.6836 102.802C80.9448 103.506 81.6416 104.432 81.6416 105.387C81.6415 106.341 80.9447 107.267 79.6836 107.971C78.4322 108.669 76.6833 109.111 74.7354 109.111C72.7875 109.111 71.0385 108.669 69.7871 107.971C68.5262 107.267 67.8301 106.341 67.8301 105.387C67.8301 104.432 68.526 103.506 69.7871 102.802C71.0385 102.103 72.7875 101.662 74.7354 101.662Z" stroke="black" stroke-width="0.593505"/>
<g filter="url(#filter30_i_792_4672)">
<ellipse cx="74.7351" cy="105.387" rx="5.04172" ry="2.82096" fill="#7B5CF7"/>
</g>
<path d="M74.7354 102.807C76.0942 102.807 77.3124 103.116 78.1826 103.603C79.0607 104.094 79.5371 104.735 79.5371 105.388C79.537 106.041 79.0605 106.682 78.1826 107.173C77.3124 107.66 76.0941 107.968 74.7354 107.968C73.3763 107.968 72.1574 107.66 71.2871 107.173C70.4092 106.682 69.9338 106.041 69.9336 105.388C69.9336 104.735 70.4092 104.094 71.2871 103.603C72.1574 103.116 73.3763 102.807 74.7354 102.807Z" stroke="black" stroke-width="0.480164"/>
</g>
<g filter="url(#filter31_d_792_4672)">
<path d="M73.668 100.19C75.4823 100.1 76.821 100.167 77.8076 100.348C78.7945 100.528 79.4102 100.819 79.7998 101.158C80.5675 101.827 80.5596 102.77 80.5596 103.915C80.5596 104.87 79.8627 105.796 78.6016 106.5C77.3502 107.199 75.6011 107.64 73.6533 107.64C71.7055 107.64 69.9564 107.199 68.7051 106.5C67.444 105.796 66.748 104.87 66.748 103.915C66.7481 102.781 66.7643 102.025 67.5312 101.443C67.9327 101.139 68.5603 100.868 69.5527 100.652C70.543 100.437 71.8754 100.28 73.668 100.19Z" fill="#4D21FF" stroke="black" stroke-width="0.593505"/>
<g filter="url(#filter32_i_792_4672)">
<ellipse cx="73.6536" cy="102.596" rx="7.20245" ry="4.02137" fill="#7B5CF7"/>
</g>
<path d="M73.6533 98.8145C75.6091 98.8145 77.3685 99.2577 78.6299 99.9619C79.8989 100.671 80.6162 101.612 80.6162 102.596C80.6162 103.58 79.8989 104.521 78.6299 105.229C77.3685 105.934 75.6091 106.377 73.6533 106.377C71.6977 106.377 69.939 105.934 68.6777 105.229C67.4086 104.521 66.6915 103.58 66.6914 102.596C66.6914 101.611 67.4086 100.671 68.6777 99.9619C69.939 99.2577 71.6977 98.8145 73.6533 98.8145Z" stroke="black" stroke-width="0.480164"/>
<g filter="url(#filter33_i_792_4672)">
<ellipse cx="73.655" cy="102.594" rx="5.04172" ry="2.82096" fill="#7B5CF7"/>
</g>
<path d="M73.6553 100.014C75.0142 100.014 76.2323 100.323 77.1025 100.81C77.9806 101.301 78.457 101.942 78.457 102.595C78.4569 103.248 77.9805 103.889 77.1025 104.38C76.2323 104.867 75.014 105.175 73.6553 105.175C72.2963 105.175 71.0773 104.867 70.207 104.38C69.3291 103.889 68.8537 103.248 68.8535 102.595C68.8535 101.942 69.3291 101.301 70.207 100.81C71.0773 100.323 72.2963 100.014 73.6553 100.014Z" stroke="black" stroke-width="0.480164"/>
</g>
<g filter="url(#filter34_d_792_4672)">
<path d="M74.75 97.79C76.5643 97.6993 77.9031 97.7666 78.8896 97.9473C79.8766 98.128 80.4922 98.4183 80.8818 98.7578C81.6496 99.4269 81.6416 100.369 81.6416 101.515C81.6416 102.469 80.9448 103.395 79.6836 104.1C78.4322 104.798 76.6831 105.239 74.7354 105.239C72.7875 105.239 71.0385 104.798 69.7871 104.1C68.5261 103.395 67.8301 102.469 67.8301 101.515C67.8301 100.381 67.8463 99.6246 68.6133 99.043C69.0147 98.7387 69.6423 98.4679 70.6348 98.252C71.6251 98.0365 72.9574 97.8797 74.75 97.79Z" fill="#4D21FF" stroke="black" stroke-width="0.593505"/>
<g filter="url(#filter35_i_792_4672)">
<ellipse cx="74.7357" cy="100.193" rx="7.20245" ry="4.02137" fill="#7B5CF7"/>
</g>
<path d="M74.7354 96.4688C76.6831 96.4688 78.4322 96.9098 79.6836 97.6084C80.9448 98.3125 81.6416 99.2388 81.6416 100.193C81.6415 101.148 80.9447 102.073 79.6836 102.777C78.4322 103.476 76.6833 103.918 74.7354 103.918C72.7875 103.918 71.0385 103.476 69.7871 102.777C68.5262 102.073 67.8301 101.148 67.8301 100.193C67.8301 99.2389 68.526 98.3125 69.7871 97.6084C71.0385 96.9097 72.7875 96.4688 74.7354 96.4688Z" stroke="black" stroke-width="0.593505"/>
<path d="M80.1953 102.654V103.675" stroke="black" stroke-width="0.120041"/>
<path d="M79.1758 103.135V104.155" stroke="black" stroke-width="0.120041"/>
<path d="M77.8555 103.734V104.755" stroke="black" stroke-width="0.120041"/>
<path d="M76.416 103.975V104.995" stroke="black" stroke-width="0.120041"/>
<path d="M75.0957 104.094V105.114" stroke="black" stroke-width="0.120041"/>
<path d="M73.6562 104.094V105.114" stroke="black" stroke-width="0.120041"/>
<path d="M71.9746 103.854V104.874" stroke="black" stroke-width="0.120041"/>
<path d="M70.5352 103.375V104.395" stroke="black" stroke-width="0.120041"/>
<path d="M69.2148 102.654V103.675" stroke="black" stroke-width="0.120041"/>
<g filter="url(#filter36_i_792_4672)">
<ellipse cx="74.7351" cy="100.194" rx="5.04172" ry="2.82096" fill="#4D21FF"/>
</g>
<path d="M74.7354 97.6699C76.0864 97.67 77.295 97.9767 78.1553 98.458C79.0252 98.9448 79.4805 99.571 79.4805 100.194C79.4803 100.818 79.025 101.443 78.1553 101.93C77.295 102.411 76.0864 102.718 74.7354 102.718C73.3844 102.718 72.1758 102.411 71.3154 101.93C70.4456 101.443 69.9904 100.818 69.9902 100.194C69.9902 99.571 70.4455 98.9448 71.3154 98.458C72.1758 97.9768 73.3844 97.6699 74.7354 97.6699Z" stroke="black" stroke-width="0.593505"/>
<ellipse cx="72.4542" cy="100.192" rx="1.44049" ry="0.780266" fill="#FFFBEE"/>
</g>
<path d="M22.3651 93.0591C21.1196 93.9768 20.9885 63.3633 67.1383 63.3633C113.288 63.3633 116.238 89.9125 114.075 92.9935" stroke="black" stroke-width="0.524429" stroke-linecap="round"/>
<g filter="url(#filter37_i_792_4672)">
<path d="M114.06 67.8876V93.3224C114.06 93.3224 105.397 114.914 68.566 114.037C30.0205 113.12 22.2852 93.3224 22.2852 93.3224V67.8876C22.2852 42.5446 42.8297 22 68.1727 22C93.5157 22 114.06 42.5446 114.06 67.8876Z" fill="white" fill-opacity="0.1"/>
</g>
<path d="M114.06 67.8876V93.3224C114.06 93.3224 105.397 114.914 68.566 114.037C30.0205 113.12 22.2852 93.3224 22.2852 93.3224V67.8876C22.2852 42.5446 42.8297 22 68.1727 22C93.5157 22 114.06 42.5446 114.06 67.8876Z" stroke="black" stroke-width="0.79134"/>
<mask id="mask0_792_4672" style="mask-type:alpha" maskUnits="userSpaceOnUse" x="22" y="22" width="93" height="93">
<path d="M114.06 67.8876V93.3224C114.06 93.3224 105.397 114.914 68.566 114.037C30.0205 113.12 22.2852 93.3224 22.2852 93.3224V67.8876C22.2852 42.5446 42.8297 22 68.1727 22C93.5157 22 114.06 42.5446 114.06 67.8876Z" fill="white" fill-opacity="0.6"/>
</mask>
<g mask="url(#mask0_792_4672)">
<path d="M181.882 88.6717L87.5008 -26.666H79.6016L172.944 119L181.882 88.6717Z" fill="white" fill-opacity="0.3"/>
<path d="M160.122 101.628L82.1236 -21.9199H74.2617L151.226 131.996L160.122 101.628Z" fill="white" fill-opacity="0.3"/>
</g>
<circle cx="85.0827" cy="46.5182" r="13.7663" fill="#FFFBEE" fill-opacity="0.3"/>
<defs>
<filter id="filter0_di_792_4672" x="22" y="63.2617" width="92.4316" height="53.6589" filterUnits="userSpaceOnUse" color-interpolation-filters="sRGB">
<feFlood flood-opacity="0" result="BackgroundImageFix"/>
<feColorMatrix in="SourceAlpha" type="matrix" values="0 0 0 0 0 0 0 0 0 0 0 0 0 0 0 0 0 0 127 0" result="hardAlpha"/>
<feOffset dy="1.92066"/>
<feComposite in2="hardAlpha" operator="out"/>
<feColorMatrix type="matrix" values="0 0 0 0 0 0 0 0 0 0 0 0 0 0 0 0 0 0 0.25 0"/>
<feBlend mode="normal" in2="BackgroundImageFix" result="effect1_dropShadow_792_4672"/>
<feBlend mode="normal" in="SourceGraphic" in2="effect1_dropShadow_792_4672" result="shape"/>
<feColorMatrix in="SourceAlpha" type="matrix" values="0 0 0 0 0 0 0 0 0 0 0 0 0 0 0 0 0 0 127 0" result="hardAlpha"/>
<feOffset dy="1.92066"/>
<feComposite in2="hardAlpha" operator="arithmetic" k2="-1" k3="1"/>
<feColorMatrix type="matrix" values="0 0 0 0 0.0625 0 0 0 0 0.0625 0 0 0 0 0.0625 0 0 0 1 0"/>
<feBlend mode="normal" in2="shape" result="effect2_innerShadow_792_4672"/>
</filter>
<filter id="filter1_di_792_4672" x="22" y="63.2617" width="92.4316" height="52.6986" filterUnits="userSpaceOnUse" color-interpolation-filters="sRGB">
<feFlood flood-opacity="0" result="BackgroundImageFix"/>
<feColorMatrix in="SourceAlpha" type="matrix" values="0 0 0 0 0 0 0 0 0 0 0 0 0 0 0 0 0 0 127 0" result="hardAlpha"/>
<feOffset dy="0.960328"/>
<feComposite in2="hardAlpha" operator="out"/>
<feColorMatrix type="matrix" values="0 0 0 0 0 0 0 0 0 0 0 0 0 0 0 0 0 0 1 0"/>
<feBlend mode="normal" in2="BackgroundImageFix" result="effect1_dropShadow_792_4672"/>
<feBlend mode="normal" in="SourceGraphic" in2="effect1_dropShadow_792_4672" result="shape"/>
<feColorMatrix in="SourceAlpha" type="matrix" values="0 0 0 0 0 0 0 0 0 0 0 0 0 0 0 0 0 0 127 0" result="hardAlpha"/>
<feOffset dx="-0.960328" dy="1.92066"/>
<feComposite in2="hardAlpha" operator="arithmetic" k2="-1" k3="1"/>
<feColorMatrix type="matrix" values="0 0 0 0 1 0 0 0 0 0.984314 0 0 0 0 0.933333 0 0 0 1 0"/>
<feBlend mode="normal" in2="shape" result="effect2_innerShadow_792_4672"/>
</filter>
<filter id="filter2_di_792_4672" x="22" y="63.2617" width="92.4316" height="56.8357" filterUnits="userSpaceOnUse" color-interpolation-filters="sRGB">
<feFlood flood-opacity="0" result="BackgroundImageFix"/>
<feColorMatrix in="SourceAlpha" type="matrix" values="0 0 0 0 0 0 0 0 0 0 0 0 0 0 0 0 0 0 127 0" result="hardAlpha"/>
<feOffset dy="5.09746"/>
<feComposite in2="hardAlpha" operator="out"/>
<feColorMatrix type="matrix" values="0 0 0 0 0 0 0 0 0 0 0 0 0 0 0 0 0 0 1 0"/>
<feBlend mode="normal" in2="BackgroundImageFix" result="effect1_dropShadow_792_4672"/>
<feBlend mode="normal" in="SourceGraphic" in2="effect1_dropShadow_792_4672" result="shape"/>
<feColorMatrix in="SourceAlpha" type="matrix" values="0 0 0 0 0 0 0 0 0 0 0 0 0 0 0 0 0 0 127 0" result="hardAlpha"/>
<feOffset dx="-0.960328" dy="1.92066"/>
<feComposite in2="hardAlpha" operator="arithmetic" k2="-1" k3="1"/>
<feColorMatrix type="matrix" values="0 0 0 0 1 0 0 0 0 0.984314 0 0 0 0 0.933333 0 0 0 1 0"/>
<feBlend mode="normal" in2="shape" result="effect2_innerShadow_792_4672"/>
</filter>
<filter id="filter3_d_792_4672" x="53.4004" y="68.9336" width="12.1309" height="8.28911" filterUnits="userSpaceOnUse" color-interpolation-filters="sRGB">
<feFlood flood-opacity="0" result="BackgroundImageFix"/>
<feColorMatrix in="SourceAlpha" type="matrix" values="0 0 0 0 0 0 0 0 0 0 0 0 0 0 0 0 0 0 127 0" result="hardAlpha"/>
<feOffset dy="0.404349"/>
<feComposite in2="hardAlpha" operator="out"/>
<feColorMatrix type="matrix" values="0 0 0 0 0 0 0 0 0 0 0 0 0 0 0 0 0 0 1 0"/>
<feBlend mode="normal" in2="BackgroundImageFix" result="effect1_dropShadow_792_4672"/>
<feBlend mode="normal" in="SourceGraphic" in2="effect1_dropShadow_792_4672" result="shape"/>
</filter>
<filter id="filter4_i_792_4672" x="53.4004" y="68.9336" width="12.1309" height="6.77344" filterUnits="userSpaceOnUse" color-interpolation-filters="sRGB">
<feFlood flood-opacity="0" result="BackgroundImageFix"/>
<feBlend mode="normal" in="SourceGraphic" in2="BackgroundImageFix" result="shape"/>
<feColorMatrix in="SourceAlpha" type="matrix" values="0 0 0 0 0 0 0 0 0 0 0 0 0 0 0 0 0 0 127 0" result="hardAlpha"/>
<feOffset dx="-0.808698" dy="0.808698"/>
<feComposite in2="hardAlpha" operator="arithmetic" k2="-1" k3="1"/>
<feColorMatrix type="matrix" values="0 0 0 0 1 0 0 0 0 0.984314 0 0 0 0 0.933333 0 0 0 1 0"/>
<feBlend mode="normal" in2="shape" result="effect1_innerShadow_792_4672"/>
</filter>
<filter id="filter5_i_792_4672" x="55.2188" y="69.9453" width="8.49219" height="4.75195" filterUnits="userSpaceOnUse" color-interpolation-filters="sRGB">
<feFlood flood-opacity="0" result="BackgroundImageFix"/>
<feBlend mode="normal" in="SourceGraphic" in2="BackgroundImageFix" result="shape"/>
<feColorMatrix in="SourceAlpha" type="matrix" values="0 0 0 0 0 0 0 0 0 0 0 0 0 0 0 0 0 0 127 0" result="hardAlpha"/>
<feOffset dx="-0.808698" dy="0.808698"/>
<feComposite in2="hardAlpha" operator="arithmetic" k2="-1" k3="1"/>
<feColorMatrix type="matrix" values="0 0 0 0 0.0625 0 0 0 0 0.0625 0 0 0 0 0.0625 0 0 0 1 0"/>
<feBlend mode="normal" in2="shape" result="effect1_innerShadow_792_4672"/>
</filter>
<filter id="filter6_d_792_4672" x="54.8164" y="66.0352" width="12.1309" height="8.4092" filterUnits="userSpaceOnUse" color-interpolation-filters="sRGB">
<feFlood flood-opacity="0" result="BackgroundImageFix"/>
<feColorMatrix in="SourceAlpha" type="matrix" values="0 0 0 0 0 0 0 0 0 0 0 0 0 0 0 0 0 0 127 0" result="hardAlpha"/>
<feOffset dy="0.524429"/>
<feComposite in2="hardAlpha" operator="out"/>
<feColorMatrix type="matrix" values="0 0 0 0 0 0 0 0 0 0 0 0 0 0 0 0 0 0 1 0"/>
<feBlend mode="normal" in2="BackgroundImageFix" result="effect1_dropShadow_792_4672"/>
<feBlend mode="normal" in="SourceGraphic" in2="effect1_dropShadow_792_4672" result="shape"/>
</filter>
<filter id="filter7_i_792_4672" x="54.8164" y="66.0352" width="12.1309" height="6.77344" filterUnits="userSpaceOnUse" color-interpolation-filters="sRGB">
<feFlood flood-opacity="0" result="BackgroundImageFix"/>
<feBlend mode="normal" in="SourceGraphic" in2="BackgroundImageFix" result="shape"/>
<feColorMatrix in="SourceAlpha" type="matrix" values="0 0 0 0 0 0 0 0 0 0 0 0 0 0 0 0 0 0 127 0" result="hardAlpha"/>
<feOffset dx="-0.808698" dy="0.808698"/>
<feComposite in2="hardAlpha" operator="arithmetic" k2="-1" k3="1"/>
<feColorMatrix type="matrix" values="0 0 0 0 1 0 0 0 0 0.984314 0 0 0 0 0.933333 0 0 0 1 0"/>
<feBlend mode="normal" in2="shape" result="effect1_innerShadow_792_4672"/>
</filter>
<filter id="filter8_i_792_4672" x="56.6367" y="67.0469" width="8.49219" height="4.75195" filterUnits="userSpaceOnUse" color-interpolation-filters="sRGB">
<feFlood flood-opacity="0" result="BackgroundImageFix"/>
<feBlend mode="normal" in="SourceGraphic" in2="BackgroundImageFix" result="shape"/>
<feColorMatrix in="SourceAlpha" type="matrix" values="0 0 0 0 0 0 0 0 0 0 0 0 0 0 0 0 0 0 127 0" result="hardAlpha"/>
<feOffset dx="-0.960328" dy="0.960328"/>
<feComposite in2="hardAlpha" operator="arithmetic" k2="-1" k3="1"/>
<feColorMatrix type="matrix" values="0 0 0 0 0.0625 0 0 0 0 0.0625 0 0 0 0 0.0625 0 0 0 1 0"/>
<feBlend mode="normal" in2="shape" result="effect1_innerShadow_792_4672"/>
</filter>
<filter id="filter9_d_792_4672" x="26.4375" y="73.3613" width="21.9922" height="18.0874" filterUnits="userSpaceOnUse" color-interpolation-filters="sRGB">
<feFlood flood-opacity="0" result="BackgroundImageFix"/>
<feColorMatrix in="SourceAlpha" type="matrix" values="0 0 0 0 0 0 0 0 0 0 0 0 0 0 0 0 0 0 127 0" result="hardAlpha"/>
<feOffset dy="0.786644"/>
<feComposite in2="hardAlpha" operator="out"/>
<feColorMatrix type="matrix" values="0 0 0 0 0 0 0 0 0 0 0 0 0 0 0 0 0 0 1 0"/>
<feBlend mode="normal" in2="BackgroundImageFix" result="effect1_dropShadow_792_4672"/>
<feBlend mode="normal" in="SourceGraphic" in2="effect1_dropShadow_792_4672" result="shape"/>
</filter>
<filter id="filter10_d_792_4672" x="27.0605" y="75.3066" width="26.4824" height="16.7715" filterUnits="userSpaceOnUse" color-interpolation-filters="sRGB">
<feFlood flood-opacity="0" result="BackgroundImageFix"/>
<feColorMatrix in="SourceAlpha" type="matrix" values="0 0 0 0 0 0 0 0 0 0 0 0 0 0 0 0 0 0 127 0" result="hardAlpha"/>
<feOffset dy="1.04886"/>
<feComposite in2="hardAlpha" operator="out"/>
<feColorMatrix type="matrix" values="0 0 0 0 0 0 0 0 0 0 0 0 0 0 0 0 0 0 1 0"/>
<feBlend mode="normal" in2="BackgroundImageFix" result="effect1_dropShadow_792_4672"/>
<feBlend mode="normal" in="SourceGraphic" in2="effect1_dropShadow_792_4672" result="shape"/>
</filter>
<filter id="filter11_i_792_4672" x="31.7227" y="83.2051" width="4.08203" height="2.28125" filterUnits="userSpaceOnUse" color-interpolation-filters="sRGB">
<feFlood flood-opacity="0" result="BackgroundImageFix"/>
<feBlend mode="normal" in="SourceGraphic" in2="BackgroundImageFix" result="shape"/>
<feColorMatrix in="SourceAlpha" type="matrix" values="0 0 0 0 0 0 0 0 0 0 0 0 0 0 0 0 0 0 127 0" result="hardAlpha"/>
<feOffset dx="-0.480164" dy="0.480164"/>
<feComposite in2="hardAlpha" operator="arithmetic" k2="-1" k3="1"/>
<feColorMatrix type="matrix" values="0 0 0 0 0 0 0 0 0 0 0 0 0 0 0 0 0 0 1 0"/>
<feBlend mode="normal" in2="shape" result="effect1_innerShadow_792_4672"/>
</filter>
<filter id="filter12_i_792_4672" x="33.043" y="82.3652" width="4.08203" height="2.28125" filterUnits="userSpaceOnUse" color-interpolation-filters="sRGB">
<feFlood flood-opacity="0" result="BackgroundImageFix"/>
<feBlend mode="normal" in="SourceGraphic" in2="BackgroundImageFix" result="shape"/>
<feColorMatrix in="SourceAlpha" type="matrix" values="0 0 0 0 0 0 0 0 0 0 0 0 0 0 0 0 0 0 127 0" result="hardAlpha"/>
<feOffset dx="-0.480164" dy="0.480164"/>
<feComposite in2="hardAlpha" operator="arithmetic" k2="-1" k3="1"/>
<feColorMatrix type="matrix" values="0 0 0 0 0 0 0 0 0 0 0 0 0 0 0 0 0 0 1 0"/>
<feBlend mode="normal" in2="shape" result="effect1_innerShadow_792_4672"/>
</filter>
<filter id="filter13_d_792_4672" x="91.75" y="80.2012" width="16.0508" height="17.2575" filterUnits="userSpaceOnUse" color-interpolation-filters="sRGB">
<feFlood flood-opacity="0" result="BackgroundImageFix"/>
<feColorMatrix in="SourceAlpha" type="matrix" values="0 0 0 0 0 0 0 0 0 0 0 0 0 0 0 0 0 0 127 0" result="hardAlpha"/>
<feOffset dy="0.480164"/>
<feComposite in2="hardAlpha" operator="out"/>
<feColorMatrix type="matrix" values="0 0 0 0 0 0 0 0 0 0 0 0 0 0 0 0 0 0 1 0"/>
<feBlend mode="normal" in2="BackgroundImageFix" result="effect1_dropShadow_792_4672"/>
<feBlend mode="normal" in="SourceGraphic" in2="effect1_dropShadow_792_4672" result="shape"/>
</filter>
<filter id="filter14_d_792_4672" x="91.8145" y="80.2012" width="15.9355" height="10.258" filterUnits="userSpaceOnUse" color-interpolation-filters="sRGB">
<feFlood flood-opacity="0" result="BackgroundImageFix"/>
<feColorMatrix in="SourceAlpha" type="matrix" values="0 0 0 0 0 0 0 0 0 0 0 0 0 0 0 0 0 0 127 0" result="hardAlpha"/>
<feOffset dy="0.388836"/>
<feComposite in2="hardAlpha" operator="out"/>
<feColorMatrix type="matrix" values="0 0 0 0 0 0 0 0 0 0 0 0 0 0 0 0 0 0 1 0"/>
<feBlend mode="normal" in2="BackgroundImageFix" result="effect1_dropShadow_792_4672"/>
<feBlend mode="normal" in="SourceGraphic" in2="effect1_dropShadow_792_4672" result="shape"/>
</filter>
<filter id="filter15_d_792_4672" x="91.1191" y="90.2969" width="11.5938" height="12.6377" filterUnits="userSpaceOnUse" color-interpolation-filters="sRGB">
<feFlood flood-opacity="0" result="BackgroundImageFix"/>
<feColorMatrix in="SourceAlpha" type="matrix" values="0 0 0 0 0 0 0 0 0 0 0 0 0 0 0 0 0 0 127 0" result="hardAlpha"/>
<feOffset dy="0.524429"/>
<feComposite in2="hardAlpha" operator="out"/>
<feColorMatrix type="matrix" values="0 0 0 0 0 0 0 0 0 0 0 0 0 0 0 0 0 0 1 0"/>
<feBlend mode="normal" in2="BackgroundImageFix" result="effect1_dropShadow_792_4672"/>
<feBlend mode="normal" in="SourceGraphic" in2="effect1_dropShadow_792_4672" result="shape"/>
</filter>
<filter id="filter16_d_792_4672" x="91.1641" y="90.2969" width="11.5137" height="7.47206" filterUnits="userSpaceOnUse" color-interpolation-filters="sRGB">
<feFlood flood-opacity="0" result="BackgroundImageFix"/>
<feColorMatrix in="SourceAlpha" type="matrix" values="0 0 0 0 0 0 0 0 0 0 0 0 0 0 0 0 0 0 127 0" result="hardAlpha"/>
<feOffset dy="0.276752"/>
<feComposite in2="hardAlpha" operator="out"/>
<feColorMatrix type="matrix" values="0 0 0 0 0 0 0 0 0 0 0 0 0 0 0 0 0 0 1 0"/>
<feBlend mode="normal" in2="BackgroundImageFix" result="effect1_dropShadow_792_4672"/>
<feBlend mode="normal" in="SourceGraphic" in2="effect1_dropShadow_792_4672" result="shape"/>
</filter>
<filter id="filter17_d_792_4672" x="39.084" y="83.9805" width="52.4199" height="23.2592" filterUnits="userSpaceOnUse" color-interpolation-filters="sRGB">
<feFlood flood-opacity="0" result="BackgroundImageFix"/>
<feColorMatrix in="SourceAlpha" type="matrix" values="0 0 0 0 0 0 0 0 0 0 0 0 0 0 0 0 0 0 127 0" result="hardAlpha"/>
<feOffset dy="0.960328"/>
<feComposite in2="hardAlpha" operator="out"/>
<feColorMatrix type="matrix" values="0 0 0 0 0 0 0 0 0 0 0 0 0 0 0 0 0 0 1 0"/>
<feBlend mode="normal" in2="BackgroundImageFix" result="effect1_dropShadow_792_4672"/>
<feBlend mode="normal" in="SourceGraphic" in2="effect1_dropShadow_792_4672" result="shape"/>
</filter>
<filter id="filter18_i_792_4672" x="42.6191" y="74.5977" width="46.0254" height="28.0723" filterUnits="userSpaceOnUse" color-interpolation-filters="sRGB">
<feFlood flood-opacity="0" result="BackgroundImageFix"/>
<feBlend mode="normal" in="SourceGraphic" in2="BackgroundImageFix" result="shape"/>
<feColorMatrix in="SourceAlpha" type="matrix" values="0 0 0 0 0 0 0 0 0 0 0 0 0 0 0 0 0 0 127 0" result="hardAlpha"/>
<feOffset dx="0.240082" dy="0.960328"/>
<feComposite in2="hardAlpha" operator="arithmetic" k2="-1" k3="1"/>
<feColorMatrix type="matrix" values="0 0 0 0 0 0 0 0 0 0 0 0 0 0 0 0 0 0 1 0"/>
<feBlend mode="normal" in2="shape" result="effect1_innerShadow_792_4672"/>
</filter>
<filter id="filter19_d_792_4672" x="63.0098" y="80.9297" width="15.498" height="9.87485" filterUnits="userSpaceOnUse" color-interpolation-filters="sRGB">
<feFlood flood-opacity="0" result="BackgroundImageFix"/>
<feColorMatrix in="SourceAlpha" type="matrix" values="0 0 0 0 0 0 0 0 0 0 0 0 0 0 0 0 0 0 127 0" result="hardAlpha"/>
<feOffset dy="0.240082"/>
<feComposite in2="hardAlpha" operator="out"/>
<feColorMatrix type="matrix" values="0 0 0 0 0 0 0 0 0 0 0 0 0 0 0 0 0 0 1 0"/>
<feBlend mode="normal" in2="BackgroundImageFix" result="effect1_dropShadow_792_4672"/>
<feBlend mode="normal" in="SourceGraphic" in2="effect1_dropShadow_792_4672" result="shape"/>
</filter>
<filter id="filter20_d_792_4672" x="58.9277" y="83.8086" width="10.3281" height="6.75766" filterUnits="userSpaceOnUse" color-interpolation-filters="sRGB">
<feFlood flood-opacity="0" result="BackgroundImageFix"/>
<feColorMatrix in="SourceAlpha" type="matrix" values="0 0 0 0 0 0 0 0 0 0 0 0 0 0 0 0 0 0 127 0" result="hardAlpha"/>
<feOffset dy="0.240082"/>
<feComposite in2="hardAlpha" operator="out"/>
<feColorMatrix type="matrix" values="0 0 0 0 0 0 0 0 0 0 0 0 0 0 0 0 0 0 1 0"/>
<feBlend mode="normal" in2="BackgroundImageFix" result="effect1_dropShadow_792_4672"/>
<feBlend mode="normal" in="SourceGraphic" in2="effect1_dropShadow_792_4672" result="shape"/>
</filter>
<filter id="filter21_d_792_4672" x="68.5293" y="77.6094" width="6.42383" height="3.32797" filterUnits="userSpaceOnUse" color-interpolation-filters="sRGB">
<feFlood flood-opacity="0" result="BackgroundImageFix"/>
<feColorMatrix in="SourceAlpha" type="matrix" values="0 0 0 0 0 0 0 0 0 0 0 0 0 0 0 0 0 0 127 0" result="hardAlpha"/>
<feOffset dy="0.240082"/>
<feComposite in2="hardAlpha" operator="out"/>
<feColorMatrix type="matrix" values="0 0 0 0 0 0 0 0 0 0 0 0 0 0 0 0 0 0 1 0"/>
<feBlend mode="normal" in2="BackgroundImageFix" result="effect1_dropShadow_792_4672"/>
<feBlend mode="normal" in="SourceGraphic" in2="effect1_dropShadow_792_4672" result="shape"/>
</filter>
<filter id="filter22_d_792_4672" x="41.1741" y="88.2871" width="24.1559" height="14.9079" filterUnits="userSpaceOnUse" color-interpolation-filters="sRGB">
<feFlood flood-opacity="0" result="BackgroundImageFix"/>
<feColorMatrix in="SourceAlpha" type="matrix" values="0 0 0 0 0 0 0 0 0 0 0 0 0 0 0 0 0 0 127 0" result="hardAlpha"/>
<feOffset dx="-0.480164" dy="0.480164"/>
<feComposite in2="hardAlpha" operator="out"/>
<feColorMatrix type="matrix" values="0 0 0 0 0 0 0 0 0 0 0 0 0 0 0 0 0 0 1 0"/>
<feBlend mode="normal" in2="BackgroundImageFix" result="effect1_dropShadow_792_4672"/>
<feBlend mode="normal" in="SourceGraphic" in2="effect1_dropShadow_792_4672" result="shape"/>
</filter>
<filter id="filter23_i_792_4672" x="51.5605" y="94.0742" width="4.08203" height="2.28125" filterUnits="userSpaceOnUse" color-interpolation-filters="sRGB">
<feFlood flood-opacity="0" result="BackgroundImageFix"/>
<feBlend mode="normal" in="SourceGraphic" in2="BackgroundImageFix" result="shape"/>
<feColorMatrix in="SourceAlpha" type="matrix" values="0 0 0 0 0 0 0 0 0 0 0 0 0 0 0 0 0 0 127 0" result="hardAlpha"/>
<feOffset dx="-0.960328" dy="0.960328"/>
<feComposite in2="hardAlpha" operator="arithmetic" k2="-1" k3="1"/>
<feColorMatrix type="matrix" values="0 0 0 0 0 0 0 0 0 0 0 0 0 0 0 0 0 0 1 0"/>
<feBlend mode="normal" in2="shape" result="effect1_innerShadow_792_4672"/>
</filter>
<filter id="filter24_i_792_4672" x="56.2852" y="97.0469" width="3.5918" height="2.44531" filterUnits="userSpaceOnUse" color-interpolation-filters="sRGB">
<feFlood flood-opacity="0" result="BackgroundImageFix"/>
<feBlend mode="normal" in="SourceGraphic" in2="BackgroundImageFix" result="shape"/>
<feColorMatrix in="SourceAlpha" type="matrix" values="0 0 0 0 0 0 0 0 0 0 0 0 0 0 0 0 0 0 127 0" result="hardAlpha"/>
<feOffset dx="-1.05636" dy="1.05636"/>
<feComposite in2="hardAlpha" operator="arithmetic" k2="-1" k3="1"/>
<feColorMatrix type="matrix" values="0 0 0 0 0 0 0 0 0 0 0 0 0 0 0 0 0 0 1 0"/>
<feBlend mode="normal" in2="shape" result="effect1_innerShadow_792_4672"/>
</filter>
<filter id="filter25_i_792_4672" x="46.5332" y="90.8711" width="4.2832" height="2.75586" filterUnits="userSpaceOnUse" color-interpolation-filters="sRGB">
<feFlood flood-opacity="0" result="BackgroundImageFix"/>
<feBlend mode="normal" in="SourceGraphic" in2="BackgroundImageFix" result="shape"/>
<feColorMatrix in="SourceAlpha" type="matrix" values="0 0 0 0 0 0 0 0 0 0 0 0 0 0 0 0 0 0 127 0" result="hardAlpha"/>
<feOffset dx="-0.960328" dy="0.960328"/>
<feComposite in2="hardAlpha" operator="arithmetic" k2="-1" k3="1"/>
<feColorMatrix type="matrix" values="0 0 0 0 0 0 0 0 0 0 0 0 0 0 0 0 0 0 1 0"/>
<feBlend mode="normal" in2="shape" result="effect1_innerShadow_792_4672"/>
</filter>
<filter id="filter26_d_792_4672" x="95.2969" y="76.6367" width="9.39453" height="10.082" filterUnits="userSpaceOnUse" color-interpolation-filters="sRGB">
<feFlood flood-opacity="0" result="BackgroundImageFix"/>
<feColorMatrix in="SourceAlpha" type="matrix" values="0 0 0 0 0 0 0 0 0 0 0 0 0 0 0 0 0 0 127 0" result="hardAlpha"/>
<feOffset dy="0.273403"/>
<feComposite in2="hardAlpha" operator="out"/>
<feColorMatrix type="matrix" values="0 0 0 0 0 0 0 0 0 0 0 0 0 0 0 0 0 0 1 0"/>
<feBlend mode="normal" in2="BackgroundImageFix" result="effect1_dropShadow_792_4672"/>
<feBlend mode="normal" in="SourceGraphic" in2="effect1_dropShadow_792_4672" result="shape"/>
</filter>
<filter id="filter27_d_792_4672" x="95.332" y="76.6367" width="9.33203" height="6.09835" filterUnits="userSpaceOnUse" color-interpolation-filters="sRGB">
<feFlood flood-opacity="0" result="BackgroundImageFix"/>
<feColorMatrix in="SourceAlpha" type="matrix" values="0 0 0 0 0 0 0 0 0 0 0 0 0 0 0 0 0 0 127 0" result="hardAlpha"/>
<feOffset dy="0.221401"/>
<feComposite in2="hardAlpha" operator="out"/>
<feColorMatrix type="matrix" values="0 0 0 0 0 0 0 0 0 0 0 0 0 0 0 0 0 0 1 0"/>
<feBlend mode="normal" in2="BackgroundImageFix" result="effect1_dropShadow_792_4672"/>
<feBlend mode="normal" in="SourceGraphic" in2="effect1_dropShadow_792_4672" result="shape"/>
</filter>
<filter id="filter28_d_792_4672" x="67.5332" y="101.365" width="14.4043" height="9.8454" filterUnits="userSpaceOnUse" color-interpolation-filters="sRGB">
<feFlood flood-opacity="0" result="BackgroundImageFix"/>
<feColorMatrix in="SourceAlpha" type="matrix" values="0 0 0 0 0 0 0 0 0 0 0 0 0 0 0 0 0 0 127 0" result="hardAlpha"/>
<feOffset dy="0.480164"/>
<feComposite in2="hardAlpha" operator="out"/>
<feColorMatrix type="matrix" values="0 0 0 0 0 0 0 0 0 0 0 0 0 0 0 0 0 0 1 0"/>
<feBlend mode="normal" in2="BackgroundImageFix" result="effect1_dropShadow_792_4672"/>
<feBlend mode="normal" in="SourceGraphic" in2="effect1_dropShadow_792_4672" result="shape"/>
</filter>
<filter id="filter29_i_792_4672" x="67.5332" y="101.365" width="14.4043" height="8.04297" filterUnits="userSpaceOnUse" color-interpolation-filters="sRGB">
<feFlood flood-opacity="0" result="BackgroundImageFix"/>
<feBlend mode="normal" in="SourceGraphic" in2="BackgroundImageFix" result="shape"/>
<feColorMatrix in="SourceAlpha" type="matrix" values="0 0 0 0 0 0 0 0 0 0 0 0 0 0 0 0 0 0 127 0" result="hardAlpha"/>
<feOffset dx="-0.960328" dy="0.960328"/>
<feComposite in2="hardAlpha" operator="arithmetic" k2="-1" k3="1"/>
<feColorMatrix type="matrix" values="0 0 0 0 1 0 0 0 0 0.984314 0 0 0 0 0.933333 0 0 0 1 0"/>
<feBlend mode="normal" in2="shape" result="effect1_innerShadow_792_4672"/>
</filter>
<filter id="filter30_i_792_4672" x="69.6934" y="102.566" width="10.084" height="5.64258" filterUnits="userSpaceOnUse" color-interpolation-filters="sRGB">
<feFlood flood-opacity="0" result="BackgroundImageFix"/>
<feBlend mode="normal" in="SourceGraphic" in2="BackgroundImageFix" result="shape"/>
<feColorMatrix in="SourceAlpha" type="matrix" values="0 0 0 0 0 0 0 0 0 0 0 0 0 0 0 0 0 0 127 0" result="hardAlpha"/>
<feOffset dx="-0.960328" dy="0.960328"/>
<feComposite in2="hardAlpha" operator="arithmetic" k2="-1" k3="1"/>
<feColorMatrix type="matrix" values="0 0 0 0 0.0625 0 0 0 0 0.0625 0 0 0 0 0.0625 0 0 0 1 0"/>
<feBlend mode="normal" in2="shape" result="effect1_innerShadow_792_4672"/>
</filter>
<filter id="filter31_d_792_4672" x="66.4512" y="98.5742" width="14.4043" height="9.88771" filterUnits="userSpaceOnUse" color-interpolation-filters="sRGB">
<feFlood flood-opacity="0" result="BackgroundImageFix"/>
<feColorMatrix in="SourceAlpha" type="matrix" values="0 0 0 0 0 0 0 0 0 0 0 0 0 0 0 0 0 0 127 0" result="hardAlpha"/>
<feOffset dy="0.524429"/>
<feComposite in2="hardAlpha" operator="out"/>
<feColorMatrix type="matrix" values="0 0 0 0 0 0 0 0 0 0 0 0 0 0 0 0 0 0 1 0"/>
<feBlend mode="normal" in2="BackgroundImageFix" result="effect1_dropShadow_792_4672"/>
<feBlend mode="normal" in="SourceGraphic" in2="effect1_dropShadow_792_4672" result="shape"/>
</filter>
<filter id="filter32_i_792_4672" x="66.4512" y="98.5742" width="14.4043" height="8.04297" filterUnits="userSpaceOnUse" color-interpolation-filters="sRGB">
<feFlood flood-opacity="0" result="BackgroundImageFix"/>
<feBlend mode="normal" in="SourceGraphic" in2="BackgroundImageFix" result="shape"/>
<feColorMatrix in="SourceAlpha" type="matrix" values="0 0 0 0 0 0 0 0 0 0 0 0 0 0 0 0 0 0 127 0" result="hardAlpha"/>
<feOffset dx="-0.960328" dy="0.960328"/>
<feComposite in2="hardAlpha" operator="arithmetic" k2="-1" k3="1"/>
<feColorMatrix type="matrix" values="0 0 0 0 1 0 0 0 0 0.984314 0 0 0 0 0.933333 0 0 0 1 0"/>
<feBlend mode="normal" in2="shape" result="effect1_innerShadow_792_4672"/>
</filter>
<filter id="filter33_i_792_4672" x="68.6133" y="99.7734" width="10.084" height="5.64258" filterUnits="userSpaceOnUse" color-interpolation-filters="sRGB">
<feFlood flood-opacity="0" result="BackgroundImageFix"/>
<feBlend mode="normal" in="SourceGraphic" in2="BackgroundImageFix" result="shape"/>
<feColorMatrix in="SourceAlpha" type="matrix" values="0 0 0 0 0 0 0 0 0 0 0 0 0 0 0 0 0 0 127 0" result="hardAlpha"/>
<feOffset dx="-0.960328" dy="0.960328"/>
<feComposite in2="hardAlpha" operator="arithmetic" k2="-1" k3="1"/>
<feColorMatrix type="matrix" values="0 0 0 0 0.0625 0 0 0 0 0.0625 0 0 0 0 0.0625 0 0 0 1 0"/>
<feBlend mode="normal" in2="shape" result="effect1_innerShadow_792_4672"/>
</filter>
<filter id="filter34_d_792_4672" x="67.5332" y="96.1719" width="14.4043" height="9.88966" filterUnits="userSpaceOnUse" color-interpolation-filters="sRGB">
<feFlood flood-opacity="0" result="BackgroundImageFix"/>
<feColorMatrix in="SourceAlpha" type="matrix" values="0 0 0 0 0 0 0 0 0 0 0 0 0 0 0 0 0 0 127 0" result="hardAlpha"/>
<feOffset dy="0.524429"/>
<feComposite in2="hardAlpha" operator="out"/>
<feColorMatrix type="matrix" values="0 0 0 0 0 0 0 0 0 0 0 0 0 0 0 0 0 0 1 0"/>
<feBlend mode="normal" in2="BackgroundImageFix" result="effect1_dropShadow_792_4672"/>
<feBlend mode="normal" in="SourceGraphic" in2="effect1_dropShadow_792_4672" result="shape"/>
</filter>
<filter id="filter35_i_792_4672" x="67.5332" y="96.1719" width="14.4043" height="8.04297" filterUnits="userSpaceOnUse" color-interpolation-filters="sRGB">
<feFlood flood-opacity="0" result="BackgroundImageFix"/>
<feBlend mode="normal" in="SourceGraphic" in2="BackgroundImageFix" result="shape"/>
<feColorMatrix in="SourceAlpha" type="matrix" values="0 0 0 0 0 0 0 0 0 0 0 0 0 0 0 0 0 0 127 0" result="hardAlpha"/>
<feOffset dx="-0.960328" dy="0.960328"/>
<feComposite in2="hardAlpha" operator="arithmetic" k2="-1" k3="1"/>
<feColorMatrix type="matrix" values="0 0 0 0 1 0 0 0 0 0.984314 0 0 0 0 0.933333 0 0 0 1 0"/>
<feBlend mode="normal" in2="shape" result="effect1_innerShadow_792_4672"/>
</filter>
<filter id="filter36_i_792_4672" x="69.6934" y="97.373" width="10.084" height="5.64258" filterUnits="userSpaceOnUse" color-interpolation-filters="sRGB">
<feFlood flood-opacity="0" result="BackgroundImageFix"/>
<feBlend mode="normal" in="SourceGraphic" in2="BackgroundImageFix" result="shape"/>
<feColorMatrix in="SourceAlpha" type="matrix" values="0 0 0 0 0 0 0 0 0 0 0 0 0 0 0 0 0 0 127 0" result="hardAlpha"/>
<feOffset dx="-0.960328" dy="0.960328"/>
<feComposite in2="hardAlpha" operator="arithmetic" k2="-1" k3="1"/>
<feColorMatrix type="matrix" values="0 0 0 0 0.0625 0 0 0 0 0.0625 0 0 0 0 0.0625 0 0 0 1 0"/>
<feBlend mode="normal" in2="shape" result="effect1_innerShadow_792_4672"/>
</filter>
<filter id="filter37_i_792_4672" x="21.8887" y="21.6035" width="92.5664" height="92.8555" filterUnits="userSpaceOnUse" color-interpolation-filters="sRGB">
<feFlood flood-opacity="0" result="BackgroundImageFix"/>
<feBlend mode="normal" in="SourceGraphic" in2="BackgroundImageFix" result="shape"/>
<feColorMatrix in="SourceAlpha" type="matrix" values="0 0 0 0 0 0 0 0 0 0 0 0 0 0 0 0 0 0 127 0" result="hardAlpha"/>
<feOffset dx="3.93322" dy="2.62215"/>
<feComposite in2="hardAlpha" operator="arithmetic" k2="-1" k3="1"/>
<feColorMatrix type="matrix" values="0 0 0 0 1 0 0 0 0 1 0 0 0 0 1 0 0 0 0.5 0"/>
<feBlend mode="normal" in2="shape" result="effect1_innerShadow_792_4672"/>
</filter>
</defs>
</svg>
