<svg width="136" height="136" viewBox="0 0 136 136" fill="none" xmlns="http://www.w3.org/2000/svg">
<g filter="url(#filter0_di_792_4659)">
<ellipse cx="61.5568" cy="69.5606" rx="16.5099" ry="9.19541" fill="#4D21FF"/>
<path d="M61.5566 60.5117C66.0956 60.5117 70.198 61.5367 73.1602 63.1865C76.127 64.839 77.9209 67.0984 77.9209 69.5605C77.9209 72.0227 76.127 74.2821 73.1602 75.9346C70.198 77.5844 66.0956 78.6094 61.5566 78.6094C57.0178 78.6093 52.9162 77.5843 49.9541 75.9346C46.9871 74.2821 45.1934 72.0228 45.1934 69.5605C45.1934 67.0984 46.9871 64.839 49.9541 63.1865C52.9162 61.5368 57.0178 60.5117 61.5566 60.5117Z" stroke="black" stroke-width="0.292457"/>
</g>
<g filter="url(#filter1_d_792_4659)">
<path d="M60.3575 55.1266L56.3614 52.8674C55.883 52.5969 55.8872 51.9063 56.3689 51.6417L59.5397 49.8995C60.1221 49.5795 60.8306 49.5924 61.401 49.9335L64.8928 52.0217C65.3629 52.3028 65.344 52.9901 64.8591 53.2449L61.2532 55.1403C60.9717 55.2883 60.6343 55.2831 60.3575 55.1266Z" fill="#7B5CF7"/>
<path d="M60.3575 55.1266L56.3614 52.8674C55.883 52.5969 55.8872 51.9063 56.3689 51.6417L59.5397 49.8995C60.1221 49.5795 60.8306 49.5924 61.401 49.9335L64.8928 52.0217C65.3629 52.3028 65.344 52.9901 64.8591 53.2449L61.2532 55.1403C60.9717 55.2883 60.6343 55.2831 60.3575 55.1266Z" stroke="black" stroke-width="0.233881"/>
</g>
<path d="M77.2287 71.8614L65.5255 69.9805L60.9278 68.5176L55.7031 69.3535L64.6895 78.3399C70.8756 78.5071 75.6265 74.0906 77.2287 71.8614Z" fill="#2606AA"/>
<path d="M65.2636 69.0892V53.5513C65.2636 53.3711 65.0684 53.2586 64.9125 53.3489L61.4236 55.3688C61.0517 55.5841 60.5916 55.5781 60.2254 55.3531L56.0559 52.7911C56.0169 52.7671 55.9668 52.7952 55.9668 52.8409V68.831C55.9668 69.1757 56.1564 69.4926 56.4603 69.6555L60.3818 71.758C60.6557 71.9048 60.9846 71.9061 61.2596 71.7614L64.7638 69.9171C65.0711 69.7553 65.2636 69.4366 65.2636 69.0892Z" fill="#4D21FF" stroke="black" stroke-width="0.835946"/>
<path d="M65.2641 69.1401V53.3835C65.2641 53.3387 65.2158 53.3105 65.1768 53.3326L60.8203 55.7974V71.609C60.8203 71.784 61.0053 71.897 61.161 71.8171L64.7556 69.9725C65.0678 69.8123 65.2641 69.491 65.2641 69.1401Z" fill="#4D21FF" stroke="black" stroke-width="0.835946"/>
<path d="M35.8516 36.9593L31.0097 35.4029C30.6485 35.2868 30.6163 34.7884 30.9596 34.6268L79.9739 11.5613C82.0884 10.5662 84.523 10.5017 86.6873 11.3834L88.0458 11.9369C88.3839 12.0746 88.3953 12.5492 88.0642 12.703L35.8516 36.9593Z" fill="#7F5EFC" stroke="black" stroke-width="0.417973"/>
<path d="M63.8048 59.0785V28.0351C63.8048 26.999 62.7589 26.2902 61.7965 26.674L37.1536 36.5017C36.3864 36.8077 35.533 36.8188 34.758 36.5331L31.1259 35.1937C30.8867 35.1054 30.6328 35.2824 30.6328 35.5374V72.2975C30.6328 74.4763 32.1313 76.3689 34.252 76.8686C35.3546 77.1284 36.5139 76.981 37.5164 76.4534L60.6732 64.2656C62.599 63.252 63.8048 61.2548 63.8048 59.0785Z" fill="#7F5EFC" stroke="black" stroke-width="0.417973"/>
<path d="M88.8842 47.2347V12.4605C88.8842 12.1914 88.6037 12.0141 88.3606 12.1296L35.9629 37.0267V75.9182C35.9629 76.5393 36.6163 76.9435 37.1721 76.6662L85.6399 52.4796C87.628 51.4875 88.8842 49.4566 88.8842 47.2347Z" fill="#4D21FF" stroke="black" stroke-width="0.417973"/>
<g filter="url(#filter2_i_792_4659)">
<path d="M83.9184 46.4267V18.7315C83.9184 18.462 83.6373 18.2848 83.3941 18.401L42.7692 37.8156C41.607 38.3709 40.8672 39.5445 40.8672 40.8325V69.2758C40.8672 70.3662 42.0155 71.0746 42.99 70.5855L80.6862 51.6656C82.6676 50.6711 83.9184 48.6438 83.9184 46.4267Z" fill="#4D21FF"/>
</g>
<path d="M83.9184 46.4267V18.7315C83.9184 18.462 83.6373 18.2848 83.3941 18.401L42.7692 37.8156C41.607 38.3709 40.8672 39.5445 40.8672 40.8325V69.2758C40.8672 70.3662 42.0155 71.0746 42.99 70.5855L80.6862 51.6656C82.6676 50.6711 83.9184 48.6438 83.9184 46.4267Z" stroke="black" stroke-width="0.835946"/>
<path d="M72.215 42.6327V33.2821C72.215 32.664 71.5675 32.2597 71.0121 32.531L57.6881 39.0397C57.114 39.3201 56.75 39.9031 56.75 40.5419V50.2197C56.75 50.8449 57.4112 51.2489 57.9675 50.9635L71.3063 44.1202C71.8642 43.834 72.215 43.2597 72.215 42.6327Z" stroke="black" stroke-width="0.417973" stroke-linecap="round" stroke-dasharray="2.09 2.09"/>
<path d="M63.4376 51.0926V44.9801C63.4376 44.3633 62.7925 43.9589 62.2373 44.2277L53.0956 48.6547C52.5187 48.9341 52.1523 49.5186 52.1523 50.1595V56.4946C52.1523 57.1185 52.8111 57.5225 53.3672 57.2397L62.5236 52.5829C63.0844 52.2977 63.4376 51.7218 63.4376 51.0926Z" stroke="black" stroke-width="0.417973"/>
<path d="M50.0626 67.18V36.123L42.8018 39.4972C41.6219 40.0455 40.8672 41.2284 40.8672 42.5295V69.3088C40.8672 70.3911 42 71.1 42.9734 70.6267L50.0626 67.18Z" fill="#2606AA" stroke="black" stroke-width="0.835946"/>
<path d="M75.3515 53.8871L74.7245 24.002L81.6917 20.6077C82.2423 20.3395 82.885 20.7349 82.8937 21.3474L83.2361 45.4895C83.2711 47.9573 81.9441 50.2438 79.7839 51.4376L75.3515 53.8871Z" fill="#2606AA" stroke="black" stroke-width="0.835946"/>
<path d="M67.5813 45.2825L70.5789 48.28C71.1055 48.8067 72.0059 48.4337 72.0059 47.6889V46.2386C72.0059 46.0487 72.0705 45.8646 72.1891 45.7164L72.5913 45.2136C73.0292 44.6663 72.6395 43.8555 71.9385 43.8555H68.1724C67.4277 43.8555 67.0547 44.7559 67.5813 45.2825Z" fill="#FF01C4" stroke="#101010" stroke-width="0.835946" stroke-linecap="round"/>
<mask id="mask0_792_4659" style="mask-type:alpha" maskUnits="userSpaceOnUse" x="40" y="18" width="45" height="53">
<path d="M83.9184 46.4267V18.7315C83.9184 18.462 83.6373 18.2848 83.3941 18.401L42.7692 37.8156C41.607 38.3709 40.8672 39.5445 40.8672 40.8325V69.2758C40.8672 70.3662 42.0155 71.0746 42.99 70.5855L80.6862 51.6656C82.6676 50.6711 83.9184 48.6438 83.9184 46.4267Z" fill="#4D21FF" stroke="black" stroke-width="0.417973"/>
</mask>
<g mask="url(#mask0_792_4659)">
<path opacity="0.2" d="M96.8928 18.2898L72.4608 93.776C72.3232 94.2011 72.5443 94.6593 72.9627 94.8162L81.7425 98.1072C82.1755 98.2695 82.658 98.0495 82.8193 97.6162L113.846 14.2853C114.087 13.6394 113.486 12.9964 112.825 13.1921L97.4507 17.7457C97.1864 17.824 96.9777 18.0275 96.8928 18.2898Z" fill="white"/>
</g>
<g filter="url(#filter3_di_792_4659)">
<path d="M73.935 82.9434L71.3675 81.5312C70.6279 81.1245 70.3457 79.8155 70.6359 79.0229C71.2341 77.3885 72.8577 77.4146 74.3997 78.2217L75.2398 78.6614C76.3351 79.2347 77.0216 80.3687 77.0216 81.605C77.0216 81.9109 77.1897 82.1921 77.4592 82.3368L92.6698 90.5054C95.6192 92.0894 95.6025 96.3251 92.6406 97.8856L80.1564 104.463L75.5658 102.045L90.2204 94.9185C90.8259 94.624 90.8526 93.7711 90.2667 93.4393L75.0287 84.8106C74.5813 84.5572 74.3047 84.0828 74.3047 83.5686C74.3047 83.3084 74.1631 83.0688 73.935 82.9434Z" fill="#FFFBEE" fill-opacity="0.2" shape-rendering="crispEdges"/>
<path d="M73.935 82.9434L71.3675 81.5312C70.6279 81.1245 70.3457 79.8155 70.6359 79.0229C71.2341 77.3885 72.8577 77.4146 74.3997 78.2217L75.2398 78.6614C76.3351 79.2347 77.0216 80.3687 77.0216 81.605C77.0216 81.9109 77.1897 82.1921 77.4592 82.3368L92.6698 90.5054C95.6192 92.0894 95.6025 96.3251 92.6406 97.8856L80.1564 104.463L75.5658 102.045L90.2204 94.9185C90.8259 94.624 90.8526 93.7711 90.2667 93.4393L75.0287 84.8106C74.5813 84.5572 74.3047 84.0828 74.3047 83.5686C74.3047 83.3084 74.1631 83.0688 73.935 82.9434Z" stroke="black" stroke-width="0.481221" shape-rendering="crispEdges"/>
</g>
<circle cx="75.5586" cy="80.8457" r="0.835946" fill="#FFFBEE" fill-opacity="0.2"/>
<circle cx="93.0348" cy="93.5934" r="1.03873" fill="#FFFBEE" fill-opacity="0.2"/>
<path d="M75.5586 82.9302C75.8837 82.9648 76.6732 82.8472 77.2305 82.0996" stroke="black" stroke-width="0.276995" stroke-linecap="round"/>
<g filter="url(#filter4_d_792_4659)">
<path d="M85.7171 122.516L43.9673 102.15C43.5612 101.952 43.5526 101.376 43.9528 101.166L58.6955 93.4259C60.6088 92.4214 62.8859 92.3877 64.828 93.3352L103.065 111.989C104.283 112.583 104.309 114.31 103.109 114.94L88.7847 122.47C87.8278 122.973 86.6886 122.99 85.7171 122.516Z" fill="#7B5CF7" stroke="black" stroke-width="0.848626"/>
<g filter="url(#filter5_i_792_4659)">
<path d="M85.2282 120.176L48.2824 102.196C47.8753 101.998 47.8672 101.421 48.2686 101.211L61.0285 94.5517C61.6486 94.228 62.3855 94.2177 63.0145 94.5238L100.491 112.763C100.898 112.961 100.906 113.538 100.505 113.748L88.2857 120.132C87.3312 120.631 86.1966 120.647 85.2282 120.176Z" fill="#2606AA"/>
</g>
<path d="M85.2282 120.176L48.2824 102.196C47.8753 101.998 47.8672 101.421 48.2686 101.211L61.0285 94.5517C61.6486 94.228 62.3855 94.2177 63.0145 94.5238L100.491 112.763C100.898 112.961 100.906 113.538 100.505 113.748L88.2857 120.132C87.3312 120.631 86.1966 120.647 85.2282 120.176Z" stroke="black" stroke-width="0.848626"/>
<g filter="url(#filter6_d_792_4659)">
<path d="M66.4502 97.6333L66.458 97.3243C66.462 97.1657 66.2918 97.063 66.1534 97.1406L63.0267 98.892C62.7286 99.059 62.3669 99.0662 62.0625 98.9112L58.3126 97.0027C58.2786 96.9854 58.2383 97.0101 58.2383 97.0483V97.594C58.2383 97.91 58.4202 98.1977 58.7056 98.3333L62.1797 99.9839C62.4126 100.095 62.684 100.089 62.9122 99.9689L66.0131 98.3369C66.2755 98.1988 66.4426 97.9296 66.4502 97.6333Z" fill="#1E0B6B" stroke="black" stroke-width="0.204646"/>
<path d="M66.4528 97.5479L66.4426 97.2283C66.4414 97.1905 66.4011 97.1671 66.3676 97.1847L62.6289 99.158V100.012C62.6289 100.039 62.6581 100.057 62.6824 100.044L66.0144 98.2989C66.2924 98.1533 66.4627 97.8615 66.4528 97.5479Z" fill="#4D21FF" stroke="black" stroke-width="0.204646"/>
<path d="M62.2504 98.9712L58.605 97.1485C58.1527 96.9223 58.1525 96.2769 58.6046 96.0504L61.5157 94.5921C61.9797 94.3597 62.5263 94.361 62.9891 94.5956L66.1448 96.195C66.5884 96.4198 66.5946 97.0512 66.1554 97.2847L63.0007 98.9618C62.7669 99.0861 62.4873 99.0896 62.2504 98.9712Z" fill="#603BF5" stroke="black" stroke-width="0.204646"/>
</g>
<g filter="url(#filter7_d_792_4659)">
<path d="M71.9619 100.35L71.9697 100.041C71.9738 99.8825 71.8036 99.7798 71.6651 99.8574L68.5384 101.609C68.2404 101.776 67.8787 101.783 67.5742 101.628L63.8244 99.7195C63.7903 99.7022 63.75 99.7269 63.75 99.7651V100.311C63.75 100.627 63.9319 100.915 64.2173 101.05L67.6914 102.701C67.9243 102.811 68.1958 102.806 68.4239 102.686L71.5248 101.054C71.7872 100.916 71.9544 100.646 71.9619 100.35Z" fill="#1E0B6B" stroke="black" stroke-width="0.204646"/>
<path d="M71.9625 100.267L71.9524 99.9471C71.9512 99.9093 71.9108 99.8858 71.8774 99.9035L68.1387 101.877V102.731C68.1387 102.758 68.1679 102.776 68.1922 102.763L71.5242 101.018C71.8022 100.872 71.9725 100.58 71.9625 100.267Z" fill="#4D21FF" stroke="black" stroke-width="0.204646"/>
<path d="M67.7621 101.686L64.1167 99.8633C63.6644 99.6372 63.6642 98.9918 64.1163 98.7653L67.0275 97.307C67.4914 97.0746 68.038 97.0759 68.5009 97.3104L71.6565 98.9098C72.1001 99.1347 72.1063 99.7661 71.6671 99.9995L68.5125 101.677C68.2786 101.801 67.999 101.804 67.7621 101.686Z" fill="#7B5CF7" stroke="black" stroke-width="0.204646"/>
</g>
<g filter="url(#filter8_d_792_4659)">
<path d="M61.5127 100.192L61.5205 99.8829C61.5245 99.7243 61.3543 99.6216 61.2159 99.6992L58.0892 101.451C57.7911 101.618 57.4294 101.625 57.125 101.47L53.3751 99.5613C53.3411 99.544 53.3008 99.5687 53.3008 99.6069V100.153C53.3008 100.469 53.4827 100.756 53.7681 100.892L57.2422 102.543C57.4751 102.653 57.7465 102.648 57.9747 102.528L61.0756 100.895C61.338 100.757 61.5051 100.488 61.5127 100.192Z" fill="#1E0B6B" stroke="black" stroke-width="0.204646"/>
<path d="M61.5153 100.108L61.5051 99.7889C61.5039 99.7511 61.4636 99.7276 61.4301 99.7453L57.6914 101.719V102.572C57.6914 102.6 57.7206 102.618 57.7449 102.605L61.0769 100.859C61.3549 100.714 61.5252 100.422 61.5153 100.108Z" fill="#4D21FF" stroke="black" stroke-width="0.204646"/>
<path d="M57.3129 101.53L53.6675 99.7071C53.2152 99.4809 53.215 98.8355 53.6671 98.609L56.5782 97.1507C57.0422 96.9183 57.5888 96.9196 58.0516 97.1542L61.2073 98.7536C61.6509 98.9784 61.6571 99.6098 61.2179 99.8433L58.0632 101.52C57.8294 101.645 57.5498 101.648 57.3129 101.53Z" fill="#7B5CF7" stroke="black" stroke-width="0.204646"/>
</g>
<g filter="url(#filter9_d_792_4659)">
<path d="M67.3642 103.12L67.3721 102.811C67.3761 102.652 67.2059 102.549 67.0675 102.627L63.9407 104.378C63.6427 104.545 63.281 104.553 62.9765 104.398L59.2267 102.489C59.1927 102.472 59.1523 102.496 59.1523 102.535V103.08C59.1523 103.396 59.3342 103.684 59.6196 103.82L63.0937 105.47C63.3267 105.581 63.5981 105.575 63.8263 105.455L66.9272 103.823C67.1895 103.685 67.3567 103.416 67.3642 103.12Z" fill="#1E0B6B" stroke="black" stroke-width="0.204646"/>
<path d="M67.3649 103.036L67.3547 102.717C67.3535 102.679 67.3132 102.655 67.2797 102.673L63.541 104.646V105.5C63.541 105.528 63.5702 105.545 63.5946 105.533L66.9265 103.787C67.2045 103.642 67.3748 103.35 67.3649 103.036Z" fill="#4D21FF" stroke="black" stroke-width="0.204646"/>
<path d="M63.1645 104.456L59.5191 102.633C59.0668 102.407 59.0665 101.761 59.5187 101.535L62.4298 100.077C62.8937 99.8441 63.4404 99.8454 63.9032 100.08L67.0588 101.679C67.5024 101.904 67.5086 102.536 67.0695 102.769L63.9148 104.446C63.6809 104.571 63.4014 104.574 63.1645 104.456Z" fill="#694BDF" stroke="black" stroke-width="0.204646"/>
</g>
<g filter="url(#filter10_d_792_4659)">
<path d="M77.8154 103.067L77.8232 102.758C77.8273 102.599 77.6571 102.497 77.5186 102.574L74.3919 104.326C74.0939 104.493 73.7322 104.5 73.4277 104.345L69.6779 102.436C69.6438 102.419 69.6035 102.444 69.6035 102.482V103.028C69.6035 103.344 69.7854 103.631 70.0708 103.767L73.5449 105.418C73.7778 105.528 74.0493 105.523 74.2775 105.403L77.3783 103.77C77.6407 103.632 77.8079 103.363 77.8154 103.067Z" fill="#1E0B6B" stroke="black" stroke-width="0.204646"/>
<path d="M77.816 102.981L77.8059 102.662C77.8047 102.624 77.7643 102.601 77.7309 102.618L73.9922 104.592V105.445C73.9922 105.473 74.0214 105.491 74.0457 105.478L77.3777 103.733C77.6557 103.587 77.826 103.295 77.816 102.981Z" fill="#4D21FF" stroke="black" stroke-width="0.204646"/>
<path d="M73.6137 104.405L69.9683 102.582C69.516 102.356 69.5158 101.711 69.9679 101.484L72.879 100.026C73.343 99.7933 73.8896 99.7946 74.3524 100.029L77.508 101.629C77.9517 101.853 77.9578 102.485 77.5187 102.718L74.364 104.395C74.1302 104.52 73.8506 104.523 73.6137 104.405Z" fill="#7B5CF7" stroke="black" stroke-width="0.204646"/>
</g>
<g filter="url(#filter11_d_792_4659)">
<path d="M83.247 105.995L83.2549 105.686C83.2589 105.527 83.0887 105.424 82.9503 105.502L79.8235 107.253C79.5255 107.42 79.1638 107.428 78.8594 107.273L75.1095 105.364C75.0755 105.347 75.0352 105.371 75.0352 105.41V105.955C75.0352 106.271 75.217 106.559 75.5025 106.695L78.9766 108.345C79.2095 108.456 79.4809 108.45 79.7091 108.33L82.81 106.698C83.0723 106.56 83.2395 106.291 83.247 105.995Z" fill="#1E0B6B" stroke="black" stroke-width="0.204646"/>
<path d="M83.2496 105.909L83.2395 105.59C83.2383 105.552 83.1979 105.528 83.1645 105.546L79.4258 107.519V108.373C79.4258 108.401 79.455 108.418 79.4793 108.406L82.8113 106.66C83.0893 106.515 83.2596 106.223 83.2496 105.909Z" fill="#4D21FF" stroke="black" stroke-width="0.204646"/>
<path d="M79.0473 107.329L75.4019 105.506C74.9496 105.28 74.9493 104.634 75.4015 104.408L78.3126 102.95C78.7766 102.717 79.3232 102.718 79.786 102.953L82.9416 104.552C83.3853 104.777 83.3914 105.409 82.9523 105.642L79.7976 107.319C79.5637 107.444 79.2842 107.447 79.0473 107.329Z" fill="#684BDC" stroke="black" stroke-width="0.204646"/>
</g>
<g filter="url(#filter12_d_792_4659)">
<path d="M90.7705 109.545L90.7783 109.236C90.7824 109.078 90.6122 108.975 90.4737 109.053L87.3459 110.805C87.0484 110.971 86.6876 110.979 86.3835 110.825L80.961 108.079C80.927 108.061 80.8867 108.086 80.8867 108.124V108.673C80.8867 108.988 81.0667 109.274 81.3498 109.411L86.4984 111.893C86.7322 112.005 87.0055 112.001 87.2351 111.88L90.3334 110.249C90.5958 110.111 90.763 109.842 90.7705 109.545Z" fill="#1E0B6B" stroke="black" stroke-width="0.204646"/>
<path d="M90.7711 109.462L90.761 109.142C90.7598 109.105 90.7194 109.081 90.686 109.099L86.9473 111.072V111.926C86.9473 111.953 86.9765 111.971 87.0008 111.958L90.3328 110.213C90.6108 110.067 90.7811 109.776 90.7711 109.462Z" fill="#4D21FF" stroke="black" stroke-width="0.204646"/>
<path d="M86.5707 110.883L81.2535 108.225C80.8012 107.999 80.8009 107.353 81.2531 107.127L84.1654 105.668C84.6287 105.436 85.1744 105.437 85.6368 105.67L90.4626 108.108C90.9069 108.332 90.9135 108.964 90.474 109.198L87.3211 110.874C87.0872 110.998 86.8076 111.002 86.5707 110.883Z" fill="#7B5CF7" stroke="black" stroke-width="0.204646"/>
</g>
<g filter="url(#filter13_d_792_4659)">
<path d="M93.376 109.852C95.565 109.742 96.5687 110.159 97.04 110.695C97.516 111.236 97.5088 111.955 97.5088 112.644C97.5088 113.207 97.0983 113.76 96.3408 114.183C95.5899 114.602 94.5383 114.867 93.3662 114.867C92.194 114.867 91.1425 114.602 90.3916 114.183C89.634 113.76 89.2227 113.207 89.2227 112.644C89.2227 111.962 89.231 111.354 89.708 110.867C90.194 110.372 91.2114 109.96 93.376 109.852Z" fill="#4D21FF" stroke="black" stroke-width="0.40685"/>
<path d="M93.3662 109.473C94.5383 109.473 95.5899 109.739 96.3408 110.158C97.0981 110.581 97.5088 111.133 97.5088 111.696C97.5088 112.259 97.0981 112.811 96.3408 113.234C95.5899 113.654 94.5383 113.92 93.3662 113.92C92.194 113.92 91.1425 113.654 90.3916 113.234C89.6342 112.811 89.2227 112.259 89.2227 111.696C89.2227 111.133 89.6342 110.581 90.3916 110.158C91.1425 109.739 92.194 109.473 93.3662 109.473Z" fill="#684AE2" stroke="black" stroke-width="0.40685"/>
<ellipse cx="92.1886" cy="111.679" rx="1.28234" ry="0.73981" fill="#A38DFD"/>
</g>
<g filter="url(#filter14_d_792_4659)">
<path d="M69.1309 103.56C70.9999 103.466 71.8563 103.823 72.2588 104.28C72.6653 104.742 72.6602 105.357 72.6602 105.944C72.66 106.425 72.3088 106.897 71.6621 107.258C71.0209 107.616 70.1229 107.843 69.1221 107.843C68.1211 107.843 67.2233 107.616 66.582 107.258C65.9352 106.897 65.5841 106.425 65.584 105.944C65.584 105.362 65.5906 104.842 65.998 104.427C66.4131 104.004 67.2824 103.652 69.1309 103.56Z" fill="#4D21FF" stroke="black" stroke-width="0.347426"/>
<path d="M69.1221 102.879C70.1229 102.879 71.0209 103.106 71.6621 103.464C72.3088 103.825 72.6601 104.296 72.6602 104.777C72.6602 105.258 72.3088 105.73 71.6621 106.091C71.0209 106.449 70.1229 106.676 69.1221 106.676C68.1211 106.676 67.2233 106.449 66.582 106.091C65.9351 105.73 65.584 105.258 65.584 104.777C65.584 104.296 65.9351 103.825 66.582 103.464C67.2233 103.106 68.1211 102.879 69.1221 102.879Z" fill="#7B5CF7" stroke="black" stroke-width="0.347426"/>
<ellipse cx="68.1165" cy="104.763" rx="1.09504" ry="0.631753" fill="#A48DFD"/>
</g>
<g filter="url(#filter15_d_792_4659)">
<path d="M79.0693 109.127L79.0771 108.818C79.0812 108.66 78.911 108.557 78.7726 108.635L75.6458 110.386C75.3478 110.553 74.9861 110.56 74.6816 110.405L70.9318 108.497C70.8978 108.48 70.8574 108.504 70.8574 108.542V109.088C70.8574 109.404 71.0393 109.692 71.3247 109.827L74.7988 111.478C75.0317 111.589 75.3032 111.583 75.5314 111.463L78.6322 109.831C78.8946 109.693 79.0618 109.424 79.0693 109.127Z" fill="#1E0B6B" stroke="black" stroke-width="0.204646"/>
<path d="M79.07 109.042L79.0598 108.722C79.0586 108.685 79.0182 108.661 78.9848 108.679L75.2461 110.652V111.506C75.2461 111.533 75.2753 111.551 75.2996 111.538L78.6316 109.793C78.9096 109.647 79.0799 109.356 79.07 109.042Z" fill="#4D21FF" stroke="black" stroke-width="0.204646"/>
<path d="M74.8676 110.465L71.2222 108.643C70.7699 108.416 70.7697 107.771 71.2218 107.545L74.1329 106.086C74.5969 105.854 75.1435 105.855 75.6063 106.09L78.762 107.689C79.2056 107.914 79.2117 108.545 78.7726 108.779L75.6179 110.456C75.3841 110.58 75.1045 110.584 74.8676 110.465Z" fill="#7B5CF7" stroke="black" stroke-width="0.204646"/>
</g>
<g filter="url(#filter16_d_792_4659)">
<path d="M85.3369 112.053L85.3447 111.744C85.3488 111.586 85.1786 111.483 85.0401 111.56L81.9134 113.312C81.6154 113.479 81.2537 113.486 80.9492 113.331L77.1994 111.423C77.1653 111.405 77.125 111.43 77.125 111.468V112.014C77.125 112.33 77.3069 112.618 77.5923 112.753L81.0664 114.404C81.2993 114.514 81.5708 114.509 81.7989 114.389L84.8998 112.757C85.1622 112.619 85.3294 112.35 85.3369 112.053Z" fill="#1E0B6B" stroke="black" stroke-width="0.204646"/>
<path d="M85.3395 111.97L85.3293 111.65C85.3282 111.612 85.2878 111.589 85.2543 111.607L81.5156 113.58V114.434C81.5156 114.461 81.5448 114.479 81.5692 114.466L84.9011 112.721C85.1792 112.575 85.3494 112.283 85.3395 111.97Z" fill="#4D21FF" stroke="black" stroke-width="0.204646"/>
<path d="M81.1371 113.391L77.4917 111.568C77.0394 111.342 77.0392 110.697 77.4913 110.47L80.4025 109.012C80.8664 108.78 81.413 108.781 81.8759 109.016L85.0315 110.615C85.4751 110.84 85.4813 111.471 85.0421 111.705L81.8875 113.382C81.6536 113.506 81.374 113.51 81.1371 113.391Z" fill="#7B5CF7" stroke="black" stroke-width="0.204646"/>
</g>
<g filter="url(#filter17_d_792_4659)">
<path d="M92.8603 115.817L92.8682 115.508C92.8722 115.349 92.702 115.247 92.5636 115.324L89.4357 117.076C89.1383 117.243 88.7774 117.25 88.4733 117.096L83.0508 114.35C83.0168 114.333 82.9766 114.358 82.9766 114.396V114.945C82.9766 115.259 83.1565 115.546 83.4397 115.682L88.5882 118.164C88.822 118.277 89.0953 118.272 89.325 118.151L92.4233 116.52C92.6856 116.382 92.8528 116.113 92.8603 115.817Z" fill="#1E0B6B" stroke="black" stroke-width="0.204646"/>
<path d="M92.8629 115.731L92.8528 115.412C92.8516 115.374 92.8112 115.351 92.7778 115.368L89.0391 117.342V118.195C89.0391 118.223 89.0683 118.241 89.0926 118.228L92.4246 116.483C92.7026 116.337 92.8729 116.045 92.8629 115.731Z" fill="#4D21FF" stroke="black" stroke-width="0.204646"/>
<path d="M88.6606 117.153L83.3433 114.494C82.891 114.268 82.8908 113.623 83.3429 113.396L86.2553 111.937C86.7185 111.705 87.2642 111.706 87.7267 111.94L92.5524 114.377C92.9967 114.602 93.0033 115.234 92.5638 115.467L89.4109 117.143C89.177 117.268 88.8975 117.271 88.6606 117.153Z" fill="#8C70FF" stroke="black" stroke-width="0.204646"/>
</g>
<g filter="url(#filter18_d_792_4659)">
<path d="M56.523 102.628L56.5307 102.322C56.5348 102.161 56.3603 102.059 56.2218 102.141L54.3346 103.259C54.0332 103.438 53.6613 103.45 53.349 103.291L49.6134 101.389C49.5794 101.372 49.5391 101.397 49.5391 101.435V101.981C49.5391 102.297 49.7209 102.584 50.0064 102.72L53.4743 104.368C53.7107 104.48 53.9865 104.473 54.2164 104.348L56.0955 103.327C56.3526 103.187 56.5155 102.921 56.523 102.628Z" fill="#1E0B6B" stroke="black" stroke-width="0.204646"/>
<path d="M56.5548 102.566L56.5446 102.246C56.5434 102.208 56.503 102.185 56.4695 102.202L53.9297 103.549V104.402C53.9297 104.43 53.9589 104.448 53.9832 104.435L56.1166 103.317C56.3945 103.171 56.5647 102.879 56.5548 102.566Z" fill="#4D21FF" stroke="black" stroke-width="0.204646"/>
<path d="M53.5656 103.366L49.9636 101.565C49.501 101.334 49.5142 100.669 49.9857 100.456L51.5074 99.7697C51.9591 99.5658 52.4789 99.5776 52.921 99.8016L56.0714 101.398C56.5229 101.627 56.5191 102.273 56.0649 102.497L54.2931 103.368C54.0635 103.481 53.7944 103.481 53.5656 103.366Z" fill="#7B5CF7" stroke="black" stroke-width="0.204646"/>
</g>
<g filter="url(#filter19_d_792_4659)">
<path d="M71.1838 109.64L71.1916 109.333C71.1957 109.171 71.0178 109.069 70.8795 109.154L69.1346 110.231C68.8411 110.413 68.4759 110.434 68.1635 110.287L54.9439 104.102C54.91 104.087 54.8711 104.111 54.8711 104.149V104.689C54.8711 105.009 55.0579 105.3 55.3493 105.434L68.2843 111.349C68.523 111.458 68.7994 111.446 69.0278 111.317L70.7685 110.332C71.0189 110.19 71.1765 109.928 71.1838 109.64Z" fill="#1E0B6B" stroke="black" stroke-width="0.204646"/>
<path d="M71.3799 109.399V109.128C71.3799 109.097 71.3475 109.076 71.3197 109.09L68.5586 110.444V111.298C68.5586 111.326 68.5876 111.343 68.612 111.331L70.9379 110.126C71.2095 109.985 71.3799 109.705 71.3799 109.399Z" fill="#4D21FF" stroke="black" stroke-width="0.204646"/>
<path d="M68.2788 110.55L55.173 104.413C54.8552 104.264 54.8512 103.814 55.1664 103.659L57.4302 102.55C57.6611 102.437 57.9312 102.437 58.1626 102.549L71.2326 108.886C71.3838 108.959 71.391 109.172 71.2451 109.255L69.032 110.52C68.8009 110.652 68.5199 110.663 68.2788 110.55Z" fill="#553BBE" stroke="black" stroke-width="0.204646"/>
</g>
<path d="M89.1078 125.601L102.175 118.724C103.114 118.229 103.702 117.255 103.702 116.194C103.702 115.652 103.122 115.307 102.646 115.567L89.5213 122.716C88.3036 123.38 86.8386 123.406 85.5977 122.787L43.5705 101.827C43.4295 101.757 43.2637 101.859 43.2637 102.017V102.469C43.2637 103.762 43.9984 104.943 45.1584 105.514L86.0271 125.642C87.0015 126.122 88.1467 126.107 89.1078 125.601Z" fill="#2606AA" stroke="black" stroke-width="0.848626"/>
<path d="M104.253 115.534V114.747C104.253 114.585 104.081 114.483 103.94 114.56L87.5781 123.511V125.488C87.5781 125.904 88.0203 126.17 88.3876 125.975L102.447 118.534C103.558 117.946 104.253 116.792 104.253 115.534Z" fill="#4D21FF" stroke="black" stroke-width="0.848626"/>
<g filter="url(#filter20_d_792_4659)">
<path d="M77.0034 112.659L77.0112 112.353C77.0153 112.193 76.8407 112.09 76.7023 112.172L74.8151 113.29C74.5136 113.469 74.1417 113.481 73.8294 113.322L70.0939 111.421C70.0599 111.403 70.0195 111.428 70.0195 111.466V112.012C70.0195 112.328 70.2014 112.616 70.4868 112.751L73.9548 114.399C74.1911 114.511 74.467 114.504 74.6969 114.379L76.5759 113.358C76.833 113.218 76.996 112.952 77.0034 112.659Z" fill="#1E0B6B" stroke="black" stroke-width="0.204646"/>
<path d="M77.0333 112.595L77.0231 112.275C77.0219 112.238 76.9815 112.214 76.948 112.232L74.4082 113.578V114.432C74.4082 114.459 74.4374 114.477 74.4618 114.464L76.5951 113.346C76.873 113.2 77.0432 112.908 77.0333 112.595Z" fill="#4D21FF" stroke="black" stroke-width="0.204646"/>
<path d="M74.0461 113.397L70.4441 111.596C69.9815 111.365 69.9947 110.7 70.4661 110.488L71.9878 109.801C72.4396 109.597 72.9594 109.609 73.4014 109.833L76.5519 111.43C77.0034 111.658 76.9996 112.305 76.5453 112.528L74.7735 113.4C74.544 113.513 74.2749 113.512 74.0461 113.397Z" fill="#7B5CF7" stroke="black" stroke-width="0.204646"/>
</g>
<g filter="url(#filter21_d_792_4659)">
<path d="M82.855 115.378L82.8628 115.072C82.8668 114.911 82.6923 114.809 82.5539 114.891L80.6667 116.009C80.3652 116.188 79.9933 116.2 79.681 116.041L75.9455 114.139C75.9114 114.122 75.8711 114.147 75.8711 114.185V114.731C75.8711 115.047 76.053 115.334 76.3384 115.47L79.8063 117.118C80.0427 117.23 80.3185 117.223 80.5485 117.098L82.4275 116.077C82.6846 115.937 82.8476 115.671 82.855 115.378Z" fill="#1E0B6B" stroke="black" stroke-width="0.204646"/>
<path d="M82.8848 115.312L82.8747 114.992C82.8735 114.954 82.8331 114.931 82.7996 114.949L80.2598 116.295V117.149C80.2598 117.176 80.289 117.194 80.3133 117.181L82.4467 116.063C82.7246 115.917 82.8948 115.625 82.8848 115.312Z" fill="#4D21FF" stroke="black" stroke-width="0.204646"/>
<path d="M79.8977 116.112L76.2957 114.311C75.8331 114.08 75.8463 113.415 76.3177 113.203L77.8394 112.516C78.2911 112.312 78.8109 112.324 79.253 112.548L82.4035 114.144C82.855 114.373 82.8511 115.02 82.3969 115.243L80.6251 116.115C80.3956 116.227 80.1265 116.227 79.8977 116.112Z" fill="#522EE1" stroke="black" stroke-width="0.204646"/>
</g>
<g filter="url(#filter22_d_792_4659)">
<path d="M88.7085 118.302L88.7163 117.996C88.7204 117.835 88.5458 117.733 88.4074 117.815L86.5202 118.933C86.2187 119.112 85.8468 119.123 85.5345 118.964L81.799 117.063C81.7649 117.046 81.7246 117.071 81.7246 117.109V117.655C81.7246 117.971 81.9065 118.258 82.1919 118.394L85.6599 120.042C85.8962 120.154 86.172 120.146 86.402 120.021L88.281 119C88.5381 118.861 88.7011 118.594 88.7085 118.302Z" fill="#1E0B6B" stroke="black" stroke-width="0.204646"/>
<path d="M88.7383 118.237L88.7282 117.918C88.727 117.88 88.6866 117.857 88.6531 117.874L86.1133 119.22V120.074C86.1133 120.102 86.1425 120.119 86.1668 120.107L88.3002 118.988C88.5781 118.843 88.7483 118.551 88.7383 118.237Z" fill="#4D21FF" stroke="black" stroke-width="0.204646"/>
<path d="M85.7492 119.04L82.1472 117.239C81.6846 117.008 81.6978 116.343 82.1692 116.13L83.691 115.444C84.1427 115.24 84.6625 115.251 85.1045 115.475L88.255 117.072C88.7065 117.301 88.7027 117.947 88.2485 118.171L86.4767 119.042C86.2471 119.155 85.978 119.154 85.7492 119.04Z" fill="#7B5CF7" stroke="black" stroke-width="0.204646"/>
</g>
</g>
<defs>
<filter id="filter0_di_792_4659" x="45.0469" y="60.3652" width="33.0195" height="23.4063" filterUnits="userSpaceOnUse" color-interpolation-filters="sRGB">
<feFlood flood-opacity="0" result="BackgroundImageFix"/>
<feColorMatrix in="SourceAlpha" type="matrix" values="0 0 0 0 0 0 0 0 0 0 0 0 0 0 0 0 0 0 127 0" result="hardAlpha"/>
<feOffset dy="5.01568"/>
<feComposite in2="hardAlpha" operator="out"/>
<feColorMatrix type="matrix" values="0 0 0 0 0 0 0 0 0 0 0 0 0 0 0 0 0 0 1 0"/>
<feBlend mode="normal" in2="BackgroundImageFix" result="effect1_dropShadow_792_4659"/>
<feBlend mode="normal" in="SourceGraphic" in2="effect1_dropShadow_792_4659" result="shape"/>
<feColorMatrix in="SourceAlpha" type="matrix" values="0 0 0 0 0 0 0 0 0 0 0 0 0 0 0 0 0 0 127 0" result="hardAlpha"/>
<feOffset dx="-0.389943" dy="0.779886"/>
<feComposite in2="hardAlpha" operator="arithmetic" k2="-1" k3="1"/>
<feColorMatrix type="matrix" values="0 0 0 0 1 0 0 0 0 0.984314 0 0 0 0 0.933333 0 0 0 1 0"/>
<feBlend mode="normal" in2="shape" result="effect2_innerShadow_792_4659"/>
</filter>
<filter id="filter1_d_792_4659" x="55.8887" y="49.5508" width="9.46289" height="6.04833" filterUnits="userSpaceOnUse" color-interpolation-filters="sRGB">
<feFlood flood-opacity="0" result="BackgroundImageFix"/>
<feColorMatrix in="SourceAlpha" type="matrix" values="0 0 0 0 0 0 0 0 0 0 0 0 0 0 0 0 0 0 127 0" result="hardAlpha"/>
<feOffset dy="0.233881"/>
<feComposite in2="hardAlpha" operator="out"/>
<feColorMatrix type="matrix" values="0 0 0 0 0 0 0 0 0 0 0 0 0 0 0 0 0 0 1 0"/>
<feBlend mode="normal" in2="BackgroundImageFix" result="effect1_dropShadow_792_4659"/>
<feBlend mode="normal" in="SourceGraphic" in2="effect1_dropShadow_792_4659" result="shape"/>
</filter>
<filter id="filter2_i_792_4659" x="40.4492" y="17.9453" width="43.8867" height="53.2168" filterUnits="userSpaceOnUse" color-interpolation-filters="sRGB">
<feFlood flood-opacity="0" result="BackgroundImageFix"/>
<feBlend mode="normal" in="SourceGraphic" in2="BackgroundImageFix" result="shape"/>
<feColorMatrix in="SourceAlpha" type="matrix" values="0 0 0 0 0 0 0 0 0 0 0 0 0 0 0 0 0 0 127 0" result="hardAlpha"/>
<feOffset dx="-1.67189" dy="3.34379"/>
<feComposite in2="hardAlpha" operator="arithmetic" k2="-1" k3="1"/>
<feColorMatrix type="matrix" values="0 0 0 0 0 0 0 0 0 0 0 0 0 0 0 0 0 0 1 0"/>
<feBlend mode="normal" in2="shape" result="effect1_innerShadow_792_4659"/>
</filter>
<filter id="filter3_di_792_4659" x="70.2832" y="77.4434" width="24.8301" height="28.2535" filterUnits="userSpaceOnUse" color-interpolation-filters="sRGB">
<feFlood flood-opacity="0" result="BackgroundImageFix"/>
<feColorMatrix in="SourceAlpha" type="matrix" values="0 0 0 0 0 0 0 0 0 0 0 0 0 0 0 0 0 0 127 0" result="hardAlpha"/>
<feOffset dy="0.962442"/>
<feComposite in2="hardAlpha" operator="out"/>
<feColorMatrix type="matrix" values="0 0 0 0 0 0 0 0 0 0 0 0 0 0 0 0 0 0 1 0"/>
<feBlend mode="normal" in2="BackgroundImageFix" result="effect1_dropShadow_792_4659"/>
<feBlend mode="normal" in="SourceGraphic" in2="effect1_dropShadow_792_4659" result="shape"/>
<feColorMatrix in="SourceAlpha" type="matrix" values="0 0 0 0 0 0 0 0 0 0 0 0 0 0 0 0 0 0 127 0" result="hardAlpha"/>
<feOffset dx="1.10798" dy="1.10798"/>
<feComposite in2="hardAlpha" operator="arithmetic" k2="-1" k3="1"/>
<feColorMatrix type="matrix" values="0 0 0 0 1 0 0 0 0 0.984314 0 0 0 0 0.933333 0 0 0 1 0"/>
<feBlend mode="normal" in2="shape" result="effect2_innerShadow_792_4659"/>
</filter>
<filter id="filter4_d_792_4659" x="42.8398" y="92.2227" width="61.8379" height="35.2901" filterUnits="userSpaceOnUse" color-interpolation-filters="sRGB">
<feFlood flood-opacity="0" result="BackgroundImageFix"/>
<feColorMatrix in="SourceAlpha" type="matrix" values="0 0 0 0 0 0 0 0 0 0 0 0 0 0 0 0 0 0 127 0" result="hardAlpha"/>
<feOffset dy="1.04795"/>
<feComposite in2="hardAlpha" operator="out"/>
<feColorMatrix type="matrix" values="0 0 0 0 0 0 0 0 0 0 0 0 0 0 0 0 0 0 1 0"/>
<feBlend mode="normal" in2="BackgroundImageFix" result="effect1_dropShadow_792_4659"/>
<feBlend mode="normal" in="SourceGraphic" in2="effect1_dropShadow_792_4659" result="shape"/>
</filter>
<filter id="filter5_i_792_4659" x="47.5488" y="93.877" width="53.6758" height="27.0664" filterUnits="userSpaceOnUse" color-interpolation-filters="sRGB">
<feFlood flood-opacity="0" result="BackgroundImageFix"/>
<feBlend mode="normal" in="SourceGraphic" in2="BackgroundImageFix" result="shape"/>
<feColorMatrix in="SourceAlpha" type="matrix" values="0 0 0 0 0 0 0 0 0 0 0 0 0 0 0 0 0 0 127 0" result="hardAlpha"/>
<feOffset dy="1.67189"/>
<feComposite in2="hardAlpha" operator="arithmetic" k2="-1" k3="1"/>
<feColorMatrix type="matrix" values="0 0 0 0 0 0 0 0 0 0 0 0 0 0 0 0 0 0 0.5 0"/>
<feBlend mode="normal" in2="shape" result="effect1_innerShadow_792_4659"/>
</filter>
<filter id="filter6_d_792_4659" x="58.1367" y="94.3164" width="8.44727" height="6.10232" filterUnits="userSpaceOnUse" color-interpolation-filters="sRGB">
<feFlood flood-opacity="0" result="BackgroundImageFix"/>
<feColorMatrix in="SourceAlpha" type="matrix" values="0 0 0 0 0 0 0 0 0 0 0 0 0 0 0 0 0 0 127 0" result="hardAlpha"/>
<feOffset dy="0.252712"/>
<feComposite in2="hardAlpha" operator="out"/>
<feColorMatrix type="matrix" values="0 0 0 0 0 0 0 0 0 0 0 0 0 0 0 0 0 0 1 0"/>
<feBlend mode="normal" in2="BackgroundImageFix" result="effect1_dropShadow_792_4659"/>
<feBlend mode="normal" in="SourceGraphic" in2="effect1_dropShadow_792_4659" result="shape"/>
</filter>
<filter id="filter7_d_792_4659" x="63.6484" y="97.0312" width="8.44727" height="6.10427" filterUnits="userSpaceOnUse" color-interpolation-filters="sRGB">
<feFlood flood-opacity="0" result="BackgroundImageFix"/>
<feColorMatrix in="SourceAlpha" type="matrix" values="0 0 0 0 0 0 0 0 0 0 0 0 0 0 0 0 0 0 127 0" result="hardAlpha"/>
<feOffset dy="0.252712"/>
<feComposite in2="hardAlpha" operator="out"/>
<feColorMatrix type="matrix" values="0 0 0 0 0 0 0 0 0 0 0 0 0 0 0 0 0 0 1 0"/>
<feBlend mode="normal" in2="BackgroundImageFix" result="effect1_dropShadow_792_4659"/>
<feBlend mode="normal" in="SourceGraphic" in2="effect1_dropShadow_792_4659" result="shape"/>
</filter>
<filter id="filter8_d_792_4659" x="53.1992" y="96.875" width="8.44727" height="6.10232" filterUnits="userSpaceOnUse" color-interpolation-filters="sRGB">
<feFlood flood-opacity="0" result="BackgroundImageFix"/>
<feColorMatrix in="SourceAlpha" type="matrix" values="0 0 0 0 0 0 0 0 0 0 0 0 0 0 0 0 0 0 127 0" result="hardAlpha"/>
<feOffset dy="0.252712"/>
<feComposite in2="hardAlpha" operator="out"/>
<feColorMatrix type="matrix" values="0 0 0 0 0 0 0 0 0 0 0 0 0 0 0 0 0 0 1 0"/>
<feBlend mode="normal" in2="BackgroundImageFix" result="effect1_dropShadow_792_4659"/>
<feBlend mode="normal" in="SourceGraphic" in2="effect1_dropShadow_792_4659" result="shape"/>
</filter>
<filter id="filter9_d_792_4659" x="59.0508" y="99.8008" width="8.44727" height="6.10427" filterUnits="userSpaceOnUse" color-interpolation-filters="sRGB">
<feFlood flood-opacity="0" result="BackgroundImageFix"/>
<feColorMatrix in="SourceAlpha" type="matrix" values="0 0 0 0 0 0 0 0 0 0 0 0 0 0 0 0 0 0 127 0" result="hardAlpha"/>
<feOffset dy="0.252712"/>
<feComposite in2="hardAlpha" operator="out"/>
<feColorMatrix type="matrix" values="0 0 0 0 0 0 0 0 0 0 0 0 0 0 0 0 0 0 1 0"/>
<feBlend mode="normal" in2="BackgroundImageFix" result="effect1_dropShadow_792_4659"/>
<feBlend mode="normal" in="SourceGraphic" in2="effect1_dropShadow_792_4659" result="shape"/>
</filter>
<filter id="filter10_d_792_4659" x="69.502" y="99.75" width="8.44531" height="6.10232" filterUnits="userSpaceOnUse" color-interpolation-filters="sRGB">
<feFlood flood-opacity="0" result="BackgroundImageFix"/>
<feColorMatrix in="SourceAlpha" type="matrix" values="0 0 0 0 0 0 0 0 0 0 0 0 0 0 0 0 0 0 127 0" result="hardAlpha"/>
<feOffset dy="0.252712"/>
<feComposite in2="hardAlpha" operator="out"/>
<feColorMatrix type="matrix" values="0 0 0 0 0 0 0 0 0 0 0 0 0 0 0 0 0 0 1 0"/>
<feBlend mode="normal" in2="BackgroundImageFix" result="effect1_dropShadow_792_4659"/>
<feBlend mode="normal" in="SourceGraphic" in2="effect1_dropShadow_792_4659" result="shape"/>
</filter>
<filter id="filter11_d_792_4659" x="74.9336" y="102.674" width="8.44727" height="6.10623" filterUnits="userSpaceOnUse" color-interpolation-filters="sRGB">
<feFlood flood-opacity="0" result="BackgroundImageFix"/>
<feColorMatrix in="SourceAlpha" type="matrix" values="0 0 0 0 0 0 0 0 0 0 0 0 0 0 0 0 0 0 127 0" result="hardAlpha"/>
<feOffset dy="0.252712"/>
<feComposite in2="hardAlpha" operator="out"/>
<feColorMatrix type="matrix" values="0 0 0 0 0 0 0 0 0 0 0 0 0 0 0 0 0 0 1 0"/>
<feBlend mode="normal" in2="BackgroundImageFix" result="effect1_dropShadow_792_4659"/>
<feBlend mode="normal" in="SourceGraphic" in2="effect1_dropShadow_792_4659" result="shape"/>
</filter>
<filter id="filter12_d_792_4659" x="80.7852" y="105.393" width="10.1172" height="6.93631" filterUnits="userSpaceOnUse" color-interpolation-filters="sRGB">
<feFlood flood-opacity="0" result="BackgroundImageFix"/>
<feColorMatrix in="SourceAlpha" type="matrix" values="0 0 0 0 0 0 0 0 0 0 0 0 0 0 0 0 0 0 127 0" result="hardAlpha"/>
<feOffset dy="0.252712"/>
<feComposite in2="hardAlpha" operator="out"/>
<feColorMatrix type="matrix" values="0 0 0 0 0 0 0 0 0 0 0 0 0 0 0 0 0 0 1 0"/>
<feBlend mode="normal" in2="BackgroundImageFix" result="effect1_dropShadow_792_4659"/>
<feBlend mode="normal" in="SourceGraphic" in2="effect1_dropShadow_792_4659" result="shape"/>
</filter>
<filter id="filter13_d_792_4659" x="89.0195" y="109.27" width="8.69336" height="6.24514" filterUnits="userSpaceOnUse" color-interpolation-filters="sRGB">
<feFlood flood-opacity="0" result="BackgroundImageFix"/>
<feColorMatrix in="SourceAlpha" type="matrix" values="0 0 0 0 0 0 0 0 0 0 0 0 0 0 0 0 0 0 127 0" result="hardAlpha"/>
<feOffset dy="0.444357"/>
<feComposite in2="hardAlpha" operator="out"/>
<feColorMatrix type="matrix" values="0 0 0 0 0 0 0 0 0 0 0 0 0 0 0 0 0 0 1 0"/>
<feBlend mode="normal" in2="BackgroundImageFix" result="effect1_dropShadow_792_4659"/>
<feBlend mode="normal" in="SourceGraphic" in2="effect1_dropShadow_792_4659" result="shape"/>
</filter>
<filter id="filter14_d_792_4659" x="65.4102" y="102.705" width="7.42383" height="5.56326" filterUnits="userSpaceOnUse" color-interpolation-filters="sRGB">
<feFlood flood-opacity="0" result="BackgroundImageFix"/>
<feColorMatrix in="SourceAlpha" type="matrix" values="0 0 0 0 0 0 0 0 0 0 0 0 0 0 0 0 0 0 127 0" result="hardAlpha"/>
<feOffset dy="0.252712"/>
<feComposite in2="hardAlpha" operator="out"/>
<feColorMatrix type="matrix" values="0 0 0 0 0 0 0 0 0 0 0 0 0 0 0 0 0 0 1 0"/>
<feBlend mode="normal" in2="BackgroundImageFix" result="effect1_dropShadow_792_4659"/>
<feBlend mode="normal" in="SourceGraphic" in2="effect1_dropShadow_792_4659" result="shape"/>
</filter>
<filter id="filter15_d_792_4659" x="70.7559" y="105.811" width="8.44531" height="6.10232" filterUnits="userSpaceOnUse" color-interpolation-filters="sRGB">
<feFlood flood-opacity="0" result="BackgroundImageFix"/>
<feColorMatrix in="SourceAlpha" type="matrix" values="0 0 0 0 0 0 0 0 0 0 0 0 0 0 0 0 0 0 127 0" result="hardAlpha"/>
<feOffset dy="0.252712"/>
<feComposite in2="hardAlpha" operator="out"/>
<feColorMatrix type="matrix" values="0 0 0 0 0 0 0 0 0 0 0 0 0 0 0 0 0 0 1 0"/>
<feBlend mode="normal" in2="BackgroundImageFix" result="effect1_dropShadow_792_4659"/>
<feBlend mode="normal" in="SourceGraphic" in2="effect1_dropShadow_792_4659" result="shape"/>
</filter>
<filter id="filter16_d_792_4659" x="77.0234" y="108.736" width="8.44727" height="6.10232" filterUnits="userSpaceOnUse" color-interpolation-filters="sRGB">
<feFlood flood-opacity="0" result="BackgroundImageFix"/>
<feColorMatrix in="SourceAlpha" type="matrix" values="0 0 0 0 0 0 0 0 0 0 0 0 0 0 0 0 0 0 127 0" result="hardAlpha"/>
<feOffset dy="0.252712"/>
<feComposite in2="hardAlpha" operator="out"/>
<feColorMatrix type="matrix" values="0 0 0 0 0 0 0 0 0 0 0 0 0 0 0 0 0 0 1 0"/>
<feBlend mode="normal" in2="BackgroundImageFix" result="effect1_dropShadow_792_4659"/>
<feBlend mode="normal" in="SourceGraphic" in2="effect1_dropShadow_792_4659" result="shape"/>
</filter>
<filter id="filter17_d_792_4659" x="82.875" y="111.662" width="10.1172" height="6.93826" filterUnits="userSpaceOnUse" color-interpolation-filters="sRGB">
<feFlood flood-opacity="0" result="BackgroundImageFix"/>
<feColorMatrix in="SourceAlpha" type="matrix" values="0 0 0 0 0 0 0 0 0 0 0 0 0 0 0 0 0 0 127 0" result="hardAlpha"/>
<feOffset dy="0.252712"/>
<feComposite in2="hardAlpha" operator="out"/>
<feColorMatrix type="matrix" values="0 0 0 0 0 0 0 0 0 0 0 0 0 0 0 0 0 0 1 0"/>
<feBlend mode="normal" in2="BackgroundImageFix" result="effect1_dropShadow_792_4659"/>
<feBlend mode="normal" in="SourceGraphic" in2="effect1_dropShadow_792_4659" result="shape"/>
</filter>
<filter id="filter18_d_792_4659" x="49.4375" y="99.5215" width="7.2207" height="5.28006" filterUnits="userSpaceOnUse" color-interpolation-filters="sRGB">
<feFlood flood-opacity="0" result="BackgroundImageFix"/>
<feColorMatrix in="SourceAlpha" type="matrix" values="0 0 0 0 0 0 0 0 0 0 0 0 0 0 0 0 0 0 127 0" result="hardAlpha"/>
<feOffset dy="0.252712"/>
<feComposite in2="hardAlpha" operator="out"/>
<feColorMatrix type="matrix" values="0 0 0 0 0 0 0 0 0 0 0 0 0 0 0 0 0 0 1 0"/>
<feBlend mode="normal" in2="BackgroundImageFix" result="effect1_dropShadow_792_4659"/>
<feBlend mode="normal" in="SourceGraphic" in2="effect1_dropShadow_792_4659" result="shape"/>
</filter>
<filter id="filter19_d_792_4659" x="54.7695" y="102.363" width="16.7129" height="9.41482" filterUnits="userSpaceOnUse" color-interpolation-filters="sRGB">
<feFlood flood-opacity="0" result="BackgroundImageFix"/>
<feColorMatrix in="SourceAlpha" type="matrix" values="0 0 0 0 0 0 0 0 0 0 0 0 0 0 0 0 0 0 127 0" result="hardAlpha"/>
<feOffset dy="0.252712"/>
<feComposite in2="hardAlpha" operator="out"/>
<feColorMatrix type="matrix" values="0 0 0 0 0 0 0 0 0 0 0 0 0 0 0 0 0 0 1 0"/>
<feBlend mode="normal" in2="BackgroundImageFix" result="effect1_dropShadow_792_4659"/>
<feBlend mode="normal" in="SourceGraphic" in2="effect1_dropShadow_792_4659" result="shape"/>
</filter>
<filter id="filter20_d_792_4659" x="69.918" y="109.553" width="7.21875" height="5.28006" filterUnits="userSpaceOnUse" color-interpolation-filters="sRGB">
<feFlood flood-opacity="0" result="BackgroundImageFix"/>
<feColorMatrix in="SourceAlpha" type="matrix" values="0 0 0 0 0 0 0 0 0 0 0 0 0 0 0 0 0 0 127 0" result="hardAlpha"/>
<feOffset dy="0.252712"/>
<feComposite in2="hardAlpha" operator="out"/>
<feColorMatrix type="matrix" values="0 0 0 0 0 0 0 0 0 0 0 0 0 0 0 0 0 0 1 0"/>
<feBlend mode="normal" in2="BackgroundImageFix" result="effect1_dropShadow_792_4659"/>
<feBlend mode="normal" in="SourceGraphic" in2="effect1_dropShadow_792_4659" result="shape"/>
</filter>
<filter id="filter21_d_792_4659" x="75.7695" y="112.268" width="7.21875" height="5.28396" filterUnits="userSpaceOnUse" color-interpolation-filters="sRGB">
<feFlood flood-opacity="0" result="BackgroundImageFix"/>
<feColorMatrix in="SourceAlpha" type="matrix" values="0 0 0 0 0 0 0 0 0 0 0 0 0 0 0 0 0 0 127 0" result="hardAlpha"/>
<feOffset dy="0.252712"/>
<feComposite in2="hardAlpha" operator="out"/>
<feColorMatrix type="matrix" values="0 0 0 0 0 0 0 0 0 0 0 0 0 0 0 0 0 0 1 0"/>
<feBlend mode="normal" in2="BackgroundImageFix" result="effect1_dropShadow_792_4659"/>
<feBlend mode="normal" in="SourceGraphic" in2="effect1_dropShadow_792_4659" result="shape"/>
</filter>
<filter id="filter22_d_792_4659" x="81.623" y="115.195" width="7.21875" height="5.28006" filterUnits="userSpaceOnUse" color-interpolation-filters="sRGB">
<feFlood flood-opacity="0" result="BackgroundImageFix"/>
<feColorMatrix in="SourceAlpha" type="matrix" values="0 0 0 0 0 0 0 0 0 0 0 0 0 0 0 0 0 0 127 0" result="hardAlpha"/>
<feOffset dy="0.252712"/>
<feComposite in2="hardAlpha" operator="out"/>
<feColorMatrix type="matrix" values="0 0 0 0 0 0 0 0 0 0 0 0 0 0 0 0 0 0 1 0"/>
<feBlend mode="normal" in2="BackgroundImageFix" result="effect1_dropShadow_792_4659"/>
<feBlend mode="normal" in="SourceGraphic" in2="effect1_dropShadow_792_4659" result="shape"/>
</filter>
</defs>
</svg>
