<svg width="136" height="136" viewBox="0 0 136 136" fill="none" xmlns="http://www.w3.org/2000/svg">
<g clip-path="url(#clip0_792_4611)">
<g filter="url(#filter0_di_792_4611)">
<ellipse cx="60.4442" cy="110.322" rx="28.4442" ry="15.6779" fill="#4D21FF"/>
<path d="M60.4443 94.8213C68.2748 94.8213 75.3551 96.5715 80.4717 99.3916C85.5945 102.215 88.7118 106.087 88.7119 110.322C88.7119 114.557 85.5945 118.43 80.4717 121.254C75.3552 124.074 68.2747 125.823 60.4443 125.823C52.614 125.823 45.5335 124.074 40.417 121.254C35.2941 118.43 32.1768 114.557 32.1768 110.322C32.1769 106.087 35.2942 102.215 40.417 99.3916C45.5335 96.5715 52.6139 94.8213 60.4443 94.8213Z" stroke="black" stroke-width="0.353915"/>
</g>
<g filter="url(#filter1_di_792_4611)">
<ellipse cx="60.1446" cy="106.79" rx="22.7315" ry="12.7238" fill="#4D21FF"/>
<path d="M60.1445 94.2432C66.3971 94.2432 72.0493 95.6621 76.1318 97.9473C80.2201 100.236 82.6992 103.369 82.6992 106.79C82.6992 110.211 80.2201 113.344 76.1318 115.633C72.0493 117.918 66.3971 119.337 60.1445 119.337C53.8919 119.337 48.2398 117.918 44.1572 115.633C40.069 113.344 37.5898 110.211 37.5898 106.79C37.5899 103.369 40.069 100.236 44.1572 97.9473C48.2398 95.6621 53.8919 94.2432 60.1445 94.2432Z" stroke="black" stroke-width="0.354258"/>
</g>
<circle cx="48.8491" cy="77.0966" r="1.52961" transform="rotate(3.68671 48.8491 77.0966)" fill="#FFFBEE" fill-opacity="0.5" stroke="#FFFBEE" stroke-width="0.167602"/>
<circle cx="52.6587" cy="71.8559" r="0.812081" transform="rotate(3.68671 52.6587 71.8559)" fill="#FFFBEE" fill-opacity="0.5" stroke="#FFFBEE" stroke-width="0.167602"/>
<path d="M76.031 88.088L76.0352 89.7444C76.0352 89.7444 76.2876 99.1453 62.3089 102.484C53.8524 104.503 48.6878 103.779 45.8349 102.809C43.8433 102.131 43.0675 100.034 43.3495 97.949C44.3551 90.5137 48.435 83.8417 54.5952 79.5585L56.7655 78.0495C64.8859 72.4035 76.006 78.1978 76.031 88.088Z" fill="#FF01C4" stroke="black" stroke-width="1.6487"/>
<path d="M44.7311 101.715C47.2336 93.9333 55.9252 78.3077 70.6713 78.0598" stroke="black" stroke-width="1.10159"/>
<path d="M61.4229 80.7871L62.2201 81.2513C63.9004 82.2295 64.6359 84.2728 63.9645 86.0975C63.7568 86.8754 64.6024 87.5099 65.2912 87.0931L66.7254 86.2251C67.2399 85.9138 67.5312 85.3357 67.4753 84.737L67.2943 82.797C67.2703 82.539 67.3856 82.2878 67.5969 82.1379C68.1436 81.7502 67.917 80.8919 67.2501 80.8246L67.0647 80.8058C66.9138 80.7906 66.7703 80.7325 66.6513 80.6384L64.6734 79.0742" stroke="black" stroke-width="0.716065"/>
<path d="M67.9376 78.4941L69.0578 79.6124C70.0756 80.6285 70.6559 82.0021 70.6749 83.4401L70.6798 83.8156C70.6867 84.3351 70.585 84.8503 70.3813 85.3282L70.1283 85.922C69.7194 86.8814 69.8978 87.9903 70.5868 88.7731C71.5478 89.8647 71.4749 91.5205 70.4218 92.5235L68.1031 94.7317C67.8721 94.9517 67.6159 95.1436 67.3398 95.3033L64.0874 97.1846C63.23 97.6806 63.1292 98.879 63.8915 99.5113C64.0569 99.6484 64.2513 99.7464 64.4599 99.7977L64.8971 99.9052C66.4193 100.28 67.9994 99.5598 68.7158 98.1655L68.9258 97.7569C69.0991 97.4196 69.3198 97.109 69.5813 96.8344L72.0861 94.2041L73.7309 92.6776C74.7065 91.7721 74.7344 90.2374 73.7925 89.297C73.1866 88.6921 72.9582 87.8052 73.1967 86.9829L73.6432 85.443C73.9719 84.3097 73.8938 83.0972 73.4226 82.0153L73.2727 81.6713C72.8993 80.8142 72.3339 80.0545 71.62 79.4509L70.1381 78.1979" stroke="black" stroke-width="0.716065"/>
<path d="M51.7139 89.33L53.078 89.5176C54.1164 89.6603 54.9658 88.7008 54.6982 87.6875L54.2763 86.0898" stroke="black" stroke-width="0.716065"/>
<path d="M58.172 82.498L61.4949 83.305C62.7262 83.6041 62.8433 85.3095 61.6643 85.7739C61.3013 85.9169 61.0219 86.2157 60.9034 86.5874L60.3313 88.3824C60.13 89.0138 60.3203 89.7045 60.8165 90.1438C61.2355 90.5147 61.8121 90.6517 62.3531 90.5088L64.6063 89.9138C64.8328 89.854 65.0471 89.7551 65.2395 89.6215L65.9858 89.1032C66.7687 88.5596 67.8537 88.9592 68.097 89.8807C68.2223 90.3552 68.0848 90.8606 67.7364 91.2063L64.3539 94.5621C63.1583 95.7484 61.4347 96.2327 59.7962 95.8427L56.9063 95.155C55.3712 94.7896 53.8909 95.935 53.8591 97.5127C53.8282 99.0499 55.1917 100.243 56.7112 100.008L57.9728 99.8133C58.6432 99.7097 59.3293 99.8006 59.9497 100.075L60.9656 100.525C61.7615 100.877 62.3541 101.572 62.5764 102.413" stroke="black" stroke-width="0.716065"/>
<path d="M57.729 96.9391L56.6285 97.0255C56.1757 97.061 55.8655 97.498 55.9815 97.9373C56.059 98.2307 56.3104 98.4453 56.6124 98.4758L57.7106 98.5866C58.1317 98.6291 58.517 98.3468 58.6034 97.9325C58.7159 97.3927 58.2787 96.896 57.729 96.9391Z" stroke="black" stroke-width="0.716065"/>
<path d="M55.398 84.9395L56.6289 85.9802C57.4659 86.6879 57.9031 87.7607 57.7994 88.8518L57.7345 89.5341C57.5771 91.1892 55.9968 92.326 54.3775 91.9491C53.1448 91.6621 51.8756 92.2546 51.3041 93.3839L51.2689 93.4536C50.9541 94.0756 50.8786 94.7914 51.0565 95.4653L51.691 97.8681C52.1079 99.4467 52.9295 100.889 54.0747 102.053L55.4417 103.442" stroke="black" stroke-width="0.716065"/>
<path d="M47.3183 95.334L49.0408 98.8497C49.128 99.0276 49.1973 99.2135 49.2479 99.405L49.5937 100.715C49.8267 101.597 49.3003 102.501 48.418 102.734" stroke="black" stroke-width="0.716065"/>
<path d="M61.5478 80.1842L60.6034 79.7817C59.4375 79.2848 58.0851 79.5745 57.225 80.5053C56.5929 81.1895 55.6787 81.5411 54.7511 81.4568L54.4737 81.4316C53.5375 81.3465 52.6056 81.6348 51.8809 82.2336L50.44 83.4242C50.155 83.6597 50.033 84.0394 50.1274 84.3969C50.3111 85.0925 51.1724 85.3379 51.6951 84.8435L52.2573 84.3119C52.6663 83.9251 53.3256 84.0024 53.6341 84.4733C53.8499 84.8028 53.8275 85.2341 53.5787 85.5394L52.3976 86.9885C51.9305 87.5616 51.1707 87.8075 50.4564 87.6168C49.8495 87.4547 49.2017 87.6066 48.7302 88.0217L48.1979 88.4903C47.2869 89.2922 46.9073 90.5399 47.2171 91.7132L47.274 91.9289L47.4844 92.7257C47.5771 93.0764 47.5802 93.4448 47.4935 93.7971L47.0855 95.4562C46.9436 96.0331 46.287 96.3116 45.7736 96.0127C45.5697 95.894 45.4212 95.6991 45.361 95.4709L44.8223 93.4308L44.4707 92.0995" stroke="black" stroke-width="0.716065"/>
<path d="M63.607 79.3534L61.0165 77.6339C60.9027 77.5584 60.8055 77.4606 60.7307 77.3464C60.3332 76.7397 60.6873 75.9244 61.402 75.8007L62.6508 75.5845C64.122 75.3298 65.2683 76.8405 64.6268 78.1888L64.1396 79.2128" stroke="black" stroke-width="0.716065"/>
<g filter="url(#filter2_ii_792_4611)">
<path d="M37.7498 52.4082H82.7106V107.906C82.7106 107.906 79.8586 119.23 60.3141 119.23C40.7696 119.23 37.582 107.906 37.582 107.906L37.7498 52.4082Z" fill="#CCFF6F" fill-opacity="0.2"/>
</g>
<circle cx="70.5767" cy="94.2524" r="0.812081" transform="rotate(3.68671 70.5767 94.2524)" fill="#FFFBEE" fill-opacity="0.5" stroke="#FFFBEE" stroke-width="0.167602"/>
<circle cx="70.5767" cy="71.8559" r="0.812081" transform="rotate(3.68671 70.5767 71.8559)" fill="#FFFBEE" fill-opacity="0.5" stroke="#FFFBEE" stroke-width="0.167602"/>
<circle cx="74.6079" cy="98.7329" r="0.812081" transform="rotate(3.68671 74.6079 98.7329)" fill="#FFFBEE" fill-opacity="0.5" stroke="#FFFBEE" stroke-width="0.167602"/>
<circle cx="65.6489" cy="107.69" r="0.812081" transform="rotate(3.68671 65.6489 107.69)" fill="#FFFBEE" fill-opacity="0.5" stroke="#FFFBEE" stroke-width="0.167602"/>
<circle cx="61.5876" cy="110.855" r="1.26002" transform="rotate(3.68671 61.5876 110.855)" fill="#FFFBEE" fill-opacity="0.5" stroke="#FFFBEE" stroke-width="0.167602"/>
<circle cx="43.6697" cy="106.375" r="1.26002" transform="rotate(3.68671 43.6697 106.375)" fill="#FFFBEE" fill-opacity="0.5" stroke="#FFFBEE" stroke-width="0.167602"/>
<circle cx="47.3127" cy="105.423" r="0.36414" transform="rotate(3.68671 47.3127 105.423)" fill="#FFFBEE" fill-opacity="0.5" stroke="#FFFBEE" stroke-width="0.167602"/>
<g filter="url(#filter3_di_792_4611)">
<ellipse cx="60.1446" cy="51.3761" rx="22.7315" ry="12.7238" fill="#4D21FF"/>
<path d="M60.1445 38.8984C66.3875 38.8984 72.0272 40.3154 76.0977 42.5938C80.1761 44.8766 82.6298 47.9913 82.6299 51.376C82.6299 54.7607 80.1761 57.8753 76.0977 60.1582C72.0272 62.4366 66.3875 63.8545 60.1445 63.8545C53.9015 63.8545 48.2619 62.4366 44.1914 60.1582C40.113 57.8753 37.6592 54.7607 37.6592 51.376C37.6592 47.9913 40.113 44.8766 44.1914 42.5938C48.2619 40.3154 53.9015 38.8984 60.1445 38.8984Z" stroke="black" stroke-width="0.491615"/>
</g>
<ellipse cx="60.2315" cy="51.3332" rx="11.4102" ry="6.31951" fill="#3719B4"/>
<path d="M44.4157 51.5282C43.65 51.5282 43.0141 52.1579 43.2029 52.9C43.4726 53.96 44.0539 54.991 44.9283 55.95C46.0869 57.2208 47.7295 58.3316 49.7371 59.2048C50.0276 59.3311 50.363 59.2834 50.6133 59.0893C51.1546 58.6693 51.0386 57.8144 50.4314 57.4969C49.1974 56.8518 48.1693 56.0895 47.3972 55.2426C46.7216 54.5015 46.2543 53.7094 46.0074 52.8942C45.7855 52.1613 45.1813 51.5282 44.4157 51.5282Z" fill="#FFFBEE"/>
<g filter="url(#filter4_d_792_4611)">
<path d="M60.627 46.4873C63.3962 46.3489 64.6847 47.0039 65.3008 47.8242C65.9296 48.6618 65.917 49.7373 65.917 50.6045C65.9168 51.3404 65.3807 52.0525 64.4131 52.5928C63.4524 53.1292 62.1095 53.4678 60.6152 53.4678C59.1211 53.4677 57.779 53.1291 56.8184 52.5928C55.8506 52.0524 55.3136 51.3405 55.3135 50.6045C55.3135 49.7431 55.321 48.8085 55.9541 48.041C56.5852 47.2761 57.888 46.6243 60.627 46.4873Z" fill="#4D21FF" stroke="black" stroke-width="0.438093"/>
<g filter="url(#filter5_i_792_4611)">
<ellipse cx="60.6156" cy="48.3403" rx="5.52084" ry="3.08247" fill="#FF01C4"/>
</g>
<path d="M60.6152 45.4766C62.1095 45.4766 63.4524 45.8152 64.4131 46.3516C65.3807 46.8919 65.9168 47.604 65.917 48.3398C65.917 49.0759 65.3809 49.7887 64.4131 50.3291C63.4524 50.8655 62.1095 51.2041 60.6152 51.2041C59.1211 51.2041 57.779 50.8654 56.8184 50.3291C55.8505 49.7887 55.3135 49.0759 55.3135 48.3398C55.3137 47.6039 55.8506 46.8919 56.8184 46.3516C57.779 45.8152 59.1211 45.4766 60.6152 45.4766Z" stroke="black" stroke-width="0.438093"/>
</g>
<g filter="url(#filter6_di_792_4611)">
<path d="M64.2741 35.403V44.2521C64.2741 46.1809 62.7104 47.7446 60.7816 47.7446C58.8527 47.7446 57.2891 46.1809 57.2891 44.2521V37.8482C57.2891 27.9069 64.0446 19.2371 73.6843 16.8071C87.39 13.3521 100.688 23.7137 100.688 37.8482V92.182C100.688 101.484 110.458 107.549 118.794 103.422C127.683 99.0209 138.131 99.0858 146.964 103.597L152.661 106.506C156.386 108.408 160.82 108.3 164.449 106.22L177.361 98.8156C178.544 98.1372 180.03 98.306 181.031 99.2324C182.626 100.708 182.261 103.322 180.323 104.304L165.244 111.947C161.08 114.058 156.167 114.092 151.974 112.04L144.576 108.42C137.201 104.811 128.595 104.706 121.135 108.133L120.528 108.412C109.041 113.69 95.9183 105.423 95.7184 92.7833L94.8669 38.9242C94.6845 27.386 82.9156 19.6284 72.1762 23.8505C67.4341 25.7148 64.2741 30.3076 64.2741 35.403Z" fill="#D1FF7D" fill-opacity="0.8" shape-rendering="crispEdges"/>
<path d="M64.2741 35.403V44.2521C64.2741 46.1809 62.7104 47.7446 60.7816 47.7446C58.8527 47.7446 57.2891 46.1809 57.2891 44.2521V37.8482C57.2891 27.9069 64.0446 19.2371 73.6843 16.8071C87.39 13.3521 100.688 23.7137 100.688 37.8482V92.182C100.688 101.484 110.458 107.549 118.794 103.422C127.683 99.0209 138.131 99.0858 146.964 103.597L152.661 106.506C156.386 108.408 160.82 108.3 164.449 106.22L177.361 98.8156C178.544 98.1372 180.03 98.306 181.031 99.2324C182.626 100.708 182.261 103.322 180.323 104.304L165.244 111.947C161.08 114.058 156.167 114.092 151.974 112.04L144.576 108.42C137.201 104.811 128.595 104.706 121.135 108.133L120.528 108.412C109.041 113.69 95.9183 105.423 95.7184 92.7833L94.8669 38.9242C94.6845 27.386 82.9156 19.6284 72.1762 23.8505C67.4341 25.7148 64.2741 30.3076 64.2741 35.403Z" stroke="black" stroke-width="0.537163" shape-rendering="crispEdges"/>
</g>
</g>
<defs>
<filter id="filter0_di_792_4611" x="32" y="94.6445" width="56.8887" height="35.3779" filterUnits="userSpaceOnUse" color-interpolation-filters="sRGB">
<feFlood flood-opacity="0" result="BackgroundImageFix"/>
<feColorMatrix in="SourceAlpha" type="matrix" values="0 0 0 0 0 0 0 0 0 0 0 0 0 0 0 0 0 0 127 0" result="hardAlpha"/>
<feOffset dy="4.02245"/>
<feComposite in2="hardAlpha" operator="out"/>
<feColorMatrix type="matrix" values="0 0 0 0 0 0 0 0 0 0 0 0 0 0 0 0 0 0 1 0"/>
<feBlend mode="normal" in2="BackgroundImageFix" result="effect1_dropShadow_792_4611"/>
<feBlend mode="normal" in="SourceGraphic" in2="effect1_dropShadow_792_4611" result="shape"/>
<feColorMatrix in="SourceAlpha" type="matrix" values="0 0 0 0 0 0 0 0 0 0 0 0 0 0 0 0 0 0 127 0" result="hardAlpha"/>
<feOffset dx="-0.471887" dy="0.943775"/>
<feComposite in2="hardAlpha" operator="arithmetic" k2="-1" k3="1"/>
<feColorMatrix type="matrix" values="0 0 0 0 1 0 0 0 0 0.984314 0 0 0 0 0.933333 0 0 0 1 0"/>
<feBlend mode="normal" in2="shape" result="effect2_innerShadow_792_4611"/>
</filter>
<filter id="filter1_di_792_4611" x="37.4131" y="94.0664" width="45.4639" height="26.7894" filterUnits="userSpaceOnUse" color-interpolation-filters="sRGB">
<feFlood flood-opacity="0" result="BackgroundImageFix"/>
<feColorMatrix in="SourceAlpha" type="matrix" values="0 0 0 0 0 0 0 0 0 0 0 0 0 0 0 0 0 0 127 0" result="hardAlpha"/>
<feOffset dy="1.34211"/>
<feComposite in2="hardAlpha" operator="out"/>
<feColorMatrix type="matrix" values="0 0 0 0 0 0 0 0 0 0 0 0 0 0 0 0 0 0 1 0"/>
<feBlend mode="normal" in2="BackgroundImageFix" result="effect1_dropShadow_792_4611"/>
<feBlend mode="normal" in="SourceGraphic" in2="effect1_dropShadow_792_4611" result="shape"/>
<feColorMatrix in="SourceAlpha" type="matrix" values="0 0 0 0 0 0 0 0 0 0 0 0 0 0 0 0 0 0 127 0" result="hardAlpha"/>
<feOffset dx="-0.472343" dy="0.944687"/>
<feComposite in2="hardAlpha" operator="arithmetic" k2="-1" k3="1"/>
<feColorMatrix type="matrix" values="0 0 0 0 1 0 0 0 0 0.984314 0 0 0 0 0.933333 0 0 0 1 0"/>
<feBlend mode="normal" in2="shape" result="effect2_innerShadow_792_4611"/>
</filter>
<filter id="filter2_ii_792_4611" x="37.582" y="52.4082" width="45.1289" height="66.8223" filterUnits="userSpaceOnUse" color-interpolation-filters="sRGB">
<feFlood flood-opacity="0" result="BackgroundImageFix"/>
<feBlend mode="normal" in="SourceGraphic" in2="BackgroundImageFix" result="shape"/>
<feColorMatrix in="SourceAlpha" type="matrix" values="0 0 0 0 0 0 0 0 0 0 0 0 0 0 0 0 0 0 127 0" result="hardAlpha"/>
<feOffset dx="2.68423" dy="1.34211"/>
<feComposite in2="hardAlpha" operator="arithmetic" k2="-1" k3="1"/>
<feColorMatrix type="matrix" values="0 0 0 0 1 0 0 0 0 0.984314 0 0 0 0 0.933333 0 0 0 0.6 0"/>
<feBlend mode="normal" in2="shape" result="effect1_innerShadow_792_4611"/>
<feColorMatrix in="SourceAlpha" type="matrix" values="0 0 0 0 0 0 0 0 0 0 0 0 0 0 0 0 0 0 127 0" result="hardAlpha"/>
<feOffset dx="-2.68423" dy="0.671057"/>
<feComposite in2="hardAlpha" operator="arithmetic" k2="-1" k3="1"/>
<feColorMatrix type="matrix" values="0 0 0 0 1 0 0 0 0 0.984314 0 0 0 0 0.933333 0 0 0 0.8 0"/>
<feBlend mode="normal" in2="effect1_innerShadow_792_4611" result="effect2_innerShadow_792_4611"/>
</filter>
<filter id="filter3_di_792_4611" x="37.4131" y="38.6523" width="45.4639" height="29.4736" filterUnits="userSpaceOnUse" color-interpolation-filters="sRGB">
<feFlood flood-opacity="0" result="BackgroundImageFix"/>
<feColorMatrix in="SourceAlpha" type="matrix" values="0 0 0 0 0 0 0 0 0 0 0 0 0 0 0 0 0 0 127 0" result="hardAlpha"/>
<feOffset dy="4.02634"/>
<feComposite in2="hardAlpha" operator="out"/>
<feColorMatrix type="matrix" values="0 0 0 0 0 0 0 0 0 0 0 0 0 0 0 0 0 0 1 0"/>
<feBlend mode="normal" in2="BackgroundImageFix" result="effect1_dropShadow_792_4611"/>
<feBlend mode="normal" in="SourceGraphic" in2="effect1_dropShadow_792_4611" result="shape"/>
<feColorMatrix in="SourceAlpha" type="matrix" values="0 0 0 0 0 0 0 0 0 0 0 0 0 0 0 0 0 0 127 0" result="hardAlpha"/>
<feOffset dx="-0.472343" dy="0.944687"/>
<feComposite in2="hardAlpha" operator="arithmetic" k2="-1" k3="1"/>
<feColorMatrix type="matrix" values="0 0 0 0 1 0 0 0 0 0.984314 0 0 0 0 0.933333 0 0 0 1 0"/>
<feBlend mode="normal" in2="shape" result="effect2_innerShadow_792_4611"/>
</filter>
<filter id="filter4_d_792_4611" x="55.0947" y="45.2578" width="11.042" height="8.90817" filterUnits="userSpaceOnUse" color-interpolation-filters="sRGB">
<feFlood flood-opacity="0" result="BackgroundImageFix"/>
<feColorMatrix in="SourceAlpha" type="matrix" values="0 0 0 0 0 0 0 0 0 0 0 0 0 0 0 0 0 0 127 0" result="hardAlpha"/>
<feOffset dy="0.47848"/>
<feComposite in2="hardAlpha" operator="out"/>
<feColorMatrix type="matrix" values="0 0 0 0 0 0 0 0 0 0 0 0 0 0 0 0 0 0 1 0"/>
<feBlend mode="normal" in2="BackgroundImageFix" result="effect1_dropShadow_792_4611"/>
<feBlend mode="normal" in="SourceGraphic" in2="effect1_dropShadow_792_4611" result="shape"/>
</filter>
<filter id="filter5_i_792_4611" x="55.0947" y="45.2578" width="11.042" height="6.16406" filterUnits="userSpaceOnUse" color-interpolation-filters="sRGB">
<feFlood flood-opacity="0" result="BackgroundImageFix"/>
<feBlend mode="normal" in="SourceGraphic" in2="BackgroundImageFix" result="shape"/>
<feColorMatrix in="SourceAlpha" type="matrix" values="0 0 0 0 0 0 0 0 0 0 0 0 0 0 0 0 0 0 127 0" result="hardAlpha"/>
<feOffset dx="-0.876186" dy="0.876186"/>
<feComposite in2="hardAlpha" operator="arithmetic" k2="-1" k3="1"/>
<feColorMatrix type="matrix" values="0 0 0 0 1 0 0 0 0 0.984314 0 0 0 0 0.933333 0 0 0 1 0"/>
<feBlend mode="normal" in2="shape" result="effect1_innerShadow_792_4611"/>
</filter>
<filter id="filter6_di_792_4611" x="57.0205" y="15.8691" width="125.28" height="99.0294" filterUnits="userSpaceOnUse" color-interpolation-filters="sRGB">
<feFlood flood-opacity="0" result="BackgroundImageFix"/>
<feColorMatrix in="SourceAlpha" type="matrix" values="0 0 0 0 0 0 0 0 0 0 0 0 0 0 0 0 0 0 127 0" result="hardAlpha"/>
<feOffset dy="1.07433"/>
<feComposite in2="hardAlpha" operator="out"/>
<feColorMatrix type="matrix" values="0 0 0 0 0 0 0 0 0 0 0 0 0 0 0 0 0 0 1 0"/>
<feBlend mode="normal" in2="BackgroundImageFix" result="effect1_dropShadow_792_4611"/>
<feBlend mode="normal" in="SourceGraphic" in2="effect1_dropShadow_792_4611" result="shape"/>
<feColorMatrix in="SourceAlpha" type="matrix" values="0 0 0 0 0 0 0 0 0 0 0 0 0 0 0 0 0 0 127 0" result="hardAlpha"/>
<feOffset dx="1.23679" dy="1.23679"/>
<feComposite in2="hardAlpha" operator="arithmetic" k2="-1" k3="1"/>
<feColorMatrix type="matrix" values="0 0 0 0 1 0 0 0 0 0.984314 0 0 0 0 0.933333 0 0 0 1 0"/>
<feBlend mode="normal" in2="shape" result="effect2_innerShadow_792_4611"/>
</filter>
<clipPath id="clip0_792_4611">
<rect width="136" height="136" fill="white"/>
</clipPath>
</defs>
</svg>
