<svg width="469" height="469" viewBox="0 0 469 469" fill="none" xmlns="http://www.w3.org/2000/svg">
<path d="M468.37 234.186C468.37 308.459 433.796 374.655 379.861 417.556C339.877 449.371 289.26 468.37 234.186 468.37C179.112 468.37 128.496 449.371 88.5096 417.556C34.5767 374.655 0 308.459 0 234.186C0 104.851 104.853 0 234.186 0C363.519 0 468.37 104.851 468.37 234.186Z" fill="#F0EFFF"/>
<path d="M234.183 308.838C284.449 308.838 325.198 268.09 325.198 217.824C325.198 167.557 284.449 126.809 234.183 126.809C183.917 126.809 143.168 167.557 143.168 217.824C143.168 268.09 183.917 308.838 234.183 308.838Z" fill="#6C5FFC"/>
<path d="M379.859 417.555C339.875 449.369 289.258 468.369 234.184 468.369C179.111 468.369 128.494 449.369 88.5078 417.555C117.788 374.54 172.069 345.652 234.184 345.652C296.3 345.652 350.585 374.534 379.859 417.555Z" fill="#6C5FFC"/>
</svg>
